<?xml version="1.0" encoding="UTF-8"?>
<svg width="367px" height="367px" viewBox="0 0 367 367" version="1.1" xmlns="http://www.w3.org/2000/svg" xmlns:xlink="http://www.w3.org/1999/xlink">
    <title>1 Logo/Jellyfish 2</title>
    <defs>
        <path d="M146.860742,102.12846 C126.65051,102.12846 107.348368,93.8064352 88.9543167,77.1623855 C70.560265,60.5183359 51.8025083,57.3425362 32.6810467,67.6349864" id="path-1"></path>
        <path d="M146.860742,40.3925993 C126.65051,40.3925993 107.348368,32.0705745 88.9543167,15.4265248 C70.560265,-1.21752487 51.8025083,-4.39332458 32.6810467,5.89912568" id="path-2"></path>
    </defs>
    <g id="Logo" stroke="none" stroke-width="1" fill="none" fill-rule="evenodd">
        <g id="1-Logo/Jellyfish-2" transform="translate(0.000000, 0.000000)">
            <circle id="Background" fill="#5445C4" cx="183.501359" cy="183.501359" r="183.501359"></circle>
            <g id="JellyFish" transform="translate(75.000278, 118.000437)">
                <g id="Head" transform="translate(141.265820, 0.000000)">
                    <path d="M32.5605256,131.000485 C65.2417091,131.000485 91.735043,101.675028 91.735043,65.5002425 C91.735043,29.3254575 65.2417091,0 32.5605256,0 C-0.120658032,0 1.00467524,26.801552 1.00467524,65.5002425 C1.00467524,104.198933 -0.120658032,131.000485 32.5605256,131.000485 Z" id="Oval" fill="#FFFFFF"></path>
                    <path d="M6.77407695,112.931453 C13.7886901,112.931453 19.4751577,91.6957765 19.4751577,65.5002425 C19.4751577,39.3047085 13.7886901,18.0690324 6.77407695,18.0690324 C-0.240536226,18.0690324 0.001002689,37.4770528 0.001002689,65.5002425 C0.001002689,93.5234322 -0.240536226,112.931453 6.77407695,112.931453 Z" id="Oval" fill="#5445C4"></path>
                </g>
                <g id="Tentacles" transform="translate(0.000000, 16.073127)" stroke-linecap="round">
                    <path d="M147.085524,15.7900974 C123.52679,28.2468683 98.9750728,34.4752538 73.4303711,34.4752538 C40.8052169,34.4752538 30.8895727,21.4738651 0,21.4738651" id="Line" stroke="#FFFFFF" stroke-width="9"></path>
                    <path d="M147.085524,65.4799366 C123.52679,77.9367075 98.9750728,84.1650929 73.4303711,84.1650929 C40.8052169,84.1650929 30.8895727,71.1637043 0,71.1637043" id="Line" stroke="#FFFFFF" stroke-width="9" transform="translate(73.542762, 74.822515) scale(1, -1) translate(-73.542762, -74.822515) "></path>
                    <g id="Line-2" transform="translate(89.770894, 81.932160) scale(1, -1) translate(-89.770894, -81.932160) ">
                        <use stroke="#5445C4" stroke-width="16.5" xlink:href="#path-1"></use>
                        <use stroke="#FFFFFF" stroke-width="7.5" xlink:href="#path-1"></use>
                    </g>
                    <g id="Line-2">
                        <use stroke="#5445C4" stroke-width="16.5" xlink:href="#path-2"></use>
                        <use stroke="#FFFFFF" stroke-width="7.5" xlink:href="#path-2"></use>
                    </g>
                </g>
            </g>
        </g>
    </g>
</svg>