<?xml version="1.0" encoding="UTF-8"?>
<svg width="370px" height="472px" viewBox="0 0 370 472" version="1.1" xmlns="http://www.w3.org/2000/svg" xmlns:xlink="http://www.w3.org/1999/xlink">
    <title>1 Logo/Jellyfish/Full Logo 2</title>
    <defs>
        <path d="M146.860199,102.128082 C126.650041,102.128082 107.347971,93.8060879 88.9539874,77.1620999 C70.5600038,60.5181118 51.8023166,57.3423239 32.6809257,67.634736" id="path-1"></path>
        <path d="M146.860199,40.3924497 C126.650041,40.3924497 107.347971,32.0704557 88.9539874,15.4264677 C70.5600038,-1.21752036 51.8023166,-4.39330831 32.6809257,5.89910384" id="path-2"></path>
    </defs>
    <g id="Logo" stroke="none" stroke-width="1" fill="none" fill-rule="evenodd">
        <g id="1-Logo/Jellyfish/Full-Logo-2">
            <g id="Blink" transform="translate(326.001206, 367.000000)" stroke="#FB8202" stroke-linecap="round" stroke-width="6">
                <line x1="0" y1="26.477763" x2="1.85151285" y2="0" id="Line"></line>
                <line x1="12.152282" y1="42.149078" x2="40.8263031" y2="43.362637" id="Line"></line>
                <line x1="7.95110642" y1="33.097549" x2="36.8262883" y2="10.362637" id="Line"></line>
            </g>
            <g id="Floro-Logo" transform="translate(46.000170, 385.000000)" fill="#5445C4" fill-rule="nonzero">
                <path d="M8.59162843,86 L8.59162843,40.4426003 L0,40.4426003 L0,25.6929461 L8.83028477,25.6929461 L8.83028477,24.6224066 C8.83028477,20.8160443 9.20815732,17.505302 9.96390242,14.6901798 C10.7196475,11.8750576 11.7737131,9.51590595 13.126099,7.61272476 C14.478485,5.70954357 16.1490794,4.20285846 18.1378822,3.09266943 C20.1266851,1.98248041 22.3342563,1.18948824 24.7605958,0.713692946 C27.1869353,0.237897649 29.8320432,0 32.6959193,0 C33.9687532,0 35.4205793,0.0991240203 37.0513976,0.297372061 C38.6822159,0.495620101 40.0147139,0.792992162 41.0488914,1.18948824 L41.0488914,18.5560166 C40.1738182,17.604426 39.2987448,16.8312586 38.4236716,16.2365145 C37.5485983,15.6417704 36.2757645,15.3443983 34.60517,15.3443983 C33.6505447,15.3443983 32.7953595,15.483172 32.0396144,15.7607192 C31.2838693,16.0382665 30.6474523,16.4347626 30.1303636,16.9502075 C29.6132749,17.4656524 29.2155143,18.1595205 28.9370819,19.0318119 C28.6586494,19.9041033 28.5194332,20.8953435 28.5194332,22.0055325 L28.5194332,25.6929461 L41.0488914,25.6929461 L41.0488914,40.4426003 L28.2807769,40.4426003 L28.2807769,86 L8.59162843,86 Z M71.0002627,86 L51.4304424,86 L51.4304424,2.97372061 L71.0002627,2.97372061 L71.0002627,86 Z" id="Shape"></path>
                <path d="M116.356604,87 C105.948714,87 98.1206934,84.3088346 92.8725419,78.9265037 C87.6243903,73.5441729 85.0003145,65.5261455 85.0003145,54.8724216 C85.0003145,43.3422892 87.6421353,35.1476859 92.9257767,30.2886115 C98.2094182,25.4295372 106.007864,23 116.321113,23 C123.182501,23 128.967359,24.0807188 133.675691,26.2421564 C138.384021,28.4035939 141.94858,31.8254078 144.369367,36.5075981 C146.790154,41.1897883 148.000548,47.3113962 148.000548,54.8724216 C148.000548,65.5150517 145.27405,73.5303057 139.821052,78.9181834 C134.368055,84.3060611 126.546572,87 116.356604,87 Z M116.339792,71.5463685 C118.897558,71.5463685 121.073963,70.9368271 122.869006,69.7177443 C124.664049,68.4986614 126.037883,66.6533965 126.990508,64.1819495 C127.943132,61.7105025 128.419444,58.6073265 128.419444,54.8724216 C128.419444,50.4866817 127.94033,47.0975328 126.982102,44.7049749 C126.023874,42.3124169 124.644125,40.6387974 122.842856,39.6841163 C121.041586,38.7294351 118.873898,38.2520945 116.339792,38.2520945 C113.724745,38.2520945 111.536511,38.7411452 109.775089,39.7192465 C108.013668,40.6973479 106.707701,42.3826775 105.857188,44.7752355 C105.006675,47.1677934 104.581418,50.5335221 104.581418,54.8724216 C104.581418,60.674467 105.552721,64.9039695 107.495328,67.5609291 C109.437935,70.2178887 112.38609,71.5463685 116.339792,71.5463685 Z" id="Shape"></path>
                <path d="M162.000599,86 L162.000599,32.5249769 C163.165285,31.4586605 165.196916,30.2667682 168.095494,28.9492998 C170.994073,27.6318314 174.299852,26.477581 178.012834,25.4865486 C181.725816,24.4955162 185.391885,24 189.011042,24 C193.462117,24 196.926462,24.3137858 199.404076,24.9413574 C201.881691,25.568929 203.747252,26.3646552 205.000759,27.328536 L205.000759,41.4572273 C203.735993,41.1536234 202.054643,40.8842674 199.956708,40.6491595 C197.858773,40.4140515 195.651062,40.2610154 193.333576,40.1900511 C191.01609,40.1190867 188.834338,40.1073622 186.788319,40.1548774 C184.742302,40.2023927 183.105049,40.3168612 181.876562,40.4982831 L181.876562,86 L162.000599,86 Z" id="Path"></path>
                <path d="M243.357073,87 C232.949184,87 225.121163,84.3088346 219.873012,78.9265037 C214.62486,73.5441729 212.000784,65.5261455 212.000784,54.8724216 C212.000784,43.3422892 214.642605,35.1476859 219.926247,30.2886115 C225.209888,25.4295372 233.008334,23 243.321583,23 C250.182971,23 255.967829,24.0807188 260.676161,26.2421564 C265.384491,28.4035939 268.94905,31.8254078 271.369837,36.5075981 C273.790624,41.1897883 275.001018,47.3113962 275.001018,54.8724216 C275.001018,65.5150517 272.274519,73.5303057 266.821522,78.9181834 C261.368525,84.3060611 253.547042,87 243.357073,87 Z M243.340262,71.5463685 C245.898028,71.5463685 248.074433,70.9368271 249.869476,69.7177443 C251.664519,68.4986614 253.038353,66.6533965 253.990978,64.1819495 C254.943602,61.7105025 255.419914,58.6073265 255.419914,54.8724216 C255.419914,50.4866817 254.9408,47.0975328 253.982572,44.7049749 C253.024344,42.3124169 251.644595,40.6387974 249.843325,39.6841163 C248.042056,38.7294351 245.874368,38.2520945 243.340262,38.2520945 C240.725215,38.2520945 238.536981,38.7411452 236.775559,39.7192465 C235.014138,40.6973479 233.708171,42.3826775 232.857658,44.7752355 C232.007144,47.1677934 231.581888,50.5335221 231.581888,54.8724216 C231.581888,60.674467 232.553191,64.9039695 234.495798,67.5609291 C236.438405,70.2178887 239.38656,71.5463685 243.340262,71.5463685 Z" id="Shape"></path>
            </g>
            <g id="1-Logo/Jellyfish/V2">
                <circle id="Background" fill="#5445C4" cx="183.500679" cy="183.500679" r="183.500679"></circle>
                <g id="JellyFish" transform="translate(75.000000, 118.000000)">
                    <g id="Head" transform="translate(141.265297, 0.000000)">
                        <path d="M32.560405,131 C65.2414676,131 91.7347034,101.674651 91.7347034,65.5 C91.7347034,29.3253489 65.2414676,0 32.560405,0 C-0.120657585,0 1.00467153,26.8014527 1.00467153,65.5 C1.00467153,104.198547 -0.120657585,131 32.560405,131 Z" id="Oval" fill="#FFFFFF"></path>
                        <path d="M6.77405187,112.931034 C13.7886391,112.931034 19.4750856,91.695437 19.4750856,65.5 C19.4750856,39.304563 13.7886391,18.0689655 6.77405187,18.0689655 C-0.240535336,18.0689655 0.00100268528,37.476914 0.00100268528,65.5 C0.00100268528,93.523086 -0.240535336,112.931034 6.77405187,112.931034 Z" id="Oval" fill="#5445C4"></path>
                    </g>
                    <g id="Tentacles" transform="translate(0.000000, 16.073067)" stroke-linecap="round">
                        <path d="M147.084979,15.790039 C123.526333,28.2467638 98.9747063,34.4751261 73.4300993,34.4751261 C40.8050659,34.4751261 30.8894583,21.4737856 0,21.4737856" id="Line" stroke="#FFFFFF" stroke-width="9"></path>
                        <path d="M147.084979,65.4796942 C123.526333,77.9364189 98.9747063,84.1647813 73.4300993,84.1647813 C40.8050659,84.1647813 30.8894583,71.1634408 0,71.1634408" id="Line" stroke="#FFFFFF" stroke-width="9" transform="translate(73.542490, 74.822238) scale(1, -1) translate(-73.542490, -74.822238) "></path>
                        <g id="Line-2" transform="translate(89.770562, 81.931857) scale(1, -1) translate(-89.770562, -81.931857) ">
                            <use stroke="#5445C4" stroke-width="16.5" xlink:href="#path-1"></use>
                            <use stroke="#FFFFFF" stroke-width="7.5" xlink:href="#path-1"></use>
                        </g>
                        <g id="Line-2">
                            <use stroke="#5445C4" stroke-width="16.5" xlink:href="#path-2"></use>
                            <use stroke="#FFFFFF" stroke-width="7.5" xlink:href="#path-2"></use>
                        </g>
                    </g>
                </g>
            </g>
        </g>
    </g>
</svg>