<?xml version="1.0" encoding="UTF-8"?>
<svg width="370px" height="472px" viewBox="0 0 370 472" version="1.1" xmlns="http://www.w3.org/2000/svg" xmlns:xlink="http://www.w3.org/1999/xlink">
    <title>Logo with Text</title>
    <defs>
        <filter x="-3.9%" y="-2.6%" width="107.7%" height="105.2%" filterUnits="objectBoundingBox" id="filter-1">
            <feGaussianBlur stdDeviation="2" in="SourceGraphic"></feGaussianBlur>
        </filter>
    </defs>
    <g id="Logo" stroke="none" stroke-width="1" fill="none" fill-rule="evenodd">
        <g id="Floro-Logo-Symbol" transform="translate(-195.000000, -143.000000)">
            <g id="Logo-with-Text" transform="translate(195.000000, 143.000000)">
                <g id="Floro-Logo-Symbol">
                    <circle id="Oval" fill="#5445C4" cx="183.500679" cy="183.500679" r="183.500679"></circle>
                    <path d="M179.245471,43.0003669 L180.46584,43.0126437 C209.542546,43.5213768 234.389739,60.8504752 245.937199,85.5852967 L246.283042,86.3370938 L246.305531,86.3875487 L246.435361,86.6936723 L246.739689,87.4411133 L247.31935,88.9004636 L247.825448,90.1969939 C249.006834,90.5604428 250.174056,91.3879146 251.319876,92.3465461 L251.319876,92.3465461 L251.660107,92.6352741 L251.660107,92.6352741 L251.829736,92.7819315 L252.167994,93.0786157 L252.504883,93.3781697 L253.506914,94.2745756 L254.00281,94.7094596 L254.331413,94.9899862 L254.658373,95.2607241 C255.745451,96.1447052 256.804422,96.8330819 257.828224,97.0012754 L257.828224,97.0012754 L258.295785,97.0743103 C258.52886,97.1088695 258.76085,97.1405567 258.991641,97.1696675 L258.991641,97.1696675 L259.451591,97.2245409 L259.908143,97.2730685 C259.983941,97.2806568 260.059588,97.2880025 260.135081,97.2951166 L260.135081,97.2951166 L260.586156,97.3351095 L261.033327,97.3700688 L261.476391,97.4005195 L261.915146,97.4269865 L262.778919,97.470069 L263.203533,97.4877344 L265.441993,97.5652933 L266.211014,97.5964272 L266.77045,97.6249372 L267.134774,97.6473851 L267.491957,97.6731985 L267.841796,97.7029021 L268.184088,97.737021 L268.518631,97.7760802 C268.573732,97.7830309 268.628501,97.7902093 268.682934,97.7976264 L268.682934,97.7976264 L269.005475,97.8450801 C271.393828,98.2237738 273.085692,99.1300267 273.696931,101.560398 C275.69578,109.508129 267.662936,118.595261 254.344987,121.887144 C246.79032,123.754458 239.486592,123.192739 234.18785,120.797521 L232.038879,122.220648 L228.924188,124.291682 L225.750658,126.40891 L222.518291,128.572334 L219.227085,130.781951 L215.877042,133.037764 L214.535123,133.94208 L214.629751,134.035626 C282.002482,201.084307 297.568609,256.354053 260.072447,297.87415 C203.260081,360.783389 87.9216322,305.491265 88.0001629,255.439823 C88.0328675,235.703355 102.422502,213.008544 131.437228,187.775681 L131.42493,187.760174 L130.235972,186.444158 L129.459112,185.578519 L128.317493,184.297618 L127.572193,183.455388 L126.477912,182.209601 L125.76417,181.390781 L125.063053,180.581324 L124.374559,179.781232 L123.365487,178.59865 L122.708552,177.821967 L121.746819,176.674499 L121.121443,175.921225 L120.207049,174.808872 L119.613232,174.079007 L119.032039,173.358507 L118.463469,172.64737 L117.907523,171.945597 L117.364201,171.253188 L116.833502,170.570142 L116.315427,169.89646 L115.809975,169.232142 L115.317147,168.577188 L114.836943,167.931598 L114.369362,167.295371 L113.691661,166.358588 L113.255639,165.745771 L113.148606,165.59403 L113.148606,165.59403 L113.042362,165.442874 L112.625276,164.844102 L112.220813,164.254694 L112.12167,164.108805 L112.12167,164.108805 L112.023316,163.963502 L111.637788,163.38814 L111.543379,163.245762 L111.543379,163.245762 L111.449759,163.10397 L111.083167,162.542653 L110.729199,161.990701 L110.387854,161.448112 L110.304491,161.313928 L110.304491,161.313928 L110.221916,161.180329 L109.899507,160.651785 L109.665984,160.261523 L109.665984,160.261523 L109.439562,159.876527 L109.148712,159.371394 L109.077972,159.246573 L109.077972,159.246573 L109.008021,159.122338 L108.736106,158.63125 L108.476815,158.149525 L108.413965,158.030557 L108.413965,158.030557 L108.351904,157.912174 L108.111548,157.444496 L107.883816,156.986181 L107.828856,156.873065 L107.828856,156.873065 L107.774684,156.760534 L107.565887,156.316265 C100.358848,140.670028 97.7678724,126.939934 98.0163427,112.671503 C98.7121524,72.7145545 138.163018,43.4893545 178.025115,43.0061613 L179.245471,43.0003669 Z" id="Combined-Shape" fill="#9B8FF7"></path>
                    <path d="M188.142225,78.000377 L189.13573,78.0103153 C212.807151,78.4221468 233.035314,92.4504647 242.436132,112.473892 L242.717683,113.082489 L242.735991,113.123334 L242.841686,113.371148 L243.089441,113.976219 L243.561344,115.157598 L244.30668,117.055121 C245.412261,117.260734 246.503827,118.019659 247.572479,118.919982 L247.572479,118.919982 L247.848917,119.156214 C247.894903,119.196025 247.940844,119.236033 247.986741,119.276206 L247.986741,119.276206 L248.261575,119.518948 L248.535298,119.764037 L249.349448,120.49746 L249.752363,120.853274 L250.019354,121.082796 L250.285008,121.304309 C251.16826,122.027566 252.028673,122.590784 252.860512,122.728397 L252.860512,122.728397 L253.240406,122.788152 C253.429779,122.816428 253.618271,122.842354 253.805788,122.866172 L253.805788,122.866172 L254.179498,122.911068 L254.550447,122.950773 L254.550447,122.950773 L254.734834,122.968812 L255.101332,123.001534 L255.464658,123.030137 L255.824648,123.055051 L256.181136,123.076706 L256.882952,123.111955 L257.227951,123.126408 L259.0467,123.189866 L259.67153,123.215339 L260.126071,123.238665 L260.422084,123.257032 L260.712296,123.278152 L260.996539,123.302455 L261.274652,123.33037 L261.546468,123.362328 C261.591237,123.368015 261.635737,123.373888 261.679964,123.379956 L261.679964,123.379956 L261.942029,123.418782 C263.882566,123.728622 265.257205,124.470102 265.753837,126.458588 C267.377902,132.961277 260.851216,140.396203 250.030382,143.089562 C243.158834,144.799904 236.542805,144.019583 232.181752,141.432202 L231.121473,142.131081 L228.585795,143.807632 L226.002217,145.521579 L223.370738,147.272921 L220.691359,149.06166 L217.96408,150.887794 L217.663182,151.088144 L218.227226,151.647468 C272.61667,205.908514 285.183075,250.637122 254.912736,284.238439 C209.048586,335.149524 115.936818,290.402805 116.000215,249.897256 C116.026217,234.166624 127.294377,216.113769 150.011501,196.063616 L149.211399,195.186887 L148.243465,194.121541 L147.611022,193.420786 L146.681627,192.383866 L146.074876,191.702061 L145.184019,190.693566 L144.60296,190.030712 L144.032179,189.375438 L143.471674,188.727744 L142.650186,187.770416 L142.115374,187.141672 L141.332425,186.21277 L140.823304,185.602977 L140.078893,184.7025 L139.595466,184.111657 L139.122315,183.528395 L138.659441,182.952713 L138.206844,182.384611 L137.764524,181.824089 L137.33248,181.271147 L136.910714,180.725786 L136.499225,180.188005 L136.098012,179.657804 L135.707077,179.135183 L135.326418,178.620142 L134.774699,177.861794 L134.419733,177.365704 L134.332597,177.242866 L134.332597,177.242866 L134.246104,177.120502 L133.906553,176.635782 L133.577279,176.158642 L133.496566,176.040541 L133.496566,176.040541 L133.416495,175.922915 L133.102637,175.457145 L133.025778,175.341887 L133.025778,175.341887 L132.949561,175.227103 L132.651118,174.772704 L132.362952,174.325885 L132.085062,173.886647 L132.017195,173.778021 L132.017195,173.778021 L131.949971,173.66987 L131.687497,173.242001 L131.497386,172.926075 L131.497386,172.926075 L131.313055,172.614412 L131.076273,172.205494 L131.018684,172.104449 L131.018684,172.104449 L130.961736,172.003877 L130.74037,171.60633 L130.52928,171.216362 L130.478114,171.120055 L130.478114,171.120055 L130.42759,171.024221 L130.231915,170.645624 L130.046518,170.274607 L130.001775,170.183037 L130.001775,170.183037 L129.957673,170.091941 L129.787692,169.732294 C123.920423,157.066293 121.811102,145.951455 122.013383,134.400821 C122.579843,102.054719 154.696894,78.396224 187.14873,78.0050677 L188.142225,78.000377 Z" id="Combined-Shape" fill-opacity="0.9" fill="#302679" filter="url(#filter-1)"></path>
                    <g id="Duck" transform="translate(108.352782, 71.902307)">
                        <path d="M97.52563,72.7310334 C123.738758,98.7341373 140.011992,122.435643 146.099701,143.70883 C152.121127,164.750391 148.026799,183.331734 133.65905,199.252202 C124.578088,209.314541 113.532872,215.406959 101.750539,218.403729 C88.2303506,221.842513 73.7461986,221.216896 60.1197671,217.854228 C44.1143099,213.904474 29.2804221,206.176324 18.5638784,196.733139 C8.47684502,187.844664 1.98401478,177.438639 1.99999726,167.245295 C2.04256679,141.538089 34.0425188,109.64296 97.52563,72.7310334 Z" id="Body" stroke="#602A2C" stroke-width="4" fill="#BA7C4D"></path>
                        <path d="M71.4086029,1.75059942 L71.923,1.751 L72.767,1.759 L72.7945116,1.7596196 C83.8544208,1.95381612 94.1092722,5.31461229 102.714127,10.9628212 C111.597331,16.7937381 118.722717,25.0611984 123.153742,34.7968771 L123.153742,34.7968771 L123.498043,35.6269329 L123.94881,36.7585818 L124.684169,38.6391804 L125.275741,40.1735977 L125.901224,41.8155013 L126.53619,43.5050991 L126.981062,44.7054668 L127.408947,45.8765831 L127.732744,46.7769291 L127.961266,47.4219875 L128.175461,48.0361029 L128.375216,48.6198986 L128.554808,49.1573494 L128.327327,50.5687652 L127.056209,51.3877277 L124.889603,52.7890093 L122.676702,54.2265606 L120.417498,55.7003862 L118.111984,57.2104902 L115.759749,58.7571426 L112.552312,60.8751713 L110.092379,62.5062307 L107.586107,64.1735839 L105.033491,65.8772335 L102.434528,67.6171824 L99.7892112,69.3934329 L97.0975381,71.2059874 L94.3595046,73.0548481 L91.5748256,74.940208 L87.7904498,77.510058 L84.8981187,79.4797748 L82.9434456,80.8135644 L78.9735485,83.5286868 L75.9415915,85.6076902 L71.8271566,88.4359682 L67.630477,91.3286662 L64.4284708,93.5408265 L60.0872572,96.5466767 L55.6637645,99.6169686 L52.2918692,101.962172 L48.8737635,104.343573 L46.5687653,105.951695 L41.8979864,109.215621 L39.5311449,110.872167 L35.994,113.351 L35.4255875,112.72764 L34.4913209,111.696464 L33.8823421,111.01982 L32.9856658,110.0166 L32.4018367,109.358719 L31.5427719,108.383492 L30.9831976,107.743359 L30.4336756,107.110726 L29.8951739,106.486726 L29.1038714,105.561999 L28.5905888,104.956893 L27.8369711,104.060298 L27.3489379,103.474145 L26.6330371,102.605749 L26.1691095,102.037165 L25.7152724,101.476159 L25.2715308,100.922744 L24.83789,100.376931 L24.4143555,99.8387342 L24.000933,99.308167 L23.5976284,98.7852447 L23.204448,98.2699838 L22.8213982,97.7624017 L22.4484857,97.2625175 L22.0834338,96.7672002 L21.5565945,96.0410072 L21.2207643,95.5703374 L20.7319099,94.8730541 L20.4216441,94.4221907 L19.9718159,93.7554925 L19.5447793,93.1063374 C18.6502189,91.6763927 18.4594988,91.3638639 18.3515262,91.1795984 L18.323664,91.1317811 C11.3400942,76.379523 9.32534426,65.8242579 9.51697937,54.8506239 C9.77868351,39.8646152 17.2576871,26.8837273 28.3783395,17.51475 C40.0362618,7.69313109 55.7017136,1.81962596 71.4086029,1.75059942 Z" id="Head" stroke="#602A2C" stroke-width="3.5" fill="#23C2B9"></path>
                        <ellipse id="Eye" fill="#602A2C" transform="translate(72.538564, 29.038668) rotate(14.000000) translate(-72.538564, -29.038668) " cx="72.5385639" cy="29.0386682" rx="6.07195034" ry="6.06943192"></ellipse>
                        <path d="M130.573793,61.9075836 C141.018537,59.2937927 147.318381,52.078512 145.750763,45.7679277 C145.271392,43.8381862 143.944529,43.1186116 142.071438,42.8179247 L141.818482,42.7802459 C141.775792,42.7743567 141.732839,42.768657 141.689626,42.763138 L141.427256,42.7321247 L141.427256,42.7321247 L141.15881,42.7050339 L141.15881,42.7050339 L140.884445,42.6814488 L140.884445,42.6814488 L140.604321,42.6609528 L140.604321,42.6609528 L140.318595,42.6431289 L140.318595,42.6431289 L139.879852,42.6204916 L139.879852,42.6204916 L139.276739,42.595771 L139.276739,42.595771 L137.521203,42.5341884 L137.521203,42.5341884 L137.188195,42.5201619 L137.188195,42.5201619 L136.510771,42.4859539 L136.510771,42.4859539 L136.166673,42.4649388 L136.166673,42.4649388 L135.819195,42.4407606 L135.819195,42.4407606 L135.468497,42.4130026 L135.468497,42.4130026 L135.114737,42.3812478 C135.05553,42.3755991 134.996203,42.3697665 134.936758,42.3637413 L134.578702,42.3252099 L134.578702,42.3252099 L134.217981,42.2816398 C134.03698,42.2585256 133.85504,42.2333655 133.672249,42.2059252 L133.305559,42.1479347 L133.305559,42.1479347 C132.502631,42.0143872 131.672122,41.4678087 130.819569,40.7659181 L130.563148,40.5509493 L130.563148,40.5509493 L130.305437,40.3282081 L130.305437,40.3282081 L129.916525,39.9829055 L129.916525,39.9829055 L129.130671,39.2711496 L129.130671,39.2711496 L128.866463,39.0333004 L128.866463,39.0333004 L128.60118,38.7977299 C128.556879,38.758744 128.512534,38.7199174 128.468147,38.6812824 L128.201317,38.4520292 C126.775552,37.244356 125.307531,36.2988446 123.819936,36.6711117 C113.375188,39.2848896 106.925798,47.5746726 108.610844,54.357976 C110.295898,61.1412776 120.129042,64.5213461 130.573793,61.9075836 Z" id="Beak" stroke="#602A2C" stroke-width="3.5" fill="#FB8202"></path>
                        <path d="M38.8315107,112.12215 C48.7793468,104.605461 57.5614541,98.2195387 65.1778325,92.9643819 C72.7942109,87.7092251 82.57564,81.3391733 94.5221199,73.8542266" id="Neck" stroke="#FFFFFF" stroke-width="4.5" stroke-linecap="square"></path>
                    </g>
                </g>
                <g id="Floro-Logo" transform="translate(46.000000, 385.000000)" fill="#5445C4" fill-rule="nonzero">
                    <path d="M8.59159664,86 L8.59159664,40.4426003 L0,40.4426003 L0,25.6929461 L8.8302521,25.6929461 L8.8302521,24.6224066 C8.8302521,20.8160443 9.20812325,17.505302 9.96386555,14.6901798 C10.7196078,11.8750576 11.7736695,9.51590595 13.1260504,7.61272476 C14.4784314,5.70954357 16.1490196,4.20285846 18.1378151,3.09266943 C20.1266106,1.98248041 22.3341737,1.18948824 24.7605042,0.713692946 C27.1868347,0.237897649 29.8319328,0 32.6957983,0 C33.9686275,0 35.4204482,0.0991240203 37.0512605,0.297372061 C38.6820728,0.495620101 40.0145658,0.792992162 41.0487395,1.18948824 L41.0487395,18.5560166 C40.1736695,17.604426 39.2985994,16.8312586 38.4235294,16.2365145 C37.5484594,15.6417704 36.2756303,15.3443983 34.605042,15.3443983 C33.6504202,15.3443983 32.7952381,15.483172 32.0394958,15.7607192 C31.2837535,16.0382665 30.6473389,16.4347626 30.1302521,16.9502075 C29.6131653,17.4656524 29.2154062,18.1595205 28.9369748,19.0318119 C28.6585434,19.9041033 28.5193277,20.8953435 28.5193277,22.0055325 L28.5193277,25.6929461 L41.0487395,25.6929461 L41.0487395,40.4426003 L28.2806723,40.4426003 L28.2806723,86 L8.59159664,86 Z M71,86 L51.4302521,86 L51.4302521,2.97372061 L71,2.97372061 L71,86 Z" id="Shape"></path>
                    <path d="M116.356173,87 C105.948322,87 98.1203303,84.3088346 92.8721982,78.9265037 C87.6240661,73.5441729 85,65.5261455 85,54.8724216 C85,43.3422892 87.641811,35.1476859 92.9254329,30.2886115 C98.2090548,25.4295372 106.007472,23 116.320683,23 C123.182045,23 128.966882,24.0807188 133.675196,26.2421564 C138.383509,28.4035939 141.948055,31.8254078 144.368833,36.5075981 C146.789611,41.1897883 148,47.3113962 148,54.8724216 C148,65.5150517 145.273512,73.5303057 139.820535,78.9181834 C134.367558,84.3060611 126.546104,87 116.356173,87 Z M116.339362,71.5463685 C118.897118,71.5463685 121.073515,70.9368271 122.868551,69.7177443 C124.663588,68.4986614 126.037417,66.6533965 126.990038,64.1819495 C127.942659,61.7105025 128.418969,58.6073265 128.418969,54.8724216 C128.418969,50.4866817 127.939857,47.0975328 126.981632,44.7049749 C126.023408,42.3124169 124.643664,40.6387974 122.842401,39.6841163 C121.041138,38.7294351 118.873458,38.2520945 116.339362,38.2520945 C113.724324,38.2520945 111.536098,38.7411452 109.774683,39.7192465 C108.013268,40.6973479 106.707306,42.3826775 105.856796,44.7752355 C105.006286,47.1677934 104.581031,50.5335221 104.581031,54.8724216 C104.581031,60.674467 105.55233,64.9039695 107.49493,67.5609291 C109.43753,70.2178887 112.385674,71.5463685 116.339362,71.5463685 Z" id="Shape"></path>
                    <path d="M162,86 L162,32.5249769 C163.164681,31.4586605 165.196305,30.2667682 168.094872,28.9492998 C170.99344,27.6318314 174.299207,26.477581 178.012175,25.4865486 C181.725144,24.4955162 185.391199,24 189.010343,24 C193.461401,24 196.925733,24.3137858 199.403338,24.9413574 C201.880944,25.568929 203.746498,26.3646552 205,27.328536 L205,41.4572273 C203.735239,41.1536234 202.053895,40.8842674 199.955968,40.6491595 C197.858041,40.4140515 195.650338,40.2610154 193.332861,40.1900511 C191.015383,40.1190867 188.833639,40.1073622 186.787628,40.1548774 C184.741618,40.2023927 183.104371,40.3168612 181.875889,40.4982831 L181.875889,86 L162,86 Z" id="Path"></path>
                    <path d="M243.356173,87 C232.948322,87 225.12033,84.3088346 219.872198,78.9265037 C214.624066,73.5441729 212,65.5261455 212,54.8724216 C212,43.3422892 214.641811,35.1476859 219.925433,30.2886115 C225.209055,25.4295372 233.007472,23 243.320683,23 C250.182045,23 255.966882,24.0807188 260.675196,26.2421564 C265.383509,28.4035939 268.948055,31.8254078 271.368833,36.5075981 C273.789611,41.1897883 275,47.3113962 275,54.8724216 C275,65.5150517 272.273512,73.5303057 266.820535,78.9181834 C261.367558,84.3060611 253.546104,87 243.356173,87 Z M243.339362,71.5463685 C245.897118,71.5463685 248.073515,70.9368271 249.868551,69.7177443 C251.663588,68.4986614 253.037417,66.6533965 253.990038,64.1819495 C254.942659,61.7105025 255.418969,58.6073265 255.418969,54.8724216 C255.418969,50.4866817 254.939857,47.0975328 253.981632,44.7049749 C253.023408,42.3124169 251.643664,40.6387974 249.842401,39.6841163 C248.041138,38.7294351 245.873458,38.2520945 243.339362,38.2520945 C240.724324,38.2520945 238.536098,38.7411452 236.774683,39.7192465 C235.013268,40.6973479 233.707306,42.3826775 232.856796,44.7752355 C232.006286,47.1677934 231.581031,50.5335221 231.581031,54.8724216 C231.581031,60.674467 232.55233,64.9039695 234.49493,67.5609291 C236.43753,70.2178887 239.385674,71.5463685 243.339362,71.5463685 Z" id="Shape"></path>
                </g>
                <line x1="326" y1="393.477763" x2="327.851506" y2="367" id="Line" stroke="#FB8202" stroke-width="6" stroke-linecap="round"></line>
                <line x1="338.152237" y1="409.149078" x2="366.826152" y2="410.362637" id="Line" stroke="#FB8202" stroke-width="6" stroke-linecap="round"></line>
                <line x1="333.951077" y1="400.097549" x2="362.826152" y2="377.362637" id="Line" stroke="#FB8202" stroke-width="6" stroke-linecap="round"></line>
            </g>
        </g>
    </g>
</svg>