<?xml version="1.0" encoding="UTF-8"?>
<svg width="24px" height="24px" viewBox="0 0 24 24" version="1.1" xmlns="http://www.w3.org/2000/svg" xmlns:xlink="http://www.w3.org/1999/xlink">
    <title>adjust.extend</title>
    <g id="Symbols" stroke="none" stroke-width="1" fill="none" fill-rule="evenodd">
        <g id="5-Icons/30-Adjust-Arrow/2-Extend" fill="#FFFFFF">
            <path d="M9.48685464,11.9984695 C9.48685464,11.6776777 9.6267728,11.3715787 9.87701104,11.143841 L21.7323841,0.354462669 C22.2516957,-0.118154223 23.0912047,-0.118154223 23.6105163,0.354462669 C24.1298279,0.82707956 24.1298279,1.59110272 23.6105163,2.06371961 L12.6915186,11.9984695 L23.6105163,21.9356682 C24.1298279,22.4082851 24.1298279,23.1723082 23.6105163,23.6449251 C23.3522058,23.8800092 23.0104827,24 22.6714502,24 C22.3324177,24 21.9906945,23.882458 21.7323841,23.6449251 L9.87432031,12.853098 C9.6267728,12.6253603 9.48685464,12.3192613 9.48685464,11.9984695 Z M0.389483715,11.143841 L12.2475475,0.354462669 C12.7668591,-0.118154223 13.6063681,-0.118154223 14.1256797,0.354462669 C14.6449913,0.82707956 14.6449913,1.59110272 14.1256797,2.06371961 L3.20668199,11.9984695 L14.1256797,21.9356682 C14.6449913,22.4082851 14.6449913,23.1723082 14.1256797,23.6449251 C13.8673692,23.8800092 13.5256461,24 13.1866136,24 C12.8475811,24 12.505858,23.882458 12.2475475,23.6449251 L0.389483715,12.853098 C-0.129827905,12.3804811 -0.129827905,11.6164579 0.389483715,11.143841 Z" id="adjust.extend"></path>
        </g>
    </g>
</svg>