<?xml version="1.0" encoding="UTF-8"?>
<svg width="24px" height="24px" viewBox="0 0 24 24" version="1.1" xmlns="http://www.w3.org/2000/svg" xmlns:xlink="http://www.w3.org/1999/xlink">
    <title>adjust.shrink</title>
    <g id="Symbols" stroke="none" stroke-width="1" fill="none" fill-rule="evenodd">
        <g id="5-Icons/30-Adjust-Arrow/1-Shrink" fill="#FFFFFF">
            <path d="M14.5131454,11.9984695 C14.5131454,11.6776777 14.3732272,11.3715787 14.122989,11.143841 L2.2676159,0.354462669 C1.74830428,-0.118154223 0.908795336,-0.118154223 0.389483715,0.354462669 C-0.129827905,0.82707956 -0.129827905,1.59110272 0.389483715,2.06371961 L11.3084814,11.9984695 L0.389483715,21.9356682 C-0.129827905,22.4082851 -0.129827905,23.1723082 0.389483715,23.6449251 C0.647794159,23.8800092 0.98951735,24 1.32854981,24 C1.66758226,24 2.00930545,23.882458 2.2676159,23.6449251 L14.1256797,12.853098 C14.3732272,12.6253603 14.5131454,12.3192613 14.5131454,11.9984695 Z M23.6105163,11.143841 L11.7524525,0.354462669 C11.2331409,-0.118154223 10.3936319,-0.118154223 9.87432031,0.354462669 C9.35500869,0.82707956 9.35500869,1.59110272 9.87432031,2.06371961 L20.793318,11.9984695 L9.87432031,21.9356682 C9.35500869,22.4082851 9.35500869,23.1723082 9.87432031,23.6449251 C10.1326308,23.8800092 10.4743539,24 10.8133864,24 C11.1524189,24 11.494142,23.882458 11.7524525,23.6449251 L23.6105163,12.853098 C24.1298279,12.3804811 24.1298279,11.6164579 23.6105163,11.143841 Z" id="adjust.shrink"></path>
        </g>
    </g>
</svg>