<?xml version="1.0" encoding="UTF-8"?>
<svg  viewBox="0 0 32 26" version="1.1" xmlns="http://www.w3.org/2000/svg" xmlns:xlink="http://www.w3.org/1999/xlink">
    <title>backward</title>
    <g id="Symbols" stroke="none" stroke-width="1" fill="none" fill-rule="evenodd">
        <g id="1-Action-Icons/2-Back-Arrow/1-Light" transform="translate(0, -3)" fill="#9B8FF7">
            <path d="M12.4892536,3.56764823 C13.4633333,2.73332083 14.9439227,2.82994312 15.7962425,3.78346014 C16.6485623,4.73697717 16.5498564,6.18631144 15.5757766,7.02063883 L7.76889361,13.7058879 L29.656415,13.7058879 C30.8746044,13.7058879 31.8757098,14.6157145 31.9892717,15.7790617 L32,16 C32,17.2670031 30.9507413,18.2941121 29.656415,18.2941121 L7.770456,18.2941121 L15.5757766,24.9793612 C16.4889764,25.7615431 16.6328047,27.0842584 15.9449261,28.0322163 L15.7962425,28.2165399 C14.9439227,29.1700569 13.4633333,29.2666792 12.4892536,28.4323518 L1.33392598,18.8774922 C1.20342434,18.7657138 1.08067169,18.6455524 0.966482759,18.5178056 C-0.454050239,16.9286106 -0.289540307,14.5130535 1.33392598,13.1225078 L12.4892536,3.56764823 Z" id="backward"></path>
        </g>
    </g>
</svg>