<?xml version="1.0" encoding="UTF-8"?>
<svg  viewBox="0 0 22 32" version="1.1" xmlns="http://www.w3.org/2000/svg" xmlns:xlink="http://www.w3.org/1999/xlink">
    <title>bookmark.unsubscribe</title>
    <g id="Symbols" stroke="none" stroke-width="1" fill="none" fill-rule="evenodd">
        <g id="1-Action-Icons/18-Bookmark/1-Unsubscribe" transform="translate(-5, 0)" fill="#414141">
            <path d="M7.60477496,0.00177936001 L24.1797263,0 C25.1603969,0 25.5160118,0.100552368 25.8745303,0.289368695 C26.2330488,0.478185022 26.5144162,0.755265308 26.706154,1.10832114 L26.7882387,1.27331872 C26.926893,1.58369853 27,1.96014699 27,2.77730171 L27,29.8334985 C27,31.0300118 26.0150264,32 24.8,32 C24.2605136,32 23.7398333,31.8047701 23.3369356,31.4514624 L16.6596715,25.5905397 C16.2822704,25.2592785 15.7177296,25.2592785 15.3403285,25.5905397 L8.66306442,31.4514624 C7.75566167,32.2471788 6.36503015,32.1678473 5.55700198,31.2742705 C5.19822773,30.8775116 5,30.3647648 5,29.8334985 L5,2.77730171 C5,1.8115734 5.10210817,1.46137698 5.29384597,1.10832114 C5.48558378,0.755265308 5.76695121,0.478185022 6.12546973,0.289368695 C6.4564099,0.115076701 6.78487595,0.015991867 7.60477496,0.00177936001 L7.60477496,0.00177936001 Z M23.7,3.24971849 L8.3,3.24971849 L8.3,27.4167916 L15.3406797,21.2443281 C15.7179681,20.9134776 16.2820319,20.9134776 16.6593203,21.2443281 L23.7,27.4178749 L23.7,3.24971849 Z" id="bookmark.unsubscribe"></path>
        </g>
    </g>
</svg>