<?xml version="1.0" encoding="UTF-8"?>
<svg width="24px" height="24px" viewBox="0 0 24 24" version="1.1" xmlns="http://www.w3.org/2000/svg" xmlns:xlink="http://www.w3.org/1999/xlink">
    <title>Branch Icon Dark</title>
    <g id="Branch-Icon-Dark" stroke="none" stroke-width="1" fill="none" fill-rule="evenodd">
        <rect fill="none" x="0" y="0" width="24" height="24"></rect>
        <g id="2e8b0c95d70ab47d5816f0f35d3b9dd9" transform="translate(2.000000, 0.000000)" fill="#FFFFFF" fill-rule="nonzero">
            <path d="M19,3.42892132 C19,4.95234208 18.2670774,6.00061231 16.8037771,6.57128278 C16.6841682,7.67588529 16.4067774,8.63843249 15.9716046,9.45647515 C15.5364318,10.2745178 14.9332976,10.9333605 14.1596571,11.4281049 C13.3885615,11.9228493 12.7141709,12.2853352 12.1415751,12.5131136 C11.5664345,12.7408919 10.8258773,12.9882641 9.91481382,13.2552301 C9.08264131,13.5221961 8.45914814,13.7303807 8.04433432,13.8846821 C7.62952049,14.0365343 7.16380927,14.2667619 6.64974551,14.5704664 C6.13568176,14.8741708 5.75904099,15.2562506 5.52236807,15.7142566 C5.28569515,16.1722625 5.12536834,16.742933 5.04647736,17.4287172 C6.43088669,17.9993877 7.12563622,19.0476579 7.12563622,20.5710787 C7.12563622,21.523829 6.77953389,22.3320747 6.08732923,23.0007144 C5.39512456,23.6669048 4.55277257,24 3.56281811,24 C2.57286365,24 1.73305652,23.6669048 1.03830699,23.0007144 C0.346102331,22.3345239 0,21.523829 0,20.5710787 C0,19.0843964 0.712563622,18.0189815 2.13769087,17.3699357 L2.13769087,6.56883355 C0.712563622,5.92223696 0,4.87396673 0,3.42647209 C0,2.47372181 0.346102331,1.66547607 1.03830699,0.996836412 C1.73051165,0.333095214 2.57286365,0 3.56281811,0 C4.55277257,0 5.39257969,0.333095214 6.08732923,0.999285641 C6.77953389,1.66547607 7.12563622,2.47617104 7.12563622,3.42892132 C7.12563622,4.87641596 6.4130726,5.92468619 4.98794535,6.57128278 L4.98794535,12.400449 C5.77939995,11.8297785 7.14599518,11.2566588 9.08518618,10.6859884 C10.2329226,10.3430962 11.0650951,10.0663333 11.5791589,9.85814879 C12.0932226,9.64751505 12.5996518,9.25808756 13.0933565,8.68741708 C13.5870613,8.11674661 13.8746317,7.39177467 13.9535226,6.51495051 C12.5691133,5.90509236 11.8743638,4.87641596 11.8743638,3.42892132 C11.8743638,2.47617104 12.2204661,1.6679253 12.9126708,0.999285641 C13.6074203,0.333095214 14.4472274,0 15.4371819,0 C16.4271364,0 17.2669435,0.333095214 17.961693,0.999285641 C18.6538977,1.6679253 19,2.47617104 19,3.42892132 L19,3.42892132 M1.54219127,3.42892132 C1.54219127,3.96285335 1.74069113,4.41841004 2.135146,4.80048985 C2.53214573,5.18256965 3.00549156,5.37116032 3.56027324,5.37116032 C4.11505492,5.37116032 4.59858023,5.18012042 5.01593892,4.80048985 C5.43075275,4.41841004 5.63943209,3.96285335 5.63943209,3.42892132 C5.63943209,2.85825084 5.43075275,2.38065109 5.01593892,2.00102051 C4.6011251,1.62138994 4.11505492,1.43035004 3.56027324,1.43035004 C3.00549156,1.43035004 2.53214573,1.62138994 2.135146,2.00102051 C1.74069113,2.38065109 1.54219127,2.85825084 1.54219127,3.42892132 L1.54219127,3.42892132 M3.56281811,22.5157669 C4.11759979,22.5157669 4.6011251,22.324727 5.01848379,21.9450964 C5.43329762,21.5630166 5.64197696,21.1074599 5.64197696,20.5735279 C5.64197696,20.0028574 5.43329762,19.5252577 5.01848379,19.1456271 C4.60366997,18.7635473 4.11759979,18.5749566 3.56281811,18.5749566 C3.00803643,18.5749566 2.5346906,18.7659965 2.13769087,19.1456271 C1.74069113,19.5277069 1.54473614,20.0028574 1.54473614,20.5735279 C1.54473614,21.1074599 1.743236,21.5630166 2.13769087,21.9450964 C2.53214573,22.3271762 3.00803643,22.5157669 3.56281811,22.5157669 L3.56281811,22.5157669 M15.4371819,5.37116032 C15.9919636,5.37116032 16.4754889,5.18012042 16.8928476,4.80048985 C17.3076614,4.41841004 17.5163407,3.96285335 17.5163407,3.42892132 C17.5163407,2.85825084 17.3076614,2.38065109 16.8928476,2.00102051 C16.4780338,1.61894071 15.9919636,1.43035004 15.4371819,1.43035004 C14.8824002,1.43035004 14.4090544,1.62138994 14.0120546,2.00102051 C13.6150549,2.38310032 13.4190999,2.85825084 13.4190999,3.42892132 C13.4190999,3.96285335 13.6175998,4.41841004 14.0120546,4.80048985 C14.4090544,5.18256965 14.8849451,5.37116032 15.4371819,5.37116032 L15.4371819,5.37116032" id="Shape"></path>
        </g>
    </g>
</svg>