<?xml version="1.0" encoding="UTF-8"?>
<svg width="28px" height="32px" viewBox="0 0 28 32" version="1.1" xmlns="http://www.w3.org/2000/svg" xmlns:xlink="http://www.w3.org/1999/xlink">
    <title>change branch head.dark</title>
    <g id="Symbols" stroke="none" stroke-width="1" fill="none" fill-rule="evenodd">
        <g id="4-Branch-Icons/1-Edit-Branch/5-Change-Branch-Head/2-Dark" transform="translate(-2.000000, 0.000000)" fill="#FFFFFF">
            <path d="M7.50741165,18.8794413 C7.3422042,19.1393826 7.1863638,19.4106505 7.03998703,19.6931848 C6.8655497,20.0298812 6.45578566,20.1653447 6.11623296,20.0025824 L5.99464878,20.2785572 L5.879,20.562 L5.95877753,20.5958942 C6.26268376,20.7510745 6.41520693,21.1095149 6.30296518,21.4425639 C6.23287384,21.6505422 6.16674644,21.8630131 6.10460712,22.079947 C6.39472381,22.0274605 6.69415503,22 7,22 C7.47598225,22 7.93643025,22.0665101 8.37255737,22.1907435 L8.43907668,21.9918514 C8.51847323,21.7655372 8.60328375,21.5466614 8.69359646,21.3351288 C8.84539662,20.9795789 9.25668512,20.8144071 9.61223505,20.9662072 C9.96778498,21.1180074 10.1329568,21.5292959 9.98115665,21.8848458 C9.86379321,22.1597373 9.75634506,22.4511396 9.65875073,22.7594344 C11.0645917,23.6483982 12,25.2149609 12,27 C12,29.7614237 9.76142375,32 7,32 C4.23857625,32 2,29.7614237 2,27 C2,25.047625 3.11900563,23.3566077 4.75064481,22.5333203 C4.65702084,22.3780506 4.6247802,22.1861159 4.67521209,21.9967284 C4.76649735,21.6539237 4.86686158,21.3201264 4.97628024,20.9954542 C5.02039748,20.8645475 5.09944942,20.7552766 5.19955137,20.6745267 L5.19928395,9.66592811 C3.32763733,8.94312376 2,7.12660504 2,5 C2,2.23857625 4.23857625,0 7,0 C9.76142375,0 12,2.23857625 12,5 C12,7.12698156 10.6718925,8.94376699 8.79972185,9.66631193 L8.80016219,15.5105834 C9.03997419,15.4670941 9.29569736,15.550267 9.4630609,15.7507213 C9.71083374,16.0474832 9.67112022,16.4889159 9.37435826,16.7366888 C9.13786388,16.9341429 8.91156483,17.1442734 8.69552681,17.3670422 C8.4325015,17.6382623 8.00327518,17.6509186 7.72486877,17.4001483 C7.58186169,17.5688316 7.44380529,17.7448429 7.31064918,17.9266428 L7.29210637,17.913189 C7.61838451,18.1205573 7.71477996,18.5531632 7.50741165,18.8794413 Z M7,24.2 C5.4536027,24.2 4.2,25.4536027 4.2,27 C4.2,28.5463973 5.4536027,29.8 7,29.8 C8.5463973,29.8 9.8,28.5463973 9.8,27 C9.8,25.4536027 8.5463973,24.2 7,24.2 Z M11.6124923,18.6209133 C11.8695997,18.9096256 11.8439788,19.3521 11.5552665,19.6092074 C11.3370622,19.8035252 11.1335583,20.0172763 10.9441884,20.2511927 C10.7009338,20.5516694 10.2601525,20.598057 9.95967583,20.3548024 C9.65919915,20.1115478 9.6128115,19.6707665 9.85606611,19.3702898 C10.0929302,19.0777069 10.3488926,18.8088558 10.6241982,18.5636875 C10.9129105,18.3065801 11.3553849,18.332201 11.6124923,18.6209133 Z M14.4174127,17.5073895 C14.5187557,17.8804694 14.2984695,18.2650652 13.9253896,18.3664082 C13.6237084,18.4483566 13.3385085,18.5463127 13.069149,18.6603336 C12.7131327,18.8110367 12.3023554,18.6445974 12.1516523,18.2885811 C12.0009493,17.9325648 12.1673885,17.5217876 12.5234048,17.3710845 C12.8517702,17.2320861 13.1966784,17.1136224 13.5583939,17.0153664 C13.9314738,16.9140233 14.3160696,17.1343095 14.4174127,17.5073895 Z M16.7179538,16.6510507 C17.1045421,16.6481226 17.4203074,16.9591407 17.4232762,17.3457289 C17.4261635,17.7323171 17.1151455,18.0480825 16.7285572,18.0510105 L16.5780931,18.0515845 C16.2975134,18.0515845 16.0274825,18.059798 15.7662985,18.0762426 C15.3804632,18.1005354 15.0479887,17.8074472 15.0236959,17.4216119 C14.9994031,17.0357766 15.2924913,16.7033021 15.6783266,16.6790093 C15.872305,16.6667961 16.0700039,16.6586784 16.2719253,16.6546236 L16.7179538,16.6510507 Z M20.3415583,16.9341711 C20.4167859,17.3133806 20.1703599,17.6817747 19.7911504,17.7570023 C19.4548683,17.8237139 19.1089785,17.879095 18.7536808,17.9231452 C18.370019,17.970712 18.020439,17.6982531 17.9728722,17.3145912 C17.9253054,16.9309293 18.1977643,16.5813494 18.5814262,16.5337826 C18.9035262,16.4938483 19.2160176,16.4438147 19.5187272,16.3837632 C19.8979367,16.3085356 20.2663307,16.5549616 20.3415583,16.9341711 Z M23.1412826,15.7522513 C23.3225943,16.0936969 23.1927801,16.5174754 22.8513344,16.6987871 C22.5395795,16.8643326 22.2137371,17.014794 21.8741576,17.1501009 C21.5150181,17.2932016 21.1078719,17.1180675 20.9647712,16.758928 C20.8216705,16.3997884 20.9968045,15.9926422 21.3559441,15.8495415 C21.648724,15.7328821 21.9283682,15.6037533 22.1947468,15.4623031 C22.5361925,15.2809914 22.959971,15.4108056 23.1412826,15.7522513 Z M12.1313046,14.4001934 C12.2782266,14.7577867 12.1074437,15.1667771 11.7498504,15.3136991 C11.4589413,15.4332229 11.1777445,15.5650319 10.9063232,15.7090493 C10.56482,15.8902526 10.1410827,15.7603039 9.95987945,15.4188008 C9.77867616,15.0772976 9.90862488,14.6535603 10.250128,14.472357 C10.5621636,14.3067894 10.8847967,14.1555575 11.217799,14.0187391 C11.5753923,13.8718172 11.9843827,14.0426001 12.1313046,14.4001934 Z M25.3001313,13.6752444 C25.5967403,13.9232002 25.6361815,14.3646573 25.3882256,14.6612664 C25.1540368,14.941407 24.9015941,15.2050065 24.6312829,15.451727 C24.34574,15.7123499 23.9029852,15.6921482 23.6423623,15.4066053 C23.3817394,15.1210624 23.4019411,14.6783075 23.687484,14.4176846 C23.9113962,14.2133138 24.1202951,13.9951825 24.3141093,13.7633387 C24.5620652,13.4667297 25.0035222,13.4272885 25.3001313,13.6752444 Z M15.166757,13.7934648 C15.2180791,14.1766424 14.9490571,14.5288741 14.5658795,14.5801962 C14.2465319,14.622969 13.9351001,14.6763663 13.6316825,14.7403233 C13.2533958,14.820062 12.882093,14.578041 12.8023544,14.1997543 C12.7226158,13.8214677 12.9646368,13.4501648 13.3429234,13.3704262 C13.6807082,13.2992249 14.0264592,13.2399433 14.3800257,13.1925873 C14.7632033,13.1412652 15.1154349,13.4102872 15.166757,13.7934648 Z M17.3358949,13.0337369 C17.722033,13.0148571 18.0503648,13.3125787 18.0692447,13.6987167 C18.0881245,14.0848548 17.7904029,14.4131866 17.4042649,14.4320665 C17.2264371,14.4407612 17.0445705,14.4465376 16.8580394,14.4494226 L16.3767099,14.4527588 C15.9901375,14.4573207 15.6730605,14.14764 15.6684986,13.7610676 C15.6639367,13.3744952 15.9736174,13.0574182 16.3601899,13.0528563 L16.5745893,13.0515846 C16.839321,13.0515845 17.0923874,13.045643 17.3358949,13.0337369 Z M20.9562902,12.896779 C21.1025562,13.254641 20.9310237,13.6633177 20.5731617,13.8095837 C20.2464969,13.9430987 19.895955,14.0550217 19.5207828,14.1460528 C19.1450846,14.2372115 18.7666223,14.0065467 18.6754635,13.6308485 C18.5843048,13.2551503 18.8149696,12.876688 19.1906678,12.7855293 C19.4995011,12.7105945 19.7834364,12.6199381 20.0434854,12.5136504 C20.4013475,12.3673844 20.8100241,12.5389169 20.9562902,12.896779 Z M26.5319496,10.8599962 C26.8994057,10.9801422 27.0998901,11.3754218 26.9797441,11.7428779 C26.8658838,12.0911095 26.7352235,12.4264395 26.587855,12.7485453 C26.4270141,13.1000979 26.011637,13.2547003 25.6600844,13.0938593 C25.3085318,12.9330184 25.1539295,12.5176414 25.3147704,12.1660888 C25.4399814,11.892413 25.5514689,11.6062885 25.6490679,11.3077906 C25.7692139,10.9403346 26.1644935,10.7398502 26.5319496,10.8599962 Z M22.8810838,10.5883755 C23.2214199,10.7717613 23.3486533,11.1963218 23.1652675,11.5366579 C22.9767699,11.8864808 22.7535176,12.2049784 22.4948933,12.4919807 C22.2360938,12.7791772 21.7934766,12.8021977 21.50628,12.5433982 C21.2190834,12.2845987 21.196063,11.8419815 21.4548624,11.5547849 C21.637879,11.3516866 21.7967797,11.1249947 21.9328013,10.8725592 C22.1161871,10.5322231 22.5407476,10.4049897 22.8810838,10.5883755 Z M25,0 C27.7614237,0 30,2.23857625 30,5 C30,7.76142375 27.7614237,10 25,10 C22.2385763,10 20,7.76142375 20,5 C20,2.23857625 22.2385763,0 25,0 Z M7,2.2 C5.4536027,2.2 4.2,3.4536027 4.2,5 C4.2,6.5463973 5.4536027,7.8 7,7.8 C8.5463973,7.8 9.8,6.5463973 9.8,5 C9.8,3.4536027 8.5463973,2.2 7,2.2 Z M25,2.2 C23.4536027,2.2 22.2,3.4536027 22.2,5 C22.2,6.5463973 23.4536027,7.8 25,7.8 C26.5463973,7.8 27.8,6.5463973 27.8,5 C27.8,3.4536027 26.5463973,2.2 25,2.2 Z" id="change-branch-head.dark"></path>
        </g>
    </g>
</svg>