<?xml version="1.0" encoding="UTF-8"?>
<svg width="16px" height="32px" viewBox="0 0 16 32" version="1.1" xmlns="http://www.w3.org/2000/svg" xmlns:xlink="http://www.w3.org/1999/xlink">
    <title>extend.1 line</title>
    <g id="Symbols" stroke="none" stroke-width="1" fill="none" fill-rule="evenodd">
        <g id="5-Icons/1-Action-Icons/15-Adjust/1-Shrink/2-One-Line" transform="translate(-8.000000, 0.000000)" fill="#FFFFFF">
            <path d="M4.22778073,8.65913798 L4.31874652,8.7418579 L16.0009412,18.1130385 L27.6820296,8.74185077 L27.7729875,8.65913798 C28.7394456,7.78028734 30.3436198,7.78028734 31.3100779,8.65913798 C32.1899786,9.45927748 32.2282351,10.7072844 31.4248475,11.5463689 L31.4023529,11.5673834 L17.8546629,23.2618521 L17.7685452,23.3401634 C17.3069882,23.7598812 16.6716481,24 16,24 C15.3308223,24 14.6968164,23.7616017 14.2348757,23.3460518 L14.1464781,23.2665316 L0.595764706,11.5650467 L0.564413528,11.5349359 C0.23607598,11.188445 0.0454932606,10.7648969 0.0071950952,10.324484 L1.0658141e-14,10.1586562 C1.0658141e-14,9.60692322 0.241862954,9.06728013 0.690690396,8.65913798 C1.65714848,7.78028734 3.26132264,7.78028734 4.22778073,8.65913798 Z" id="extend.1-line" transform="translate(16.000000, 16.000000) rotate(-90.000000) translate(-16.000000, -16.000000) "></path>
        </g>
    </g>
</svg>