<?xml version="1.0" encoding="UTF-8"?>
<svg  viewBox="0 0 28 28" version="1.1" xmlns="http://www.w3.org/2000/svg" xmlns:xlink="http://www.w3.org/1999/xlink">
    <title>cross.light</title>
    <g id="Symbols" stroke="none" stroke-width="1" fill="none" fill-rule="evenodd">
        <g id="1-Action-Icons/22-Focus/3-Cross/1-Light" transform="translate(-2, -2)" fill="#414141">
            <path d="M28.7279221,3.27207794 C29.8994949,4.44365081 29.7807765,6.46186418 28.462757,7.77988367 L20.2426407,16 L28.462757,24.2201163 C29.7807765,25.5381358 29.8994949,27.5563492 28.7279221,28.7279221 C27.5563492,29.8994949 25.5381358,29.7807765 24.2201163,28.462757 L16,20.2426407 L7.77988367,28.462757 C6.46186418,29.7807765 4.44365081,29.8994949 3.27207794,28.7279221 C2.10050506,27.5563492 2.2192235,25.5381358 3.53724298,24.2201163 L11.7573593,16 L3.53724298,7.77988367 C2.2192235,6.46186418 2.10050506,4.44365081 3.27207794,3.27207794 C4.44365081,2.10050506 6.46186418,2.2192235 7.77988367,3.53724298 L16,11.7573593 L24.2201163,3.53724298 C25.5381358,2.2192235 27.5563492,2.10050506 28.7279221,3.27207794 Z" id="cross.light"></path>
        </g>
    </g>
</svg>