<?xml version="1.0" encoding="UTF-8"?>
<svg width="18px" height="23px" viewBox="0 0 18 23" version="1.1" xmlns="http://www.w3.org/2000/svg" xmlns:xlink="http://www.w3.org/1999/xlink">
    <title>database.light</title>
    <g id="Symbols" stroke="none" stroke-width="1" fill="none" fill-rule="evenodd">
        <g id="5-Icons/20-Database/1-Light-Mode" transform="translate(-3.000000, 0.000000)" fill="#7C7C7C" fill-rule="nonzero">
            <path d="M10.8881249,22.9861499 C8.56377287,22.77952 6.93162128,22.3662603 5.51761902,21.6207857 C4.72460228,21.2031638 4.33013168,20.9157187 3.88117738,20.4305977 C3.47426563,19.9904761 3.28528868,19.6851231 3.10918191,19.2045939 L3,18.9036031 L3,11.7408938 L3,4.57795503 L3.09652625,4.30841786 C3.71751177,2.55252325 6.04207829,1.19175085 9.25168325,0.697675897 C10.2544837,0.544999391 10.8503724,0.5 11.9998927,0.5 C12.6125127,0.5 13.3467556,0.526861881 13.6363344,0.553953352 C17.5048919,0.949305146 20.2069833,2.34153121 20.9034738,4.30841786 L21,4.57795503 L21,11.7408938 L21,18.9038326 L20.8910326,19.2048235 C20.7147113,19.6853527 20.5259489,19.9907057 20.1190371,20.4308273 C19.6700828,20.9157187 19.2756122,21.2031638 18.4825955,21.6210153 C17.2657213,22.263175 15.7637729,22.6897508 13.9720312,22.9009724 C13.3930882,22.9726041 11.3540249,23.0265575 10.8881249,22.9861499 Z M12.9568083,21.596403 C16.0505121,21.4816241 18.9090137,20.2781849 19.5866977,18.811276 C19.7022606,18.5647622 19.7142857,18.5008512 19.7142857,18.1521669 C19.7142857,17.8289165 19.6983882,17.731311 19.6107478,17.5356652 C19.3516993,16.9489451 18.7496306,16.4002672 17.8406169,15.919848 C16.760195,15.3542142 15.5562614,15.0013996 13.9216672,14.7844501 C13.1443178,14.6781492 10.855886,14.6781492 10.0785366,14.7844501 C8.44394246,15.0013996 7.24000883,15.3542142 6.15958694,15.919848 C5.25057323,16.4002672 4.64870832,16.9489451 4.38945598,17.5356652 C4.30181565,17.731311 4.28571429,17.8291339 4.28571429,18.1521669 C4.28571429,18.5008512 4.29773935,18.5645448 4.41330231,18.811276 C5.10688384,20.3166619 7.917489,21.4690158 11.2423187,21.6135763 C11.6250828,21.6305323 12.039642,21.6390103 12.1592812,21.6305323 C12.2789205,21.6261846 12.6378382,21.6092287 12.9568083,21.596403 Z M5.19947565,14.9158857 C7.86592758,13.3605211 12.7201079,12.9585538 16.5060085,13.9856346 C17.6968511,14.3056106 18.7252877,14.7857647 19.429519,15.3439153 L19.7142857,15.5708661 L19.7142857,14.573462 C19.7102407,13.397617 19.6865776,13.1594423 19.5203288,12.8282425 C19.3739005,12.5343288 18.8951769,12.0653986 18.4878473,11.8123855 C17.9221566,11.4625427 16.9804848,11.0868278 16.114252,10.8596867 C13.6140488,10.2121254 10.3857489,10.2121254 7.88554574,10.8596867 C7.01911067,11.0866375 6.07764118,11.4625427 5.51195049,11.8123855 C5.10441858,12.0653986 4.625695,12.5343288 4.47946891,12.8282425 C4.31342241,13.1594423 4.28955702,13.397617 4.28571429,14.573462 L4.28571429,15.5706759 L4.57452598,15.3437251 C4.72884203,15.2172186 5.01360874,15.0275539 5.19947565,14.9158857 Z M4.42689276,11.1611697 C4.53773993,11.0447969 5.06001618,10.673631 5.3328863,10.5198732 C6.52388651,9.84866864 8.2410062,9.37991826 10.2787331,9.1697954 C10.907811,9.10614504 13.0917834,9.10614504 13.7210636,9.1697954 C15.7585882,9.37991826 17.4759102,9.84866864 18.6667081,10.5198732 C18.9397805,10.673631 19.4620567,11.0447969 19.5727016,11.1611697 C19.6161909,11.202389 19.6637258,11.2399658 19.6835488,11.2399658 C19.7270381,11.2399658 19.7231949,9.35365291 19.6795033,8.99744096 C19.5134348,7.6324092 17.1987923,6.4924543 13.8395972,6.11361964 C13.0007592,6.01986957 10.9988352,6.01986957 10.1599972,6.11361964 C6.8246707,6.48861994 4.50598262,7.6249322 4.32393435,8.97500997 C4.27639953,9.30495655 4.27255629,11.2401575 4.3160456,11.2401575 C4.33586863,11.2399658 4.38340345,11.202389 4.42689276,11.1611697 Z M4.74461144,6.52250031 C6.03433695,5.45380502 8.51084453,4.71990162 11.1968794,4.60301307 C14.112464,4.48200147 16.8818244,5.03449055 18.6264021,6.09102283 C18.9744683,6.30480312 19.1249396,6.41365172 19.599612,6.81276323 L19.7142857,6.90944882 L19.7142857,5.98609114 C19.7142857,5.47792488 19.6985105,4.95780176 19.6746454,4.82875021 C19.5559268,4.08680686 18.9388729,3.44154909 17.7955738,2.86494015 C16.7275104,2.32873713 15.5643911,2.00610825 13.9187119,1.78820491 C13.1234789,1.68739626 10.8765211,1.68739626 10.0812881,1.78820491 C8.43560886,2.0059021 7.27248962,2.32853098 6.2044262,2.86494015 C5.06112711,3.44154909 4.44407324,4.08680686 4.32535459,4.82875021 C4.30169175,4.95780176 4.28571429,5.47792488 4.28571429,5.98609114 L4.28571429,6.90944882 L4.40038801,6.81276323 C4.46369115,6.76040046 4.61800518,6.63134891 4.74461144,6.52250031 Z" id="database.light" transform="translate(12.000000, 11.750000) scale(-1, 1) rotate(-180.000000) translate(-12.000000, -11.750000) "></path>
        </g>
    </g>
</svg>