<?xml version="1.0" encoding="UTF-8"?>
<svg width="16px" height="10px" viewBox="0 0 16 10" version="1.1" xmlns="http://www.w3.org/2000/svg" xmlns:xlink="http://www.w3.org/1999/xlink">
    <title>Path</title>
    <g id="Symbols" stroke="none" stroke-width="1" fill="none" fill-rule="evenodd">
        <g id="5-Icons/24-Dropdown/2-Dark-Mode" transform="translate(-16.000000, -11.000000)" fill="#FFFFFF">
            <path d="M24.0065235,21 C24.2355713,20.9969656 24.4464981,20.9499317 24.6393042,20.8588985 C24.8321102,20.7678653 25.0198423,20.6252465 25.2025007,20.4310423 L31.5911933,13.5762403 C31.8637311,13.2910029 32,12.9435594 32,12.5339099 C32,12.2517069 31.9354897,11.994538 31.8064691,11.7624033 C31.6774486,11.5302685 31.5034883,11.3451677 31.2845882,11.2071006 C31.0656881,11.0690335 30.8243182,11 30.5604784,11 C30.1574703,11 29.8023014,11.1638598 29.4949715,11.4915794 L24.0169582,17.4357984 L18.5137266,11.4915794 C18.2034973,11.1638598 17.8468787,11 17.4438706,11 C17.1771315,11 16.9350367,11.0690335 16.7175863,11.2071006 C16.5001359,11.3451677 16.3261756,11.5302685 16.1957054,11.7624033 C16.0652351,11.994538 16,12.2517069 16,12.5339099 C16,12.7372174 16.0340672,12.9253528 16.1022017,13.0983159 C16.1703361,13.271279 16.2725378,13.4321044 16.4088067,13.580792 L22.8018483,20.4310423 C23.167165,20.8103474 23.5687234,21 24.0065235,21 Z" id="Path"></path>
        </g>
    </g>
</svg>