<?xml version="1.0" encoding="UTF-8"?>
<svg width="32px" height="30px" viewBox="0 0 32 30" version="1.1" xmlns="http://www.w3.org/2000/svg" xmlns:xlink="http://www.w3.org/1999/xlink">
    <title>downloadicon.light</title>
    <g id="Symbols" stroke="none" stroke-width="1" fill="none" fill-rule="evenodd">
        <g id="5-Icons/1-Action-Icons/14-Download/1-Light" transform="translate(0.000000, -1.000000)" fill="#CC2E34FF">
            <path d="M17.3732013,21.1867311 L17.3732013,21.1867311 L22.9117257,14.9751757 L22.9117257,14.9751757 C23.2056332,14.6456503 23.3852434,14.2073814 23.3852434,13.7295694 C23.3852434,12.7014499 22.5590366,11.8677504 21.5401572,11.8677504 C20.9947954,11.8677504 20.5049495,12.1050088 20.1685886,12.4839631 L20.1685886,12.4839631 L17.8467191,15.0839192 L17.8467191,2.86181898 C17.8467191,2.86181898 17.8467191,2.86181898 17.8467191,2.86181898 C17.8467191,1.83369947 17.0205123,1 16.0016328,1 C14.9827533,1 14.1565466,1.83369947 14.1565466,2.86181898 C14.1565466,2.86181898 14.1565466,2.86181898 14.1565466,2.86181898 L14.1565466,15.0839192 L11.834677,12.4839631 L11.834677,12.4839631 C11.4983162,12.1050088 11.0084703,11.8677504 10.4631085,11.8677504 C9.444229,11.8677504 8.61802225,12.7014499 8.61802225,13.7295694 C8.61802225,14.2073814 8.79763241,14.6456503 9.09153995,14.9751757 L9.09153995,14.9751757 L14.6300643,21.1867311 L14.6300643,21.1867311 C14.9664251,21.5656854 15.456271,21.8029438 16.0016328,21.8029438 C16.5469946,21.8029438 17.0368405,21.5656854 17.3732013,21.1867311 Z M28.3098275,19.8224956 L28.3098275,27.276362 L3.69343811,27.276362 L3.69343811,19.8224956 C3.69343811,18.7943761 2.86723135,17.9606766 1.84835187,17.9606766 C0.829472395,17.9606766 0,18.7943761 0,19.8224956 L0,29.138181 C0,30.1663005 0.826206756,31 1.84508623,31 L30.1549138,31 C31.1737932,31 32,30.1663005 32,29.138181 L32,19.8224956 C32,18.7943761 31.1737932,17.9606766 30.1549138,17.9606766 C29.1360343,17.9606766 28.3098275,18.7943761 28.3098275,19.8224956 Z" id="downloadicon.light"></path>
        </g>
    </g>
</svg>