<?xml version="1.0" encoding="UTF-8"?>
<svg  viewBox="0 0 32 32" version="1.1" xmlns="http://www.w3.org/2000/svg" xmlns:xlink="http://www.w3.org/1999/xlink">
    <title>edit.light</title>
    <g id="Symbols" stroke="none" stroke-width="1" fill="none" fill-rule="evenodd">
        <g id="5-Icons/1-Action-Icons/6-Edit/1-Light" fill="#7C7C7C">
            <path d="M31.1369023,0.864104538 C32.4240827,2.1522649 32.2606002,4.43882465 30.7197072,5.97964472 L6.82342814,29.8744862 C6.70863892,29.9892113 6.57281974,30.0792429 6.42831889,30.1363483 L2.06438718,31.8609333 C1.10790905,32.2389245 0.195635568,31.819874 0.0267673235,30.9249577 C-0.032216416,30.6123737 0.00678292677,30.2682721 0.138795193,29.9341386 L1.86439461,25.5695734 C1.92153358,25.4250515 2.0115874,25.289226 2.12634704,25.1744718 L26.0471732,1.25581944 L26.2128917,1.09981628 C27.7556121,-0.278469347 29.9072992,-0.366149993 31.1369023,0.864104538 Z M4.14293834,25.3493115 L3.63011955,25.861818 C3.47703462,26.0148957 3.35691123,26.1960863 3.28072287,26.3888806 L2.01039711,29.6034338 C1.9347863,29.7947667 2.01854702,29.9772819 2.19748192,30.0110929 C2.25997915,30.0229023 2.32878083,30.0151243 2.3955934,29.9887167 L5.60896875,28.7183009 C5.80156051,28.6421592 5.98257904,28.5221504 6.13554015,28.3692028 L6.64839555,27.8563928 L4.14293834,25.3493115 Z M29.7614128,2.23950682 C29.090278,1.56793702 27.9668228,1.61371784 27.2345155,2.26732199 L27.1185789,2.37626715 L26.3368264,3.15795058 L28.8419329,5.66450548 L29.6237831,4.88303609 C30.3337299,4.17312285 30.4506892,3.07970086 29.8770807,2.36824223 L29.7614128,2.23950682 Z" id="edit.light"></path>
        </g>
    </g>
</svg>