<?xml version="1.0" encoding="UTF-8"?><svg version="1.1" width="32px" height="32px" viewBox="0 0 32.0 32.0" xmlns="http://www.w3.org/2000/svg" xmlns:xlink="http://www.w3.org/1999/xlink"><defs><clipPath id="i0"><path d="M515.180574,5.17920154e-16 C519.638168,-3.00926524e-16 521.254599,0.464128056 522.884229,1.33566352 C524.513858,2.20719898 525.792801,3.48614185 526.664336,5.11577148 C527.535872,6.74540111 528,8.3618323 528,12.819426 L528,555.180574 C528,559.638168 527.535872,561.254599 526.664336,562.884229 C525.792801,564.513858 524.513858,565.792801 522.884229,566.664336 C521.254599,567.535872 519.638168,568 515.180574,568 L12.819426,568 C8.3618323,568 6.74540111,567.535872 5.11577148,566.664336 C3.48614185,565.792801 2.20719898,564.513858 1.33566352,562.884229 C0.464128056,561.254599 2.00617683e-16,559.638168 -3.45280103e-16,555.180574 L3.45280103e-16,12.819426 C-2.00617683e-16,8.3618323 0.464128056,6.74540111 1.33566352,5.11577148 C2.20719898,3.48614185 3.48614185,2.20719898 5.11577148,1.33566352 C6.74540111,0.464128056 8.3618323,3.00926524e-16 12.819426,-5.17920154e-16 L515.180574,5.17920154e-16 Z"></path></clipPath><clipPath id="i1"><path d="M16,0 C24.836556,0 32,7.163444 32,16 C32,24.836556 24.836556,32 16,32 C7.163444,32 0,24.836556 0,16 C0,7.163444 7.163444,0 16,0 Z"></path></clipPath></defs><g transform="translate(-480.0 -16.0)"><g clip-path="url(#i0)"><g transform="translate(480.0 16.0)"><g clip-path="url(#i1)"><polygon points="0,0 32,0 32,32 0,32 0,0" stroke="none" fill="#7C7C7C"></polygon></g><g transform="translate(8.0 8.0)"><path d="M0.822924055,0.32 L15.6902638,15.68 M15.1770759,0.32 L0.309736244,15.68" stroke="#FFFFFF" stroke-width="3" fill="none" stroke-linecap="round" stroke-miterlimit="10"></path></g></g></g></g></svg>