<?xml version="1.0" encoding="UTF-8"?>
<svg  viewBox="0 0 32 32" version="1.1" xmlns="http://www.w3.org/2000/svg" xmlns:xlink="http://www.w3.org/1999/xlink">
    <title>focus.light</title>
    <g id="Symbols" stroke="none" stroke-width="1" fill="none" fill-rule="evenodd">
        <g id="1-Action-Icons/22-Focus/1-Light" fill="#414141">
            <path d="M21,32 C19.8954305,32 19,31.1045695 19,30 C19,28.8954305 19.8954305,28 21,28 L28,28 L28,21 C28,19.9456382 28.8158778,19.0818349 29.8507377,19.0054857 L30,19 C31.1045695,19 32,19.8954305 32,21 L32,29 C32,30.6568542 30.6568542,32 29,32 L21,32 Z M11,32 C12.1045695,32 13,31.1045695 13,30 C13,28.8954305 12.1045695,28 11,28 L4,28 L4,21 C4,19.9456382 3.18412221,19.0818349 2.14926234,19.0054857 L2,19 C0.8954305,19 0,19.8954305 0,21 L0,29 C0,30.6568542 1.34314575,32 3,32 L11,32 Z M21,0 C19.8954305,0 19,0.8954305 19,2 C19,3.1045695 19.8954305,4 21,4 L28,4 L28,11 C28,12.0543618 28.8158778,12.9181651 29.8507377,12.9945143 L30,13 C31.1045695,13 32,12.1045695 32,11 L32,3 C32,1.34314575 30.6568542,0 29,0 L21,0 Z M11,0 C12.1045695,0 13,0.8954305 13,2 C13,3.1045695 12.1045695,4 11,4 L4,4 L4,11 C4,12.0543618 3.18412221,12.9181651 2.14926234,12.9945143 L2,13 C0.8954305,13 0,12.1045695 0,11 L0,3 C0,1.34314575 1.34314575,0 3,0 L11,0 Z" id="focus.light"></path>
        </g>
    </g>
</svg>