<?xml version="1.0" encoding="UTF-8"?>
<svg width="32px" height="32px" viewBox="0 0 32 32" version="1.1" xmlns="http://www.w3.org/2000/svg" xmlns:xlink="http://www.w3.org/1999/xlink">
    <title>Shape</title>
    <g id="Symbols" stroke="none" stroke-width="1" fill="none" fill-rule="evenodd">
        <g id="5-Icons/31-Repo-Stated/1-Small/2-Remote" fill="#FFFFFF">
            <path d="M16,32 C24.836556,32 32,24.836556 32,16 C32,7.163444 24.836556,0 16,0 C7.163444,0 0,7.163444 0,16 C0,24.836556 7.163444,32 16,32 Z M16,29.8666667 C8.34165147,29.8666667 2.13333333,23.6583485 2.13333333,16 C2.13333333,8.34165147 8.34165147,2.13333333 16,2.13333333 C23.6583485,2.13333333 29.8666667,8.34165147 29.8666667,16 C29.8666667,23.6583485 23.6583485,29.8666667 16,29.8666667 Z M20.4774389,6.18820596 L21.4676827,5.92961346 C22.453985,5.66159712 23.1231758,5.44375665 23.1231758,5.38107908 C23.1231758,5.24841021 21.7850262,4.48226482 20.8757929,4.10405433 C20.1607007,3.80780682 18.6589724,3.37889043 17.831702,3.23580253 L17.4333481,3.16425858 L18.2505467,3.97138546 C18.6357528,4.34795867 19.1635932,4.91207427 19.5060054,5.31642343 L19.8782648,5.77076978 C20.1993572,6.1527041 20.3240478,6.23075029 20.4774389,6.18820596 Z M14.797683,7.67951525 C15.0018958,7.67951525 18.1279496,6.84182591 18.2199843,6.76021024 C18.3220907,6.66817555 16.9533785,5.20742872 16.2382863,4.65591518 C15.9114764,4.40064915 15.3495438,4.06342015 15.0022431,3.89984151 L14.6861874,3.76444703 C14.111651,3.53716913 13.5922022,3.43146641 13.5922022,3.55254079 L13.6390078,3.77099716 C13.6841736,3.96196563 13.7595239,4.26494461 13.8539897,4.63223441 L14.2594616,6.16634505 C14.5385874,7.18831318 14.7182205,7.67951525 14.797683,7.67951525 Z M9.35304956,8.74190816 L9.28150561,9.21180603 L10.1922439,8.9492081 C10.5539769,8.84856807 11.048919,8.71458717 11.4983261,8.59882026 L12.1757217,8.40828654 C12.5244218,8.30635 12.7697625,8.22654546 12.7958416,8.20046633 C12.8774573,8.12892238 11.8765366,4.21657977 11.7334487,4.05300113 C11.6820482,4.00194792 11.4469256,4.17559828 11.1305346,4.51282728 C10.313336,5.38107908 9.59824386,7.0769485 9.35304956,8.74190816 Z M5.65083999,10.1666805 L6.97265042,9.81437278 C7.28136217,9.73256417 7.33981159,9.6913683 7.39216301,9.36759065 L7.41198583,9.23229677 C7.51200843,8.47873139 7.73277164,7.41014281 7.92426439,6.71560616 L8.06838962,6.21745519 C8.13157121,5.97615716 8.16041888,5.79219631 8.13749703,5.76901399 C8.11700629,5.73845152 7.66759916,6.12673373 7.14630078,6.62719407 C6.25256578,7.4762575 5.47609362,8.42716145 4.90576208,9.35636114 L4.52462531,10.0169142 C4.38816869,10.2649521 4.29635106,10.4526247 4.29635106,10.4679927 C4.29635106,10.5040303 4.76462299,10.3976481 5.65083999,10.1666805 L5.65083999,10.1666805 Z M27.7610297,11.1834322 C27.791061,11.0992629 27.4993884,10.4743139 27.1480605,9.81380768 L26.9322015,9.41727891 L26.6614063,8.94656179 C26.573418,8.79901178 26.4890714,8.66344884 26.412461,8.54776705 C26.225208,8.2754254 25.9101291,7.86826355 25.6448942,7.57449698 L24.9822766,6.87238838 L21.4887786,7.83267487 C21.3246484,7.87171556 21.2921223,7.90486655 21.546196,8.46187753 L21.8666418,9.14026208 C22.1934518,9.8247918 22.6122965,10.8257125 22.7963659,11.3570826 L22.9118374,11.6981462 C23.0441242,12.0759779 23.1606071,12.3671103 23.1846481,12.3989847 C23.2662637,12.5010912 27.7200482,11.3161011 27.7610297,11.1834322 Z M20.9264988,13.1036579 C21.1921838,13.032114 21.3554152,12.9199358 21.3554152,12.8279011 C21.3554152,12.3580033 19.5268769,8.37411669 19.3327358,8.40467916 L19.1267402,8.45330578 L16.6759492,9.11864609 C15.8848592,9.33964048 15.289947,9.51618038 15.2571618,9.54868773 C15.1960369,9.62023168 16.299064,13.9823287 16.4421519,14.1865416 C16.4932051,14.2785762 17.7702298,13.961838 20.9264988,13.1036579 Z M9.77189422,16.0560613 L9.89186343,16.0337468 C10.6434929,15.8673609 14.5473347,14.8251998 14.6038892,14.7689649 C14.6235364,14.7557922 14.5461593,14.4048998 14.4177991,13.8900274 L14.1645537,12.9098641 C13.4393898,10.1925833 13.3883366,10.0290046 13.2553205,10.0394236 L12.1694269,10.3185248 L9.67808043,11.0078207 C9.35041933,11.1037028 9.14260847,11.1691697 9.12834599,11.1834322 C9.04673032,11.2650479 9.28150561,13.9107848 9.47564671,15.0551407 L9.54069752,15.4180949 C9.62463872,15.8469029 9.69826647,16.0560613 9.77189422,16.0560613 Z M5.58344753,17.2101416 L6.81294765,16.8886856 C8.06167434,16.5488533 7.86563003,16.4442741 7.63668939,15.1367563 C7.55160072,14.6939479 7.46651204,13.9959699 7.42262513,13.4504184 L7.36727942,12.5452821 C7.31700586,11.8189858 7.2584355,11.6653554 7.12581003,11.6738208 C7.06468511,11.6738208 6.23741479,11.8985244 5.28720002,12.1638622 L4.36387055,12.43184 C3.87733451,12.5773095 3.54337829,12.6856567 3.53020567,12.705304 C3.49964321,12.7358664 3.40760852,13.0730954 3.32599285,13.4613776 C3.16241421,14.2375948 3.111361,17.4351925 3.26452062,17.6699678 C3.33606457,17.7821459 3.7854717,17.7005302 5.58344753,17.2101416 Z M24.6037188,19.1209902 C24.7978599,19.1209902 28.2812861,18.1607037 28.3528301,18.0891598 C28.485499,17.9564909 28.6285869,15.9643739 28.5775336,14.9835967 L28.5268261,14.1531332 C28.4524097,13.1283356 28.3576437,13.0430081 27.8678827,13.1604609 L25.0104306,13.9236563 C24.3346635,14.1089287 23.8294863,14.2671401 23.7972865,14.299067 C23.765412,14.3309415 23.7892129,14.6035854 23.8494069,14.963559 L23.9094647,15.2899159 C24.0115711,15.7903763 24.1442399,16.6690471 24.2157839,17.2309797 L24.3790152,18.6816548 C24.4199967,19.0084648 24.4811216,19.1209902 24.6037188,19.1209902 Z M18.2199843,20.816165 C18.2609657,20.8571465 22.3573777,19.7537721 22.5001183,19.6721564 C22.6633497,19.57005 22.3775212,16.8322784 22.0507112,15.3614599 L21.9923599,15.1173346 C21.9259531,14.8862796 21.8589626,14.8324051 21.7239012,14.8405088 L21.5395151,14.8718853 C21.2191279,14.9397062 20.5391223,15.1110382 19.753774,15.3223894 L17.8346444,15.8451939 C17.3268774,15.9886674 16.995467,16.0899232 16.983941,16.1071145 L16.988432,16.1671459 C17.0093604,16.2935568 17.0828579,16.6083747 17.1843386,17.0181118 L17.4211749,17.9513342 C17.7579897,19.2539283 18.1732485,20.7753956 18.2199843,20.816165 Z M14.2048406,21.9296111 L15.9801105,21.4280051 L16.3400455,21.3166253 C16.3740275,21.2789245 16.2227369,20.621486 16.0121863,19.8076082 L15.6974658,18.6345441 L15.4632306,17.8103829 C15.2566119,17.1034427 15.0840244,16.5732454 15.04253,16.5766325 L14.5933073,16.6900535 L10.1598291,17.9151621 C10.037232,18.047831 11.7331014,22.154662 11.9984391,22.3894373 C12.0904738,22.4609812 12.7340221,22.327965 14.2048406,21.9296111 Z M6.07383615,23.8095499 L6.31903046,24.0446725 L8.76011065,23.3969002 C9.47956625,23.198648 10.0179568,23.0324646 10.05807,22.9923513 C10.1058818,22.9526433 10.0484356,22.7274209 9.91481824,22.4083559 L9.78231325,22.1140278 C9.35339686,21.1843038 8.91406144,20.0708577 8.59732319,19.0904277 C8.46465431,18.7125645 8.31114739,18.405898 8.25002247,18.416317 C8.17813122,18.4156224 7.16679152,18.6813075 5.98180146,18.9980457 L4.84659409,19.3185033 C4.07522662,19.5470017 3.82076131,19.6608499 3.80596244,19.7641911 C3.72434678,20.1931075 5.37923471,23.1555827 6.07383615,23.8095499 Z M26.4940766,22.4915437 L26.7025252,22.1581177 C27.167502,21.3946847 27.6894857,20.4192234 27.6894857,20.2952139 L27.687247,20.2763586 C27.6740273,20.241727 27.5835373,20.2527152 26.9697918,20.4103278 L26.0040353,20.6630054 C25.166346,20.887709 24.4411821,21.1228315 24.4002006,21.1940282 C24.3676932,21.2512634 24.3349636,21.4000748 24.3231721,21.5618669 L24.3185849,21.6844168 C24.3185849,22.2275373 24.0611917,23.6461449 23.8056223,24.5398251 L23.654635,25.055583 C23.5686426,25.3701993 23.5182497,25.6058664 23.5420205,25.6377409 C23.6746894,25.7603381 25.9425631,23.3393047 26.4940766,22.4915437 Z M20.5385639,26.8946222 C21.4373781,25.9753172 22.1830328,24.1162165 22.4282271,22.2057152 L22.4574156,21.9492643 C22.4767977,21.7120465 22.4406913,21.6766604 22.3056299,21.6847641 L22.2087534,21.6993707 C22.0161632,21.7374767 21.5823918,21.8467261 21.0574956,21.9865695 L19.5294501,22.4011601 C19.05464,22.5343113 18.7333939,22.631878 18.7204446,22.6450506 C18.7007735,22.664555 18.9470825,23.6585997 19.2221212,24.7187425 L19.6900417,26.4770143 C19.8017953,26.8828195 19.8864603,27.1742036 19.9155064,27.2419229 C19.997122,27.425645 20.0481752,27.3950826 20.5385639,26.8946222 Z M17.8011396,27.8549087 L18.1790028,27.9264527 L17.1162136,23.9372654 C16.9155762,23.2327857 16.8647132,23.193536 16.7494419,23.2071079 L16.657131,23.2174022 C16.5569695,23.2242093 16.2015419,23.3014698 15.7659608,23.4102302 L15.1755461,23.5643556 C14.5014354,23.7480777 13.7557808,23.9526378 13.5105865,24.0137627 L13.0712511,24.1363599 L13.4084801,24.6062578 C13.8783779,25.2598777 15.0838587,26.4757776 15.6659348,26.8741315 C16.2889922,27.2929762 17.310751,27.773293 17.8011396,27.8549087 Z M14.2051879,28.161228 L14.0587778,28.0036437 L13.3063737,27.2315039 C12.8684709,26.7936011 12.3053282,26.1522832 11.9524476,25.7044756 L11.6011673,25.2402681 C11.2848423,24.8313376 11.1528198,24.7406053 10.9568843,24.7489984 C10.8315719,24.7492825 10.3163728,24.8655795 9.7302852,25.019709 L9.33255881,25.1272089 C8.58690417,25.3314217 7.97391839,25.5359818 7.97391839,25.576616 C7.97391839,25.8523728 10.374461,27.1394692 11.7331014,27.5992954 L12.0354526,27.6911632 C12.8691918,27.9315769 14.2051879,28.2332418 14.2051879,28.161228 Z" id="Shape"></path>
        </g>
    </g>
</svg>