<?xml version="1.0" encoding="UTF-8"?>
<svg width="24px" height="21px" viewBox="0 0 24 21" version="1.1" xmlns="http://www.w3.org/2000/svg" xmlns:xlink="http://www.w3.org/1999/xlink">
    <title>heart.dark</title>
    <g id="Symbols" stroke="none" stroke-width="1" fill="none" fill-rule="evenodd">
        <g id="5-Icons/15-Heart/2-Dark-Mode" transform="translate(0.000000, -2.000000)" fill="#FFFFFF" fill-rule="nonzero">
            <path d="M12.0014668,23 L1.85355988,12.8269804 C0.658213782,11.6286762 0,10.0354824 0,8.34095944 C0,6.64643649 0.658213782,5.05351005 1.85355988,3.85520587 C4.32106146,1.38213277 8.33595217,1.38186541 10.8029204,3.85520587 L12.0014668,5.05671836 L13.2000133,3.85520587 C15.6672482,1.38186541 19.6816055,1.38133069 22.1493738,3.85520587 C24.6168754,6.32854633 24.6168754,10.3533725 22.1493738,12.8269804 L12.0014668,23 Z M6.32824012,3.60355397 C5.11742546,3.60355397 3.90661081,4.0656176 2.98489815,4.98961119 C2.09198902,5.88472997 1.60019558,7.07474601 1.60019558,8.34095944 C1.60019558,9.60717287 2.09198902,10.7974563 2.98489815,11.6925751 L12.0014668,20.7311894 L21.0180355,11.6923077 C22.8614608,9.84432053 22.8614608,6.83733099 21.0180355,4.98934383 C19.1743435,3.14135666 16.1747769,3.14189138 14.3316183,4.98934383 L12.0014668,7.32526163 L9.67158208,4.98934383 C8.74986943,4.0656176 7.53905477,3.60355397 6.32824012,3.60355397 Z" id="heart.dark"></path>
        </g>
    </g>
</svg>