<?xml version="1.0" encoding="UTF-8"?>
<svg width="32px" height="32px" viewBox="0 0 32 32" version="1.1" xmlns="http://www.w3.org/2000/svg" xmlns:xlink="http://www.w3.org/1999/xlink">
    <title>laptopicon</title>
    <g id="Symbols" stroke="none" stroke-width="1" fill="none" fill-rule="evenodd">
        <g id="5-Icons/31-Repo-Stated/1-Small/1-Local" fill="#FFFFFF" fill-rule="nonzero">
            <g id="laptopicon" transform="translate(16.000000, 16.000000) rotate(-180.000000) translate(-16.000000, -16.000000) translate(0.000000, 0.500000)">
                <path d="M2.99983673,30.9669726 C2.53746939,30.8724431 2.20604082,30.6013707 2.03102041,30.1916331 C1.94971429,29.9834706 1.93730612,28.9433168 1.93730612,21.0061331 C1.93730612,12.9994521 1.94971429,12.0225376 2.03722449,11.801859 C2.10612245,11.619058 2.11853061,11.5182705 2.06857143,11.4299991 C2.03102041,11.3608311 1.54971429,9.36220757 0.999836735,6.97920798 C0.00620408163,2.6855269 0,2.64764923 0,1.91644549 C0,1.50670789 0.0313469388,1.05909263 0.0688979592,0.920427415 C0.162612245,0.592703215 0.58122449,0.17012015 0.90644898,0.0755906573 C1.26269388,-0.0251968858 30.7376327,-0.0251968858 31.0938776,0.0755906573 C31.4187755,0.17012015 31.8377143,0.592703215 31.9314286,0.920427415 C31.9689796,1.05909263 32,1.50670789 32,1.91644549 C32,2.6479786 31.9937959,2.6855269 30.9998367,6.97887861 C30.4499592,9.3618782 29.9686531,11.3605018 29.931102,11.4296697 C29.8811429,11.5179411 29.893551,11.6187287 29.962449,11.8015296 C30.0499592,12.0222082 30.0623673,12.9994521 30.0623673,21.0058038 C30.0623673,28.9429875 30.0499592,29.9831412 29.9686531,30.1913038 C29.8435918,30.4877377 29.6561633,30.6830547 29.3436735,30.8533396 L29.093551,30.9920048 L16.1560816,30.9982628 C9.03738776,31.0048503 3.11869388,30.9923342 2.99983673,30.9669726 Z M28.8124082,20.9998751 L28.8124082,12.299868 L16,12.299868 L3.18759184,12.299868 L3.18759184,20.9998751 L3.18759184,29.6998821 L16,29.6998821 L28.8124082,29.6998821 L28.8124082,20.9998751 Z M5.28130612,10.8371312 C5.1562449,10.2633668 4.49991837,6.60076064 4.49991837,6.455508 C4.49991837,6.22857135 4.63738776,6.02040884 4.87477551,5.90084715 C5.03118367,5.81883375 6.43102041,5.80631765 15.9996735,5.80631765 C27.8622041,5.80631765 27.1621224,5.7875435 27.3998367,6.13404185 C27.456,6.2097972 27.4997551,6.35472046 27.4997551,6.455508 C27.4997551,6.60043127 26.8434286,10.2633668 26.7183673,10.8371312 L26.6870204,10.9757964 L27.7126531,10.9757964 C28.6377143,10.9757964 28.7438367,10.9632803 28.7751837,10.8687508 C28.8940408,10.4843748 30.5374694,3.2783948 30.5129313,3.25303323 C30.4940408,3.23425908 28.0437551,3.22141361 25.0625306,3.22141361 L19.6437551,3.22141361 L19.4001633,3.86434591 C19.1062857,4.63968537 18.8564898,4.92986127 18.3689796,5.07478454 C17.8876735,5.2197078 14.1126531,5.2197078 13.6313469,5.07478454 C13.1438367,4.92986127 12.8937143,4.63968537 12.6001633,3.86434591 L12.3565714,3.22141361 L6.93746939,3.22141361 C3.9562449,3.22141361 1.50628571,3.23392971 1.48706152,3.25303323 C1.46220408,3.2783948 3.10628571,10.4840454 3.22481633,10.8687508 C3.25616327,10.9632803 3.36228571,10.9757964 4.28734694,10.9757964 L5.31265306,10.9757964 L5.28130612,10.8371312 Z M9.2875102,10.5535427 C9.26236735,10.3140899 9.22514286,10.0301721 9.20620408,9.92312648 L9.17485714,9.71496397 L7.7684898,9.71496397 L6.36212245,9.71496397 L6.39346939,9.85988724 C6.41208163,9.93564258 6.46236735,10.1813534 6.49959184,10.40829 C6.54334694,10.6352267 6.58089796,10.8559053 6.5995102,10.900041 C6.61191837,10.9566929 6.94334694,10.9757964 7.97453061,10.9757964 L9.32440816,10.9757964 L9.2875102,10.5535427 Z M13.3498776,10.8371312 C13.3312653,10.7551178 13.3123265,10.4715293 13.3123265,10.206715 L13.3123265,9.71496397 L11.8997551,9.71496397 L10.4809796,9.71496397 L10.5247347,10.1434757 C10.5498776,10.3766704 10.580898,10.6605883 10.5998367,10.7738919 L10.6373878,10.9757964 L12.0124082,10.9757964 L13.3874286,10.9757964 L13.3498776,10.8371312 Z M17.3750204,10.4903034 C17.3750204,10.2192311 17.3936327,9.93564258 17.4125714,9.85988724 L17.4501224,9.71496397 L16,9.71496397 L14.5498776,9.71496397 L14.5874286,9.85988724 C14.6060408,9.93564258 14.6249796,10.2192311 14.6249796,10.4903034 L14.6249796,10.9757964 L16,10.9757964 L17.3750204,10.9757964 L17.3750204,10.4903034 Z M21.4001633,10.7742213 C21.4187755,10.6609176 21.4501224,10.3769998 21.4749388,10.1438051 L21.5186939,9.71529334 L20.0999184,9.71529334 L18.6873469,9.71529334 L18.6873469,10.2070443 C18.6873469,10.4718587 18.6687347,10.7554471 18.6497959,10.8374605 L18.6122449,10.9761257 L19.9872653,10.9761257 L21.3622857,10.9761257 L21.4001633,10.7742213 Z M25.5062857,10.3769998 C25.5686531,10.0680497 25.6189388,9.79071931 25.6189388,9.76535774 C25.6251429,9.73373812 24.9939592,9.71496397 24.2249796,9.71496397 L22.8251429,9.71496397 L22.7937959,9.92312648 C22.7751837,10.0301721 22.7376327,10.3140899 22.7124898,10.5535427 L22.6749388,10.9761257 L24.037551,10.9636096 L25.4001633,10.9448355 L25.5062857,10.3769998 Z M9.03738776,8.37211818 C9.04359184,8.36586013 9.0122449,8.0885297 8.97502041,7.76047613 L8.90612245,7.16167955 L7.39363265,7.1429054 C6.19363265,7.1303893 5.88114286,7.1429054 5.90628571,7.20581527 C5.91869388,7.24995099 5.97518367,7.54638494 6.03134694,7.85500562 L6.13126531,8.42251195 L7.58138776,8.4037378 C8.37485714,8.3912217 9.03118367,8.37837623 9.03738776,8.37211818 Z M25.962449,7.87410914 C26.0186122,7.55264299 26.0813061,7.24995099 26.0937143,7.20581527 C26.1188571,7.1429054 25.8063673,7.13005993 24.6063673,7.1429054 L23.0938776,7.16167955 L23.0501224,7.53979752 C23.0253061,7.74796003 22.9939592,8.02529046 22.9750204,8.15143957 L22.9502041,8.39089233 L24.3314286,8.40966648 C25.0938776,8.41592453 25.7502041,8.42877 25.7877551,8.4412861 C25.8373878,8.44787352 25.9000816,8.22719491 25.962449,7.87410914 Z M13.2499592,8.00025826 C13.2499592,7.77957965 13.2313469,7.49599117 13.2124082,7.36984205 L13.1686531,7.1303893 L11.6747755,7.1303893 L10.1746939,7.1303893 L10.2060408,7.3385518 C10.2246531,7.4455974 10.2622041,7.72951525 10.2873469,7.968968 L10.324898,8.39155107 L11.7874286,8.39155107 L13.2499592,8.39155107 L13.2499592,8.00025826 Z M17.4625306,8.29010478 C17.4811429,8.23345296 17.5000816,7.94953511 17.5000816,7.65968858 L17.5000816,7.13005993 L16,7.13005993 L14.4999184,7.13005993 L14.4999184,7.65968858 C14.4999184,7.94953511 14.5185306,8.23345296 14.5374694,8.29010478 C14.5688163,8.37837623 14.7562449,8.39089839 16,8.39089839 C17.2437551,8.3912217 17.4311837,8.37837623 17.4625306,8.29010478 Z M21.7126531,7.96863863 C21.7374694,7.72918588 21.7750204,7.44526803 21.7939592,7.33822243 L21.8253061,7.13005993 L20.3252245,7.13005993 L18.8313469,7.13005993 L18.7875918,7.36951268 C18.7689796,7.4956618 18.7500408,7.77925028 18.7500408,7.99992888 L18.7500408,8.39089233 L20.2125714,8.39089233 L21.675102,8.39089233 L21.7126531,7.96863863 Z M18.1188571,3.6186351 C18.1688163,3.48622794 18.2187755,3.34130467 18.2311837,3.303427 C18.256,3.24051713 17.7874286,3.22141361 16,3.22141361 C14.2125714,3.22141361 13.7436735,3.24018776 13.7688163,3.303427 C13.7812245,3.34130467 13.8311837,3.48622794 13.8814694,3.6186351 L13.9627755,3.85182981 L16.0003265,3.85182981 L18.0378776,3.85182981 L18.1188571,3.6186351 Z M30.7376327,1.68950883 C30.7500408,1.55710167 30.7252245,1.40592035 30.6814694,1.35552658 C30.619102,1.27977124 28.5939592,1.26725514 16.0065306,1.26725514 C4.73142857,1.26725514 1.38155102,1.28602929 1.32538776,1.34301048 C1.24408163,1.42502387 1.21926531,1.84727757 1.29404082,1.91677486 C1.31265306,1.94213643 7.94416327,1.95465253 16.0251429,1.94213643 L30.7190204,1.92962033 L30.7376327,1.68950883 Z" id="Shape"></path>
                <path d="M4.96261224,28.3695524 C4.8564898,28.3379328 4.71902041,28.2562488 4.65012245,28.1804935 C4.53746939,28.0543443 4.53126531,27.8465112 4.51265306,21.0249073 L4.5002449,14.0083157 L4.68146939,13.8001532 L4.86269388,13.5919907 L16,13.5919907 L27.1376327,13.5919907 L27.3188571,13.8001532 L27.5000816,14.0020576 L27.5000816,20.9557394 C27.5000816,26.3837744 27.4814694,27.9347827 27.4187755,28.0609318 C27.3750204,28.1492032 27.2437551,28.2690943 27.124898,28.3257461 C26.9185306,28.4327917 26.2687347,28.4393791 16.0310204,28.4327917 C9.83738776,28.4327917 5.07493878,28.4011721 4.96261224,28.3695524 Z M26.2501224,20.9998751 L26.2501224,14.8844427 L16,14.8844427 L5.74987755,14.8844427 L5.74987755,20.9995457 L5.74987755,27.1146487 L16,27.1146487 L26.2501224,27.1146487 L26.2501224,20.9998751 Z" id="Shape"></path>
            </g>
        </g>
    </g>
</svg>