<?xml version="1.0" encoding="UTF-8"?>
<svg width="32px" height="32px" viewBox="0 0 32 32" version="1.1" xmlns="http://www.w3.org/2000/svg" xmlns:xlink="http://www.w3.org/1999/xlink">
    <g id="Symbols" stroke="none" stroke-width="1" fill="none" fill-rule="evenodd">
        <g id="5-Icons/37-Links/1-Light-Mode" fill="#FFFFFF">
            <path d="M11.7191837,25.3844155 L10.0995918,26.9942295 C8.69877551,28.3852655 6.41306122,28.3852655 5.00897959,26.9942295 C4.33632653,26.3248342 3.96734694,25.436661 3.96734694,24.4897116 C3.96734694,23.5427622 4.33959184,22.6578543 5.00897959,21.9851937 L10.9681633,16.0749232 C12.202449,14.8504197 14.5273469,13.0446851 16.2187755,14.7263366 C16.9959184,15.4969575 18.2497959,15.4936922 19.0236735,14.7165406 C19.7942857,13.939389 19.7910204,12.6822321 19.0106122,11.9116112 C16.1338776,9.05443622 11.8791837,9.58342176 8.17306122,13.2601977 L2.21714286,19.1769989 C0.786938776,20.5941576 1.0658141e-14,22.4847911 1.0658141e-14,24.4929769 C1.0658141e-14,26.5044281 0.786938776,28.3917962 2.21714286,29.808955 C3.68979592,31.2685632 5.61959184,32 7.55591837,32 C9.4922449,32 11.4253061,31.2685632 12.8946939,29.808955 L14.517551,28.199141 C15.2946939,27.4285201 15.2979592,26.1746285 14.5273469,25.3974769 C13.7502041,24.6203253 12.4963265,24.61706 11.7191837,25.3844155 L11.7191837,25.3844155 Z M29.7828571,2.41599433 C26.6873469,-0.650162545 22.3640816,-0.816695027 19.5036735,2.0241532 L17.4857143,4.02907367 C16.7085714,4.79969457 16.7020408,6.0535862 17.4726531,6.83073778 C18.2432653,7.60788937 19.4971429,7.61115471 20.277551,6.84053381 L22.2987755,4.83887868 C23.7779592,3.36620909 25.7208163,3.97682819 26.9910204,5.23398516 C27.6636735,5.90338043 28.0359184,6.79155367 28.0359184,7.73850308 C28.0359184,8.68545249 27.6636735,9.57362573 26.9910204,10.2397557 L20.6302041,16.5451326 C17.7208163,19.4284303 16.3591837,18.0765783 15.7746939,17.4986127 C14.997551,16.7279918 13.7436735,16.7312571 12.9730612,17.5084087 C12.202449,18.2855603 12.2057143,19.5427173 12.9828571,20.3100728 C14.3183673,21.6325366 15.8432653,22.2888705 17.44,22.2888705 C19.3926531,22.2888705 21.4595918,21.3060024 23.4253061,19.3533274 L29.7861224,13.0479505 C31.2097959,11.6275263 32,9.74015821 32,7.73197239 C32,5.72378658 31.2097959,3.83641845 29.7828571,2.41599433 L29.7828571,2.41599433 Z" id="linkicon.ligh"></path>
        </g>
    </g>
</svg>