<?xml version="1.0" encoding="UTF-8"?>
<svg width="24px" height="32px" viewBox="0 0 24 32" version="1.1" xmlns="http://www.w3.org/2000/svg" xmlns:xlink="http://www.w3.org/1999/xlink">
    <title>lock.light</title>
    <g id="Creat-Repo" stroke="none" stroke-width="1" fill="none" fill-rule="evenodd">
        <g id="Lock-Light" transform="translate(-51.000000, -47.000000)" fill="#7C7C7C" fill-rule="nonzero">
            <g id="lock.light" transform="translate(51.000000, 47.000000)">
                <path d="M23,14 L20,14 L20,8 C20,3.588875 16.411125,0 12,0 C7.588875,0 4,3.588875 4,8 L4,14 L1,14 C0.44775,14 0,14.44775 0,15 L0,31 C0,31.55225 0.44775,32 1,32 L23,32 C23.55225,32 24,31.55225 24,31 L24,15 C24,14.44775 23.55225,14 23,14 Z M6,8 C6,4.691375 8.6914375,2 12,2 C15.3085625,2 18,4.6914375 18,8 L18,14 L17,14 L17,8 C17,5.2431875 14.7568125,3 12,3 C9.2431875,3 7,5.2431875 7,8 L7,14 L6,14 L6,8 Z M9,14 L9,8 C9,6.3456875 10.3456875,5 12,5 C13.6543125,5 15,6.3456875 15,8 L15,14 L9,14 Z M22,30 L2,30 L2,16 L22,16 L22,30 Z" id="Shape"></path>
                <path d="M12,19.000125 C10.8954375,19.000125 10,19.8955 10,21.000125 C10,21.7385 10.40475,22.37625 11,22.7226875 L11,25.000125 C11,25.552375 11.4476875,26.000125 12,26.000125 C12.5523125,26.000125 13,25.552375 13,25.000125 L13,22.7226875 C13.59525,22.37625 14,21.7385 14,21.000125 C14,19.8955 13.1045625,19.000125 12,19.000125 Z" id="Path"></path>
            </g>
        </g>
    </g>
</svg>