<?xml version="1.0" encoding="UTF-8"?>
<svg width="26px" height="20px" viewBox="0 0 26 20" version="1.1" xmlns="http://www.w3.org/2000/svg" xmlns:xlink="http://www.w3.org/1999/xlink">
    <title>members.light</title>
    <g id="Symbols" stroke="none" stroke-width="1" fill="none" fill-rule="evenodd">
        <g id="5-Icons/11-Members/1-Light-Mode" transform="translate(1.000000, -3.000000)" stroke="#414141" stroke-width="1.39298859">
            <g id="members.light" transform="translate(0.000000, 3.000000)">
                <g id="people-3" transform="translate(18.993377, 4.995859)" stroke-linecap="round">
                    <path d="M0,6.84692908 C2.60517592,6.84692908 4.27405009,8.97041649 5.00662252,13.2173913" id="Path"></path>
                    <path d="M0.0276559822,6.76861611 C1.98625521,6.76861611 3.5740136,5.25340979 3.5740136,3.38430806 C3.5740136,1.51520633 1.98625521,0 0.0276559822,0" id="Oval" stroke-linejoin="round"></path>
                </g>
                <g id="people-2" transform="translate(2.503311, 11.604555) scale(-1, 1) translate(-2.503311, -11.604555) translate(0.000000, 4.995859)" stroke-linecap="round">
                    <path d="M0,6.84692908 C2.60517592,6.84692908 4.27405009,8.97041649 5.00662252,13.2173913" id="Path"></path>
                    <path d="M0.0276559822,6.76861611 C1.98625521,6.76861611 3.5740136,5.25340979 3.5740136,3.38430806 C3.5740136,1.51520633 1.98625521,0 0.0276559822,0" id="Oval" stroke-linejoin="round"></path>
                </g>
                <g id="people-1" transform="translate(5.006623, 0.000000)">
                    <path d="M0,19 C1.03781093,13.5143211 3.40204934,10.7714816 7.09271523,10.7714816 C10.7833811,10.7714816 13.1476195,13.5143211 14.1854305,19" id="Path" stroke-linecap="round"></path>
                    <ellipse id="Oval" cx="7.16013771" cy="5.63741094" rx="5.05991227" ry="4.94091665"></ellipse>
                </g>
            </g>
        </g>
    </g>
</svg>