<?xml version="1.0" encoding="UTF-8"?>
<svg width="24px" height="24px" viewBox="0 0 24 24" version="1.1" xmlns="http://www.w3.org/2000/svg" xmlns:xlink="http://www.w3.org/1999/xlink">
    <title>member settings.dark</title>
    <g id="Symbols" stroke="none" stroke-width="1" fill="none" fill-rule="evenodd">
        <g id="member-settings.dark" transform="translate(0.000000, 0.000000)">
            <g id="Setting">
                <path d="M10.1914638,23.9207452 C9.92917875,23.8269288 9.60101632,23.5271081 9.4650983,23.2552118 C9.36199653,23.0443085 9.35734348,22.9833156 9.33383333,21.5961549 C9.30567014,19.9464061 9.31987418,19.9980909 8.86534473,19.7683263 C8.59816174,19.6277241 8.39195818,19.6042087 8.17644853,19.688717 C8.10616299,19.7168865 7.62347035,20.1573094 7.10820636,20.6682783 C6.04927028,21.7227948 5.91800531,21.8117123 5.39784337,21.8117123 C4.86372229,21.8117123 4.76062051,21.7367571 3.51409308,20.4899536 C2.26781054,19.2433951 2.19262706,19.1402705 2.19262706,18.6057862 C2.19262706,18.085509 2.28176969,17.954215 3.33605271,16.8950444 C3.84666366,16.3794214 4.28723396,15.8968668 4.31539715,15.8265657 C4.39988673,15.6110083 4.37637659,15.4047591 4.24045857,15.1375169 C4.00609182,14.6828868 4.05776516,14.6968491 2.40838161,14.6689246 C1.02128311,14.6454092 0.96054857,14.6407551 0.749691965,14.5376305 C0.468549825,14.3975182 0.178101586,14.0741822 0.0843059074,13.7929778 C-0.0281019691,13.4696417 -0.0281019691,10.5263037 0.0843059074,10.2029676 C0.178101586,9.92176321 0.454590677,9.61238938 0.740385866,9.4671331 C0.965201619,9.35004625 0.988711763,9.35004625 2.40862651,9.3265309 C4.05801006,9.29836147 4.00633672,9.31256866 4.24070347,8.85793856 C4.37662149,8.5906964 4.40013163,8.38444718 4.31564205,8.1688898 C4.28747886,8.0985887 3.83784735,7.606481 3.31303236,7.07689571 C2.6851156,6.44418582 2.33368792,6.05054865 2.28225948,5.92856277 C2.23548409,5.81613 2.1980148,5.60988078 2.1980148,5.41293972 C2.19336175,4.855185 2.25409629,4.76626759 3.51458287,3.50550187 C4.76086541,2.25894335 4.86396718,2.18374322 5.39833317,2.18374322 C5.91849511,2.18374322 6.04951518,2.27290559 7.10869615,3.32742208 C7.62420504,3.83839105 8.10665279,4.27881397 8.17693832,4.3069834 C8.39244798,4.39124674 8.59865153,4.36797634 8.86583453,4.23202822 C9.32036398,3.99760957 9.30615993,4.04929435 9.33432313,2.39954555 C9.35783327,1.01213987 9.36248632,0.951391885 9.4655881,0.740488586 C9.52656753,0.618747658 9.67179165,0.435768837 9.78419953,0.332644228 C10.1495864,0.00930815954 10.2247698,0 12.0051735,0 C13.8279443,0 13.8982299,0.00930815954 14.2543106,0.370366769 C14.6478606,0.768658016 14.6478606,0.768658016 14.6760238,2.3997905 C14.704187,4.0495393 14.6899829,3.99785452 15.1445124,4.23227317 C15.4116954,4.36822129 15.617654,4.39173664 15.8334086,4.30722835 C15.9036941,4.27905892 16.3863868,3.838636 16.9018957,3.32766703 C17.9608317,2.27315054 18.0920967,2.18398817 18.6122586,2.1888872 C19.1510328,2.1888872 19.2494815,2.2591883 20.495764,3.50574682 C21.7420466,4.7525503 21.8123321,4.85077588 21.8123321,5.38991427 C21.8169852,5.9101914 21.7280874,6.04124049 20.6738044,7.10065602 C20.1629486,7.61627906 19.7226232,8.09883365 19.69446,8.16913475 C19.6102153,8.38469213 19.6334805,8.59094135 19.7740516,8.85818351 C20.0037653,9.31281362 19.952092,9.29860642 21.6014755,9.32677585 C23.232002,9.35494528 23.232002,9.35494528 23.6304499,9.74858245 C23.9906939,10.1044971 24,10.1747982 24,11.9979727 C24,13.7790155 23.9906939,13.8539707 23.6674294,14.2194384 C23.5643276,14.3318712 23.3816342,14.4771275 23.2596754,14.5381204 C23.0488188,14.641245 22.9878393,14.6458991 21.6009857,14.6694145 C19.9516022,14.6975839 20.0032755,14.6833767 19.7735618,15.1380068 C19.6329907,15.405249 19.6094806,15.6112533 19.6939702,15.8270556 C19.7221334,15.8973567 20.1624588,16.3801562 20.6733146,16.8955343 C21.7275976,17.9547049 21.8167403,18.0859989 21.8167403,18.6062761 C21.8167403,19.1405154 21.7418017,19.24364 20.4952742,20.4904435 C19.2347877,21.7512092 19.1458899,21.8122022 18.5882587,21.8073031 C18.3913612,21.8073031 18.1851577,21.7698255 18.0727498,21.7230398 C17.9510358,21.6716 17.5572409,21.3198495 16.9246711,20.6920386 C16.3952031,20.1671074 15.9032043,19.7171314 15.8329188,19.6892069 C15.6174091,19.6049436 15.4112056,19.628214 15.1440226,19.7688162 C14.6894931,19.9985808 14.7034523,19.946896 14.675534,21.5966448 C14.6520238,23.016629 14.6520238,23.0401444 14.5349629,23.2650099 C14.3897388,23.5508684 14.0804335,23.8274187 13.7992913,23.9212352 C13.489986,24.0287689 10.4912181,24.0238699 10.1914638,23.9207452 Z M13.6726794,23.0396545 C13.757169,22.9740074 13.7615771,22.8897441 13.7850873,21.5258538 L13.8085974,20.0823542 L13.9445154,19.8011498 C14.1132497,19.4589525 14.4786365,19.0888306 14.7925949,18.9340213 C14.9941454,18.8308966 15.0925942,18.8169344 15.5189604,18.8169344 C16.2732442,18.8169344 16.3484277,18.8637202 17.5337308,20.0355684 C18.2505453,20.7432335 18.5316874,20.9962685 18.616177,20.9962685 C18.7756052,20.9962685 21.0012321,18.7701487 21.0012321,18.6106852 C21.0012321,18.5264218 20.7575593,18.2498715 20.0407448,17.5279993 C18.9301354,16.4078357 18.8412376,16.2718876 18.8084214,15.6252155 C18.7756052,14.9785434 18.9957679,14.4957438 19.4924197,14.1302761 C19.9187859,13.8162482 20.1389486,13.7787706 21.6149449,13.7787706 C22.8612274,13.7787706 22.9268599,13.7741165 23.0160025,13.6849541 C23.1049002,13.5957918 23.1097982,13.5303897 23.1097982,12.0070359 C23.1097982,10.7134467 23.095839,10.4040728 23.0441657,10.3291177 C22.9785332,10.2448543 22.8942885,10.2402002 21.5307002,10.2166849 L20.0875202,10.1931695 L19.806378,10.0574664 C19.4174811,9.86542435 19.0239311,9.45757999 18.8926661,9.10607449 C18.8084214,8.88120895 18.7942174,8.76387715 18.8084214,8.41237166 C18.8365846,7.7233229 18.9115232,7.61089013 20.0407448,6.46745622 C20.7482532,5.75048298 21.0012321,5.46927858 21.0012321,5.38477029 C21.0012321,5.22530682 18.7756052,2.99918698 18.616177,2.99918698 C18.5319323,2.99918698 18.2507902,3.25222195 17.5337308,3.95988703 C16.3903051,5.0893587 16.2778973,5.16431388 15.5892459,5.19248331 C15.2378183,5.20644555 15.1207573,5.19248331 14.8956967,5.10821997 C14.544269,4.97692593 14.136515,4.58328876 13.9445154,4.19430568 L13.8085974,3.91310128 L13.7850873,2.4696017 C13.7615771,1.10571137 13.7569241,1.02144803 13.6726794,0.955801013 C13.5977408,0.904116233 13.2884355,0.890153993 11.9951327,0.890153993 C10.472361,0.890153993 10.4067286,0.894808073 10.3175859,0.983970444 C10.2284433,1.07313281 10.2237902,1.13853488 10.2237902,2.38533836 C10.2237902,3.86166145 10.186321,4.08187291 9.87236257,4.50833359 C9.50722064,5.00534031 9.024528,5.22555177 8.37799904,5.19272826 C7.73147007,5.15990475 7.59555205,5.07098733 6.47563654,3.96013198 C5.7539241,3.24315874 5.4776799,2.99943193 5.39319032,2.99943193 C5.23400706,2.99943193 3.00813518,5.22555177 3.00813518,5.38501524 C3.00813518,5.46927858 3.26111413,5.75048298 3.96862253,6.46770117 C5.13996648,7.6535117 5.18698677,7.72846688 5.18698677,8.48291771 C5.18698677,8.90937838 5.17302762,9.00784891 5.06992584,9.20944405 C4.91539562,9.52347196 4.54511085,9.8889397 4.20298928,10.0577113 L3.92184714,10.1936594 L2.47866715,10.2171748 C1.11507879,10.2406901 1.03083411,10.2453442 0.965201619,10.3296076 C0.913773179,10.4045627 0.899569134,10.7139366 0.899569134,12.0075258 C0.899569134,13.5306346 0.904222183,13.5962817 0.993364813,13.685444 C1.08226255,13.7746064 1.14789503,13.7792605 2.39442246,13.7792605 C3.8704187,13.7792605 4.0905814,13.8167381 4.51694766,14.130766 C5.01359946,14.4962337 5.23376216,14.9790333 5.20094592,15.6257054 C5.16812967,16.2677234 5.07923194,16.4036716 3.96862253,17.5284892 C3.26111413,18.2454624 3.00813518,18.5266668 3.00813518,18.6111751 C3.00813518,18.7706386 5.23376216,20.9967584 5.39319032,20.9967584 C5.4776799,20.9967584 5.75882204,20.7437234 6.47563654,20.0360584 C7.6002051,18.925203 7.73612312,18.8362856 8.37799904,18.8034621 C9.024528,18.7706386 9.50722064,18.99085 9.87285237,19.4876118 C10.1868107,19.9140725 10.22428,20.1342839 10.22428,21.610607 C10.22428,22.8571655 10.2289331,22.9228126 10.3180757,23.0119749 C10.4069735,23.1008924 10.4726059,23.1057914 11.9956225,23.1057914 C13.2886804,23.1053015 13.5977408,23.0913392 13.6726794,23.0396545 Z" id="Shape" fill="#FFFFFF" fill-rule="nonzero" transform="translate(12.000000, 12.000000) scale(-1, 1) rotate(-180.000000) translate(-12.000000, -12.000000) "></path>
                <circle id="Oval" stroke="#FFFFFF" stroke-width="0.8" cx="12" cy="12" r="5.6"></circle>
            </g>
            <g id="People" transform="translate(8.000000, 8.000000)" stroke="#FFFFFF" stroke-width="0.702456532">
                <path d="M0,10.7638791 C0.585282729,7.58795969 1.91861606,6 4,6 C6.08138394,6 7.41471727,7.58795969 8,10.7638791" id="Path" stroke-linecap="round"></path>
                <ellipse id="Oval" cx="4" cy="2.99886453" rx="2.64877173" ry="2.64763626"></ellipse>
            </g>
        </g>
    </g>
</svg>