<?xml version="1.0" encoding="UTF-8"?>
<svg  viewBox="0 0 30 32" version="1.1" xmlns="http://www.w3.org/2000/svg" xmlns:xlink="http://www.w3.org/1999/xlink">
    <title>notification.on</title>
    <g id="Symbols" stroke="none" stroke-width="1" fill="none" fill-rule="evenodd">
        <g id="1-Action-Icons/20-Notification/2-On" transform="translate(-1, 0)" fill="#414141">
            <path d="M27.4839047,21.270366 C26.917202,21.1696183 26.4638399,20.7162534 26.4638399,20.1495474 L26.4638399,10.8555687 C26.4638399,8.72727273 25.6452694,6.67453758 24.1466557,5.07516726 C22.811756,3.65210547 21.0990546,2.73278237 19.2352325,2.44313262 C19.0715184,1.91420701 18.7818704,1.43565525 18.3914752,1.02007084 C17.7366188,0.365210547 16.9306417,0 15.8476099,0 C14.7771715,0 13.9711944,0.365210547 13.316338,1.03266431 C12.9133494,1.43565525 12.6362948,1.92680047 12.4725807,2.44313262 C10.621352,2.73278237 8.89605718,3.639512 7.56115756,5.07516726 C6.06254384,6.67453758 5.24397332,8.72727273 5.24397332,10.8555687 L5.24397332,20.136954 C5.24397332,20.70366 4.43799619,21.0688705 4.22390851,21.1570248 C2.0326582,21.8118851 1,23.2979142 1,25.2624951 L1,25.8040142 C1,27.1011413 2.05784498,28.1589925 3.34237103,28.1589925 L11.2258348,28.1589925 C11.6288234,30.3376623 13.5430191,32 15.8476099,32 C18.1396074,32 20.0663964,30.3376623 20.469385,28.1463991 L28.390629,28.1463991 C29.6877484,28.1463991 30.733,27.0885478 30.733,25.7914207 L30.733,25.2499016 C30.7078132,23.3105077 29.32254,21.6733569 27.4839047,21.270366 Z" id="notification.on"></path>
        </g>
    </g>
</svg>