<?xml version="1.0" encoding="UTF-8"?>
<svg  viewBox="0 0 30 32" version="1.1" xmlns="http://www.w3.org/2000/svg" xmlns:xlink="http://www.w3.org/1999/xlink">
    <title>notification.off</title>
    <g id="Symbols" stroke="none" stroke-width="1" fill="none" fill-rule="evenodd">
        <g id="1-Action-Icons/20-Notification/1-Off" transform="translate(-1, 0)" fill="#414141">
            <path d="M15.8476099,0 C16.9306417,0 17.7366188,0.365210547 18.3914752,1.02007084 C18.7818704,1.43565525 19.0715184,1.91420701 19.2352325,2.44313262 C21.0990546,2.73278237 22.811756,3.65210547 24.1466557,5.07516726 C25.6452694,6.67453758 26.4638399,8.72727273 26.4638399,10.8555687 L26.4638399,20.1495474 C26.4638399,20.6757744 26.8547491,21.1042736 27.3643271,21.2434672 L27.4839047,21.270366 C29.32254,21.6733569 30.7078132,23.3105077 30.733,25.2499016 L30.733,25.7914207 C30.733,27.0885478 29.6877484,28.1463991 28.390629,28.1463991 L20.469385,28.1463991 C20.0663964,30.3376623 18.1396074,32 15.8476099,32 C13.5430191,32 11.6288234,30.3376623 11.2258348,28.1589925 L3.34237103,28.1589925 C2.05784498,28.1589925 1,27.1011413 1,25.8040142 L1,25.2624951 C1,23.2979142 2.0326582,21.8118851 4.22390851,21.1570248 L4.35965577,21.0969407 C4.66691277,20.9517289 5.24397332,20.6164744 5.24397332,20.136954 L5.24397332,10.8555687 C5.24397332,8.72727273 6.06254384,6.67453758 7.56115756,5.07516726 C8.89605718,3.639512 10.621352,2.73278237 12.4725807,2.44313262 C12.6362948,1.92680047 12.9133494,1.43565525 13.316338,1.03266431 C13.9711944,0.365210547 14.7771715,0 15.8476099,0 Z M15.8615,5.06543031 C15.5627459,5.06543031 15.1992491,5.08362406 14.7710097,5.12001157 L12.9363291,5.40707214 C11.7337085,5.59523837 10.6237522,6.18707818 9.7503127,7.12641073 C8.77227871,8.17020107 8.24397332,9.48991152 8.24397332,10.8555687 L8.24397332,20.136954 C8.24397332,21.5178717 7.57193377,22.4999603 6.62739005,23.2165149 C6.20157814,23.5395466 5.78249394,23.7596256 5.36616371,23.9310567 L5.22706058,23.9883348 L5.08292526,24.03141 C4.32253315,24.2586549 4.06371258,24.5021937 4.01088856,25.0220326 L4.002,25.158 L13.721814,25.1589925 L14.1757944,27.6133385 C14.322584,28.4069241 15.0269422,29 15.8476099,29 C16.6616024,29 17.3721618,28.4014868 17.518866,27.6037781 L17.9707951,25.1463991 L27.721,25.146 L27.7045179,25.0555896 C27.6154102,24.6768911 27.3278187,24.3575931 26.955678,24.2324024 L26.8416133,24.2008031 L26.7583176,24.1835386 C24.9016577,23.7627642 23.4638399,22.157389 23.4638399,20.1495474 L23.4638399,10.8555687 C23.4638399,9.48991152 22.9355345,8.17020107 21.9586419,7.12762818 C21.0761126,6.18681305 19.968771,5.5931397 18.7745434,5.40754919 L16.9233181,5.11985706 C16.5605474,5.08357256 16.206608,5.06543031 15.8615,5.06543031 Z" id="notification.off"></path>
        </g>
    </g>
</svg>