<?xml version="1.0" encoding="UTF-8"?>
<svg width="32px" height="32px" viewBox="0 0 32 32" version="1.1" xmlns="http://www.w3.org/2000/svg" xmlns:xlink="http://www.w3.org/1999/xlink">
    <title>plugin.light</title>
    <g id="Symbols" stroke="none" stroke-width="1" fill="none" fill-rule="evenodd">
        <g id="plugin.light" transform="translate(1.000000, 1.000000)">
            <path d="M12.1715729,12.1715729 L7.92893219,7.92893219 C5.57190958,5.57190958 3.38979542,5.8289719 1.3825897,8.70011912 C-1.18220533,14.245482 -0.178602473,21.034601 4.39339828,25.6066017 C10.2512627,31.4644661 19.7487373,31.4644661 25.6066017,25.6066017 C31.4644661,19.7487373 31.4644661,10.2512627 25.6066017,4.39339828 C20.7042514,-0.508952023 13.2528124,-1.30860603 7.51886551,1.99443627" id="Round" stroke="#414141" stroke-width="2" stroke-linecap="round"></path>
            <g id="Plug" transform="translate(7.000000, 7.000000)">
                <path d="M15.6362934,6.85563956 L6.85563956,15.6362934 C6.37069744,16.1212355 5.58445091,16.1212355 5.09950879,15.6362934 L1.58724725,12.1240319 L1.48290365,12.0121937 C0.523692054,10.9207571 -1.76240959,6.69303486 2.46531263,2.46531263 C6.85563956,-1.92501429 11.2459665,0.709181861 12.1240319,1.58724725 L15.6362934,5.09950879 C16.1212355,5.58445091 16.1212355,6.37069744 15.6362934,6.85563956 Z" id="Rectangle" fill="#414141"></path>
                <line x1="15.6362934" y1="12.1240319" x2="13.0020973" y2="9.48983571" id="Line" stroke="#414141" stroke-width="2.33453132" stroke-linecap="round"></line>
                <line x1="12.1240319" y1="15.6362934" x2="9.48983571" y2="13.0020973" id="Line" stroke="#414141" stroke-width="2.33453132" stroke-linecap="round"></line>
            </g>
        </g>
    </g>
</svg>