<?xml version="1.0" encoding="UTF-8"?>
<svg width="40px" height="36px" viewBox="0 0 40 36" version="1.1" xmlns="http://www.w3.org/2000/svg" xmlns:xlink="http://www.w3.org/1999/xlink">
    <title>Icon</title>
    <g id="Symbols" stroke="none" stroke-width="1" fill="none" fill-rule="evenodd">
        <g id="5-Icons/28-Function-Key/1-Unselect/2-Dark-Mode" transform="translate(-16.000000, -10.000000)" fill="#9B8FF7" fill-rule="nonzero">
            <g id="home.unselect.dark" transform="translate(16.000000, 10.000000)">
                <path d="M19.9994323,6.42882809 L5.73355667,18.0460611 C5.73355667,18.0621905 5.72947487,18.0863847 5.72131128,18.1186436 C5.71314769,18.1509024 5.70906589,18.1750966 5.70906589,18.1912261 L5.70906589,34.4273791 C5.70906589,34.850777 5.86825592,35.2217543 6.18255418,35.5322461 C6.49685245,35.8427379 6.86829585,36 7.30096618,36 L16.8278771,36 L16.8278771,25.1147136 L23.1791511,25.1147136 L23.1791511,35.9959676 L32.7060621,35.9959676 C33.1346506,35.9959676 33.5101758,35.8387055 33.8244741,35.5282137 C34.1387723,35.2177219 34.2979624,34.850777 34.2979624,34.4233467 L34.2979624,18.1952584 C34.2979624,18.1307406 34.2897988,18.0823523 34.2734716,18.0500934 L19.9994323,6.42882809 Z" id="Path"></path>
                <path d="M39.7226688,15.3581427 L34.2897988,10.8840732 L27.9385248,5.65017987 L21.8852219,0.638575407 C21.3545885,0.214205675 20.725992,0 19.9994323,0 C19.2728727,0 18.6442762,0.214205675 18.1136428,0.638575407 L0.27619593,15.3581427 C0.10884231,15.4874744 0.0190428061,15.6653056 0.00271562367,15.8875945 C-0.0136115588,16.1098834 0.0435335798,16.2998394 0.178232835,16.4655456 L1.71706978,18.2842731 C1.84768724,18.4297713 2.02320445,18.5227284 2.23953962,18.5550614 C2.43954761,18.5712278 2.6354738,18.5146452 2.83548178,18.3812719 L19.9994323,4.20328116 L37.1674647,18.3772302 C37.2980822,18.4903955 37.4735994,18.5469781 37.6899345,18.5469781 L37.7634069,18.5469781 C37.979742,18.5146452 38.1511774,18.4257296 38.2858767,18.2761898 L39.8247136,16.4574624 C39.9553311,16.2917561 40.016558,16.1018001 39.9961491,15.8795112 C39.9798219,15.6653056 39.8900224,15.4874744 39.7226688,15.3581427 Z" id="Path"></path>
            </g>
        </g>
    </g>
</svg>