<?xml version="1.0" encoding="UTF-8"?>
<svg  viewBox="0 0 32 32" version="1.1" xmlns="http://www.w3.org/2000/svg" xmlns:xlink="http://www.w3.org/1999/xlink">
    <title>plus.dark</title>
    <g id="Symbols" stroke="none" stroke-width="1" fill="none" fill-rule="evenodd">
        <g id="1-Action-Icons/23-Plus/2-Dark" fill="#FFFFFF">
            <path d="M16,0 C17.6568542,-1.01453063e-16 19,1.34314575 19,3 L19,12.5 L29,12.5 C30.6568542,12.5 32,13.8431458 32,15.5 C32,17.1568542 30.6568542,18.5 29,18.5 L19,18.5 L19,29 C19,30.6568542 17.6568542,32 16,32 C14.3431458,32 13,30.6568542 13,29 L13,18.5 L3,18.5 C1.34314575,18.5 0,17.1568542 0,15.5 C0,13.8431458 1.34314575,12.5 3,12.5 L13,12.5 L13,3 C13,1.34314575 14.3431458,1.01453063e-16 16,0 Z" id="plus.dark"></path>
        </g>
    </g>
</svg>