<?xml version="1.0" encoding="UTF-8"?>
<svg width="28px" height="32px" viewBox="0 0 28 32" version="1.1" xmlns="http://www.w3.org/2000/svg" xmlns:xlink="http://www.w3.org/1999/xlink">
    <title>Refresh Icon</title>
    <g id="Users---Local-Webhooks" stroke="none" stroke-width="1" fill="none" fill-rule="evenodd">
        <g id="Light/Users/Local-Webhook/Edit-Mode" transform="translate(-794.000000, -184.000000)" fill="#FFFFFF">
            <g id="Webhook-1" transform="translate(360.000000, 168.000000)">
                <g id="Refresh-Icon" transform="translate(434.000000, 16.000000)">
                    <path d="M9.06206607,0.0199867706 C9.8768787,-0.111375893 10.6685761,0.418004481 10.8965948,1.21946627 L10.930872,1.36364597 C10.96443,1.5383564 11.2145839,2.84071353 11.5203407,4.43255197 C13.3263358,4.13530413 15.2013918,4.18820963 17.0496932,4.61669116 C20.7333973,5.470664 23.8542719,7.70627481 25.8279739,10.8101288 C27.802827,13.9157875 28.4850999,17.6633297 27.651245,21.2918269 C26.8151743,24.9299663 24.56681,27.9992037 21.4265176,29.9231941 C18.2919395,31.8436659 14.499878,32.4820509 10.8203037,31.6290354 C7.14403229,30.7767857 4.01884873,28.5370196 2.04305956,25.4372425 C0.999668978,23.800262 0.308342716,21.9687416 0.0204452639,20.0577512 C-0.129762844,19.0607078 0.563854971,18.1317403 1.56968401,17.9828442 C2.57551306,17.8339482 3.51266633,18.5215074 3.66287444,19.5185508 C3.87480252,20.9252757 4.38493974,22.2767747 5.15649861,23.4872771 C6.62108013,25.7850305 8.93384518,27.44255 11.6589655,28.0742996 C14.3817764,28.7055139 17.1773208,28.2348903 19.4902515,26.8178198 C21.7994827,25.4030029 23.4457466,23.1556916 24.0604144,20.480981 C24.6742351,17.8099564 24.1722035,15.0524313 22.712439,12.7568021 C21.2503155,10.4574592 18.9432683,8.80482641 16.2110314,8.17142696 C14.8710992,7.86079788 13.5152499,7.81632193 12.2082891,8.01980238 L12.7707601,10.9425141 C12.9399951,11.8235892 12.3776314,12.6508384 11.5148886,12.7899283 C11.1139344,12.8545695 10.7163296,12.7585432 10.3909917,12.548967 L4.25864328,8.59986766 C3.8847759,8.36026701 3.60431843,7.96877086 3.51373432,7.49716974 C3.42315021,7.02556863 3.54088172,6.56987715 3.80301062,6.22774229 L8.09547088,0.597973531 L8.18593436,0.490019443 C8.4086425,0.247928091 8.71123116,0.0765477592 9.06206607,0.0199867706 Z" id="rollback.light"></path>
                </g>
            </g>
        </g>
    </g>
</svg>