<?xml version="1.0" encoding="UTF-8"?>
<svg  viewBox="0 0 32 32" version="1.1" xmlns="http://www.w3.org/2000/svg" xmlns:xlink="http://www.w3.org/1999/xlink">
    <title>scroll.to.top.dark</title>
    <g id="Symbols" stroke="none" stroke-width="1" fill="none" fill-rule="evenodd">
        <g id="1-Action-Icons/26-Scroll-To-Top/2-Dark" fill="#FFFFFF">
            <path d="M16,0 C24.836556,0 32,7.163444 32,16 C32,24.836556 24.836556,32 16,32 C7.163444,32 0,24.836556 0,16 C0,7.163444 7.163444,0 16,0 Z M16,3 C8.82029825,3 3,8.82029825 3,16 C3,23.1797017 8.82029825,29 16,29 C23.1797017,29 29,23.1797017 29,16 C29,8.82029825 23.1797017,3 16,3 Z M16.6757185,11.2628429 L22.0135869,16.072553 C22.6242654,16.6323416 22.6655198,17.5811926 22.1057312,18.1918711 C21.5459426,18.8025496 20.5970915,18.843804 19.9864131,18.2840154 L17.4999912,16.056 L17.4999912,24.5 C17.4999912,25.3284271 16.8284271,26 15.9999912,26 C15.1715729,26 14.4999912,25.3284271 14.4999912,24.5 L14.4999912,16.056 L12.0135869,18.2840154 C11.4410759,18.8088172 10.5713428,18.8053586 10.0036109,18.2996927 L9.89426879,18.1918711 C9.33448018,17.5811926 9.37573457,16.6323416 9.98641306,16.072553 L15.3242692,11.2628488 C15.706589,10.912386 16.2933957,10.9123834 16.6757185,11.2628429 Z M22.5789474,7 C23.3637731,7 24,7.67157288 24,8.5 C24,9.32842712 23.3637731,10 22.5789474,10 L9.42105263,10 C8.63622693,10 8,9.32842712 8,8.5 C8,7.67157288 8.63622693,7 9.42105263,7 L22.5789474,7 Z" id="scroll.to.top.dark"></path>
        </g>
    </g>
</svg>