<?xml version="1.0" encoding="UTF-8"?>
<svg width="100px" height="94px" viewBox="0 0 100 94" version="1.1" xmlns="http://www.w3.org/2000/svg" xmlns:xlink="http://www.w3.org/1999/xlink">
    <title>settings.dark</title>
    <g id="scrap" stroke="none" stroke-width="1" fill="none" fill-rule="evenodd">
        <g id="Settings-(Dark)" transform="translate(-50.000000, -53.000000)" fill="#FFFFFF" fill-rule="nonzero">
            <g id="settings.dark" transform="translate(50.000000, 53.000000)">
                <path d="M4.93505741,35.7371322 C7.55300992,35.7922215 10.150713,35.1369485 12.4359975,33.8466984 C14.6373918,32.6057388 16.5466169,30.7732939 17.900431,28.4218495 L17.9033238,28.4218495 C19.2571379,26.0704051 19.884868,23.4986033 19.858833,20.9644944 C19.8299054,18.3434023 19.0980358,15.7658017 17.7413289,13.518737 C17.1743469,12.5822184 16.9949954,11.521024 17.1714542,10.5265167 C17.3479129,9.52331107 17.8772889,8.58389308 18.7277618,7.89962577 C20.7035204,6.31073366 22.8007752,4.86971279 24.9992768,3.59395991 C27.1862072,2.3269054 29.4714917,1.22221942 31.8377737,0.297298717 L31.846452,0.297298717 C32.8589199,-0.097024929 33.9321358,-0.0883265546 34.8867482,0.259605966 C35.8442535,0.607538589 36.6773699,1.29470546 37.2009604,2.24862064 C38.462206,4.553674 40.3251468,6.478901 42.5757181,7.815542 C44.745292,9.10289261 47.282247,9.84224932 49.9985536,9.84224932 C52.7148602,9.84224932 55.2518152,9.10289261 57.4213891,7.815542 C59.6719605,6.478901 61.5349012,4.553674 62.7961468,2.24862064 C63.3197373,1.29470546 64.1528537,0.607538589 65.110359,0.259605966 C66.0649716,-0.0883266569 67.1410801,-0.097024929 68.1506552,0.297298717 L68.1593335,0.297298717 C70.5256155,1.22221952 72.8109,2.3269055 74.9978305,3.59395991 C77.1992248,4.86971269 79.2935868,6.31073356 81.2693454,7.89962577 C82.1198184,8.58389319 82.6491944,9.52331118 82.825653,10.5265167 C83.0021117,11.521024 82.8227602,12.5822184 82.2557784,13.518737 C80.8990715,15.7658016 80.1672018,18.3434022 80.1382742,20.9644944 C80.1122393,23.495704 80.7399694,26.0675057 82.0966762,28.4218495 L82.0966762,28.4305478 C83.4475975,30.773294 85.3539298,32.6028395 87.5582169,33.8466984 C89.849287,35.1369484 92.4440973,35.7922214 95.0620498,35.7371322 C96.1468367,35.7139368 97.153519,36.0937631 97.9316729,36.7519356 C98.718505,37.4130076 99.2652376,38.3437272 99.4272325,39.4194188 C99.6152622,40.6487806 99.7570078,41.9071368 99.852469,43.1915878 C99.950823,44.4702401 100,45.740194 100,46.9985503 C100,48.2569065 99.950823,49.5297598 99.852469,50.8084121 C99.7570077,52.0899638 99.6152622,53.34832 99.4272325,54.5805812 C99.2652377,55.6533734 98.7185051,56.5840931 97.9316729,57.2480644 C97.153519,57.9033374 96.1468367,58.2831639 95.0620498,58.2599683 C92.4440973,58.204879 89.849287,58.8630515 87.5582169,60.1533015 C85.3539298,61.3971605 83.4475975,63.226706 82.0966762,65.5694522 C80.7399693,67.923796 80.1122392,70.4984971 80.1382742,73.0355056 C80.1672018,75.6565977 80.8990715,78.2341983 82.2557784,80.4783636 C82.8227603,81.4177816 83.0021118,82.478976 82.825653,83.4734833 C82.6491944,84.4766889 82.1198183,85.4161069 81.2693454,86.0974748 C79.2935868,87.6863669 77.196332,89.1273878 74.9978305,90.4031406 C72.8109,91.6730946 70.5256155,92.7748811 68.1593335,93.7027013 L68.1506552,93.7027013 C67.1410801,94.0970249 66.0649715,94.0854271 65.110359,93.740394 C64.1528537,93.3895621 63.3197373,92.7052945 62.7961468,91.7513794 C61.5349012,89.446326 59.6719604,87.5181995 57.4213891,86.184458 C55.2518152,84.894208 52.7148602,84.1548512 49.9985536,84.1548512 C47.282247,84.1548512 44.745292,84.8942079 42.5757181,86.184458 C40.3251467,87.5181996 38.462206,89.446326 37.2009604,91.7513794 C36.6773699,92.7052945 35.8442535,93.389562 34.8867482,93.740394 C33.9292429,94.0883267 32.8502415,94.0970249 31.8377737,93.7027013 L31.8406665,93.6998018 C29.4570279,92.7690821 27.1746362,91.6643962 25.0021695,90.40604 C22.8007752,89.1302872 20.7035204,87.6892663 18.7277618,86.0974748 C17.8772888,85.4161068 17.3479129,84.4766888 17.1714542,83.4734833 C16.9949955,82.478976 17.174347,81.4177816 17.7413289,80.4783636 C19.0980358,78.2341984 19.8299054,75.6565978 19.858833,73.0355056 C19.8848679,70.4984971 19.2571378,67.923796 17.900431,65.5694522 C16.5524025,63.226706 14.6431774,61.3971605 12.4388903,60.1533015 C10.150713,58.8630515 7.55300992,58.204879 4.93505741,58.2628678 C3.85027047,58.2860632 2.84358821,57.9033374 2.06543434,57.2480644 C1.281495,56.5840931 0.731869617,55.6533734 0.569874675,54.5805812 C0.381844973,53.34832 0.240099424,52.0899638 0.144638232,50.8084121 C0.0491769376,49.5297598 0,48.2569064 0,46.9985503 C0,45.7401941 0.0491770397,44.4731395 0.144638232,43.1944873 C0.240099526,41.9100361 0.381844973,40.65168 0.569874675,39.4194188 C0.731869515,38.3437272 1.2814949,37.4130076 2.06543434,36.7519356 C2.8464809,36.0937631 3.85027047,35.7139368 4.93505741,35.7371322 Z M14.5824293,37.6826552 C11.6433799,39.3411339 8.29355779,40.1877699 4.90323698,40.1239822 C4.73256379,41.2547631 4.60528216,42.3884434 4.52139201,43.5221238 C4.43750186,44.6471059 4.39411028,45.8068812 4.39411028,46.9985503 C4.39411028,48.1931188 4.43460897,49.3528941 4.52139201,50.4807756 C4.60528216,51.6144559 4.73256389,52.7452368 4.90323698,53.8731183 C8.29355779,53.8122301 11.6433799,54.6588661 14.5824293,56.3173448 C17.4433741,57.9294324 19.9253667,60.3156701 21.6928462,63.3832758 C23.4545403,66.4392837 24.2703,69.782336 24.2355868,73.0702989 C24.1979809,76.4597422 23.2578322,79.7940962 21.510602,82.7051321 C23.2983309,84.140354 25.1988776,85.4451012 27.1977783,86.6048765 C29.1793225,87.753054 31.2447568,88.7533602 33.3825104,89.5883984 C35.0198155,86.6164742 37.4323817,84.1287562 40.3453961,82.3977917 C43.1774133,80.7161175 46.4780584,79.7506046 49.9985536,79.7506045 C53.5190488,79.7506044 56.8196939,80.7161174 59.6546039,82.3977917 C62.5647256,84.1287563 64.9772918,86.6135748 66.6145968,89.585499 C68.7668141,88.7417625 70.8322485,87.7443557 72.7993289,86.6019771 C74.7982297,85.4451013 76.6987764,84.140354 78.4865053,82.7051321 C76.7392751,79.7940961 75.7991264,76.4597421 75.7615204,73.0702989 C75.7268072,69.782336 76.542567,66.4392837 78.304261,63.3832758 C80.0717405,60.3156701 82.5537331,57.9294324 85.4146779,56.3173448 C88.3537273,54.6588661 91.7035494,53.8122301 95.0938702,53.8731183 C95.2645434,52.7452369 95.3918251,51.6115566 95.4757152,50.4807756 C95.5624981,49.3528941 95.6058897,48.1931188 95.6058897,46.9985503 C95.6058897,45.8068812 95.5624982,44.6442064 95.4757152,43.5192243 C95.3918251,42.385544 95.2645433,41.2547631 95.0938702,40.1239822 C91.7035494,40.1877699 88.3537273,39.3411339 85.4146779,37.6826552 C82.5566259,36.0705676 80.0746333,33.6843299 78.3071538,30.6196237 L78.304261,30.6225232 C76.542567,27.5665153 75.7268072,24.2234629 75.7615204,20.9297011 C75.7991263,17.5373584 76.739275,14.2030044 78.4865053,11.2948679 C76.6987763,9.85964597 74.7982296,8.55489881 72.7993289,7.39512343 C70.8322486,6.25564416 68.7668142,5.25533806 66.6145968,4.41160157 C64.9772917,7.3835258 62.5647255,9.8712438 59.6546039,11.5993089 C56.819694,13.280983 53.5190489,14.2464959 49.9985536,14.246496 C46.4780583,14.2464961 43.1774133,13.2809831 40.3425033,11.5993089 C37.4323816,9.8712437 35.0198154,7.3835257 33.3825104,4.41160157 C31.2302931,5.25533806 29.1648588,6.25564426 27.1977783,7.39512343 C25.1988775,8.55489871 23.2983308,9.85964597 21.510602,11.2948679 C23.2578321,14.2030045 24.1979808,17.5373584 24.2355868,20.9297011 C24.2703,24.217664 23.4545403,27.5578169 21.6928462,30.6138248 L21.6928462,30.6225232 C19.9311521,33.6814305 17.4491596,36.0647687 14.5824293,37.6826552 Z M49.9985536,29.7555911 C54.7484741,29.7555911 59.0500159,31.6866169 62.1626313,34.8064125 C65.2781393,37.9262081 67.2018282,42.2376726 67.2018282,46.9985503 C67.2018282,51.7623272 65.2781393,56.0708925 62.1626313,59.1935875 C59.0500159,62.3133831 54.7484741,64.2444089 49.9985536,64.2444089 C45.2486331,64.2444089 40.9470913,62.3133831 37.8344759,59.1935875 C34.7189679,56.0708926 32.795279,51.7623274 32.795279,46.9985503 C32.795279,42.2376726 34.7189679,37.9262081 37.8344759,34.8064125 C40.9470913,31.6866169 45.2486331,29.7555911 49.9985536,29.7555911 Z M59.0586942,37.9204092 C56.7386965,35.5950597 53.5364054,34.1598377 49.9985536,34.1598377 C46.4607018,34.1598377 43.2584107,35.5950597 40.938413,37.9204092 C38.6213081,40.2428592 37.1864966,43.4525373 37.1864966,46.9985503 C37.1864966,50.5445632 38.6213082,53.7542414 40.938413,56.0795908 C43.2584107,58.4020409 46.4607018,59.8401622 49.9985536,59.8401622 C53.5364054,59.8401622 56.7386965,58.4020407 59.0558015,56.0795908 C61.3757991,53.7542414 62.8106106,50.5445632 62.8106106,46.9985503 C62.8106106,43.4525373 61.375799,40.2428592 59.0586942,37.9204092 L59.0586942,37.9204092 Z" id="Shape"></path>
            </g>
        </g>
    </g>
</svg>