<?xml version="1.0" encoding="UTF-8"?>
<svg  viewBox="0 0 26 26" version="1.1" xmlns="http://www.w3.org/2000/svg" xmlns:xlink="http://www.w3.org/1999/xlink">
    <title>subscription.blue</title>
    <g id="Symbols" stroke="none" stroke-width="1" fill="none" fill-rule="evenodd">
        <g id="1-Action-Icons/19-Subscription/3-Blue" transform="translate(0, -6)" fill="#56a4fa">
            <path d="M2.91294165,6 C15.6997396,6 26.0912449,16.3968266 25.9993958,29.0785001 L25.9938008,29.594151 C25.9865451,29.9289909 25.9542215,30.4463324 25.89683,31.1461753 C25.8579818,31.6283225 25.4554369,31.9998113 24.9717272,32 L23.5653062,32 C23.5364319,31.9999506 23.5075756,31.9985557 23.4788313,31.9958186 C22.9683047,31.9472054 22.59385,31.4939331 22.642534,30.9834132 C22.7190208,30.1868966 22.7572642,29.5564435 22.7572642,29.0920538 C22.7572642,18.1183035 13.8749052,9.23139612 2.91294165,9.23139612 C2.09265063,9.23139612 1.26639167,9.30794075 0.256621418,9.45761295 L0.24031316,9.4594131 L0.223916865,9.46001422 C0.100252927,9.46001422 3.49728291e-06,9.35976479 3.49728291e-06,9.23610085 L3.49728291e-06,7.03215943 C0.0015905922,6.54893194 0.373524727,6.14768878 0.855247108,6.10954601 C1.78633618,6.03651534 2.47223436,6 2.91294165,6 Z M3.10504329,14.6666665 C10.798891,14.6666665 17.1465801,21.0296781 17.3333345,28.9280375 L17.326176,29.3206339 C17.3116715,29.729117 17.2345814,30.3530913 17.0949055,31.1925569 C17.0196429,31.6568932 16.6193605,31.9982368 16.1489682,31.9999996 L14.3304792,31.9999996 C14.263564,32.0000618 14.1968245,31.9931495 14.1313425,31.9793744 C13.6109037,31.869892 13.2777577,31.3592401 13.3867228,30.8386925 C13.5722534,29.9450973 13.6650187,29.2567345 13.6650187,28.7736043 C13.6650187,22.9741023 8.96375418,18.2400685 3.21097364,18.2400685 L2.83622664,18.2473734 C2.44553335,18.2626513 1.88970495,18.3493478 1.16874144,18.5074629 C1.10173046,18.5222351 1.03332054,18.5296929 0.964700858,18.5298165 C0.432871959,18.5307744 0.000962938107,18.1004184 3.49728291e-06,17.5685895 L3.49728291e-06,15.8537753 C-0.00127042799,15.3776316 0.345632234,14.9720385 0.816281467,14.8999002 C1.80585307,14.7444111 2.56877368,14.6666665 3.10504329,14.6666665 Z M5.15286836,23.6543207 C6.9762407,23.6543207 8.37980756,25.05324 8.37980756,26.8641972 C8.37980756,28.6751544 6.9762407,30.0740737 5.15286836,30.0740737 C3.32949603,30.0740737 1.92592916,28.6751544 1.92592916,26.8641972 C1.92592916,25.05324 3.32949603,23.6543207 5.15286836,23.6543207 Z" id="subscription.blue"></path>
        </g>
    </g>
</svg>