<?xml version="1.0" encoding="UTF-8"?>
<svg  viewBox="0 0 32 32" version="1.1" xmlns="http://www.w3.org/2000/svg" xmlns:xlink="http://www.w3.org/1999/xlink">
    <title>subscription.unsubscribe</title>
    <g id="Symbols" stroke="none" stroke-width="1" fill="none" fill-rule="evenodd">
        <g id="1-Action-Icons/19-Subscription/1-Ubsubscribe" fill="#414141">
            <path d="M5.3510527,21.3333333 C8.3476422,21.3333333 10.7021054,23.68 10.7021054,26.6666667 C10.7021054,29.6533333 8.3476422,32 5.3510527,32 C2.35446319,32 0,29.6533333 0,26.6666667 C0,23.68 2.35446319,21.3333333 5.3510527,21.3333333 Z M5.24403164,10.6666667 C14.1267791,10.6666667 21.4042108,17.92 21.6182529,26.88 C21.6182529,28.2666667 21.4042108,29.76 20.9761266,31.2533333 C20.7620845,31.68 20.3340002,32 19.905916,32 L14.0197581,32 C13.6986949,32 13.3776317,31.7866667 13.1635896,31.4666667 C12.9495475,31.1466667 12.9495475,30.72 13.0565686,30.4 C13.5916738,29.2266667 13.912737,28.0533333 13.912737,26.7733333 C13.912737,22.08 10.0599791,18.24 5.3510527,18.24 C4.06680005,18.24 2.88956846,18.56 1.71233686,19.0933333 C1.3912737,19.2 0.963189485,19.2 0.642126323,18.9866667 C0.321063162,18.88 0.107021054,18.4533333 0.107021054,18.1333333 L0.107021054,12.3733333 C0.107021054,11.84 0.428084216,11.4133333 0.856168431,11.3066667 C2.24744213,10.88 3.74573689,10.6666667 5.24403164,10.6666667 Z M5.13701059,0 C20.0129371,0 32.1063162,12.0533333 31.9992951,26.7733333 C31.9992951,28.16 31.8922741,29.5466667 31.678232,31.04 C31.5712109,31.4666667 31.1431267,31.8933333 30.6080214,31.8933333 L25.1499477,31.8933333 C24.8288845,31.8933333 24.5078213,31.68 24.2937792,31.4666667 C24.0797371,31.2533333 23.9727161,30.9333333 24.0797371,30.6133333 C24.4008003,29.3333333 24.5078213,28.0533333 24.5078213,26.7733333 C24.5078213,16.1066667 15.839116,7.46666667 5.13701059,7.46666667 C3.85275794,7.46666667 2.56850529,7.68 1.28425265,7.89333333 C0.963189485,8 0.749147377,7.89333333 0.428084216,7.68 C0.107021054,7.46666667 0,7.14666667 0,6.82666667 L0,1.38666667 C0,0.853333333 0.428084216,0.426666667 0.856168431,0.32 C2.46148424,0.106666667 3.85275794,0 5.13701059,0 Z M5.3510527,23.8333333 C3.7333222,23.8333333 2.5,25.0625715 2.5,26.6666667 C2.5,28.2707618 3.7333222,29.5 5.3510527,29.5 C6.96878319,29.5 8.20210539,28.2707618 8.20210539,26.6666667 C8.20210539,25.0625715 6.96878319,23.8333333 5.3510527,23.8333333 Z M5.24403164,13.1666667 C4.45205514,13.1666667 3.66680471,13.237451 2.91146331,13.3757256 L2.60702105,13.4376667 L2.60702105,16.1126667 L2.6171423,16.1101453 C3.38883286,15.9002189 4.16186152,15.7782228 4.95356466,15.747651 L5.3510527,15.74 C11.4388381,15.74 16.412737,20.6974285 16.412737,26.7733333 C16.412737,27.5709235 16.3202379,28.3468711 16.1387948,29.1184499 L16.0410211,29.4996667 L18.8340211,29.4996667 L18.874815,29.3098673 C19.0095091,28.619065 19.0889322,27.9441274 19.1119401,27.3129423 L19.1189659,26.9397045 C18.9367301,19.3111471 12.7438131,13.1666667 5.24403164,13.1666667 Z M5.13701059,2.5 C4.49684495,2.5 3.81747083,2.52970178 3.07942542,2.59073626 L2.5,2.644 L2.5,5.172 L2.61056185,5.15701873 C3.40809919,5.04912321 4.10856744,4.98634094 4.79473522,4.9706051 L5.13701059,4.96666667 C17.217975,4.96666667 27.0078213,14.7240951 27.0078213,26.7733333 C27.0078213,27.6622966 26.9612631,28.5028704 26.8594607,29.3153185 L26.848,29.393 L29.361,29.393 L29.4038337,28.9526854 C29.4519429,28.3917307 29.4816013,27.8439712 29.4934396,27.2992468 L29.4993612,26.7551577 C29.596249,13.4289113 18.6310277,2.5 5.13701059,2.5 Z" id="subscription.unsubscribe"></path>
        </g>
    </g>
</svg>