<?xml version="1.0" encoding="UTF-8"?>
<svg width="96px" height="84px" viewBox="0 0 96 84" version="1.1" xmlns="http://www.w3.org/2000/svg" xmlns:xlink="http://www.w3.org/1999/xlink">
    <title>Warning Icon</title>
    <g id="User" stroke="none" stroke-width="1" fill="none" fill-rule="evenodd">
        <g id="Light/User/Plugins/Main/Multi-Versions/All/Compatible/Release" transform="translate(-672.000000, -278.000000)">
            <g id="Popover-Window" transform="translate(456.000000, 168.000000)">
                <g id="Warning-Icon" transform="translate(216.000000, 104.000000)">
                    <polygon id="Polygon" fill="#23C2B9" transform="translate(48.000000, 48.000000) rotate(90.000000) translate(-48.000000, -48.000000) " points="48 0 89.5692194 24 89.5692194 72 48 96 6.43078062 72 6.43078062 24"></polygon>
                    <path d="M40.1024399,61.2527778 L40.1024399,59.6180556 C40.1024399,56.3587963 40.5451516,53.669213 41.4305748,51.5493056 C42.315998,49.4293981 43.3976439,47.6546296 44.6755125,46.225 C45.9533811,44.7953704 47.243701,43.5368056 48.5464721,42.4493056 C49.8492433,41.3618056 50.9433405,40.2527778 51.8287637,39.1222222 C52.7141869,37.9916667 53.1568985,36.6337963 53.1568985,35.0486111 C53.1568985,33.1078704 52.7416258,31.6738426 51.9110804,30.7465278 C51.0805349,29.819213 50.0099568,29.1969907 48.699346,28.8798611 C47.3887352,28.5627315 46.0117176,28.4041667 44.5682933,28.4041667 C42.3289104,28.4041667 40.0277324,28.7775463 37.6647591,29.5243056 C35.3017859,30.2710648 33.2468662,31.3527778 31.5,32.7694444 L31.5,22.0583333 C32.4029472,21.4027778 33.6197124,20.7685185 35.1502956,20.1555556 C36.6808787,19.5425926 38.4007672,19.0300926 40.309961,18.6180556 C42.2191548,18.2060185 44.2127405,18 46.2907181,18 C49.4136796,18 52.1269023,18.4444444 54.4303861,19.3333333 C56.73387,20.2222222 58.6294596,21.45625 60.1171551,23.0354167 C61.6048505,24.6145833 62.7072486,26.4354167 63.4243491,28.4979167 C64.1414497,30.5604167 64.5,32.7694444 64.5,35.125 C64.5,37.6814815 64.0572884,39.7953704 63.1718652,41.4666667 C62.286442,43.137963 61.1921142,44.599537 59.8888819,45.8513889 C58.5856496,47.1032407 57.2826479,48.3342593 55.9798767,49.5444444 C54.6771056,50.7546296 53.5830084,52.1641204 52.6975852,53.7729167 C51.812162,55.381713 51.3694504,57.4277778 51.3694504,59.9111111 L51.3694504,61.2527778 L40.1024399,61.2527778 Z M39.3719658,78 L39.3719658,67.2625 L52.0999245,67.2625 L52.0999245,78 L39.3719658,78 Z" id="Shape" fill="#FFFFFF" fill-rule="nonzero"></path>
                </g>
            </g>
        </g>
    </g>
</svg>