<?xml version="1.0" encoding="UTF-8"?><svg version="1.1" width="32px" height="32px" viewBox="0 0 32.0 32.0" xmlns="http://www.w3.org/2000/svg" xmlns:xlink="http://www.w3.org/1999/xlink"><defs><clipPath id="i0"><path d="M1440,0 L1440,900 L0,900 L0,0 L1440,0 Z"></path></clipPath><clipPath id="i1"><path d="M16,0 C24.836556,0 32,7.163444 32,16 C32,24.836556 24.836556,32 16,32 C7.163444,32 0,24.836556 0,16 C0,7.163444 7.163444,0 16,0 Z"></path></clipPath></defs><g transform="translate(-1008.0 -552.0)"><g clip-path="url(#i0)"><g transform="translate(504.0 304.0)"><g transform="translate(480.0 104.0)"><g transform="translate(24.0 144.0)"><g clip-path="url(#i1)"><polygon points="0,0 32,0 32,32 0,32 0,0" stroke="none" fill="#91ECE7FF"></polygon></g><g transform="translate(8.0 8.0)"><path d="M16,0 L6.66623574,14.9340228 C6.37352541,15.4023593 5.75657503,15.5447325 5.2882385,15.2520222 C5.22406136,15.2119115 5.16464502,15.164645 5.11113066,15.1111307 L0,10 L0,10" stroke="#FFFFFF" stroke-width="4" fill="none" stroke-linecap="round" stroke-miterlimit="10"></path></g></g></g></g></g></g></svg>