<?xml version="1.0" encoding="UTF-8"?><svg version="1.1" width="13px" height="27px" viewBox="0 0 13.0 27.0" xmlns="http://www.w3.org/2000/svg" xmlns:xlink="http://www.w3.org/1999/xlink"><defs><clipPath id="i0"><path d="M155,0 L155,162 L0,162 L0,0 L155,0 Z"></path></clipPath><clipPath id="i1"><path d="M8,3.2 L8,23.2 C8,19.2 0,15.2 0,13.2 C0,11.2 8,7.2 8,3.2 Z"></path></clipPath><filter id="i2" x="-68.1818182%" y="-33.3333333%" filterUnits="userSpaceOnUse" width="172.727273%" height="148.484848%"><feGaussianBlur stdDeviation="1.5" in="SourceAlpha" result="i3"></feGaussianBlur><feOffset dx="2" dy="0" in="i3" result="i4"></feOffset><feColorMatrix values="0 0 0 0.0 0 0 0 0 0.0 0 0 0 0 0.0 0 0 0 0 1.0 0" type="matrix" in="i4"></feColorMatrix></filter></defs><g transform="translate(-35.0 -51.0)"><g clip-path="url(#i0)"><g transform="translate(35.0 50.9999999999999)"><g clip-path="url(#i1)"><polygon points="0,0 8,0 8,26.4 0,26.4 0,0" stroke="none" fill="#212121"></polygon><path d="M10,0 L10,27 L-6,27 L-6,0 L10,0 Z M9,3.2 L7,3.2 C7,5.32367179 4.34461985,7.34846326 2.3314479,9.06681301 C0.36070336,10.7489487 -1,12.2301872 -1,13.2 C-1,14.1698128 0.36070336,15.6510513 2.3314479,17.333187 C4.34461985,19.0515367 7,21.0763282 7,23.2 L9,23.2 L9,3.2 Z" stroke="none" fill="#000000" filter="url(#i2)"></path></g><g transform="translate(5.0 0.0)"><g clip-path="url(#i1)"><polygon points="0,0 8,0 8,26.4 0,26.4 0,0" stroke="none" fill="#212121"></polygon></g></g></g></g></g></svg>