<?xml version="1.0" encoding="UTF-8"?>
<svg width="18px" height="24px" viewBox="0 0 18 24" version="1.1" xmlns="http://www.w3.org/2000/svg" xmlns:xlink="http://www.w3.org/1999/xlink">
    <title>Delete Icon</title>
    <g id="Merge-Requests" stroke="none" stroke-width="1" fill="none" fill-rule="evenodd">
        <g id="Light/Merge-Requests/Main/Edit" transform="translate(-369.000000, -1800.000000)" fill="#414141">
            <g id="Conversations" transform="translate(96.000000, 856.000000)">
                <g id="Plugin-Conversation-2" transform="translate(0.000000, 504.000000)">
                    <g id="Conversation-2" transform="translate(0.000000, 328.000000)">
                        <g id="Message-2" transform="translate(16.000000, 104.000000)">
                            <g id="Delete-Icon" transform="translate(257.000000, 8.000000)">
                                <path d="M17.0442903,7.838792 L16.0185099,22.7877257 C16.0185099,23.4563134 15.5044186,24 14.8702124,24 L3.13019173,24 C2.49598558,24 1.98189422,23.4563134 1.98189422,22.7877257 L0.95611382,7.838792 L0.95611382,6.62651772 L17.0466926,6.62651772 L17.0466926,7.838792 L17.0442903,7.838792 Z M5.55170613,10.2633406 C5.55170613,9.59230388 5.03521248,9.05106627 4.40340862,9.05106627 C3.76920247,9.05106627 3.25511112,9.59230388 3.25511112,10.2633406 L3.25511112,20.3631772 C3.25511112,21.0317648 3.76920247,21.5754514 4.40340862,21.5754514 C5.03761478,21.5754514 5.55170613,21.0317648 5.55170613,20.3631772 L5.55170613,10.2633406 Z M10.1497007,10.2633406 C10.1497007,9.59230388 9.63560938,9.05106627 9.00140322,9.05106627 C8.36719707,9.05106627 7.85310572,9.59230388 7.85310572,10.2633406 L7.85310572,20.3631772 C7.85310572,21.0317648 8.36719707,21.5754514 9.00140322,21.5754514 C9.63560938,21.5754514 10.1497007,21.0317648 10.1497007,20.3631772 L10.1497007,10.2633406 Z M14.745293,10.2633406 C14.745293,9.59230388 14.2287994,9.05106627 13.5969955,9.05106627 C12.9627894,9.05106627 12.448698,9.59230388 12.448698,10.2633406 L12.448698,20.3631772 C12.448698,21.0317648 12.9627894,21.5754514 13.5969955,21.5754514 C14.2312017,21.5754514 14.745293,21.0317648 14.745293,20.3631772 L14.745293,10.2633406 Z M0,5.56363482 C0.0240229603,5.03709144 -0.00720688809,4.51789519 0.0864826571,4.02318932 C0.208999755,3.374194 0.64141304,2.94806122 1.30444674,2.89908044 C1.6936187,2.86969198 2.08339123,2.8586713 2.47316376,2.85316096 L3.64188078,2.84030351 C3.86769661,2.83540543 4.09111014,2.84030351 4.38659255,2.84030351 L4.38382511,1.89611083 C4.38428635,1.82346254 4.38515117,1.75146079 4.38659255,1.67945905 C4.40821322,0.712088664 4.95353441,0.0459500706 5.88082068,0.028806798 C8.09333533,-0.00792878623 10.3082523,-0.0103778252 12.5207669,0.026357759 C13.4552601,0.0435010316 13.9597422,0.65086269 13.9885698,1.613335 C13.998179,1.99538507 13.9909721,2.37743515 13.9909721,2.84030351 C14.4906497,2.84030351 14.9395907,2.85754474 15.3746946,2.84814043 L15.6990046,2.83540543 C17.7145309,2.71540252 18.1949901,3.77093831 17.9355422,5.56363482 L0,5.56363482 Z M5.77031506,1.39047245 L5.77031506,2.88928429 L9.70198962,2.89192925 C10.5652018,2.89192925 11.4238785,2.89075371 12.2829396,2.88683525 C12.9156285,2.88451511 12.670794,2.39862849 12.6882065,2.07470194 L12.6937322,2.0223245 C12.7561919,1.63537635 12.6697093,1.37332918 12.172434,1.3806763 L10.592346,1.39410066 L5.77031506,1.39047245 Z" id="discard.light"></path>
                            </g>
                        </g>
                    </g>
                </g>
            </g>
        </g>
    </g>
</svg>