<?xml version="1.0" encoding="UTF-8"?>
<svg  viewBox="0 0 32 32" version="1.1" xmlns="http://www.w3.org/2000/svg" xmlns:xlink="http://www.w3.org/1999/xlink">
    <title>exit.dark</title>
    <g id="Symbols" stroke="none" stroke-width="1" fill="none" fill-rule="evenodd">
        <g id="exit.dark">
            <path d="M16,0 C24.836556,0 32,7.163444 32,16 C32,24.836556 24.836556,32 16,32 C7.163444,32 0,24.836556 0,16 C0,7.163444 7.163444,0 16,0 Z" id="background" fill-opacity="0" fill="#FFFFFF"></path>
            <path d="M16,0 C24.836556,0 32,7.163444 32,16 C32,24.836556 24.836556,32 16,32 C7.163444,32 0,24.836556 0,16 C0,7.163444 7.163444,0 16,0 Z M24.0502523,7.41379559 C23.4671812,6.84907262 22.5372215,6.86424651 21.9729883,7.44782837 L15.999724,13.6244951 L10.0270117,7.44782837 C9.46277851,6.86424651 8.53281877,6.84907262 7.94974772,7.41379559 C7.36695825,7.97880045 7.3518013,8.9097997 7.91603452,9.49338156 L13.9549554,15.7391963 L7.41347209,22.5066184 C6.84923888,23.0902003 6.86439583,24.0211995 7.4471853,24.5862044 C8.03025635,25.1509274 8.96021609,25.1357535 9.5244493,24.5521716 L15.999724,17.8538975 L22.4755507,24.5521716 C23.0397839,25.1357535 23.9697437,25.1509274 24.5528147,24.5862044 C25.1356042,24.0211995 25.1507611,23.0902003 24.5865279,22.5066184 L18.0444926,15.7391963 L24.0839655,9.49338156 C24.6481987,8.9097997 24.6330418,7.97880045 24.0502523,7.41379559 Z" id="icon" fill="#FFFFFF"></path>
        </g>
    </g>
</svg>