<?xml version="1.0" encoding="UTF-8"?>
<svg  viewBox="0 0 32 32" version="1.1" xmlns="http://www.w3.org/2000/svg" xmlns:xlink="http://www.w3.org/1999/xlink">
    <title>Path</title>
    <g id="Symbols" stroke="none" stroke-width="1" fill="none" fill-rule="evenodd">
        <g id="5-Icons/2-State-Icons/3-Status/3-Correction/2-Incorrect" fill="#FFFFFF">
            <path d="M5.53750454,0.821234606 L15.9996399,11.5868839 L26.4624955,0.821234606 C27.5242789,-0.271366848 29.2484188,-0.274088036 30.3134744,0.815156661 C31.3785253,1.90440613 31.3811779,3.67314578 30.3193968,4.76574962 L19.8451016,15.5431679 L31.2053959,27.2342504 C32.2671771,28.3268542 32.2645245,30.0955939 31.1994736,31.1848433 C30.134418,32.274088 28.4102781,32.2713668 27.3484946,31.1787654 L15.9996399,19.5003249 L4.6515054,31.1787654 C3.58972194,32.2713668 1.86558201,32.274088 0.800526439,31.1848433 C-0.264524479,30.0955939 -0.267177051,28.3268542 0.794604082,27.2342504 L12.1541781,15.5440409 L1.68060322,4.76574962 C0.618822089,3.67314578 0.621474662,1.90440613 1.68652558,0.815156661 C2.75158116,-0.274088036 4.47572108,-0.271366848 5.53750454,0.821234606 Z" id="Path"></path>
        </g>
    </g>
</svg>