<?xml version="1.0" encoding="UTF-8"?>
<svg width="32px" height="32px" viewBox="0 0 32 32" version="1.1" xmlns="http://www.w3.org/2000/svg" xmlns:xlink="http://www.w3.org/1999/xlink">
    <title>Abort.light</title>
    <g id="Icons" stroke="none" stroke-width="1" fill="none" fill-rule="evenodd">
        <g id="Abort.light" fill-rule="nonzero">
            <g id="abort.light" transform="translate(2.000000, 0.000000)">
                <path d="M9.23853889,20.6489422 C9.98304412,21.6185546 11.0169392,22.3542562 12.2110354,22.7268312 C9.95885928,25.8955896 6.83129354,28.8753 2.84197875,31.6731579 C2.02234466,32.2479984 0.895232909,32.0447671 0.324504197,31.2192279 C-0.246224516,30.3936888 -0.0444468395,29.2584569 0.77518725,28.6836164 C4.3267568,26.1927658 7.08929982,23.5891901 9.0736951,20.8801192 L9.23853889,20.6489422 Z M26.5720774,28.3037864 C27.5484395,28.5156547 28.1694128,29.484608 27.9590601,30.4680043 C27.7487073,31.4514006 26.7866848,32.0768477 25.8103227,31.8649794 C20.891427,30.7975909 17.2209249,27.7753777 14.8962708,22.9320469 C16.1489442,22.7436413 17.2737753,22.1694222 18.1468359,21.334109 C19.9963913,25.2005331 22.7725833,27.4793054 26.5720774,28.3037864 Z M15.0269451,0.392920584 L22.1180381,7.53505442 C22.6444146,8.0652231 22.6414303,8.92181151 22.1113727,9.44829818 C21.8579887,9.69997511 21.5153807,9.84121871 21.1582838,9.84121871 L15.9235462,9.84221899 C15.9370319,10.349726 15.9413321,10.8397668 15.9355955,11.3144352 C15.327945,11.1077732 14.6770693,10.9956019 14,10.9956019 C13.4156987,10.9956019 12.850905,11.0791409 12.3169062,11.234929 C12.3240551,10.7913815 12.3192449,10.3272458 12.3052395,9.84173766 L6.98942878,9.84121871 C6.24241252,9.84121871 5.6368362,9.23551556 5.6368362,8.48834286 C5.6368362,8.13117117 5.77805022,7.78849147 6.02967446,7.53505442 L13.114102,0.399587461 C13.6404784,-0.130581223 14.4968875,-0.133566085 15.0269451,0.392920584 Z" id="Shape" fill="#7C7C7C"></path>
                <path d="M14,11 C17.3137085,11 20,13.6862915 20,17 C20,20.3137085 17.3137085,23 14,23 C10.6862915,23 8,20.3137085 8,17 C8,13.6862915 10.6862915,11 14,11 Z M17.0826164,13.7158234 C16.8593958,13.4997625 16.5032878,13.5055665 16.2872269,13.7287871 L13.9993817,16.0926044 L11.7127731,13.7287871 C11.4967122,13.5055665 11.1406042,13.4997625 10.9173836,13.7158234 L10.8510353,13.7926563 C10.6956123,14.0093789 10.7123658,14.3127946 10.9044199,14.5112129 L13.2173817,16.9006044 L10.7119745,19.4887871 C10.4959136,19.7120076 10.5017176,20.0681156 10.7249382,20.2841766 L10.8038924,20.3479858 C11.0255649,20.4962636 11.3282735,20.4696312 11.5203277,20.2712129 L13.9993817,17.7086044 L16.4796723,20.2712129 C16.6957333,20.4944335 17.0518413,20.5002375 17.2750618,20.2841766 L17.3414101,20.2073437 C17.4968331,19.9906211 17.4800796,19.6872054 17.2880255,19.4887871 L14.7823817,16.9006044 L17.0955801,14.5112129 C17.311641,14.2879924 17.305837,13.9318844 17.0826164,13.7158234 Z" id="Shape" fill="#CC2E34"></path>
            </g>
        </g>
    </g>
</svg>