<?xml version="1.0" encoding="UTF-8"?>
<svg width="32px" height="32px" viewBox="0 0 32 32" version="1.1" xmlns="http://www.w3.org/2000/svg" xmlns:xlink="http://www.w3.org/1999/xlink">
    <title>amend.dark</title>
    <g id="Symbols" stroke="none" stroke-width="1" fill="none" fill-rule="evenodd">
        <g id="5-Icons/4-Branch-Icons/8-Amend/2-Dark" fill="#FFFFFF">
            <path d="M13.6660676,1.31991568 C14.1199058,1.31991568 14.5503539,1.4857179 14.879444,1.77720391 L18.2041565,4.72114717 C18.5806792,5.05303475 18.7992005,5.52632708 18.7992005,6.03144658 C18.7992005,6.53656608 18.5806792,7.00985841 18.2055121,7.34054831 L14.8522096,10.3087451 L14.7550074,10.3863705 C14.4441351,10.6158177 14.0635413,10.7429775 13.6660676,10.7429775 C12.6653454,10.7429775 11.8590028,9.94941701 11.8590028,8.97658753 L11.8590028,7.79912329 L7.98123313,7.79912329 C6.66766247,7.79912329 5.99696854,7.90375058 5.40114237,8.18323859 L5.27440427,8.24583091 C4.76692927,8.50889933 4.37955863,8.88437744 4.10815802,9.37627261 C3.79164974,9.94992241 3.66392242,10.8262052 3.64730181,12 L3.64556962,23.9416007 L3.64984424,24.4628816 C3.67311385,25.7581336 3.79512176,26.324985 4.10642584,26.8892025 C4.37782644,27.3810977 4.76519709,27.7565758 5.27267209,28.0196442 C5.92752112,28.3591094 6.58580914,28.4663518 8.31363342,28.4663518 L23.6792759,28.4663819 L24.2354455,28.4617042 L24.7274125,28.4470455 C25.7146543,28.4040863 26.2158801,28.2847721 26.7273279,28.0196442 C27.2348029,27.7565758 27.6221736,27.3810977 27.8935742,26.8892025 C28.2243347,26.2897214 28.3413977,25.6872669 28.3533838,24.2113087 L28.3544304,10.619079 C28.3544304,9.64328902 29.1705189,8.85225493 30.1772152,8.85225493 C31.1839114,8.85225493 32,9.64328902 32,10.619079 L32,23.9416007 C32,26.1767724 31.7792489,27.3395913 31.1082856,28.5556669 C30.4971186,29.6633656 29.5893572,30.5432581 28.4465744,31.1356618 C27.2580131,31.7517964 26.118764,31.9762676 24.0414421,31.9981894 L8.31363342,32 C6.00766702,32 4.80801805,31.7860261 3.55342562,31.1356618 C2.41064276,30.5432581 1.50288139,29.6633656 0.891714433,28.5556669 C0.252580737,27.3972805 0.0236445476,26.2859874 0.00173218585,24.2709539 L0,12 C0.00173218585,10.0758536 0.245946886,8.88335751 0.893446619,7.70980816 C1.50461358,6.60210952 2.41237495,5.72221703 3.5551578,5.12981331 C4.69020709,4.54141857 5.84243619,4.29659172 7.61761032,4.26828679 L11.8590028,4.26462249 L11.8590028,3.08630564 C11.8590028,2.11347616 12.6653454,1.31991568 13.6660676,1.31991568 Z M31.1771623,0.538994726 C32.2391326,1.44524562 32.2858986,3.19680491 31.24321,4.46056212 L15.0730726,24.0587462 C14.9954166,24.1528653 14.9001168,24.2293783 14.7958578,24.2813127 L11.6472325,25.8497356 C10.9571229,26.1934995 10.2411153,25.927456 10.0479847,25.2555107 C9.98052636,25.0208079 9.98429802,24.7563781 10.0586435,24.4941172 L11.030678,21.0683062 C11.0628645,20.9548689 11.1204085,20.846137 11.1980638,20.7520173 L27.3848425,1.13424123 L27.4977002,1.00572356 C28.5538101,-0.134312802 30.1628137,-0.326617353 31.1771623,0.538994726 Z M12.7250978,20.7675948 L12.3780632,21.1879616 C12.274474,21.3135136 12.1977166,21.458561 12.1548063,21.6098859 L11.4393407,24.1330009 C11.3967557,24.2831787 11.4731743,24.4173429 11.6100266,24.432665 C11.6578254,24.4380166 11.7089057,24.4280779 11.7571114,24.4040621 L14.0755589,23.2487598 C14.2145137,23.1795175 14.3415272,23.0775298 14.4450331,22.9520841 L14.7920727,22.5314838 L12.7250978,20.7675948 Z M30.3390865,3.68903062 C30.819492,3.10677056 30.8262471,2.26692111 30.3428346,1.75835159 L30.2464467,1.66702081 C29.6927678,1.19452929 28.8526626,1.29493706 28.3512944,1.83560209 L28.2723247,1.92536475 L27.7433274,2.5664915 L29.81,4.33 L30.3390865,3.68903062 Z" id="amend.dark"></path>
        </g>
    </g>
</svg>