<?xml version="1.0" encoding="UTF-8"?>
<svg width="32px" height="32px" viewBox="0 0 32 32" version="1.1" xmlns="http://www.w3.org/2000/svg" xmlns:xlink="http://www.w3.org/1999/xlink">
    <title>Auto Fix.dark</title>
    <g id="Icons" stroke="none" stroke-width="1" fill="none" fill-rule="evenodd">
        <g id="Auto-Fix.dark" fill="#414141" fill-rule="nonzero">
            <path d="M21.3614498,0.0645902869 C25.4025974,-0.408124237 29.3208751,1.74752983 31.1590807,5.42726884 L31.3344796,5.79768113 L31.4848858,6.14788946 C31.5111462,6.21094557 31.537749,6.27568782 31.5643133,6.3411294 L31.6823066,6.63700649 C31.8550492,7.07791133 32,7.48323665 32,7.54949007 L31.9244105,7.55404389 C31.8086753,7.55756192 31.5643854,7.56098407 31.2217322,7.56402823 L25.3843541,7.57797532 C23.8759812,7.58395156 23.6723725,7.60514007 23.5769424,7.68026295 L23.5213045,7.7364597 C23.4543601,7.82008084 23.4313107,7.94929011 23.4234816,8.59720659 L23.4237571,10.8624156 L23.4326221,11.2888796 C23.4460096,11.6784671 23.4723092,11.8073138 23.5227267,11.8767236 L23.6193785,12.0206449 L31.9996735,12.0206449 L31.9608169,12.1969898 C31.88981,12.5012988 31.5464435,13.3670211 31.2626563,13.9865853 L31.115767,14.295263 C29.7032147,17.0539199 26.9999042,19.028123 23.9677819,19.5052138 C22.6388203,19.7209304 20.5421955,19.5508716 19.5227807,19.145576 L19.3291507,19.0737808 L10.3893493,28.1150839 L8.7571488,29.7469413 C7.31372413,31.1719486 6.8920493,31.5070185 6.47652797,31.6795152 L6.36861926,31.7210719 L6.00067755,31.8400958 C5.27807506,32.0687156 4.23286468,32.0491952 3.51679272,31.8007242 C2.80725128,31.5588703 2.20709611,31.1797121 1.63306305,30.624209 C0.000758555443,29.0619185 -0.425031614,27.1532244 0.433079249,25.2640507 L0.671769904,24.734685 L13.0840105,12.1185776 L12.9808282,11.6282526 C12.8260548,10.8897875 12.8325853,8.71277114 12.9873587,7.96768896 C13.6325745,4.93442364 15.4196524,2.50926714 18.0197806,1.13655578 C19.1100516,0.554915243 20.2261181,0.201894509 21.3614498,0.0645902869 Z M24.1934115,2.07783412 C23.464605,1.90810625 21.9612784,1.86211761 21.2713285,1.98023232 C18.1356974,2.54268335 15.7229953,4.79116406 14.9230061,7.89622459 C14.806926,8.33751705 14.7638441,8.67268493 14.7375836,9.31199622 L14.721385,9.84705191 C14.7083869,10.7396627 14.7966078,11.3156953 15.0519839,12.2039378 L15.1874923,12.6810286 L4.39180335,23.6349877 C2.16997788,25.912536 1.90706453,26.2870639 1.89381763,26.7453987 L1.90891901,27.4648022 C1.92252651,27.7603448 1.97210609,27.8840064 2.14277045,28.2450411 C2.45231729,28.8789565 3.16838926,29.584998 3.80087052,29.8923609 C4.09673954,30.0346647 4.22885768,30.0780964 4.51585988,30.090372 L5.19147878,30.102406 L5.2779675,30.0964749 C5.69504448,30.0497425 6.13286246,29.7105783 8.09403645,27.7528209 L18.8716875,16.8580546 L19.4199249,17.0932915 C20.4070137,17.5118212 21.0652905,17.6554117 22.2264177,17.6881662 L22.6579834,17.698899 C23.17448,17.7062572 23.477862,17.6843944 23.8391306,17.6163709 C25.4198439,17.3156251 26.8069273,16.5963495 27.9164633,15.5048636 L28.1014908,15.3135643 C28.5590158,14.8220801 29.1615077,14.0593645 29.1615077,13.9620935 C29.1615077,13.9502129 28.8975882,13.9396994 28.4636469,13.9317649 L24.3923627,13.910125 L23.9107404,13.8997201 C23.5569353,13.8874073 23.3819345,13.8661149 23.2310316,13.8293752 L23.0776715,13.7857486 C22.5098424,13.6090728 22.0324611,13.1713535 21.7679749,12.5959992 L21.5808754,12.1840866 L21.5835283,8.4411255 C21.5893273,7.69776455 21.607802,7.46933511 21.6666593,7.27502261 L21.7356488,7.08530255 C21.9420133,6.56917102 22.4389862,6.07222899 22.9356326,5.88264991 L23.0698974,5.83679413 C23.2667597,5.77927806 23.5191066,5.75781681 24.3835106,5.74989302 L26.8740754,5.74405496 L28.3935849,5.72709043 C28.8796077,5.71655634 29.1611812,5.70227718 29.1611812,5.68645375 C29.1611812,5.55543575 28.380457,4.57511669 27.9288713,4.13706659 C26.8386003,3.07800439 25.6190249,2.40471742 24.1934115,2.07783412 Z M4.87154994,25.2054896 C5.14909721,25.0549512 5.75545637,25.0615683 6.05194216,25.2183929 C6.99397026,25.7087178 7.11674411,26.9834966 6.2778983,27.624029 C5.79398646,27.989953 5.11024059,27.989953 4.62632876,27.617412 C3.78127894,26.9768795 3.91025679,25.7153349 4.87154994,25.2054896 Z" id="auto-fix.dark"></path>
        </g>
    </g>
</svg>