<?xml version="1.0" encoding="UTF-8"?>
<svg width="32px" height="32px" viewBox="0 0 32 32" version="1.1" xmlns="http://www.w3.org/2000/svg" xmlns:xlink="http://www.w3.org/1999/xlink">
    <title>Change Direction.light</title>
    <g id="Icons" stroke="none" stroke-width="1" fill="none" fill-rule="evenodd">
        <g id="Change-Direction.light" fill="#414141" fill-rule="nonzero">
            <path d="M4.92584508,2 C5.51908446,2 6,2.50623519 6,3.13070795 L6,5.11111111 L11.1323808,5.11111111 L23.131,25.8518519 L30,25.8518519 C31.0543618,25.8518519 31.9181651,26.6979473 31.9945143,27.7711353 L32,27.9259259 C32,29.0714054 31.1045695,30 30,30 L21.4338096,30 C21.0825468,30 20.7570399,29.8088753 20.5763167,29.4965141 L8.868,9.25925926 L6,9.25925926 L6,11.2396624 C6,11.5395448 5.88683043,11.8271448 5.68538731,12.0391937 C5.26590372,12.4807626 4.58578644,12.4807626 4.16630285,12.0391937 L0.314612693,7.98471644 C-0.104870898,7.54314752 -0.104870898,6.82722285 0.314612693,6.38565393 L4.16630285,2.33117669 C4.36774597,2.11912782 4.64096148,2 4.92584508,2 Z M12.9286575,20.3226182 L14.5124425,23.102736 C14.6990479,23.4302963 14.6977146,23.8375226 14.5089686,24.1637612 L11.4236833,29.4965141 C11.2429601,29.8088753 10.9174532,30 10.5661904,30 L2,30 C0.8954305,30 -3.55271368e-15,29.0714054 -3.55271368e-15,27.9259259 L0.00548573643,27.7711353 C0.0818348781,26.6979473 0.945638205,25.8518519 2,25.8518519 L8.869,25.8518519 L12.0694101,20.3196099 C12.1122283,20.2455941 12.1721863,20.1838339 12.2438461,20.1399305 C12.4815976,19.994269 12.7881981,20.076061 12.9286575,20.3226182 Z M27.0741549,2 C27.3590385,2 27.632254,2.11912782 27.8336972,2.33117669 L31.6853873,6.38565393 C32.1048709,6.82722285 32.1048709,7.54314752 31.6853873,7.98471644 L27.8336972,12.0391937 C27.4142136,12.4807626 26.7340963,12.4807626 26.3146127,12.0391937 C26.1131696,11.8271448 26,11.5395448 26,11.2396624 L26,9.25822222 L23.132,9.25925926 L19.9281519,14.7969592 C19.8859508,14.8699018 19.8270931,14.9309572 19.7567679,14.9747425 C19.5200169,15.1221463 19.2128656,15.0426079 19.0707262,14.7970885 L17.4756685,12.0419226 C17.2855305,11.7134946 17.2854653,11.3031153 17.475499,10.9746223 L20.8676192,5.11111111 L26,5.11007407 L26,3.13070795 C26,2.50623519 26.4809155,2 27.0741549,2 Z" id="change-direction.light"></path>
        </g>
    </g>
</svg>