<?xml version="1.0" encoding="UTF-8"?>
<svg width="32px" height="32px" viewBox="0 0 32 32" version="1.1" xmlns="http://www.w3.org/2000/svg" xmlns:xlink="http://www.w3.org/1999/xlink">
    <title>Cherry Pick.dark</title>
    <g id="Icons" stroke="none" stroke-width="1" fill="none" fill-rule="evenodd">
        <g id="Cherry-Pick.dark" fill="#7C7C7C" fill-rule="nonzero">
            <path d="M9.48071709,13.2583885 C10.4738506,13.2583885 11.0975346,13.6130573 11.9536416,14.43586 L12.2542828,14.7327473 C12.6780764,15.1562657 12.8901697,15.3361084 13.0937779,15.4418958 C13.2697622,15.5247093 13.4893468,15.5786255 13.9636721,15.6558751 L14.3595491,15.7181338 C15.7013595,15.9309882 16.4485494,16.2162435 17.0535088,17.0363483 C18.2609328,18.6731757 18.9614342,20.6556845 18.9614342,22.6291943 C18.9614342,27.8045474 14.7167725,32 9.48071709,32 C4.24466162,32 0,27.8045474 0,22.6291943 C0,17.4538412 4.24466162,13.2583885 9.48071709,13.2583885 Z M10.0083336,16.0481802 C9.54336685,16.3938096 9.44991116,17.0465579 9.79959451,17.5061342 C10.3322165,18.2061403 10.8664923,18.6889363 11.4423098,18.9423347 C12.0181274,19.195733 12.7386233,19.2651207 13.6213244,19.1879518 C14.2008459,19.1372879 14.629088,18.6318681 14.5778298,18.0590651 C14.5265717,17.4862621 14.0152238,17.0629847 13.4357023,17.1136486 C12.8779535,17.162409 12.4932881,17.1253636 12.2992332,17.0399664 C12.1051782,16.9545692 11.8199339,16.6968094 11.4833882,16.2544994 C11.1337048,15.794923 10.4733004,15.7025508 10.0083336,16.0481802 Z M30.9080803,3.17459719 C30.724104,3.7201273 30.1275352,4.01495366 29.5756065,3.83311029 C29.0236778,3.65126692 28.7253934,3.0616142 28.9093696,2.51608409 L29.0372137,2.15394486 C29.0935607,1.97552352 29.0457501,1.97403435 28.7494671,2.05184896 L28.3207424,2.16350259 C26.8476254,2.52751233 24.5711508,3.81800115 22.1394828,5.74078301 C18.7726837,8.40299682 16.3707064,10.697425 15.7471375,12.5464444 C15.5631612,13.0919746 14.9665924,13.3868009 14.4146637,13.2049576 C13.862735,13.0231142 13.5644506,12.4334615 13.7484268,11.8879313 C14.5294085,9.57214828 17.1674047,7.00555706 20.823359,4.11470081 C23.4706466,2.02142307 25.9909634,0.592704876 27.809762,0.143276613 C28.2376114,0.0375542893 28.6370595,-0.00875349324 29,-2.43949826e-14 C30.664443,0.0401434684 31.5610832,1.23829945 30.9080803,3.17459719 Z M28.0015029,4.12395095 L28.1773967,4.17411564 L28.3668963,4.23600149 C29.1471495,4.51175041 30.164713,5.15454467 30.3488131,7.19323476 L30.3674072,7.45541573 C30.4642516,9.30736891 30.8921141,10.3207005 31.6089233,11.2350444 L31.8783215,11.5595573 L31.9413441,11.6283439 C32.0258861,11.7196237 32.0181188,11.8600847 31.9239953,11.9420725 C31.8745691,11.985126 31.8092687,12.0045591 31.7452473,11.9975629 L31.6822876,11.981653 C27.2274292,10.1689734 25,8.35629379 25,6.54361421 C25,5.30733861 25.3967772,4.64527014 25.915128,4.3095293 C26.3766516,6.29531985 27.4225209,8.08724984 29.0472894,9.683446 C29.1523296,9.786639 29.3247538,9.78867157 29.4324097,9.68798587 C29.5400656,9.58730018 29.5421861,9.42202385 29.4371459,9.31883085 C27.9532286,7.86100894 26.9788336,6.24174989 26.5101706,4.4578656 L26.4195496,4.08452786 C27.0102838,3.91996114 27.6415894,4.02639904 28.0015029,4.12395095 Z M6.07049024,9.39506528 L9.06036701,10.4294018 C9.50306065,10.58255 9.73632745,11.0614147 9.58138297,11.4989761 C9.4264385,11.9365376 8.94195708,12.1671001 8.49926343,12.0139519 L5.50938666,10.9796154 C5.10358415,10.8392296 4.87375838,10.4251513 4.95761885,10.0200795 L4.9883707,9.91004103 C5.14331518,9.47247959 5.6277966,9.2419171 6.07049024,9.39506528 Z M9.98745324,4.88408753 L11.6508283,9.10634875 C11.821014,9.53834282 11.6046687,10.0249065 11.1676077,10.1931191 C10.7305468,10.3613318 10.2382761,10.1474947 10.0680905,9.71550061 L8.40471541,5.49323939 C8.23452978,5.06124532 8.450875,4.57468164 8.88793599,4.406469 C9.32499697,4.23825636 9.81726761,4.45209346 9.98745324,4.88408753 Z M14.4367797,4.90542387 C14.8846867,5.04296779 15.1349779,5.5133601 14.9958207,5.9560745 L13.9061167,9.42285683 C13.7669595,9.86557123 13.2910499,10.1129608 12.8431428,9.97541686 C12.3952358,9.83787294 12.1449445,9.36748063 12.2841017,8.92476623 L13.3738058,5.4579839 C13.512963,5.0152695 13.9888726,4.76787995 14.4367797,4.90542387 Z" id="cherry-pick.dark"></path>
        </g>
    </g>
</svg>