<?xml version="1.0" encoding="UTF-8"?>
<svg width="32px" height="32px" viewBox="0 0 32 32" version="1.1" xmlns="http://www.w3.org/2000/svg" xmlns:xlink="http://www.w3.org/1999/xlink">
    <title>Commit.dark</title>
    <g id="Icons" stroke="none" stroke-width="1" fill="none" fill-rule="evenodd">
        <g id="Commit.dark" fill="#414141">
            <path d="M16,8 C19.7366994,8 22.8653841,10.6452082 23.6714189,14.1933339 L30.2222222,14.1935484 C31.2040618,14.1935484 32,15.0023243 32,16 C32,16.9976757 31.2040618,17.8064516 30.2222222,17.8064516 L23.6714189,17.8066661 C22.8653841,21.3547918 19.7366994,24 16,24 C12.2633006,24 9.13461589,21.3547918 8.32858114,17.8066661 L1.77777778,17.8064516 C0.795938223,17.8064516 0,16.9976757 0,16 C0,15.0023243 0.795938223,14.1935484 1.77777778,14.1935484 L8.32858114,14.1933339 C9.13461589,10.6452082 12.2633006,8 16,8 Z M16,11.6129032 C13.6155325,11.6129032 11.6825397,13.5770734 11.6825397,16 C11.6825397,18.4229266 13.6155325,20.3870968 16,20.3870968 C18.3844675,20.3870968 20.3174603,18.4229266 20.3174603,16 C20.3174603,13.5770734 18.3844675,11.6129032 16,11.6129032 Z" id="commit.dark"></path>
        </g>
    </g>
</svg>