<?xml version="1.0" encoding="UTF-8"?>
<svg width="32px" height="32px" viewBox="0 0 32 32" version="1.1" xmlns="http://www.w3.org/2000/svg" xmlns:xlink="http://www.w3.org/1999/xlink">
    <title>5 Icons/37 Branches/Compare/1 Light</title>
    <g id="Branch" stroke="none" stroke-width="1" fill="none" fill-rule="evenodd">
        <g id="Artboard" transform="translate(-1232.000000, -466.000000)" fill="#414141">
            <g id="Big" transform="translate(952.000000, 450.000000)">
                <g id="Compare" transform="translate(272.000000, 0.000000)">
                    <g id="5-Icons/37-Branches/Compare/1-Light" transform="translate(8.000000, 15.999131)">
                        <path d="M12.208,0 L18,6.797 L18,10 L26.208,10 L32,16.797 L32,28.1550408 C32,29.4923189 31.8607616,29.9772483 31.5993009,30.4661372 C31.3378403,30.9550261 30.9541574,31.3387089 30.4652686,31.6001696 L30.2804483,31.6924549 C29.8418294,31.8942642 29.3242905,32.0008686 28.1541722,32.0008686 L17.8458278,32.0008686 C16.5085497,32.0008686 16.0236203,31.8616302 15.5347314,31.6001696 C15.0458426,31.3387089 14.6621597,30.9550261 14.4006991,30.4661372 L14.3084137,30.281317 C14.1210194,29.8740279 14.0157149,29.3986906 14.0016275,28.3960011 L14,22 L3.8458278,22.0008686 C2.50854969,22.0008686 2.02362033,21.8616302 1.53473144,21.6001696 C1.04584256,21.3387089 0.662159695,20.9550261 0.400699056,20.4661372 L0.308413717,20.281317 C0.121019363,19.8740279 0.0157149411,19.3986906 0.00162754585,18.3960011 L0,3.84669642 C0,2.50941832 0.139238417,2.02448896 0.400699056,1.53560007 C0.662159695,1.04671118 1.04584256,0.663028319 1.53473144,0.40156768 L1.71955165,0.309282342 C2.1268407,0.121887988 2.60217799,0.0165835659 3.60486756,0.00249617067 L12.208,0 Z M25.099,12.399 L18,12.4008686 L18,18.5911248 C18,18.734194 17.9937721,18.8734081 17.9815948,19.0086637 L17.9589016,19.208565 C17.8979816,19.8041427 17.7768082,20.1342275 17.5993009,20.4661372 C17.3378403,20.9550261 16.9541574,21.3387089 16.4652686,21.6001696 L16.4,21.633 L16.4,28.1550408 C16.4,28.6027755 16.4174462,28.9042212 16.4459112,29.097405 L16.4587664,29.1736806 C16.4728606,29.2466665 16.4788051,29.2627868 16.5170507,29.3342999 C16.5548319,29.4049445 16.5959242,29.4460368 16.6665687,29.4838179 C16.7380818,29.5220635 16.7542022,29.528008 16.827188,29.5421022 C17.0135056,29.5780818 17.3341311,29.6008686 17.8458278,29.6008686 L28.1541722,29.6008686 L28.5030058,29.596746 C28.8177874,29.5886507 29.0330738,29.5690869 29.172812,29.5421022 C29.2457978,29.528008 29.2619182,29.5220635 29.3334313,29.4838179 C29.4040758,29.4460368 29.4451681,29.4049445 29.4829493,29.3342999 C29.5211949,29.2627868 29.5271394,29.2466665 29.5412336,29.1736806 C29.5772132,28.987363 29.6,28.6667376 29.6,28.1550408 L29.6,17.681 L25.099,12.399 Z M22.2689688,20 C22.0163155,20 21.7845715,20.0973021 21.6103279,20.2565237 L18.3258356,23.2569659 C18.1254554,23.4391862 18,23.7045555 18,24 C18,24.2954445 18.1254554,24.5608138 18.3258356,24.7430341 L21.6103279,27.7434763 L21.6782931,27.8002128 C21.8428342,27.9255031 22.0478972,28 22.2689688,28 C22.8126089,28 23.2534453,27.5524104 23.2534453,27.0004423 C23.2534453,26.7049978 23.1279899,26.4396285 22.9276097,26.2574082 L21.5528275,24.9995577 L27.0155235,25.0004263 L27.0924505,24.9974186 C27.6001484,24.9575621 28,24.5265526 28,24.0008686 C28,23.4489005 27.5591636,23.0013109 27.0155235,23.0013109 L21.5528275,23.0004423 L22.9276097,21.7425918 L22.9915588,21.6788449 C23.15432,21.5010293 23.2534453,21.262175 23.2534453,20.9995577 C23.2534453,20.4475896 22.8126089,20 22.2689688,20 Z M15.6,7.681 L11.099,2.399 L3.8458278,2.40086862 C3.33413105,2.40086862 3.01350559,2.42365546 2.82718798,2.45963505 C2.75420217,2.47372926 2.7380818,2.47967373 2.66656871,2.51791936 C2.59592415,2.55570048 2.55483185,2.59679278 2.51705073,2.66743733 C2.47880511,2.73895043 2.47286063,2.75507079 2.45876642,2.8280566 C2.42278683,3.01437422 2.4,3.33499968 2.4,3.84669642 L2.4,18.1550408 C2.4,18.6667376 2.42278683,18.987363 2.45876642,19.1736806 C2.47286063,19.2466665 2.47880511,19.2627868 2.51705073,19.3342999 C2.55483185,19.4049445 2.59592415,19.4460368 2.66656871,19.4838179 C2.7380818,19.5220635 2.75420217,19.528008 2.82718798,19.5421022 C3.01350559,19.5780818 3.33413105,19.6008686 3.8458278,19.6008686 L14.1541722,19.6008686 L14.5030058,19.596746 C14.7653238,19.5899999 14.9585479,19.5752896 15.0965364,19.5549574 L15.2246701,19.531738 C15.3933177,19.4157006 15.5051312,19.2354406 15.5601108,18.9909578 L15.575639,18.9044188 L15.5902102,18.6690244 C15.5940499,18.5814128 15.5968303,18.4844063 15.5984257,18.3772608 L15.6,7.681 Z M24.4677139,13.3124878 L28.7623881,18.0713283 C28.8899371,18.2126627 28.8787618,18.4306358 28.7374273,18.5581848 C28.6473222,18.6395013 28.5210921,18.6674391 28.4050884,18.6317394 L24.8045418,17.5236848 C24.6824507,17.4861117 24.5911481,17.3841022 24.5672878,17.2586085 L23.8731602,13.6078226 C23.8376003,13.4207941 23.9603899,13.2403506 24.1474184,13.2047907 C24.265664,13.1823085 24.3870732,13.2231315 24.4677139,13.3124878 Z M9.73103121,10 C9.98368446,10 10.2154285,10.0973021 10.3896721,10.2565237 L13.6741644,13.2569659 C13.8745446,13.4391862 14,13.7045555 14,14 C14,14.2954445 13.8745446,14.5608138 13.6741644,14.7430341 L10.3896721,17.7434763 L10.3217069,17.8002128 C10.1571658,17.9255031 9.9521028,18 9.73103121,18 C9.1873911,18 8.74655473,17.5524104 8.74655473,17.0004423 C8.74655473,16.7049978 8.87201014,16.4396285 9.07239031,16.2574082 L10.4471725,14.9995577 L4.98447648,15.0004263 L4.90754945,14.9974186 C4.39985158,14.9575621 4,14.5265526 4,14.0008686 C4,13.4489005 4.44083637,13.0013109 4.98447648,13.0013109 L10.4471725,13.0004423 L9.07239031,11.7425918 L9.00844122,11.6788449 C8.84567999,11.5010293 8.74655473,11.262175 8.74655473,10.9995577 C8.74655473,10.4475896 9.1873911,10 9.73103121,10 Z M10.4677139,3.31248783 L14.7623881,8.07132831 C14.8899371,8.21266274 14.8787618,8.43063583 14.7374273,8.55818482 C14.6473222,8.63950133 14.5210921,8.66743909 14.4050884,8.63173941 L10.8045418,7.52368483 C10.6824507,7.48611175 10.5911481,7.38410224 10.5672878,7.25860855 L9.87316024,3.60782264 C9.83760032,3.42079414 9.96038987,3.24035058 10.1474184,3.20479066 C10.265664,3.18230851 10.3870732,3.22313154 10.4677139,3.31248783 Z" id="compare.light"></path>
                    </g>
                </g>
            </g>
        </g>
    </g>
</svg>