<?xml version="1.0" encoding="UTF-8"?>
<svg width="32px" height="32px" viewBox="0 0 32 32" version="1.1" xmlns="http://www.w3.org/2000/svg" xmlns:xlink="http://www.w3.org/1999/xlink">
    <title>copy.dark</title>
    <g id="Symbols" stroke="none" stroke-width="1" fill="none" fill-rule="evenodd">
        <g id="5-Icons/1-Action-Icons/12-Copy/2-Dark" fill="#9B8FF7">
            <path d="M11.1674836,0.00216644526 L25.5228163,0 C27.7750742,0 28.5917973,0.234506807 29.4151891,0.674861567 C30.238581,1.11521633 30.8847837,1.76141904 31.3251384,2.58481085 C31.741029,3.36245868 31.9733084,4.1341582 31.9978336,6.11485205 L32,20.4701848 C32,22.7224426 31.7654932,23.5391658 31.3251384,24.3625576 C30.8847837,25.1859494 30.238581,25.8321521 29.4151891,26.2725069 C28.7879596,26.6079529 28.1645998,26.8239488 26.9076007,26.9078264 C26.8235634,28.1657117 26.6076537,28.788519 26.2725069,29.4151891 C25.8321521,30.238581 25.1859494,30.8847837 24.3625576,31.3251384 C23.5849097,31.741029 22.8132102,31.9733084 20.8325164,31.9978336 L6.47718366,32 C4.22492579,32 3.40820267,31.7654932 2.58481085,31.3251384 C1.76141904,30.8847837 1.11521633,30.238581 0.674861567,29.4151891 C0.25897096,28.6375413 0.0266916451,27.8658418 0.00216644526,25.885148 L0,11.5298152 C0,9.27755737 0.234506807,8.46083425 0.674861567,7.63744243 C1.11521633,6.81405062 1.76141904,6.16784791 2.58481085,5.72749315 C3.21148098,5.3923463 3.83428828,5.17643656 5.08903763,5.09239838 C5.17561915,3.83664736 5.39171155,3.21266784 5.72749315,2.58481085 C6.16784791,1.76141904 6.81405062,1.11521633 7.63744243,0.674861567 C8.41509026,0.25897096 9.18678978,0.0266916451 11.1674836,0.00216644526 L11.1674836,0.00216644526 Z M20.7660532,7.73164392 L6.47718366,7.73052632 C4.82801979,7.73052632 4.34247425,7.82428948 3.84770296,8.08889607 C3.49098377,8.27967158 3.22704,8.54361535 3.03626449,8.90033454 C2.7716579,9.39510583 2.67789474,9.88065137 2.67789474,11.5298152 L2.67789474,25.5228163 C2.67789474,27.1719802 2.7716579,27.6575257 3.03626449,28.152297 C3.22704,28.5090162 3.49098377,28.77296 3.84770296,28.9637355 C4.34247425,29.2283421 4.82801979,29.3221053 6.47718366,29.3221053 L20.4701848,29.3221053 C22.1193486,29.3221053 22.6048942,29.2283421 23.0996655,28.9637355 C23.4563847,28.77296 23.7203284,28.5090162 23.9111039,28.152297 C24.1757105,27.6575257 24.2694737,27.1719802 24.2694737,25.5228163 L24.2694737,11.5298152 C24.2694737,9.88065137 24.1757105,9.39510583 23.9111039,8.90033454 C23.7203284,8.54361535 23.4563847,8.27967158 23.0996655,8.08889607 C22.6358174,7.8408274 22.1800779,7.74291407 20.7660532,7.73164392 L20.7660532,7.73164392 Z M25.8186848,2.67901234 L11.5298152,2.67789474 C9.88065137,2.67789474 9.39510583,2.7716579 8.90033454,3.03626449 C8.54361535,3.22704 8.27967158,3.49098377 8.08889607,3.84770296 C7.92390012,4.15621856 7.825331,4.46114703 7.77450078,5.04684161 L9.57261256,5.04647858 L10.8570892,5.05286407 L20.4701848,5.05263158 L21.1697478,5.0612777 C22.904019,5.10728554 23.6306537,5.33606669 24.3625576,5.72749315 C25.1859494,6.16784791 25.8321521,6.81405062 26.2725069,7.63744243 C26.639134,8.32297565 26.8630722,9.00388628 26.9277818,10.5124983 L26.9533132,10.6843942 L26.9465708,11.3593557 L26.9478301,24.2203439 C27.5389067,24.1746516 27.8438086,24.0760853 28.152297,23.9111039 C28.5090162,23.7203284 28.77296,23.4563847 28.9637355,23.0996655 C29.2283421,22.6048942 29.3221053,22.1193486 29.3221053,20.4701848 L29.3221053,6.47718366 C29.3221053,4.82801979 29.2283421,4.34247425 28.9637355,3.84770296 C28.77296,3.49098377 28.5090162,3.22704 28.152297,3.03626449 C27.688449,2.78819582 27.2327094,2.69028249 25.8186848,2.67901234 L25.8186848,2.67901234 Z" id="copy.dark"></path>
        </g>
    </g>
</svg>