<?xml version="1.0" encoding="UTF-8"?>
<svg width="32px" height="32px" viewBox="0 0 32 32" version="1.1" xmlns="http://www.w3.org/2000/svg" xmlns:xlink="http://www.w3.org/1999/xlink">
    <title>history.light</title>
    <g id="Symbols" stroke="none" stroke-width="1" fill="none" fill-rule="evenodd">
        <g id="5-Icons/37-Branches/History/1-Light" fill="#56A4FAFF">
            <path d="M16,0 C10.6383673,0 5.90040816,2.64319345 3.00081633,6.69477994 L3.00081633,3.99918117 C3.00081633,3.17052201 2.32816327,2.49907881 1.50204082,2.49907881 C0.675918367,2.49907881 0,3.17052201 0,3.99918117 L0,9.99959058 C0,10.8282497 0.672653061,11.4996929 1.49877551,11.4996929 L8,11.4996929 C8.82938776,11.4996929 9.49877551,10.8282497 9.49877551,9.99959058 C9.49877551,9.17093142 8.82612245,8.49948823 8,8.49948823 L5.39102041,8.49948823 C7.74530612,5.17175026 11.6146939,3.00020471 16,3.00020471 C23.1804082,3.00020471 28.9991837,8.82047083 28.9991837,16 C28.9991837,23.1795292 23.1804082,28.9997953 16,28.9997953 C9.94938776,28.9997953 4.87836735,24.8597748 3.42857143,19.258956 L3.40244898,19.2655067 C3.2,18.6759468 2.65795918,18.2468782 1.99836735,18.2468782 C1.16897959,18.2468782 0.499591837,18.9183214 0.499591837,19.7469806 C0.499591837,19.8943705 0.545306122,20.0286592 0.584489796,20.1629478 L0.568163265,20.1694985 C0.577959184,20.2055271 0.59755102,20.2382805 0.607346939,20.2743091 C0.617142857,20.3037871 0.626938776,20.3332651 0.64,20.3594678 C2.54040816,27.0738997 8.68244898,32 16,32 C24.8359184,32 32,24.8368475 32,16 C32,7.16315251 24.8359184,0 16,0 Z M16,6.75046059 C15.1706122,6.75046059 14.5012245,7.42190379 14.5012245,8.25056295 L14.5012245,17.2511771 C14.5012245,18.0798362 15.1738776,18.7512794 16,18.7512794 C16,18.7512794 16,18.7512794 16,18.7512794 L22.5012245,18.7512794 C23.3306122,18.7512794 24,18.0798362 24,17.2511771 C24,16.4225179 23.3273469,15.7510747 22.5012245,15.7510747 L17.5020408,15.7510747 L17.5020408,8.25056295 C17.4987755,7.42190379 16.8293878,6.75046059 16,6.75046059 Z" id="history.light"></path>
        </g>
    </g>
</svg>