<?xml version="1.0" encoding="UTF-8"?>
<svg width="30px" height="32px" viewBox="0 0 30 32" version="1.1" xmlns="http://www.w3.org/2000/svg" xmlns:xlink="http://www.w3.org/1999/xlink">
    <title>pull request.light</title>
    <g id="Symbols" stroke="none" stroke-width="1" fill="none" fill-rule="evenodd">
        <g id="4-Branch-Icons/1-Edit-Branch/6-Pull-Request/1-Light" transform="translate(-1.000000, 0.000000)" fill="#7C7C7C">
            <path d="M6,2 C8.76142375,2 11,4.23857625 11,7 C11,9.12660504 9.67236267,10.9431238 7.80071605,11.6659281 L7.80071605,22.3340719 C9.67236267,23.0568762 11,24.873395 11,27 C11,29.7614237 8.76142375,32 6,32 C3.23857625,32 1,29.7614237 1,27 C1,24.8730184 2.3281075,23.056233 4.20027815,22.3336881 L4.20027815,11.6663119 C2.3281075,10.943767 1,9.12698156 1,7 C1,4.23857625 3.23857625,2 6,2 Z M6,24.2 C4.4536027,24.2 3.2,25.4536027 3.2,27 C3.2,28.5463973 4.4536027,29.8 6,29.8 C7.5463973,29.8 8.8,28.5463973 8.8,27 C8.8,25.4536027 7.5463973,24.2 6,24.2 Z M6,4.2 C4.4536027,4.2 3.2,5.4536027 3.2,7 C3.2,8.5463973 4.4536027,9.8 6,9.8 C7.5463973,9.8 8.8,8.5463973 8.8,7 C8.8,5.4536027 7.5463973,4.2 6,4.2 Z M18.5155924,0.331459035 C18.7157874,0.541685852 18.8281387,0.825939723 18.8281387,1.12221475 L18.828,5.139 L19.7914614,5.14630359 C24.3501885,5.22133404 27.8,6.04495769 27.8,13 L27.7997219,22.3336881 C29.6718925,23.056233 31,24.8730184 31,27 C31,29.7614237 28.7614237,32 26,32 C23.2385763,32 21,29.7614237 21,27 C21,24.873395 22.3276373,23.0568762 24.1992839,22.3340719 L24.2,13 C24.2,9.87272727 22.9016018,8.78898389 19.1469689,8.74133815 L18.828,8.739 L18.8281387,12.8777853 C18.8281387,13.4975674 18.3463358,14 17.7520017,14 C17.4678916,14 17.1953091,13.882838 16.9937141,13.6740712 L11.3178495,7.79628593 C10.8961299,7.35956361 10.8937557,6.64902087 11.3125463,6.20924431 L16.9937141,0.325928839 C17.4154336,-0.110793481 18.0968018,-0.108317528 18.5155924,0.331459035 Z M26,24.2 C24.4536027,24.2 23.2,25.4536027 23.2,27 C23.2,28.5463973 24.4536027,29.8 26,29.8 C27.5463973,29.8 28.8,28.5463973 28.8,27 C28.8,25.4536027 27.5463973,24.2 26,24.2 Z" id="pull-request.light"></path>
        </g>
    </g>
</svg>