<?xml version="1.0" encoding="UTF-8"?>
<svg width="32px" height="32px" viewBox="0 0 32 32" version="1.1" xmlns="http://www.w3.org/2000/svg" xmlns:xlink="http://www.w3.org/1999/xlink">
    <g id="Icons" stroke="none" stroke-width="1" fill="none" fill-rule="evenodd">
        <g fill="#414141" fill-rule="nonzero">
            <path d="M17.0269451,0.399538743 L24.1180381,7.5401771 C24.6444146,8.07023477 24.6414303,8.92664382 24.1113727,9.45302025 C23.8579887,9.70464448 23.5153807,9.84585851 23.1582838,9.84585851 L17.9235462,9.84685858 C18.0327414,13.9553301 17.5397034,16.9189043 15.9925976,19.8489361 C13.7437938,24.1078994 10.0183252,28.0436182 4.84197875,31.6732264 C4.02234466,32.2479465 2.89523291,32.0447577 2.3245042,31.2193914 C1.75377548,30.3940252 1.95555316,29.2590309 2.77518725,28.6843108 C7.51061332,25.3638721 10.8433256,21.8430752 12.7991107,18.1390539 C14.0119967,15.8419941 14.4084885,13.4248303 14.3052395,9.84637734 L8.98942878,9.84585851 C8.24241252,9.84585851 7.6368362,9.24028218 7.6368362,8.49326593 C7.6368362,8.13616903 7.77805022,7.79356108 8.02967446,7.5401771 L15.114102,0.406204224 C15.6404784,-0.123853448 16.4968875,-0.126837686 17.0269451,0.399538743 Z M19.8028301,20.5752362 C21.6453285,24.9044655 24.5294846,27.4275112 28.5720774,28.3045604 C29.5484395,28.5163843 30.1694128,29.4851347 29.9590601,30.4683251 C29.7487073,31.4515155 28.7866848,32.0768316 27.8103227,31.8650077 C22.5856907,30.7315126 18.7694644,27.3930964 16.4784226,22.0099463 C16.0849898,21.0855164 16.5102435,20.0149471 17.4282533,19.6187628 C18.3462631,19.2225785 19.4093974,19.6508063 19.8028301,20.5752362 Z" id="mrge.light"></path>
        </g>
    </g>
</svg>