<?xml version="1.0" encoding="UTF-8"?>
<svg width="32px" height="22px" viewBox="0 0 32 22" version="1.1" xmlns="http://www.w3.org/2000/svg" xmlns:xlink="http://www.w3.org/1999/xlink">
    <title>pull.light</title>
    <g id="Symbols" stroke="none" stroke-width="1" fill="none" fill-rule="evenodd">
        <g id="5-Icons/4-Branch-Icons/8-Pull/1-Light" transform="translate(0.000000, -5.000000)" fill="#FFFFFF">
            <path d="M14.8913,5 C18.6764616,5 21.9740663,7.57720513 23.0455846,11.2748467 L23.3659467,11.224313 C23.5801807,11.1953941 23.7957202,11.1760368 24.0125617,11.1663452 L24.3388,11.15907 C28.56795,11.15907 32,14.7017999 32,19.0779 C32,23.4529751 28.5691757,26.9960592 24.339,27 L21.001,26.9967 L16.0007,27 L11.0007,26.9967 L5.78671,26.9967 C2.59495113,26.9967 0,24.3194656 0,21.0129 C0,17.7051992 2.59285033,15.0292 5.78671,15.0292 C5.99625285,15.0292 6.21170585,15.0447892 6.47245606,15.0755206 L6.42194532,14.6480237 C6.40839825,14.5058163 6.39817692,14.363906 6.39134236,14.2223348 L6.38106,13.79868 C6.38106,8.93598687 10.1922198,5 14.8913,5 Z M14.8913,7.38333333 C11.7008233,7.38333333 8.98106,10.1943191 8.98041677,13.7456686 L8.98880021,14.1169672 L9.00682826,14.3913895 L9.41252316,17.8249819 L6.14089795,17.4393957 C5.97463824,17.4198007 5.86885008,17.4125333 5.78671,17.4125333 C4.10112755,17.4125333 2.6,18.9638454 2.6,21.0129 C2.6,23.060437 4.10283787,24.6133667 5.78671,24.6133667 L11.002572,24.6133673 L15.9988281,24.6166679 L21.0038041,24.6133681 L24.3363577,24.6166679 C27.0596852,24.6141309 29.4,22.1950392 29.4,19.0779 C29.4,15.9604149 27.0596897,13.5424033 24.402033,13.5416984 L24.139181,13.5468506 L23.8354967,13.5697723 L21.1431801,13.9932933 L20.5327298,11.886725 C19.747064,9.17551549 17.42852,7.38333333 14.8913,7.38333333 Z M16,23 C16.2954445,23 16.5608138,22.8745446 16.7430341,22.6741644 L19.7434763,19.3896721 L19.8002128,19.3217069 C19.9255031,19.1571658 20,18.9521028 20,18.7310312 C20,18.1873911 19.5524104,17.7465547 19.0004423,17.7465547 C18.7049978,17.7465547 18.4396285,17.8720101 18.2574082,18.0723903 L16.9995577,19.4471725 L16.9995577,12.9844765 L16.99655,12.9075495 C16.9566935,12.3998516 16.525684,12 16,12 C15.4480318,12 15.0004423,12.4408364 15.0004423,12.9844765 L15.0004423,19.4471725 L13.7425918,18.0723903 L13.6788449,18.0084412 C13.5010293,17.84568 13.262175,17.7465547 12.9995577,17.7465547 C12.4475896,17.7465547 12,18.1873911 12,18.7310312 C12,18.9836845 12.0973021,19.2154285 12.2565237,19.3896721 L15.2569659,22.6741644 C15.4391862,22.8745446 15.7045555,23 16,23 Z" id="pull.light"></path>
        </g>
    </g>
</svg>