<?xml version="1.0" encoding="UTF-8"?>
<svg width="32px" height="22px" viewBox="0 0 32 22" version="1.1" xmlns="http://www.w3.org/2000/svg" xmlns:xlink="http://www.w3.org/1999/xlink">
    <title>push.light</title>
    <g id="Symbols" stroke="none" stroke-width="1" fill="none" fill-rule="evenodd">
        <g id="5-Icons/4-Branch-Icons/9-Push/1-Light" transform="translate(0.000000, -5.000000)" fill="#414141">
            <path d="M14.8913,5 C18.6764616,5 21.9740663,7.57720513 23.0455846,11.2748467 L23.3659467,11.224313 C23.5801807,11.1953941 23.7957202,11.1760368 24.0125617,11.1663452 L24.3388,11.15907 C28.56795,11.15907 32,14.7017999 32,19.0779 C32,23.4529751 28.5691757,26.9960592 24.339,27 L21.001,26.9967 L16.0007,27 L11.0007,26.9967 L5.78671,26.9967 C2.59495113,26.9967 0,24.3194656 0,21.0129 C0,17.7051992 2.59285033,15.0292 5.78671,15.0292 C5.99625285,15.0292 6.21170585,15.0447892 6.47245606,15.0755206 L6.42194532,14.6480237 C6.40839825,14.5058163 6.39817692,14.363906 6.39134236,14.2223348 L6.38106,13.79868 C6.38106,8.93598687 10.1922198,5 14.8913,5 Z M14.8913,7.38333333 C11.7008233,7.38333333 8.98106,10.1943191 8.98041677,13.7456686 L8.98880021,14.1169672 L9.00682826,14.3913895 L9.41252316,17.8249819 L6.14089795,17.4393957 C5.97463824,17.4198007 5.86885008,17.4125333 5.78671,17.4125333 C4.10112755,17.4125333 2.6,18.9638454 2.6,21.0129 C2.6,23.060437 4.10283787,24.6133667 5.78671,24.6133667 L11.002572,24.6133673 L15.9988281,24.6166679 L21.0038041,24.6133681 L24.3363577,24.6166679 C27.0596852,24.6141309 29.4,22.1950392 29.4,19.0779 C29.4,15.9604149 27.0596897,13.5424033 24.402033,13.5416984 L24.139181,13.5468506 L23.8354967,13.5697723 L21.1431801,13.9932933 L20.5327298,11.886725 C19.747064,9.17551549 17.42852,7.38333333 14.8913,7.38333333 Z M16,12 C16.2954445,12 16.5608138,12.1254554 16.7430341,12.3258356 L19.7434763,15.6103279 L19.8002128,15.6782931 C19.9255031,15.8428342 20,16.0478972 20,16.2689688 C20,16.8126089 19.5524104,17.2534453 19.0004423,17.2534453 C18.7049978,17.2534453 18.4396285,17.1279899 18.2574082,16.9276097 L16.9995577,15.5528275 L16.9995577,22.0155235 L16.99655,22.0924505 C16.9566935,22.6001484 16.525684,23 16,23 C15.4480318,23 15.0004423,22.5591636 15.0004423,22.0155235 L15.0004423,15.5528275 L13.7425918,16.9276097 L13.6788449,16.9915588 C13.5010293,17.15432 13.262175,17.2534453 12.9995577,17.2534453 C12.4475896,17.2534453 12,16.8126089 12,16.2689688 C12,16.0163155 12.0973021,15.7845715 12.2565237,15.6103279 L15.2569659,12.3258356 C15.4391862,12.1254554 15.7045555,12 16,12 Z" id="push.light"></path>
        </g>
    </g>
</svg>