<?xml version="1.0" encoding="UTF-8"?>
<svg width="32px" height="32px" viewBox="0 0 32 32" version="1.1" xmlns="http://www.w3.org/2000/svg" xmlns:xlink="http://www.w3.org/1999/xlink">
    <title>Revert.dark</title>
    <g id="Icons" stroke="none" stroke-width="1" fill="none" fill-rule="evenodd">
        <g id="Revert.dark" fill="#FFFFFF" fill-rule="nonzero">
            <path d="M10,4 C9.46874986,4 8.96093786,4.210938 8.58593785,4.585938 L0.585937804,12.5859381 C-0.195312601,13.3671881 -0.195312601,14.6328121 0.585937804,15.4140621 L8.58593785,23.4140621 C9.36718786,24.1953121 10.6328119,24.1953121 11.4140619,23.4140621 C12.1953119,22.6328121 12.1953119,21.3671881 11.4140619,20.5859381 L6.82812384,16 L24,16 C26.234376,16 28,17.7656241 28,20 C28,22.2343761 26.234376,24 24,24 C22.8984379,24 22,24.8984381 22,26 C22,27.1015621 22.8984379,28 24,28 C28.398438,28 32,24.3984381 32,20 C32,15.6015621 28.398438,12 24,12 L6.82812384,12 L11.4140619,7.41406202 C12.1953119,6.63281202 12.1953119,5.36718801 11.4140619,4.585938 C11.0390619,4.210938 10.5312499,4 10,4 Z" id="revert.dark"></path>
        </g>
    </g>
</svg>