<?xml version="1.0" encoding="UTF-8"?>
<svg width="36px" height="36px" viewBox="0 0 36 36" version="1.1" xmlns="http://www.w3.org/2000/svg" xmlns:xlink="http://www.w3.org/1999/xlink">
    <title>settings.select.light</title>
    <g id="Symbols" stroke="none" stroke-width="1" fill="none" fill-rule="evenodd">
        <g id="5-Icons/26-Settings/2-Selected" transform="translate(-2.000000, -2.000000)" fill="#414141" fill-rule="nonzero">
            <g id="settings.select.light" transform="translate(2.000000, 2.000000)">
                <path d="M10.3812245,18.8889796 C10.3738776,18.8338776 10.3702041,18.775102 10.3628571,18.7163265 C10.3591837,18.6979592 10.3591837,18.6759184 10.3591837,18.657551 C10.3555102,18.6061224 10.3518367,18.5546939 10.3481633,18.5032653 C10.3481633,18.4812245 10.3444898,18.4591837 10.3444898,18.4371429 C10.3408163,18.3857143 10.3408163,18.3342857 10.3371429,18.2828571 C10.3371429,18.2608163 10.3371429,18.242449 10.3334694,18.2204082 C10.3297959,18.1469388 10.3297959,18.0771429 10.3297959,18.0036735 C10.3297959,17.944898 10.3297959,17.882449 10.3334694,17.8236735 C10.3334694,17.8053061 10.3334694,17.7832653 10.3334694,17.764898 C10.3334694,17.7244898 10.3371429,17.6840816 10.3371429,17.64 C10.3371429,17.6179592 10.3408163,17.5959184 10.3408163,17.5738776 C10.3444898,17.5334694 10.3444898,17.4967347 10.3481633,17.4563265 C10.3481633,17.4342857 10.3518367,17.4122449 10.3518367,17.3938776 C10.3555102,17.3461224 10.3591837,17.2983673 10.3628571,17.2506122 C10.3628571,17.2322449 10.3665306,17.217551 10.3665306,17.1991837 C10.3702041,17.1477551 10.377551,17.1 10.384898,17.0485714 C10.3885714,17.0228571 10.3922449,16.9971429 10.3959184,16.975102 C10.3995918,16.9420408 10.4032653,16.9089796 10.4106122,16.8759184 C10.4142857,16.8465306 10.4179592,16.8208163 10.4216327,16.7914286 C10.4253061,16.7620408 10.4326531,16.7326531 10.4363265,16.7032653 C10.44,16.6738776 10.4473469,16.6444898 10.4510204,16.6187755 C10.4546939,16.5893878 10.4620408,16.5636735 10.4657143,16.5342857 C10.4767347,16.4791837 10.4877551,16.4240816 10.4987755,16.3653061 C10.502449,16.3432653 10.5097959,16.3212245 10.5134694,16.2955102 C10.5208163,16.262449 10.5281633,16.2293878 10.5355102,16.1963265 C10.5391837,16.1742857 10.5465306,16.1522449 10.5502041,16.1302041 C10.557551,16.0971429 10.5685714,16.0640816 10.5759184,16.0273469 C10.5795918,16.0089796 10.5869388,15.9869388 10.5906122,15.9685714 C10.6016327,15.9318367 10.6089796,15.8987755 10.62,15.8620408 C10.6236735,15.8473469 10.6273469,15.8326531 10.6310204,15.8216327 C10.6567347,15.7371429 10.682449,15.6526531 10.7081633,15.5718367 C10.7081633,15.5718367 10.7081633,15.5681633 10.7081633,15.5681633 L9.41142857,14.1134694 L0,14.6534694 L0,20.7918367 L9.19102041,21.3134694 L10.5428571,19.8 C10.4730612,19.5171429 10.4216327,19.2232653 10.384898,18.9293878 C10.384898,18.9146939 10.384898,18.9036735 10.3812245,18.8889796 Z" id="Path"></path>
                <path d="M11.6081633,13.7644898 C11.7036735,13.6212245 11.7991837,13.4853061 11.9020408,13.3493878 C11.9093878,13.3420408 11.9130612,13.3346939 11.9204082,13.3273469 C12.0232653,13.1914286 12.1334694,13.0591837 12.2436735,12.9342857 C12.2473469,12.9269388 12.2546939,12.9232653 12.2583673,12.9159184 C12.3722449,12.7873469 12.4897959,12.662449 12.6146939,12.5412245 C12.6183673,12.537551 12.6220408,12.537551 12.6220408,12.5338776 C12.8093878,12.3502041 13.0077551,12.1738776 13.2134694,12.0085714 C13.2134694,12.0085714 13.2134694,12.0085714 13.2171429,12.004898 C13.3567347,11.8946939 13.4963265,11.7881633 13.6432653,11.6889796 C13.6432653,11.6889796 13.6469388,11.6853061 13.6469388,11.6853061 C13.7938776,11.5861224 13.9444898,11.4869388 14.095102,11.3987755 C14.095102,11.3987755 14.0987755,11.3987755 14.0987755,11.3987755 C14.2530612,11.3069388 14.4110204,11.222449 14.5689796,11.1416327 C14.5689796,11.1416327 14.5689796,11.1416327 14.5689796,11.1416327 L14.6791837,9.19469388 L7.64081633,2.90571429 L3.29877551,7.2477551 L9.42979592,14.1171429 L11.457551,14.0032653 C11.5016327,13.9297959 11.5457143,13.86 11.5934694,13.7902041 C11.5971429,13.7791837 11.6008163,13.7718367 11.6081633,13.7644898 Z" id="Path"></path>
                <path d="M17.1110204,10.3812245 C17.1661224,10.3738776 17.224898,10.3702041 17.2836735,10.3628571 C17.3020408,10.3591837 17.3240816,10.3591837 17.342449,10.3591837 C17.3938776,10.3555102 17.4453061,10.3518367 17.4967347,10.3481633 C17.5187755,10.3481633 17.5408163,10.3444898 17.5665306,10.3444898 C17.6179592,10.3408163 17.6693878,10.3408163 17.7208163,10.3371429 C17.7428571,10.3371429 17.7612245,10.3371429 17.7832653,10.3334694 C17.8567347,10.3297959 17.9265306,10.3297959 18,10.3297959 C18.0587755,10.3297959 18.1212245,10.3297959 18.18,10.3334694 C18.1983673,10.3334694 18.2204082,10.3334694 18.2387755,10.3334694 C18.2791837,10.3334694 18.3195918,10.3371429 18.3636735,10.3371429 C18.3857143,10.3371429 18.4077551,10.3408163 18.4297959,10.3408163 C18.4702041,10.3444898 18.5069388,10.3444898 18.5473469,10.3481633 C18.5693878,10.3481633 18.5914286,10.3518367 18.6097959,10.3518367 C18.657551,10.3555102 18.7053061,10.3591837 18.7530612,10.3628571 C18.7714286,10.3628571 18.7897959,10.3665306 18.8081633,10.3665306 C18.8595918,10.3702041 18.9073469,10.377551 18.9587755,10.384898 C18.9844898,10.3885714 19.0102041,10.3922449 19.0322449,10.3959184 C19.0653061,10.3995918 19.0983673,10.4032653 19.1314286,10.4106122 C19.1608163,10.4142857 19.1865306,10.4179592 19.2159184,10.4216327 C19.2453061,10.4253061 19.2746939,10.4326531 19.3040816,10.4363265 C19.3334694,10.44 19.3628571,10.4473469 19.3885714,10.4510204 C19.4179592,10.4546939 19.4436735,10.4620408 19.4730612,10.4657143 C19.5318367,10.4767347 19.5869388,10.4877551 19.6457143,10.502449 C19.6677551,10.5061224 19.6897959,10.5097959 19.7081633,10.5171429 C19.7412245,10.5244898 19.7742857,10.5318367 19.8073469,10.5391837 C19.8293878,10.5428571 19.8514286,10.5502041 19.8697959,10.5538776 C19.9028571,10.5612245 19.9395918,10.5722449 19.9726531,10.5795918 C19.9910204,10.5832653 20.0093878,10.5906122 20.0314286,10.5942857 C20.0681633,10.6053061 20.1012245,10.6126531 20.1379592,10.6236735 C20.1489796,10.6273469 20.1636735,10.6310204 20.1746939,10.6346939 C20.2628571,10.6604082 20.3473469,10.6861224 20.4318367,10.7155102 L21.8865306,9.41877551 L21.3465306,0 L15.2081633,0 L14.6865306,9.19102041 L16.2,10.5428571 C16.4828571,10.4730612 16.7767347,10.4216327 17.0706122,10.384898 C17.0853061,10.384898 17.0963265,10.384898 17.1110204,10.3812245 Z" id="Path"></path>
                <path d="M33.0942857,7.64081633 L28.7522449,3.29877551 L21.8828571,9.42979592 L21.9967347,11.457551 C21.9967347,11.457551 21.9967347,11.457551 21.9967347,11.457551 C22.0665306,11.5016327 22.14,11.5457143 22.2097959,11.5934694 C22.2171429,11.5971429 22.2281633,11.6044898 22.2355102,11.6081633 C22.375102,11.7036735 22.5146939,11.7991837 22.6506122,11.9020408 C22.6579592,11.9093878 22.6653061,11.9130612 22.6726531,11.9204082 C22.8085714,12.0232653 22.9371429,12.1334694 23.0657143,12.2436735 C23.0730612,12.2473469 23.0767347,12.2546939 23.0840816,12.2583673 C23.2126531,12.3722449 23.337551,12.4897959 23.4587755,12.6146939 C23.462449,12.6183673 23.4661224,12.6220408 23.4697959,12.6257143 C23.6534694,12.8130612 23.8297959,13.0114286 23.995102,13.2171429 C23.995102,13.2171429 23.9987755,13.2208163 23.9987755,13.2208163 C24.1089796,13.3604082 24.2155102,13.5 24.3146939,13.6469388 C24.3146939,13.6469388 24.3183673,13.6506122 24.3183673,13.6506122 C24.417551,13.797551 24.5130612,13.9481633 24.604898,14.0987755 C24.604898,14.0987755 24.604898,14.102449 24.604898,14.102449 C24.6967347,14.2567347 24.7812245,14.4146939 24.8620408,14.5726531 L26.8089796,14.6828571 L33.0942857,7.64081633 Z" id="Path"></path>
                <path d="M26.8089796,14.6865306 L25.4571429,16.2 C25.4571429,16.2 25.4571429,16.2 25.4571429,16.2 C25.5269388,16.4828571 25.5783673,16.7730612 25.615102,17.0706122 C25.615102,17.0853061 25.6187755,17.0963265 25.6187755,17.1110204 C25.6261224,17.1697959 25.6297959,17.224898 25.6371429,17.2836735 C25.6371429,17.3020408 25.6408163,17.3240816 25.6408163,17.342449 C25.6444898,17.3938776 25.6481633,17.4453061 25.6518367,17.4967347 C25.6518367,17.5187755 25.6555102,17.5408163 25.6555102,17.5628571 C25.6591837,17.6142857 25.6591837,17.6657143 25.6628571,17.7171429 C25.6628571,17.7391837 25.6628571,17.757551 25.6665306,17.7795918 C25.6702041,17.8530612 25.6702041,17.9228571 25.6702041,17.9963265 C25.6702041,18.055102 25.6702041,18.117551 25.6665306,18.1763265 C25.6665306,18.1946939 25.6665306,18.2167347 25.6665306,18.235102 C25.6665306,18.2755102 25.6628571,18.3159184 25.6628571,18.36 C25.6628571,18.3820408 25.6591837,18.4040816 25.6591837,18.4261224 C25.6555102,18.4665306 25.6555102,18.5032653 25.6518367,18.5436735 C25.6518367,18.5657143 25.6481633,18.5877551 25.6481633,18.6061224 C25.6444898,18.6538776 25.6408163,18.7016327 25.6371429,18.7493878 C25.6371429,18.7677551 25.6334694,18.7861224 25.6334694,18.8044898 C25.6297959,18.8559184 25.622449,18.9036735 25.615102,18.955102 C25.6114286,18.9808163 25.6077551,19.0065306 25.6040816,19.0285714 C25.6004082,19.0616327 25.5967347,19.0946939 25.5893878,19.1240816 C25.5857143,19.1534694 25.5820408,19.1791837 25.5783673,19.2085714 C25.5746939,19.2379592 25.5673469,19.2673469 25.5636735,19.2967347 C25.56,19.3261224 25.5526531,19.3555102 25.5489796,19.384898 C25.5453061,19.4142857 25.5379592,19.44 25.5342857,19.4693878 C25.5232653,19.5244898 25.5122449,19.5832653 25.497551,19.6383673 C25.4938776,19.6604082 25.4865306,19.682449 25.4828571,19.7044898 C25.4755102,19.737551 25.4681633,19.7706122 25.4608163,19.8036735 C25.4571429,19.8257143 25.4497959,19.8477551 25.4461224,19.8697959 C25.4387755,19.9028571 25.4277551,19.9359184 25.4204082,19.9689796 C25.4167347,19.9873469 25.4093878,20.0093878 25.4057143,20.0277551 C25.3946939,20.0608163 25.3873469,20.097551 25.3763265,20.1306122 C25.3726531,20.1453061 25.3689796,20.16 25.3616327,20.1746939 C25.3395918,20.2555102 25.3138776,20.3326531 25.2881633,20.4134694 C25.2881633,20.4171429 25.2844898,20.4208163 25.2844898,20.4281633 L26.5812245,21.8828571 L36,21.3502041 L36,15.2081633 L26.8089796,14.6865306 Z" id="Path"></path>
                <path d="M26.5738776,21.8828571 L24.5461224,21.9967347 C24.5461224,21.9967347 24.5461224,21.9967347 24.5461224,21.9967347 C24.5020408,22.0665306 24.4579592,22.14 24.4102041,22.2097959 C24.4028571,22.2171429 24.3991837,22.2281633 24.3955102,22.2355102 C24.3,22.375102 24.2044898,22.5146939 24.1016327,22.6506122 C24.0942857,22.6579592 24.0906122,22.6653061 24.0832653,22.6726531 C23.9804082,22.8085714 23.8702041,22.9408163 23.76,23.0657143 C23.7563265,23.0730612 23.7489796,23.0767347 23.7453061,23.0840816 C23.6314286,23.2126531 23.5138776,23.337551 23.3889796,23.4587755 C23.3853061,23.462449 23.3816327,23.4661224 23.3816327,23.4661224 C23.1942857,23.6497959 22.9959184,23.8261224 22.7902041,23.9914286 C22.7902041,23.9914286 22.7865306,23.9914286 22.7865306,23.995102 C22.6469388,24.1053061 22.5073469,24.2118367 22.3604082,24.3110204 C22.3604082,24.3110204 22.3567347,24.3146939 22.3567347,24.3146939 C22.2097959,24.4138776 22.0628571,24.5093878 21.9085714,24.6012245 C21.9085714,24.6012245 21.904898,24.6012245 21.904898,24.604898 C21.7506122,24.6967347 21.5963265,24.7812245 21.4346939,24.8620408 C21.4346939,24.8620408 21.4346939,24.8620408 21.4346939,24.8620408 L21.3244898,26.8089796 L28.3591837,33.0942857 L32.7012245,28.7522449 L26.5738776,21.8828571 Z" id="Path"></path>
                <path d="M18.8889796,25.6187755 C18.8302041,25.6261224 18.775102,25.6297959 18.7163265,25.6371429 C18.6979592,25.6371429 18.6759184,25.6408163 18.657551,25.6408163 C18.6061224,25.6444898 18.5546939,25.6481633 18.5032653,25.6518367 C18.4812245,25.6518367 18.4591837,25.6555102 18.4371429,25.6555102 C18.3857143,25.6591837 18.3342857,25.6591837 18.2828571,25.6628571 C18.2608163,25.6628571 18.242449,25.6628571 18.2204082,25.6665306 C18.1469388,25.6702041 18.0771429,25.6702041 18.0036735,25.6702041 C17.944898,25.6702041 17.882449,25.6702041 17.8236735,25.6665306 C17.8053061,25.6665306 17.7832653,25.6665306 17.764898,25.6628571 C17.7244898,25.6628571 17.6840816,25.6591837 17.64,25.6591837 C17.6179592,25.6591837 17.5959184,25.6555102 17.5738776,25.6555102 C17.5334694,25.6518367 17.4967347,25.6518367 17.4563265,25.6481633 C17.4342857,25.6481633 17.4122449,25.6444898 17.3938776,25.6444898 C17.3461224,25.6408163 17.2983673,25.6371429 17.2506122,25.6334694 C17.2322449,25.6297959 17.2138776,25.6297959 17.1955102,25.6261224 C17.1440816,25.622449 17.0963265,25.615102 17.0485714,25.6077551 C17.0228571,25.6040816 16.9971429,25.6004082 16.9714286,25.5967347 C16.9383673,25.5930612 16.9053061,25.5893878 16.8759184,25.5820408 C16.8465306,25.5783673 16.8208163,25.5746939 16.7914286,25.5710204 C16.7620408,25.5673469 16.7326531,25.56 16.7032653,25.5563265 C16.6738776,25.5526531 16.6444898,25.5453061 16.615102,25.5416327 C16.5893878,25.5379592 16.56,25.5306122 16.5342857,25.5269388 C16.4755102,25.5159184 16.4204082,25.504898 16.3616327,25.4902041 C16.3395918,25.4865306 16.317551,25.4791837 16.2991837,25.4755102 C16.2661224,25.4681633 16.2330612,25.4608163 16.2,25.4497959 C16.1779592,25.4461224 16.1595918,25.4387755 16.137551,25.435102 C16.1044898,25.4277551 16.0714286,25.4167347 16.0346939,25.4093878 C16.0163265,25.4057143 15.9942857,25.3983673 15.9759184,25.3946939 C15.9391837,25.3836735 15.9061224,25.3763265 15.8693878,25.3653061 C15.8546939,25.3616327 15.8436735,25.3579592 15.8289796,25.3542857 C15.7444898,25.3285714 15.66,25.3028571 15.5791837,25.2771429 C15.5791837,25.2771429 15.5755102,25.2771429 15.5755102,25.2771429 L14.1208163,26.5738776 L14.6534694,36 L20.7918367,36 L21.3134694,26.8089796 L19.8,25.4571429 C19.8,25.4571429 19.8,25.4571429 19.8,25.4571429 C19.5171429,25.5269388 19.2269388,25.5783673 18.9293878,25.615102 C18.9146939,25.615102 18.9036735,25.615102 18.8889796,25.6187755 Z" id="Path"></path>
                <path d="M13.7644898,24.3918367 C13.6212245,24.2963265 13.4853061,24.2008163 13.3493878,24.0979592 C13.3420408,24.0906122 13.3346939,24.0869388 13.3273469,24.0795918 C13.1914286,23.9767347 13.0591837,23.8665306 12.9342857,23.7563265 C12.9269388,23.7526531 12.9232653,23.7453061 12.9159184,23.7416327 C12.7873469,23.6277551 12.662449,23.5102041 12.5412245,23.3853061 C12.537551,23.3816327 12.537551,23.3779592 12.5338776,23.3779592 C12.3502041,23.1906122 12.1738776,22.9922449 12.0085714,22.7865306 C12.0085714,22.7865306 12.0085714,22.7828571 12.004898,22.7828571 C11.8946939,22.6432653 11.7881633,22.5036735 11.6889796,22.3567347 C11.6889796,22.3567347 11.6853061,22.3530612 11.6853061,22.3530612 C11.5861224,22.2061224 11.4869388,22.0555102 11.3987755,21.904898 C11.3987755,21.904898 11.3987755,21.9012245 11.3987755,21.9012245 C11.3069388,21.7469388 11.222449,21.5889796 11.1416327,21.4310204 L11.1416327,21.4310204 L9.19469388,21.3208163 L2.90571429,28.3591837 L7.2477551,32.7012245 L14.1171429,26.5702041 L14.0032653,24.542449 C13.9297959,24.4983673 13.86,24.4542857 13.7902041,24.4065306 C13.7791837,24.4028571 13.7718367,24.3991837 13.7644898,24.3918367 Z" id="Path"></path>
                <path d="M18,4.33836735 C10.4546939,4.33836735 4.33836735,10.4546939 4.33836735,18 C4.33836735,25.5453061 10.4546939,31.6616327 18,31.6616327 C25.5453061,31.6616327 31.6616327,25.5453061 31.6616327,18 C31.6616327,10.4546939 25.5453061,4.33836735 18,4.33836735 Z M18,25.6702041 C13.7644898,25.6702041 10.3297959,22.2355102 10.3297959,18 C10.3297959,13.7644898 13.7644898,10.3297959 18,10.3297959 C22.2355102,10.3297959 25.6702041,13.7644898 25.6702041,18 C25.6702041,22.2355102 22.2355102,25.6702041 18,25.6702041 Z" id="Shape"></path>
            </g>
        </g>
    </g>
</svg>