<?xml version="1.0" encoding="UTF-8"?>
<svg width="32px" height="32px" viewBox="0 0 32 32" version="1.1" xmlns="http://www.w3.org/2000/svg" xmlns:xlink="http://www.w3.org/1999/xlink">
    <title>5 Icons/37 Branches/Source Graph/1 Light</title>
    <g id="Branch" stroke="none" stroke-width="1" fill="none" fill-rule="evenodd">
        <g id="Artboard" transform="translate(-960.000000, -466.000000)" fill="#FFFFFF">
            <g id="Big" transform="translate(952.000000, 450.000000)">
                <g id="5-Icons/37-Branches/Source-Graph/1-Light" transform="translate(8.000000, 16.000000)">
                    <path d="M28,0 C30.209139,0 32,1.790861 32,4 C32,6.209139 30.209139,8 28,8 C26.2457816,8 24.7553095,6.8707682 24.2158426,5.29956362 L19,5.3 C16.4042617,5.3 14.3,7.40426168 14.3,10 L14.299,14.5 L24.2909514,14.4995236 C24.8844573,13.0338608 26.3214931,12 28,12 C30.209139,12 32,13.790861 32,16 C32,18.209139 30.209139,20 28,20 C26.3211149,20 24.8838097,18.9656733 24.2905503,17.4994856 L14.299,17.5 L14.3,22 C14.3,24.5957383 16.4042617,26.7 19,26.7 L24.2161839,26.6994426 C24.755938,25.1287557 26.2461515,24 28,24 C30.209139,24 32,25.790861 32,28 C32,30.209139 30.209139,32 28,32 C26.2457816,32 24.7553095,30.8707682 24.2158426,29.2995636 L19,29.3 C14.9683213,29.3 11.7,26.0316787 11.7,22 L11.699,17.5 L7.70904859,17.5004764 C7.89667562,17.0371315 8,16.5306321 8,16 C8,15.4697461 7.89682286,14.9635906 7.70944966,14.5005144 L11.699,14.5 L11.7,10 C11.7,5.96832133 14.9683213,2.7 19,2.7 L24.2161839,2.69944263 C24.755938,1.12875568 26.2461515,0 28,0 Z M28,25.8 C26.7849736,25.8 25.8,26.7849736 25.8,28 C25.8,29.2150264 26.7849736,30.2 28,30.2 C29.2150264,30.2 30.2,29.2150264 30.2,28 C30.2,26.7849736 29.2150264,25.8 28,25.8 Z M28,13.8 C26.7849736,13.8 25.8,14.7849736 25.8,16 C25.8,17.2150264 26.7849736,18.2 28,18.2 C29.2150264,18.2 30.2,17.2150264 30.2,16 C30.2,14.7849736 29.2150264,13.8 28,13.8 Z M28,1.8 C26.7849736,1.8 25.8,2.78497355 25.8,4 C25.8,5.21502645 26.7849736,6.2 28,6.2 C29.2150264,6.2 30.2,5.21502645 30.2,4 C30.2,2.78497355 29.2150264,1.8 28,1.8 Z M4,12 C1.790861,12 0,13.790861 0,16 C0,18.209139 1.790861,20 4,20 C6.209139,20 8,18.209139 8,16 C8,13.790861 6.209139,12 4,12 Z" id="source-graph.light"></path>
                </g>
            </g>
        </g>
    </g>
</svg>