<?xml version="1.0" encoding="UTF-8"?>
<svg width="30px" height="32px" viewBox="0 0 30 32" version="1.1" xmlns="http://www.w3.org/2000/svg" xmlns:xlink="http://www.w3.org/1999/xlink">
    <title>stash pop.dark</title>
    <g id="Icons" stroke="none" stroke-width="1" fill="none" fill-rule="evenodd">
        <g id="Stash-Pop.dark" transform="translate(-1.000000, 0.000000)" fill="#414141" fill-rule="nonzero">
            <path d="M11.2702703,9.05524329 C11.7180687,9.05524329 12.0810811,9.41887931 12.0810811,9.86744707 C12.0810811,10.2963469 11.7492042,10.6475995 11.3286605,10.6775771 L7.70197895,10.6764971 C7.3073155,10.6764971 6.94854409,10.9059905 6.78251397,11.2646464 L2.82564078,19.8122284 C2.75499702,19.9648321 2.82122648,20.1459083 2.97356843,20.2166734 C3.01364947,20.2352916 3.05729952,20.2449364 3.10148029,20.2449364 L7.27611478,20.2449364 C7.65445477,20.2449364 8.0012967,20.4560281 8.17562586,20.7923884 L10.6486985,25.5640707 C10.8230276,25.900431 11.1698696,26.1115226 11.5482095,26.1115226 L20.4517905,26.1115226 C20.8301304,26.1115226 21.1769724,25.900431 21.3513015,25.5640707 L23.8243741,20.7923884 C23.9987033,20.4560281 24.3455452,20.2449364 24.7238852,20.2449364 L28.9010278,20.2449364 C29.0689522,20.2449364 29.2050819,20.1085729 29.2050819,19.94036 C29.2050819,19.8960327 29.1954229,19.8522396 29.1767793,19.8120384 L25.212569,11.2640132 C25.0463989,10.9057007 24.6878087,10.6764971 24.2933974,10.6764971 L20.6733108,10.6755898 L20.6189528,10.6721335 C20.2567568,10.6225666 19.9707203,10.3334 19.9252363,9.96932819 L19.9189189,9.86744707 C19.9189189,9.41887931 20.2819313,9.05524329 20.7297297,9.05524329 L25.4594595,9.05524329 C25.7749663,9.05524329 26.0618224,9.23858066 26.1947708,9.52520029 L30.9245005,19.721889 C30.9742336,19.8291072 31,19.9459088 31,20.0641358 L31,31.1877962 C31,31.636364 30.6369876,32 30.1891892,32 L1.81081081,32 C1.36301237,32 1,31.636364 1,31.1877962 L1,20.0641358 C1,19.9459088 1.02576639,19.8291072 1.07549948,19.721889 L5.80522921,9.52520029 C5.93817761,9.23858066 6.22503373,9.05524329 6.54054054,9.05524329 L11.2702703,9.05524329 Z M16.8640141,0.305099115 L22.2953349,4.68416277 C22.8883515,5.16228908 22.982714,6.03160915 22.5063422,6.62641179 C22.24471,6.95308845 21.8493366,7.14322027 21.4313093,7.14322027 L18.3108108,7.1425034 L18.3108878,18.3528158 C18.3108878,19.0709668 17.7643609,19.6615673 17.0650515,19.7285648 L16.9322367,19.7348941 L15.0677402,19.7348941 C14.3060668,19.7348941 13.6890891,19.1158512 13.6890891,18.3528158 L13.6881757,7.1425034 L10.5686677,7.14322027 C9.8517986,7.14322027 9.26310288,6.59486389 9.19632507,5.89420384 L9.19001659,5.76114197 C9.19001659,5.34260899 9.37921212,4.94654434 9.70464207,4.68416277 L15.1359629,0.305099115 C15.6405125,-0.101699705 16.3594645,-0.101699705 16.8640141,0.305099115 Z" id="stash-pop.dark"></path>
        </g>
    </g>
</svg>