<?xml version="1.0" encoding="UTF-8"?>
<svg width="32px" height="32px" viewBox="0 0 32 32" version="1.1" xmlns="http://www.w3.org/2000/svg" xmlns:xlink="http://www.w3.org/1999/xlink">
    <title>Surgery.dark</title>
    <g id="Icons" stroke="none" stroke-width="1" fill="none" fill-rule="evenodd">
        <g id="Surgery.dark" fill="#FFFFFF">
            <path d="M30.0917005,0 C30.493157,0 30.687891,0.372896055 30.9010939,1.57419604 C31.0329687,2.31411063 31.0329687,3.67345063 30.9010939,4.36895728 C30.7128403,5.33646254 30.3677626,6.17727458 29.8344313,6.9864133 L29.7740152,7.06746044 L29.5896642,7.28301484 L29.1571731,7.75550704 L28.6581509,8.28243218 C28.4142295,8.53720419 28.1433734,8.81669499 27.85589,9.11000343 L26.0084083,10.9735978 L25.550385,11.4198526 L25.352635,11.6035322 C25.1224614,11.8111443 25.0187009,11.8766947 24.9506497,11.8855509 L24.9343283,11.8866332 C24.8338832,11.8866332 24.4259463,11.8232866 24.0371264,11.7475318 L23.3281781,11.6084305 L22.7446242,12.1899786 L22.1610703,12.7780572 L22.1610703,13.3282585 L22.155162,13.6191856 C22.1421761,13.866072 22.1044484,14.0000918 22.0104026,14.1945398 L21.9506913,14.2828146 L21.8072005,14.4548095 L21.4720911,14.8234535 L20.5781386,15.761442 C20.3583785,15.9889198 20.1084446,16.2462426 19.8250838,16.536756 L11.6011393,24.8706218 L6.57830496,29.908051 C5.60973257,30.8717905 5.00638763,31.4633966 4.93278386,31.5185329 C4.21767923,32.0559996 3.10695034,32.1572235 2.29140057,31.7526542 C1.80829182,31.5123289 1.41914789,31.1077595 1.19330832,30.6147008 C0.973949086,30.1337237 0.936363161,29.229565 1.10582384,28.698629 C1.17483938,28.5027116 1.31287045,28.2179783 1.41947191,28.0664689 L1.50639482,27.9668011 L2.24293598,27.1979752 L3.71976367,25.6894104 L10.2381382,19.1051671 L18.5678774,10.7725206 L19.7708848,9.6002657 L19.8226851,9.55493632 C19.8280237,9.55071649 19.8316928,9.5481865 19.8336591,9.54737982 C19.9089929,9.52362484 20.0300739,9.49986985 20.1389435,9.48947705 L20.289871,9.47969693 L20.3287984,9.46822068 L20.3754988,9.44607049 L20.4732812,9.38145299 C20.6797343,9.22810748 21.0811986,8.84932791 22.0144664,7.92093932 L28.4473114,1.46511979 L29.2400785,0.687599369 L29.5572573,0.387635881 C29.9130373,0.0593083391 30.0184907,0 30.0917005,0 Z M5.06507719,28.6125807 L3.15717291,27.7438583 L2.64263456,28.287529 C2.25381464,28.6920984 2.10314692,28.907281 2.03413139,29.1348716 C1.93401026,29.4571557 1.95895954,29.8303783 2.09699061,30.1020504 C2.24117799,30.3864571 2.49844717,30.6584557 2.79330227,30.8354344 C3.13837995,31.0378823 3.60885204,31.056821 3.97272268,30.8798423 C4.26142147,30.746945 5.97417319,29.0842596 5.90515766,29.014709 L5.81865819,28.9686971 L5.06507719,28.6125807 Z M5.25291225,25.6508078 L4.63177244,26.2705597 L4.16684928,26.7482551 L4.04593534,26.8794197 C4.03004952,26.8976896 4.02209103,26.908063 4.02326927,26.9092503 L5.4158926,27.5603491 L6.7962033,28.1925091 L7.40470647,27.5854918 C7.73714749,27.2504731 8.00057299,26.9595358 7.98826035,26.9343931 L7.8574982,26.8631863 L7.5565026,26.715211 C7.30792343,26.5952246 6.97292195,26.4373797 6.60794966,26.2705597 L5.25291225,25.6508078 Z M7.34832758,23.5832265 C7.27315573,23.5832265 6.13747756,24.7466491 6.15627052,24.8034652 C6.16275085,24.829261 6.75861737,25.1264023 7.473722,25.4548904 L8.42037699,25.8730107 L8.80360514,26.0331837 L8.8540327,26.0491731 C8.9418412,26.0491731 10.1277419,24.8668118 10.0836757,24.8224039 L9.99007225,24.7732461 L9.70201982,24.6368286 C9.62092303,24.5990346 9.52996896,24.5569478 9.43222325,24.5119547 L7.50724417,23.6469394 L7.36287623,23.5875094 C7.35500708,23.5846876 7.35008361,23.5832265 7.34832758,23.5832265 Z M29.8720172,1.87166391 L29.8344313,1.56831852 L23.1508313,8.31169828 C21.9543803,9.53411917 21.5463291,9.98030962 21.4896402,10.1126914 L21.4825348,10.1404113 L21.6782855,10.9256585 L21.8351096,11.5767572 L22.653979,10.7779178 C22.9540124,10.4953795 23.0764607,10.4652844 23.5603914,10.5509257 L24.7149691,10.7738225 L27.1351803,8.33813918 L28.1191684,7.31935038 L28.6803406,6.71417563 C28.7352311,6.65270422 28.7811732,6.59993528 28.8169965,6.55708684 L28.8870068,6.46821187 C29.7842087,5.21629989 30.1104934,3.70512394 29.8720172,1.87166391 Z M25.9373503,6.49082284 L26.3935327,6.02474081 L26.5982872,5.82792568 C26.965068,5.49084175 27.0947895,5.48247012 27.3350405,5.61262886 C27.5093063,5.70805648 27.6462754,6.07133958 27.5777908,6.25627173 C27.5559594,6.31431805 27.3907606,6.50957943 27.1697588,6.74826267 L26.8617578,7.07168433 L26.5623499,7.37058208 C26.2305685,7.69355654 26.1419309,7.73441273 25.977568,7.73441273 C25.6910905,7.73441273 25.4544491,7.47939063 25.4544491,7.17994533 C25.4547261,7.03734557 25.5335191,6.91355268 25.9373503,6.49082284 L25.9373503,6.49082284 Z" id="surgery.dark"></path>
        </g>
    </g>
</svg>