<?xml version="1.0" encoding="UTF-8"?>
<svg  viewBox="0 0 40 40" version="1.1" xmlns="http://www.w3.org/2000/svg" xmlns:xlink="http://www.w3.org/1999/xlink">
    <title>theme.unselected.light</title>
    <g id="Symbols" stroke="none" stroke-width="1" fill="none" fill-rule="evenodd">
        <g id="theme.unselected.light">
            <path d="M9.89465082,0.00132264284 L29.7444592,0 C33.3105342,0 34.6036791,0.371302445 35.9073828,1.06853082 C37.2110865,1.76575919 38.2342408,2.78891348 38.9314692,4.09261719 L39.0710579,4.36294735 C39.6781457,5.58549632 40,6.93540204 40,10.2555408 L40,29.7444592 L39.9947169,30.450585 C39.9472357,33.4889492 39.5806128,34.6935897 38.9314692,35.9073828 C38.2342408,37.2110865 37.2110865,38.2342408 35.9073828,38.9314692 L35.6370527,39.0710579 C34.4145037,39.6781457 33.064598,40 29.7444592,40 L10.2555408,40 L9.54941498,39.9947169 C6.5110508,39.9472357 5.30641029,39.5806128 4.09261719,38.9314692 C2.78891348,38.2342408 1.76575919,37.2110865 1.06853082,35.9073828 L0.928942102,35.6370527 C0.344339052,34.4597833 0.0242323274,33.1644163 0.00132264284,30.1053492 L0,10.2555408 C0,6.68946584 0.371302445,5.39632089 1.06853082,4.09261719 C1.76575919,2.78891348 2.78891348,1.76575919 4.09261719,1.06853082 L4.36294735,0.928942102 C5.54021673,0.344339052 6.83558373,0.0242323274 9.89465082,0.00132264284 L9.89465082,0.00132264284 Z" id="Border" fill="#9B8FF7"></path>
            <g id="Background" transform="translate(1.000000, 1.000000)">
                <path d="M29.0941882,0.0011039543 L9.2555408,0 C6.15523901,0 4.88115612,0.246036756 3.56421604,0.950344013 C2.43478081,1.55437258 1.55437258,2.43478081 0.950344013,3.56421604 L0.795849947,3.86821525 C0.209640786,5.0879749 0,6.39372376 0,9.2555408 L0,28.7444592 C0,31.844761 0.246036756,33.1188439 0.950344013,34.435784 C1.55437258,35.5652192 2.43478081,36.4456274 3.56421604,37.049656 L3.86821525,37.2041501 C5.0879749,37.7903592 6.39372376,38 9.2555408,38 L28.7444592,38 L29.4283461,37.9955359 C32.0410273,37.9594365 33.220147,37.6997858 34.435784,37.049656 C35.5652192,36.4456274 36.4456274,35.5652192 37.049656,34.435784 L37.2041501,34.1317847 C37.7903592,32.9120251 38,31.6062762 38,28.7444592 L38,9.2555408 L37.9955359,8.57165389 C37.9594365,5.95897266 37.6997858,4.77985303 37.049656,3.56421604 C36.4456274,2.43478081 35.5652192,1.55437258 34.435784,0.950344013 L34.1317847,0.795849947 C32.9628484,0.234066168 31.7149394,0.0181238301 29.0941882,0.0011039543 Z" id="White" fill="#FFFFFF"></path>
                <path d="M29.0941882,0.0011039543 L19,0 L19,38 L28.7444592,38 L29.4283461,37.9955359 C32.0410273,37.9594365 33.220147,37.6997858 34.435784,37.049656 C35.5652192,36.4456274 36.4456274,35.5652192 37.049656,34.435784 L37.2041501,34.1317847 C37.7903592,32.9120251 38,31.6062762 38,28.7444592 L38,9.2555408 L37.9955359,8.57165389 C37.9594365,5.95897266 37.6997858,4.77985303 37.049656,3.56421604 C36.4456274,2.43478081 35.5652192,1.55437258 34.435784,0.950344013 L34.1317847,0.795849947 C32.9628484,0.234066168 31.7149394,0.0181238301 29.0941882,0.0011039543 Z" id="Dark" fill="#222222"></path>
            </g>
            <g id="Sun-&amp;-Moon" transform="translate(2.000000, 2.000000)">
                <path d="M18,31 C25.1797017,31 31,25.1797017 31,18 C31,10.8202983 25.1797017,5 18,5 C21.4666667,7.16666667 23.2,11.5 23.2,18 C23.2,24.5 21.4666667,28.8333333 18,31 Z" id="Moon" fill="#9B8FF7"></path>
                <path d="M8.08784204,27.8908352 C7.75798597,31.9591935 6.24208311,32.6506646 4.7703954,31.1879822 C3.29870769,29.7252998 4.11959338,28.2775285 8.08784204,27.8908352 Z M18,5 L18,31 C10.8202983,31 5,25.1797017 5,18 C5,10.8202983 10.8202983,5 18,5 Z M4.82416842,4.76983592 C6.28685079,3.29814821 7.73462214,4.1190339 8.12131541,8.08728255 C4.05295707,7.75742649 3.36148605,6.24152362 4.82416842,4.76983592 Z M18,32 L18,36 C15.6680878,36 15.0182981,34.6666667 18,32 Z M4,18 C1.37308649,15.8422112 0,16.2255176 0,18 C0,19.7744824 1.33333333,20.2689438 4,18 Z M18,4 L18,0 C15.6680878,0 15.0182981,1.33333333 18,4 Z" id="Sun" fill="#FEB76C"></path>
            </g>
        </g>
    </g>
</svg>