<?xml version="1.0" encoding="UTF-8"?>
<svg  viewBox="0 0 32 32" version="1.1" xmlns="http://www.w3.org/2000/svg" xmlns:xlink="http://www.w3.org/1999/xlink">
    <title>backward</title>
    <g id="Symbols" stroke="none" stroke-width="1" fill="none" fill-rule="evenodd">
        <g id="backward">
            <circle id="Oval" fill="#5445C4ff" cx="16" cy="16" r="16"></circle>
            <g id="Symbols" transform="translate(6, 9.75)" fill="#FFFFFFFF">
                <path d="M18.724402,0 C18.4764454,0 18.233864,0.073490622 18.0263319,0.211482069 L10.5776739,5.16421359 C9.98803442,5.55627428 9.82257384,6.36019215 10.2081073,6.9598144 C10.2884083,7.08470685 10.3891734,7.19438333 10.5058182,7.28418157 L10.5776739,7.33563782 L18.0263319,12.2883693 C18.6159714,12.68043 19.4065053,12.5121682 19.7920388,11.9125459 C19.9277329,11.7015002 20,11.4548118 20,11.2026572 L20,1.29719419 C20,0.58077362 19.4288953,0 18.724402,0 Z M8.72440205,0 C8.47644542,0 8.23386404,0.073490622 8.02633188,0.211482069 L0.577673906,5.16421359 C-0.0119655767,5.55627428 -0.177426161,6.36019215 0.208107347,6.9598144 C0.288408277,7.08470685 0.389173444,7.19438333 0.505818188,7.28418157 L0.577673906,7.33563782 L8.02633188,12.2883693 C8.61597136,12.68043 9.40650527,12.5121682 9.79203877,11.9125459 C9.92773288,11.7015002 10,11.4548118 10,11.2026572 L10,1.29719419 C10,0.58077362 9.42889534,0 8.72440205,0 Z" id="backward"></path>
            </g>
        </g>
    </g>
</svg>