<?xml version="1.0" encoding="UTF-8"?>
<svg width="1969px" height="1089px" viewBox="0 0 1969 1089" version="1.1" xmlns="http://www.w3.org/2000/svg" xmlns:xlink="http://www.w3.org/1999/xlink">
    <title>TreeList Sequence 4</title>
    <g id="Page-1" stroke="none" stroke-width="1" fill="none" fill-rule="evenodd">
        <g id="Tree-&lt;-&gt;-List-Sequence-4" transform="translate(-72.000000, -33.000000)">
            <g id="TreeList-Sequence-4" transform="translate(72.000000, 33.000000)">
                <rect id="Rectangle" stroke="#FFFFFFff" x="0.5" y="0.5" width="950" height="1088" rx="8"></rect>
                <rect id="Rectangle" stroke="#FFFFFFff" stroke-width="3" x="19.5" y="39.5" width="913" height="195" rx="8"></rect>
                <g id="Key:-$(LocalizedKeys" transform="translate(52.360000, 79.904000)" fill-rule="nonzero">
                    <path d="M4.536,13.2 L3.6,10.788 L10.38,2.088 L14.508,2.088 L4.536,13.2 Z M1.44,18.096 L1.44,2.088 L4.716,2.088 L4.716,18.096 L1.44,18.096 Z M7.788,8.436 L15.012,18.096 L10.848,18.096 L5.268,10.548 L7.788,8.436 Z" id="Shape" fill="#FFFFFFff"></path>
                    <path d="M22.512,18.456 C21.312,18.456 20.26,18.21 19.356,17.718 C18.452,17.226 17.752,16.51 17.256,15.57 C16.76,14.63 16.512,13.496 16.512,12.168 C16.512,10.064 17.02,8.452 18.036,7.332 C19.052,6.212 20.488,5.652 22.344,5.652 C23.664,5.652 24.73,5.94 25.542,6.516 C26.354,7.092 26.946,7.914 27.318,8.982 C27.69,10.05 27.868,11.324 27.852,12.804 L18.492,12.804 L18.264,10.728 L25.416,10.728 L24.852,11.592 C24.82,10.328 24.6,9.422 24.192,8.874 C23.784,8.326 23.132,8.052 22.236,8.052 C21.692,8.052 21.218,8.174 20.814,8.418 C20.41,8.662 20.1,9.072 19.884,9.648 C19.668,10.224 19.56,11.016 19.56,12.024 C19.56,13.272 19.854,14.226 20.442,14.886 C21.03,15.546 21.932,15.876 23.148,15.876 C23.644,15.876 24.12,15.826 24.576,15.726 C25.032,15.626 25.456,15.502 25.848,15.354 C26.24,15.206 26.576,15.068 26.856,14.94 L26.856,17.64 C26.288,17.88 25.65,18.076 24.942,18.228 C24.234,18.38 23.424,18.456 22.512,18.456 Z" id="Path" fill="#FFFFFFff"></path>
                    <path d="M32.028,22.776 C31.676,22.776 31.336,22.742 31.008,22.674 C30.68,22.606 30.396,22.52 30.156,22.416 L30.156,19.884 C30.38,19.964 30.596,20.026 30.804,20.07 C31.012,20.114 31.232,20.136 31.464,20.136 C31.904,20.136 32.278,20.026 32.586,19.806 C32.894,19.586 33.152,19.246 33.36,18.786 C33.568,18.326 33.736,17.74 33.864,17.028 L33.924,18.672 L28.752,6 L32.232,6 L35.352,15.012 L34.992,15.012 L38.076,6 L41.304,6 L36.432,18.564 C36.016,19.636 35.566,20.478 35.082,21.09 C34.598,21.702 34.098,22.136 33.582,22.392 C33.066,22.648 32.548,22.776 32.028,22.776 Z" id="Path" fill="#FFFFFFff"></path>
                    <path d="M45.504,9.756 L45.504,7.14 L48.192,7.14 L48.192,9.756 L45.504,9.756 Z M45.504,17.1 L45.504,14.484 L48.192,14.484 L48.192,17.1 L45.504,17.1 Z" id="Shape" fill="#FFFFFFff"></path>
                    <path d="M64.272,3.06 L64.272,0 L66.72,0 L66.72,3.06 L64.272,3.06 Z M64.272,20.412 L64.272,17.232 L66.72,17.232 L66.72,20.412 L64.272,20.412 Z M65.4,18.396 C64.592,18.396 63.872,18.354 63.24,18.27 C62.608,18.186 62.028,18.056 61.5,17.88 C60.972,17.704 60.444,17.484 59.916,17.22 L59.916,14.052 C60.596,14.596 61.39,15.024 62.298,15.336 C63.206,15.648 64.124,15.804 65.052,15.804 C65.916,15.804 66.568,15.632 67.008,15.288 C67.448,14.944 67.668,14.448 67.668,13.8 C67.668,13.304 67.488,12.904 67.128,12.6 C66.768,12.296 66.292,12.034 65.7,11.814 C65.108,11.594 64.46,11.36 63.756,11.112 C63.268,10.944 62.788,10.75 62.316,10.53 C61.844,10.31 61.42,10.032 61.044,9.696 C60.668,9.36 60.368,8.94 60.144,8.436 C59.92,7.932 59.808,7.312 59.808,6.576 C59.808,5.984 59.92,5.4 60.144,4.824 C60.368,4.248 60.712,3.73 61.176,3.27 C61.64,2.81 62.242,2.444 62.982,2.172 C63.722,1.9 64.6,1.764 65.616,1.764 C66.264,1.764 66.832,1.804 67.32,1.884 C67.808,1.964 68.274,2.084 68.718,2.244 C69.162,2.404 69.628,2.604 70.116,2.844 L70.116,6.012 C69.732,5.732 69.324,5.47 68.892,5.226 C68.46,4.982 68,4.78 67.512,4.62 C67.024,4.46 66.496,4.372 65.928,4.356 C65.352,4.34 64.856,4.404 64.44,4.548 C64.024,4.692 63.704,4.906 63.48,5.19 C63.256,5.474 63.144,5.816 63.144,6.216 C63.144,6.72 63.282,7.118 63.558,7.41 C63.834,7.702 64.22,7.944 64.716,8.136 C65.212,8.328 65.776,8.524 66.408,8.724 C67.032,8.916 67.622,9.13 68.178,9.366 C68.734,9.602 69.224,9.894 69.648,10.242 C70.072,10.59 70.406,11.02 70.65,11.532 C70.894,12.044 71.016,12.668 71.016,13.404 C71.016,14.3 70.81,15.128 70.398,15.888 C69.986,16.648 69.366,17.256 68.538,17.712 C67.71,18.168 66.664,18.396 65.4,18.396 Z" id="Shape" fill="#FFFFFFff"></path>
                    <path d="M76.98,20.808 C76.508,20.2 76.016,19.398 75.504,18.402 C74.992,17.406 74.562,16.26 74.214,14.964 C73.866,13.668 73.692,12.268 73.692,10.764 C73.692,9.252 73.866,7.848 74.214,6.552 C74.562,5.256 74.992,4.11 75.504,3.114 C76.016,2.118 76.508,1.32 76.98,0.72 L79.632,0.72 C79.44,1.08 79.198,1.584 78.906,2.232 C78.614,2.88 78.322,3.638 78.03,4.506 C77.738,5.374 77.496,6.336 77.304,7.392 C77.112,8.448 77.016,9.572 77.016,10.764 C77.016,11.948 77.112,13.068 77.304,14.124 C77.496,15.18 77.738,16.146 78.03,17.022 C78.322,17.898 78.614,18.656 78.906,19.296 C79.198,19.936 79.44,20.44 79.632,20.808 L76.98,20.808 Z" id="Path" fill="#FFFFFFff"></path>
                    <polygon id="Path" fill="#1C82F4FF" points="82.392 18.096 82.392 2.088 85.668 2.088 85.668 15.444 92.964 15.444 92.964 18.096"></polygon>
                    <path d="M100.68,18.456 C98.68,18.456 97.184,17.906 96.192,16.806 C95.2,15.706 94.704,14.112 94.704,12.024 C94.704,9.792 95.212,8.172 96.228,7.164 C97.244,6.156 98.72,5.652 100.656,5.652 C102,5.652 103.118,5.888 104.01,6.36 C104.902,6.832 105.57,7.54 106.014,8.484 C106.458,9.428 106.68,10.608 106.68,12.024 C106.68,14.104 106.162,15.696 105.126,16.8 C104.09,17.904 102.608,18.456 100.68,18.456 Z M100.668,15.96 C101.372,15.96 101.942,15.8 102.378,15.48 C102.814,15.16 103.136,14.706 103.344,14.118 C103.552,13.53 103.656,12.832 103.656,12.024 C103.656,11.112 103.55,10.37 103.338,9.798 C103.126,9.226 102.8,8.804 102.36,8.532 C101.92,8.26 101.356,8.124 100.668,8.124 C99.964,8.124 99.396,8.268 98.964,8.556 C98.532,8.844 98.218,9.274 98.022,9.846 C97.826,10.418 97.728,11.144 97.728,12.024 C97.728,13.296 97.958,14.27 98.418,14.946 C98.878,15.622 99.628,15.96 100.668,15.96 Z" id="Shape" fill="#1C82F4FF"></path>
                    <path d="M114.876,18.372 C114.076,18.372 113.308,18.256 112.572,18.024 C111.836,17.792 111.178,17.43 110.598,16.938 C110.018,16.446 109.56,15.806 109.224,15.018 C108.888,14.23 108.72,13.28 108.72,12.168 C108.72,11.008 108.88,10.018 109.2,9.198 C109.52,8.378 109.962,7.71 110.526,7.194 C111.09,6.678 111.742,6.3 112.482,6.06 C113.222,5.82 114.012,5.7 114.852,5.7 C115.5,5.7 116.158,5.764 116.826,5.892 C117.494,6.02 118.096,6.204 118.632,6.444 L118.632,9.108 C118.08,8.86 117.534,8.66 116.994,8.508 C116.454,8.356 115.896,8.28 115.32,8.28 C114.192,8.28 113.316,8.562 112.692,9.126 C112.068,9.69 111.756,10.604 111.756,11.868 C111.756,13.188 112.042,14.166 112.614,14.802 C113.186,15.438 114.128,15.756 115.44,15.756 C116.032,15.756 116.606,15.666 117.162,15.486 C117.718,15.306 118.216,15.104 118.656,14.88 L118.656,17.532 C118.096,17.804 117.512,18.012 116.904,18.156 C116.296,18.3 115.62,18.372 114.876,18.372 Z" id="Path" fill="#1C82F4FF"></path>
                    <path d="M125.88,18.456 C125.2,18.456 124.554,18.392 123.942,18.264 C123.33,18.136 122.784,17.922 122.304,17.622 C121.824,17.322 121.446,16.912 121.17,16.392 C120.894,15.872 120.756,15.224 120.756,14.448 C120.756,13.624 120.922,12.928 121.254,12.36 C121.586,11.792 122.076,11.36 122.724,11.064 C123.372,10.768 124.168,10.62 125.112,10.62 C125.688,10.62 126.226,10.672 126.726,10.776 C127.226,10.88 127.676,11.022 128.076,11.202 C128.476,11.382 128.804,11.58 129.06,11.796 L129.264,13.488 C128.928,13.272 128.5,13.094 127.98,12.954 C127.46,12.814 126.9,12.744 126.3,12.744 C125.452,12.744 124.82,12.882 124.404,13.158 C123.988,13.434 123.78,13.856 123.78,14.424 C123.78,14.816 123.892,15.146 124.116,15.414 C124.34,15.682 124.628,15.882 124.98,16.014 C125.332,16.146 125.7,16.212 126.084,16.212 C126.964,16.212 127.598,16.152 127.986,16.032 C128.374,15.912 128.568,15.652 128.568,15.252 L128.568,10.5 C128.568,9.708 128.322,9.132 127.83,8.772 C127.338,8.412 126.64,8.232 125.736,8.232 C125.048,8.232 124.346,8.348 123.63,8.58 C122.914,8.812 122.328,9.112 121.872,9.48 L121.872,6.72 C122.304,6.44 122.952,6.198 123.816,5.994 C124.68,5.79 125.612,5.688 126.612,5.688 C127.028,5.688 127.466,5.726 127.926,5.802 C128.386,5.878 128.832,6.004 129.264,6.18 C129.696,6.356 130.088,6.602 130.44,6.918 C130.792,7.234 131.072,7.628 131.28,8.1 C131.488,8.572 131.592,9.144 131.592,9.816 L131.58,15.564 C131.58,16.3 131.342,16.88 130.866,17.304 C130.39,17.728 129.726,18.026 128.874,18.198 C128.022,18.37 127.024,18.456 125.88,18.456 Z" id="Path" fill="#1C82F4FF"></path>
                    <polygon id="Path" fill="#1C82F4FF" points="137.976 18.096 134.952 18.096 134.952 1.428 137.976 1.428"></polygon>
                    <path d="M141.408,18.096 L141.408,6.12 L144.456,6.12 L144.48,18.096 L141.408,18.096 Z M141.336,4.212 L141.336,1.692 L144.528,1.692 L144.528,4.212 L141.336,4.212 Z" id="Shape" fill="#1C82F4FF"></path>
                    <polygon id="Path" fill="#1C82F4FF" points="147.288 18.096 147.288 15.624 153.972 7.656 154.32 8.34 147.432 8.34 147.432 6 156.684 6 156.684 8.424 150.336 16.404 150.252 15.612 156.684 15.612 156.684 18.096"></polygon>
                    <path d="M164.784,18.456 C163.584,18.456 162.532,18.21 161.628,17.718 C160.724,17.226 160.024,16.51 159.528,15.57 C159.032,14.63 158.784,13.496 158.784,12.168 C158.784,10.064 159.292,8.452 160.308,7.332 C161.324,6.212 162.76,5.652 164.616,5.652 C165.936,5.652 167.002,5.94 167.814,6.516 C168.626,7.092 169.218,7.914 169.59,8.982 C169.962,10.05 170.14,11.324 170.124,12.804 L160.764,12.804 L160.536,10.728 L167.688,10.728 L167.124,11.592 C167.092,10.328 166.872,9.422 166.464,8.874 C166.056,8.326 165.404,8.052 164.508,8.052 C163.964,8.052 163.49,8.174 163.086,8.418 C162.682,8.662 162.372,9.072 162.156,9.648 C161.94,10.224 161.832,11.016 161.832,12.024 C161.832,13.272 162.126,14.226 162.714,14.886 C163.302,15.546 164.204,15.876 165.42,15.876 C165.916,15.876 166.392,15.826 166.848,15.726 C167.304,15.626 167.728,15.502 168.12,15.354 C168.512,15.206 168.848,15.068 169.128,14.94 L169.128,17.64 C168.56,17.88 167.922,18.076 167.214,18.228 C166.506,18.38 165.696,18.456 164.784,18.456 Z" id="Path" fill="#1C82F4FF"></path>
                    <path d="M178.392,18.456 C177.552,18.456 176.758,18.358 176.01,18.162 C175.262,17.966 174.6,17.628 174.024,17.148 C173.448,16.668 172.994,16.004 172.662,15.156 C172.33,14.308 172.164,13.232 172.164,11.928 C172.164,9.992 172.638,8.464 173.586,7.344 C174.534,6.224 175.964,5.664 177.876,5.664 C178.156,5.664 178.512,5.694 178.944,5.754 C179.376,5.814 179.82,5.922 180.276,6.078 C180.732,6.234 181.128,6.468 181.464,6.78 L180.78,7.752 L180.78,0.984 L183.804,0.984 L183.804,15.252 C183.804,15.796 183.646,16.27 183.33,16.674 C183.014,17.078 182.594,17.41 182.07,17.67 C181.546,17.93 180.964,18.126 180.324,18.258 C179.684,18.39 179.04,18.456 178.392,18.456 Z M178.5,15.864 C179.148,15.864 179.69,15.782 180.126,15.618 C180.562,15.454 180.78,15.224 180.78,14.928 L180.78,8.784 C180.428,8.584 180.054,8.434 179.658,8.334 C179.262,8.234 178.88,8.184 178.512,8.184 C177.784,8.184 177.178,8.318 176.694,8.586 C176.21,8.854 175.85,9.27 175.614,9.834 C175.378,10.398 175.26,11.124 175.26,12.012 C175.26,12.764 175.356,13.428 175.548,14.004 C175.74,14.58 176.072,15.034 176.544,15.366 C177.016,15.698 177.668,15.864 178.5,15.864 Z" id="Shape" fill="#1C82F4FF"></path>
                    <path d="M190.38,13.2 L189.444,10.788 L196.224,2.088 L200.352,2.088 L190.38,13.2 Z M187.284,18.096 L187.284,2.088 L190.56,2.088 L190.56,18.096 L187.284,18.096 Z M193.632,8.436 L200.856,18.096 L196.692,18.096 L191.112,10.548 L193.632,8.436 Z" id="Shape" fill="#1C82F4FF"></path>
                    <path d="M208.356,18.456 C207.156,18.456 206.104,18.21 205.2,17.718 C204.296,17.226 203.596,16.51 203.1,15.57 C202.604,14.63 202.356,13.496 202.356,12.168 C202.356,10.064 202.864,8.452 203.88,7.332 C204.896,6.212 206.332,5.652 208.188,5.652 C209.508,5.652 210.574,5.94 211.386,6.516 C212.198,7.092 212.79,7.914 213.162,8.982 C213.534,10.05 213.712,11.324 213.696,12.804 L204.336,12.804 L204.108,10.728 L211.26,10.728 L210.696,11.592 C210.664,10.328 210.444,9.422 210.036,8.874 C209.628,8.326 208.976,8.052 208.08,8.052 C207.536,8.052 207.062,8.174 206.658,8.418 C206.254,8.662 205.944,9.072 205.728,9.648 C205.512,10.224 205.404,11.016 205.404,12.024 C205.404,13.272 205.698,14.226 206.286,14.886 C206.874,15.546 207.776,15.876 208.992,15.876 C209.488,15.876 209.964,15.826 210.42,15.726 C210.876,15.626 211.3,15.502 211.692,15.354 C212.084,15.206 212.42,15.068 212.7,14.94 L212.7,17.64 C212.132,17.88 211.494,18.076 210.786,18.228 C210.078,18.38 209.268,18.456 208.356,18.456 Z" id="Path" fill="#1C82F4FF"></path>
                    <path d="M217.872,22.776 C217.52,22.776 217.18,22.742 216.852,22.674 C216.524,22.606 216.24,22.52 216,22.416 L216,19.884 C216.224,19.964 216.44,20.026 216.648,20.07 C216.856,20.114 217.076,20.136 217.308,20.136 C217.748,20.136 218.122,20.026 218.43,19.806 C218.738,19.586 218.996,19.246 219.204,18.786 C219.412,18.326 219.58,17.74 219.708,17.028 L219.768,18.672 L214.596,6 L218.076,6 L221.196,15.012 L220.836,15.012 L223.92,6 L227.148,6 L222.276,18.564 C221.86,19.636 221.41,20.478 220.926,21.09 C220.442,21.702 219.942,22.136 219.426,22.392 C218.91,22.648 218.392,22.776 217.872,22.776 Z" id="Path" fill="#1C82F4FF"></path>
                    <path d="M232.608,18.456 C231.744,18.456 231.008,18.364 230.4,18.18 C229.792,17.996 229.208,17.78 228.648,17.532 L228.648,14.772 C229.024,15.012 229.416,15.24 229.824,15.456 C230.232,15.672 230.672,15.844 231.144,15.972 C231.616,16.1 232.128,16.164 232.68,16.164 C233.312,16.164 233.784,16.042 234.096,15.798 C234.408,15.554 234.564,15.252 234.564,14.892 C234.564,14.572 234.442,14.318 234.198,14.13 C233.954,13.942 233.64,13.784 233.256,13.656 C232.872,13.528 232.468,13.404 232.044,13.284 C231.636,13.188 231.228,13.06 230.82,12.9 C230.412,12.74 230.042,12.522 229.71,12.246 C229.378,11.97 229.112,11.622 228.912,11.202 C228.712,10.782 228.612,10.268 228.612,9.66 C228.612,8.932 228.756,8.32 229.044,7.824 C229.332,7.328 229.71,6.926 230.178,6.618 C230.646,6.31 231.158,6.088 231.714,5.952 C232.27,5.816 232.812,5.752 233.34,5.76 C234.26,5.784 235,5.89 235.56,6.078 C236.12,6.266 236.648,6.5 237.144,6.78 L237.156,9.264 C236.596,8.96 236.054,8.686 235.53,8.442 C235.006,8.198 234.404,8.076 233.724,8.076 C233.1,8.076 232.616,8.182 232.272,8.394 C231.928,8.606 231.756,8.904 231.756,9.288 C231.756,9.632 231.86,9.904 232.068,10.104 C232.276,10.304 232.55,10.462 232.89,10.578 C233.23,10.694 233.6,10.808 234,10.92 C234.4,11.032 234.814,11.156 235.242,11.292 C235.67,11.428 236.07,11.622 236.442,11.874 C236.814,12.126 237.116,12.466 237.348,12.894 C237.58,13.322 237.696,13.884 237.696,14.58 C237.68,15.516 237.43,16.27 236.946,16.842 C236.462,17.414 235.834,17.826 235.062,18.078 C234.29,18.33 233.472,18.456 232.608,18.456 Z" id="Path" fill="#1C82F4FF"></path>
                    <path d="M239.736,20.808 C239.928,20.448 240.172,19.944 240.468,19.296 C240.764,18.648 241.056,17.89 241.344,17.022 C241.632,16.154 241.874,15.19 242.07,14.13 C242.266,13.07 242.364,11.948 242.364,10.764 C242.364,9.58 242.266,8.46 242.07,7.404 C241.874,6.348 241.632,5.382 241.344,4.506 C241.056,3.63 240.764,2.872 240.468,2.232 C240.172,1.592 239.928,1.088 239.736,0.72 L242.4,0.72 C242.888,1.328 243.384,2.13 243.888,3.126 C244.392,4.122 244.818,5.266 245.166,6.558 C245.514,7.85 245.688,9.252 245.688,10.764 C245.688,12.268 245.514,13.67 245.166,14.97 C244.818,16.27 244.392,17.416 243.888,18.408 C243.384,19.4 242.888,20.2 242.4,20.808 L239.736,20.808 Z" id="Path" fill="#FFFFFFff"></path>
                    <polygon id="Path" fill="#FFFFFFff" points="6.024 46.096 0 30.088 3.732 30.088 8.556 43.972 7.476 43.972 12.252 30.112 15.708 30.088 9.468 46.096"></polygon>
                    <path d="M21.072,46.456 C20.392,46.456 19.746,46.392 19.134,46.264 C18.522,46.136 17.976,45.922 17.496,45.622 C17.016,45.322 16.638,44.912 16.362,44.392 C16.086,43.872 15.948,43.224 15.948,42.448 C15.948,41.624 16.114,40.928 16.446,40.36 C16.778,39.792 17.268,39.36 17.916,39.064 C18.564,38.768 19.36,38.62 20.304,38.62 C20.88,38.62 21.418,38.672 21.918,38.776 C22.418,38.88 22.868,39.022 23.268,39.202 C23.668,39.382 23.996,39.58 24.252,39.796 L24.456,41.488 C24.12,41.272 23.692,41.094 23.172,40.954 C22.652,40.814 22.092,40.744 21.492,40.744 C20.644,40.744 20.012,40.882 19.596,41.158 C19.18,41.434 18.972,41.856 18.972,42.424 C18.972,42.816 19.084,43.146 19.308,43.414 C19.532,43.682 19.82,43.882 20.172,44.014 C20.524,44.146 20.892,44.212 21.276,44.212 C22.156,44.212 22.79,44.152 23.178,44.032 C23.566,43.912 23.76,43.652 23.76,43.252 L23.76,38.5 C23.76,37.708 23.514,37.132 23.022,36.772 C22.53,36.412 21.832,36.232 20.928,36.232 C20.24,36.232 19.538,36.348 18.822,36.58 C18.106,36.812 17.52,37.112 17.064,37.48 L17.064,34.72 C17.496,34.44 18.144,34.198 19.008,33.994 C19.872,33.79 20.804,33.688 21.804,33.688 C22.22,33.688 22.658,33.726 23.118,33.802 C23.578,33.878 24.024,34.004 24.456,34.18 C24.888,34.356 25.28,34.602 25.632,34.918 C25.984,35.234 26.264,35.628 26.472,36.1 C26.68,36.572 26.784,37.144 26.784,37.816 L26.772,43.564 C26.772,44.3 26.534,44.88 26.058,45.304 C25.582,45.728 24.918,46.026 24.066,46.198 C23.214,46.37 22.216,46.456 21.072,46.456 Z" id="Path" fill="#FFFFFFff"></path>
                    <polygon id="Path" fill="#FFFFFFff" points="33.168 46.096 30.144 46.096 30.144 29.428 33.168 29.428"></polygon>
                    <path d="M42.048,46.456 C40.936,46.456 39.966,46.278 39.138,45.922 C38.31,45.566 37.668,45.026 37.212,44.302 C36.756,43.578 36.528,42.656 36.528,41.536 L36.528,34 L39.576,34 L39.576,41.212 C39.576,42.108 39.776,42.772 40.176,43.204 C40.576,43.636 41.204,43.852 42.06,43.852 C42.924,43.852 43.554,43.636 43.95,43.204 C44.346,42.772 44.544,42.108 44.544,41.212 L44.544,34 L47.436,34 L47.436,41.536 C47.436,43.2 46.958,44.436 46.002,45.244 C45.046,46.052 43.728,46.456 42.048,46.456 Z" id="Path" fill="#FFFFFFff"></path>
                    <path d="M56.136,46.456 C54.936,46.456 53.884,46.21 52.98,45.718 C52.076,45.226 51.376,44.51 50.88,43.57 C50.384,42.63 50.136,41.496 50.136,40.168 C50.136,38.064 50.644,36.452 51.66,35.332 C52.676,34.212 54.112,33.652 55.968,33.652 C57.288,33.652 58.354,33.94 59.166,34.516 C59.978,35.092 60.57,35.914 60.942,36.982 C61.314,38.05 61.492,39.324 61.476,40.804 L52.116,40.804 L51.888,38.728 L59.04,38.728 L58.476,39.592 C58.444,38.328 58.224,37.422 57.816,36.874 C57.408,36.326 56.756,36.052 55.86,36.052 C55.316,36.052 54.842,36.174 54.438,36.418 C54.034,36.662 53.724,37.072 53.508,37.648 C53.292,38.224 53.184,39.016 53.184,40.024 C53.184,41.272 53.478,42.226 54.066,42.886 C54.654,43.546 55.556,43.876 56.772,43.876 C57.268,43.876 57.744,43.826 58.2,43.726 C58.656,43.626 59.08,43.502 59.472,43.354 C59.864,43.206 60.2,43.068 60.48,42.94 L60.48,45.64 C59.912,45.88 59.274,46.076 58.566,46.228 C57.858,46.38 57.048,46.456 56.136,46.456 Z" id="Path" fill="#FFFFFFff"></path>
                    <path d="M66.036,37.756 L66.036,35.14 L68.724,35.14 L68.724,37.756 L66.036,37.756 Z M66.036,45.1 L66.036,42.484 L68.724,42.484 L68.724,45.1 L66.036,45.1 Z" id="Shape" fill="#FFFFFFff"></path>
                    <path d="M86.664,48.724 C85.52,48.724 84.606,48.57 83.922,48.262 C83.238,47.954 82.744,47.522 82.44,46.966 C82.136,46.41 81.984,45.76 81.984,45.016 L81.984,41.56 C81.984,41.192 81.894,40.902 81.714,40.69 C81.534,40.478 81.336,40.322 81.12,40.222 C80.904,40.122 80.74,40.056 80.628,40.024 L80.628,38.044 C80.74,38.012 80.904,37.948 81.12,37.852 C81.336,37.756 81.534,37.602 81.714,37.39 C81.894,37.178 81.984,36.888 81.984,36.52 L81.984,33.064 C81.984,32.312 82.136,31.658 82.44,31.102 C82.744,30.546 83.238,30.114 83.922,29.806 C84.606,29.498 85.52,29.344 86.664,29.344 L87.12,29.344 L87.12,32.08 L86.76,32.08 C86.376,32.088 86.074,32.158 85.854,32.29 C85.634,32.422 85.478,32.614 85.386,32.866 C85.294,33.118 85.248,33.432 85.248,33.808 L85.248,36.592 C85.248,37.232 85.064,37.75 84.696,38.146 C84.328,38.542 83.9,38.84 83.412,39.04 C83.9,39.232 84.328,39.524 84.696,39.916 C85.064,40.308 85.248,40.832 85.248,41.488 L85.248,44.272 C85.248,44.648 85.294,44.962 85.386,45.214 C85.478,45.466 85.634,45.658 85.854,45.79 C86.074,45.922 86.376,45.992 86.76,46 L87.12,46 L87.12,48.724 L86.664,48.724 Z" id="Path" fill="#FFFFFFff"></path>
                    <polygon id="Path" fill="#1C82F4FF" points="108.96 74.096 108.96 58.088 112.236 58.088 112.236 71.444 119.532 71.444 119.532 74.096"></polygon>
                    <path d="M127.248,74.456 C125.248,74.456 123.752,73.906 122.76,72.806 C121.768,71.706 121.272,70.112 121.272,68.024 C121.272,65.792 121.78,64.172 122.796,63.164 C123.812,62.156 125.288,61.652 127.224,61.652 C128.568,61.652 129.686,61.888 130.578,62.36 C131.47,62.832 132.138,63.54 132.582,64.484 C133.026,65.428 133.248,66.608 133.248,68.024 C133.248,70.104 132.73,71.696 131.694,72.8 C130.658,73.904 129.176,74.456 127.248,74.456 Z M127.236,71.96 C127.94,71.96 128.51,71.8 128.946,71.48 C129.382,71.16 129.704,70.706 129.912,70.118 C130.12,69.53 130.224,68.832 130.224,68.024 C130.224,67.112 130.118,66.37 129.906,65.798 C129.694,65.226 129.368,64.804 128.928,64.532 C128.488,64.26 127.924,64.124 127.236,64.124 C126.532,64.124 125.964,64.268 125.532,64.556 C125.1,64.844 124.786,65.274 124.59,65.846 C124.394,66.418 124.296,67.144 124.296,68.024 C124.296,69.296 124.526,70.27 124.986,70.946 C125.446,71.622 126.196,71.96 127.236,71.96 Z" id="Shape" fill="#1C82F4FF"></path>
                    <path d="M141.444,74.372 C140.644,74.372 139.876,74.256 139.14,74.024 C138.404,73.792 137.746,73.43 137.166,72.938 C136.586,72.446 136.128,71.806 135.792,71.018 C135.456,70.23 135.288,69.28 135.288,68.168 C135.288,67.008 135.448,66.018 135.768,65.198 C136.088,64.378 136.53,63.71 137.094,63.194 C137.658,62.678 138.31,62.3 139.05,62.06 C139.79,61.82 140.58,61.7 141.42,61.7 C142.068,61.7 142.726,61.764 143.394,61.892 C144.062,62.02 144.664,62.204 145.2,62.444 L145.2,65.108 C144.648,64.86 144.102,64.66 143.562,64.508 C143.022,64.356 142.464,64.28 141.888,64.28 C140.76,64.28 139.884,64.562 139.26,65.126 C138.636,65.69 138.324,66.604 138.324,67.868 C138.324,69.188 138.61,70.166 139.182,70.802 C139.754,71.438 140.696,71.756 142.008,71.756 C142.6,71.756 143.174,71.666 143.73,71.486 C144.286,71.306 144.784,71.104 145.224,70.88 L145.224,73.532 C144.664,73.804 144.08,74.012 143.472,74.156 C142.864,74.3 142.188,74.372 141.444,74.372 Z" id="Path" fill="#1C82F4FF"></path>
                    <path d="M152.448,74.456 C151.768,74.456 151.122,74.392 150.51,74.264 C149.898,74.136 149.352,73.922 148.872,73.622 C148.392,73.322 148.014,72.912 147.738,72.392 C147.462,71.872 147.324,71.224 147.324,70.448 C147.324,69.624 147.49,68.928 147.822,68.36 C148.154,67.792 148.644,67.36 149.292,67.064 C149.94,66.768 150.736,66.62 151.68,66.62 C152.256,66.62 152.794,66.672 153.294,66.776 C153.794,66.88 154.244,67.022 154.644,67.202 C155.044,67.382 155.372,67.58 155.628,67.796 L155.832,69.488 C155.496,69.272 155.068,69.094 154.548,68.954 C154.028,68.814 153.468,68.744 152.868,68.744 C152.02,68.744 151.388,68.882 150.972,69.158 C150.556,69.434 150.348,69.856 150.348,70.424 C150.348,70.816 150.46,71.146 150.684,71.414 C150.908,71.682 151.196,71.882 151.548,72.014 C151.9,72.146 152.268,72.212 152.652,72.212 C153.532,72.212 154.166,72.152 154.554,72.032 C154.942,71.912 155.136,71.652 155.136,71.252 L155.136,66.5 C155.136,65.708 154.89,65.132 154.398,64.772 C153.906,64.412 153.208,64.232 152.304,64.232 C151.616,64.232 150.914,64.348 150.198,64.58 C149.482,64.812 148.896,65.112 148.44,65.48 L148.44,62.72 C148.872,62.44 149.52,62.198 150.384,61.994 C151.248,61.79 152.18,61.688 153.18,61.688 C153.596,61.688 154.034,61.726 154.494,61.802 C154.954,61.878 155.4,62.004 155.832,62.18 C156.264,62.356 156.656,62.602 157.008,62.918 C157.36,63.234 157.64,63.628 157.848,64.1 C158.056,64.572 158.16,65.144 158.16,65.816 L158.148,71.564 C158.148,72.3 157.91,72.88 157.434,73.304 C156.958,73.728 156.294,74.026 155.442,74.198 C154.59,74.37 153.592,74.456 152.448,74.456 Z" id="Path" fill="#1C82F4FF"></path>
                    <polygon id="Path" fill="#1C82F4FF" points="164.544 74.096 161.52 74.096 161.52 57.428 164.544 57.428"></polygon>
                    <path d="M167.976,74.096 L167.976,62.12 L171.024,62.12 L171.048,74.096 L167.976,74.096 Z M167.904,60.212 L167.904,57.692 L171.096,57.692 L171.096,60.212 L167.904,60.212 Z" id="Shape" fill="#1C82F4FF"></path>
                    <polygon id="Path" fill="#1C82F4FF" points="173.856 74.096 173.856 71.624 180.54 63.656 180.888 64.34 174 64.34 174 62 183.252 62 183.252 64.424 176.904 72.404 176.82 71.612 183.252 71.612 183.252 74.096"></polygon>
                    <path d="M191.352,74.456 C190.152,74.456 189.1,74.21 188.196,73.718 C187.292,73.226 186.592,72.51 186.096,71.57 C185.6,70.63 185.352,69.496 185.352,68.168 C185.352,66.064 185.86,64.452 186.876,63.332 C187.892,62.212 189.328,61.652 191.184,61.652 C192.504,61.652 193.57,61.94 194.382,62.516 C195.194,63.092 195.786,63.914 196.158,64.982 C196.53,66.05 196.708,67.324 196.692,68.804 L187.332,68.804 L187.104,66.728 L194.256,66.728 L193.692,67.592 C193.66,66.328 193.44,65.422 193.032,64.874 C192.624,64.326 191.972,64.052 191.076,64.052 C190.532,64.052 190.058,64.174 189.654,64.418 C189.25,64.662 188.94,65.072 188.724,65.648 C188.508,66.224 188.4,67.016 188.4,68.024 C188.4,69.272 188.694,70.226 189.282,70.886 C189.87,71.546 190.772,71.876 191.988,71.876 C192.484,71.876 192.96,71.826 193.416,71.726 C193.872,71.626 194.296,71.502 194.688,71.354 C195.08,71.206 195.416,71.068 195.696,70.94 L195.696,73.64 C195.128,73.88 194.49,74.076 193.782,74.228 C193.074,74.38 192.264,74.456 191.352,74.456 Z" id="Path" fill="#1C82F4FF"></path>
                    <path d="M204.96,74.456 C204.12,74.456 203.326,74.358 202.578,74.162 C201.83,73.966 201.168,73.628 200.592,73.148 C200.016,72.668 199.562,72.004 199.23,71.156 C198.898,70.308 198.732,69.232 198.732,67.928 C198.732,65.992 199.206,64.464 200.154,63.344 C201.102,62.224 202.532,61.664 204.444,61.664 C204.724,61.664 205.08,61.694 205.512,61.754 C205.944,61.814 206.388,61.922 206.844,62.078 C207.3,62.234 207.696,62.468 208.032,62.78 L207.348,63.752 L207.348,56.984 L210.372,56.984 L210.372,71.252 C210.372,71.796 210.214,72.27 209.898,72.674 C209.582,73.078 209.162,73.41 208.638,73.67 C208.114,73.93 207.532,74.126 206.892,74.258 C206.252,74.39 205.608,74.456 204.96,74.456 Z M205.068,71.864 C205.716,71.864 206.258,71.782 206.694,71.618 C207.13,71.454 207.348,71.224 207.348,70.928 L207.348,64.784 C206.996,64.584 206.622,64.434 206.226,64.334 C205.83,64.234 205.448,64.184 205.08,64.184 C204.352,64.184 203.746,64.318 203.262,64.586 C202.778,64.854 202.418,65.27 202.182,65.834 C201.946,66.398 201.828,67.124 201.828,68.012 C201.828,68.764 201.924,69.428 202.116,70.004 C202.308,70.58 202.64,71.034 203.112,71.366 C203.584,71.698 204.236,71.864 205.068,71.864 Z" id="Shape" fill="#1C82F4FF"></path>
                    <path d="M216.948,69.2 L216.012,66.788 L222.792,58.088 L226.92,58.088 L216.948,69.2 Z M213.852,74.096 L213.852,58.088 L217.128,58.088 L217.128,74.096 L213.852,74.096 Z M220.2,64.436 L227.424,74.096 L223.26,74.096 L217.68,66.548 L220.2,64.436 Z" id="Shape" fill="#1C82F4FF"></path>
                    <path d="M234.924,74.456 C233.724,74.456 232.672,74.21 231.768,73.718 C230.864,73.226 230.164,72.51 229.668,71.57 C229.172,70.63 228.924,69.496 228.924,68.168 C228.924,66.064 229.432,64.452 230.448,63.332 C231.464,62.212 232.9,61.652 234.756,61.652 C236.076,61.652 237.142,61.94 237.954,62.516 C238.766,63.092 239.358,63.914 239.73,64.982 C240.102,66.05 240.28,67.324 240.264,68.804 L230.904,68.804 L230.676,66.728 L237.828,66.728 L237.264,67.592 C237.232,66.328 237.012,65.422 236.604,64.874 C236.196,64.326 235.544,64.052 234.648,64.052 C234.104,64.052 233.63,64.174 233.226,64.418 C232.822,64.662 232.512,65.072 232.296,65.648 C232.08,66.224 231.972,67.016 231.972,68.024 C231.972,69.272 232.266,70.226 232.854,70.886 C233.442,71.546 234.344,71.876 235.56,71.876 C236.056,71.876 236.532,71.826 236.988,71.726 C237.444,71.626 237.868,71.502 238.26,71.354 C238.652,71.206 238.988,71.068 239.268,70.94 L239.268,73.64 C238.7,73.88 238.062,74.076 237.354,74.228 C236.646,74.38 235.836,74.456 234.924,74.456 Z" id="Path" fill="#1C82F4FF"></path>
                    <path d="M244.44,78.776 C244.088,78.776 243.748,78.742 243.42,78.674 C243.092,78.606 242.808,78.52 242.568,78.416 L242.568,75.884 C242.792,75.964 243.008,76.026 243.216,76.07 C243.424,76.114 243.644,76.136 243.876,76.136 C244.316,76.136 244.69,76.026 244.998,75.806 C245.306,75.586 245.564,75.246 245.772,74.786 C245.98,74.326 246.148,73.74 246.276,73.028 L246.336,74.672 L241.164,62 L244.644,62 L247.764,71.012 L247.404,71.012 L250.488,62 L253.716,62 L248.844,74.564 C248.428,75.636 247.978,76.478 247.494,77.09 C247.01,77.702 246.51,78.136 245.994,78.392 C245.478,78.648 244.96,78.776 244.44,78.776 Z" id="Path" fill="#1C82F4FF"></path>
                    <path d="M259.176,74.456 C258.312,74.456 257.576,74.364 256.968,74.18 C256.36,73.996 255.776,73.78 255.216,73.532 L255.216,70.772 C255.592,71.012 255.984,71.24 256.392,71.456 C256.8,71.672 257.24,71.844 257.712,71.972 C258.184,72.1 258.696,72.164 259.248,72.164 C259.88,72.164 260.352,72.042 260.664,71.798 C260.976,71.554 261.132,71.252 261.132,70.892 C261.132,70.572 261.01,70.318 260.766,70.13 C260.522,69.942 260.208,69.784 259.824,69.656 C259.44,69.528 259.036,69.404 258.612,69.284 C258.204,69.188 257.796,69.06 257.388,68.9 C256.98,68.74 256.61,68.522 256.278,68.246 C255.946,67.97 255.68,67.622 255.48,67.202 C255.28,66.782 255.18,66.268 255.18,65.66 C255.18,64.932 255.324,64.32 255.612,63.824 C255.9,63.328 256.278,62.926 256.746,62.618 C257.214,62.31 257.726,62.088 258.282,61.952 C258.838,61.816 259.38,61.752 259.908,61.76 C260.828,61.784 261.568,61.89 262.128,62.078 C262.688,62.266 263.216,62.5 263.712,62.78 L263.724,65.264 C263.164,64.96 262.622,64.686 262.098,64.442 C261.574,64.198 260.972,64.076 260.292,64.076 C259.668,64.076 259.184,64.182 258.84,64.394 C258.496,64.606 258.324,64.904 258.324,65.288 C258.324,65.632 258.428,65.904 258.636,66.104 C258.844,66.304 259.118,66.462 259.458,66.578 C259.798,66.694 260.168,66.808 260.568,66.92 C260.968,67.032 261.382,67.156 261.81,67.292 C262.238,67.428 262.638,67.622 263.01,67.874 C263.382,68.126 263.684,68.466 263.916,68.894 C264.148,69.322 264.264,69.884 264.264,70.58 C264.248,71.516 263.998,72.27 263.514,72.842 C263.03,73.414 262.402,73.826 261.63,74.078 C260.858,74.33 260.04,74.456 259.176,74.456 Z" id="Path" fill="#1C82F4FF"></path>
                    <path d="M268.884,65.756 L268.884,63.14 L271.572,63.14 L271.572,65.756 L268.884,65.756 Z M268.884,73.1 L268.884,70.484 L271.572,70.484 L271.572,73.1 L268.884,73.1 Z" id="Shape" fill="#1C82F4FF"></path>
                    <polygon id="Path" fill="#1C82F4FF" points="284.052 76.88 284.052 57.392 289.848 57.392 289.848 60.128 287.316 60.128 287.316 74.132 289.848 74.132 289.848 76.88"></polygon>
                    <polygon id="Path" fill="#1C82F4FF" points="293.052 76.88 293.052 74.144 295.572 74.144 295.572 60.14 293.052 60.14 293.052 57.392 298.836 57.392 298.836 76.88"></polygon>
                    <path d="M88.38,104.724 L88.38,102 L88.716,102 C89.108,101.992 89.414,101.922 89.634,101.79 C89.854,101.658 90.008,101.466 90.096,101.214 C90.184,100.962 90.228,100.648 90.228,100.272 L90.228,97.488 C90.228,96.832 90.418,96.308 90.798,95.916 C91.178,95.524 91.604,95.232 92.076,95.04 C91.604,94.84 91.178,94.542 90.798,94.146 C90.418,93.75 90.228,93.232 90.228,92.592 L90.228,89.808 C90.228,89.432 90.184,89.118 90.096,88.866 C90.008,88.614 89.854,88.422 89.634,88.29 C89.414,88.158 89.108,88.088 88.716,88.08 L88.38,88.08 L88.38,85.344 L88.812,85.344 C89.964,85.344 90.88,85.498 91.56,85.806 C92.24,86.114 92.732,86.546 93.036,87.102 C93.34,87.658 93.492,88.312 93.492,89.064 L93.492,92.52 C93.492,92.888 93.582,93.178 93.762,93.39 C93.942,93.602 94.142,93.756 94.362,93.852 C94.582,93.948 94.744,94.012 94.848,94.044 L94.848,96.024 C94.744,96.056 94.582,96.122 94.362,96.222 C94.142,96.322 93.942,96.478 93.762,96.69 C93.582,96.902 93.492,97.192 93.492,97.56 L93.492,101.016 C93.492,101.76 93.34,102.41 93.036,102.966 C92.732,103.522 92.24,103.954 91.56,104.262 C90.88,104.57 89.964,104.724 88.812,104.724 L88.38,104.724 Z" id="Path" fill="#FFFFFFff"></path>
                </g>
                <g id="{-&quot;LocalizedKeys&quot;:-[" transform="translate(1166.070000, 218.872000)" fill-rule="nonzero">
                    <path d="M9.432,29.07 C7.716,29.07 6.345,28.839 5.319,28.377 C4.293,27.915 3.552,27.267 3.096,26.433 C2.64,25.599 2.412,24.624 2.412,23.508 L2.412,18.324 C2.412,17.772 2.277,17.337 2.007,17.019 C1.737,16.701 1.44,16.467 1.116,16.317 C0.792,16.167 0.546,16.068 0.378,16.02 L0.378,13.05 C0.546,13.002 0.792,12.906 1.116,12.762 C1.44,12.618 1.737,12.387 2.007,12.069 C2.277,11.751 2.412,11.316 2.412,10.764 L2.412,5.58 C2.412,4.452 2.64,3.471 3.096,2.637 C3.552,1.803 4.293,1.155 5.319,0.693 C6.345,0.231 7.716,0 9.432,0 L10.116,0 L10.116,4.104 L9.576,4.104 C9,4.116 8.547,4.221 8.217,4.419 C7.887,4.617 7.653,4.905 7.515,5.283 C7.377,5.661 7.308,6.132 7.308,6.696 L7.308,10.872 C7.308,11.832 7.032,12.609 6.48,13.203 C5.928,13.797 5.286,14.244 4.554,14.544 C5.286,14.832 5.928,15.27 6.48,15.858 C7.032,16.446 7.308,17.232 7.308,18.216 L7.308,22.392 C7.308,22.956 7.377,23.427 7.515,23.805 C7.653,24.183 7.887,24.471 8.217,24.669 C8.547,24.867 9,24.972 9.576,24.984 L10.116,24.984 L10.116,29.07 L9.432,29.07 Z" id="Path" fill="#FFFFFFff"></path>
                    <path d="M26.784,51.028 L26.154,43.792 L29.88,43.792 L29.25,51.028 L26.784,51.028 Z M21.654,51.028 L21.006,43.792 L24.732,43.792 L24.12,51.028 L21.654,51.028 Z" id="Shape" fill="#FFFFFFff"></path>
                    <polygon id="Path" fill="#1C82F4FF" points="35.55 68.128 35.55 44.116 40.464 44.116 40.464 64.15 51.408 64.15 51.408 68.128"></polygon>
                    <path d="M62.982,68.668 C59.982,68.668 57.738,67.843 56.25,66.193 C54.762,64.543 54.018,62.152 54.018,59.02 C54.018,55.672 54.78,53.242 56.304,51.73 C57.828,50.218 60.042,49.462 62.946,49.462 C64.962,49.462 66.639,49.816 67.977,50.524 C69.315,51.232 70.317,52.294 70.983,53.71 C71.649,55.126 71.982,56.896 71.982,59.02 C71.982,62.14 71.205,64.528 69.651,66.184 C68.097,67.84 65.874,68.668 62.982,68.668 Z M62.964,64.924 C64.02,64.924 64.875,64.684 65.529,64.204 C66.183,63.724 66.666,63.043 66.978,62.161 C67.29,61.279 67.446,60.232 67.446,59.02 C67.446,57.652 67.287,56.539 66.969,55.681 C66.651,54.823 66.162,54.19 65.502,53.782 C64.842,53.374 63.996,53.17 62.964,53.17 C61.908,53.17 61.056,53.386 60.408,53.818 C59.76,54.25 59.289,54.895 58.995,55.753 C58.701,56.611 58.554,57.7 58.554,59.02 C58.554,60.928 58.899,62.389 59.589,63.403 C60.279,64.417 61.404,64.924 62.964,64.924 Z" id="Shape" fill="#1C82F4FF"></path>
                    <path d="M84.276,68.542 C83.076,68.542 81.924,68.368 80.82,68.02 C79.716,67.672 78.729,67.129 77.859,66.391 C76.989,65.653 76.302,64.693 75.798,63.511 C75.294,62.329 75.042,60.904 75.042,59.236 C75.042,57.496 75.282,56.011 75.762,54.781 C76.242,53.551 76.905,52.549 77.751,51.775 C78.597,51.001 79.575,50.434 80.685,50.074 C81.795,49.714 82.98,49.534 84.24,49.534 C85.212,49.534 86.199,49.63 87.201,49.822 C88.203,50.014 89.106,50.29 89.91,50.65 L89.91,54.646 C89.082,54.274 88.263,53.974 87.453,53.746 C86.643,53.518 85.806,53.404 84.942,53.404 C83.25,53.404 81.936,53.827 81,54.673 C80.064,55.519 79.596,56.89 79.596,58.786 C79.596,60.766 80.025,62.233 80.883,63.187 C81.741,64.141 83.154,64.618 85.122,64.618 C86.01,64.618 86.871,64.483 87.705,64.213 C88.539,63.943 89.286,63.64 89.946,63.304 L89.946,67.282 C89.106,67.69 88.23,68.002 87.318,68.218 C86.406,68.434 85.392,68.542 84.276,68.542 Z" id="Path" fill="#1C82F4FF"></path>
                    <path d="M100.782,68.668 C99.762,68.668 98.793,68.572 97.875,68.38 C96.957,68.188 96.138,67.867 95.418,67.417 C94.698,66.967 94.131,66.352 93.717,65.572 C93.303,64.792 93.096,63.82 93.096,62.656 C93.096,61.42 93.345,60.376 93.843,59.524 C94.341,58.672 95.076,58.024 96.048,57.58 C97.02,57.136 98.214,56.914 99.63,56.914 C100.494,56.914 101.301,56.992 102.051,57.148 C102.801,57.304 103.476,57.517 104.076,57.787 C104.676,58.057 105.168,58.354 105.552,58.678 L105.858,61.216 C105.354,60.892 104.712,60.625 103.932,60.415 C103.152,60.205 102.312,60.1 101.412,60.1 C100.14,60.1 99.192,60.307 98.568,60.721 C97.944,61.135 97.632,61.768 97.632,62.62 C97.632,63.208 97.8,63.703 98.136,64.105 C98.472,64.507 98.904,64.807 99.432,65.005 C99.96,65.203 100.512,65.302 101.088,65.302 C102.408,65.302 103.359,65.212 103.941,65.032 C104.523,64.852 104.814,64.462 104.814,63.862 L104.814,56.734 C104.814,55.546 104.445,54.682 103.707,54.142 C102.969,53.602 101.922,53.332 100.566,53.332 C99.534,53.332 98.481,53.506 97.407,53.854 C96.333,54.202 95.454,54.652 94.77,55.204 L94.77,51.064 C95.418,50.644 96.39,50.281 97.686,49.975 C98.982,49.669 100.38,49.516 101.88,49.516 C102.504,49.516 103.161,49.573 103.851,49.687 C104.541,49.801 105.21,49.99 105.858,50.254 C106.506,50.518 107.094,50.887 107.622,51.361 C108.15,51.835 108.57,52.426 108.882,53.134 C109.194,53.842 109.35,54.7 109.35,55.708 L109.332,64.33 C109.332,65.434 108.975,66.304 108.261,66.94 C107.547,67.576 106.551,68.023 105.273,68.281 C103.995,68.539 102.498,68.668 100.782,68.668 Z" id="Path" fill="#1C82F4FF"></path>
                    <polygon id="Path" fill="#1C82F4FF" points="118.926 68.128 114.39 68.128 114.39 43.126 118.926 43.126"></polygon>
                    <path d="M124.074,68.128 L124.074,50.164 L128.646,50.164 L128.682,68.128 L124.074,68.128 Z M123.966,47.302 L123.966,43.522 L128.754,43.522 L128.754,47.302 L123.966,47.302 Z" id="Shape" fill="#1C82F4FF"></path>
                    <polygon id="Path" fill="#1C82F4FF" points="132.894 68.128 132.894 64.42 142.92 52.468 143.442 53.494 133.11 53.494 133.11 49.984 146.988 49.984 146.988 53.62 137.466 65.59 137.34 64.402 146.988 64.402 146.988 68.128"></polygon>
                    <path d="M159.138,68.668 C157.338,68.668 155.76,68.299 154.404,67.561 C153.048,66.823 151.998,65.749 151.254,64.339 C150.51,62.929 150.138,61.228 150.138,59.236 C150.138,56.08 150.9,53.662 152.424,51.982 C153.948,50.302 156.102,49.462 158.886,49.462 C160.866,49.462 162.465,49.894 163.683,50.758 C164.901,51.622 165.789,52.855 166.347,54.457 C166.905,56.059 167.172,57.97 167.148,60.19 L153.108,60.19 L152.766,57.076 L163.494,57.076 L162.648,58.372 C162.6,56.476 162.27,55.117 161.658,54.295 C161.046,53.473 160.068,53.062 158.724,53.062 C157.908,53.062 157.197,53.245 156.591,53.611 C155.985,53.977 155.52,54.592 155.196,55.456 C154.872,56.32 154.71,57.508 154.71,59.02 C154.71,60.892 155.151,62.323 156.033,63.313 C156.915,64.303 158.268,64.798 160.092,64.798 C160.836,64.798 161.55,64.723 162.234,64.573 C162.918,64.423 163.554,64.237 164.142,64.015 C164.73,63.793 165.234,63.586 165.654,63.394 L165.654,67.444 C164.802,67.804 163.845,68.098 162.783,68.326 C161.721,68.554 160.506,68.668 159.138,68.668 Z" id="Path" fill="#1C82F4FF"></path>
                    <path d="M179.55,68.668 C178.29,68.668 177.099,68.521 175.977,68.227 C174.855,67.933 173.862,67.426 172.998,66.706 C172.134,65.986 171.453,64.99 170.955,63.718 C170.457,62.446 170.208,60.832 170.208,58.876 C170.208,55.972 170.919,53.68 172.341,52 C173.763,50.32 175.908,49.48 178.776,49.48 C179.196,49.48 179.73,49.525 180.378,49.615 C181.026,49.705 181.692,49.867 182.376,50.101 C183.06,50.335 183.654,50.686 184.158,51.154 L183.132,52.612 L183.132,42.46 L187.668,42.46 L187.668,63.862 C187.668,64.678 187.431,65.389 186.957,65.995 C186.483,66.601 185.853,67.099 185.067,67.489 C184.281,67.879 183.408,68.173 182.448,68.371 C181.488,68.569 180.522,68.668 179.55,68.668 Z M179.712,64.78 C180.684,64.78 181.497,64.657 182.151,64.411 C182.805,64.165 183.132,63.82 183.132,63.376 L183.132,54.16 C182.604,53.86 182.043,53.635 181.449,53.485 C180.855,53.335 180.282,53.26 179.73,53.26 C178.638,53.26 177.729,53.461 177.003,53.863 C176.277,54.265 175.737,54.889 175.383,55.735 C175.029,56.581 174.852,57.67 174.852,59.002 C174.852,60.13 174.996,61.126 175.284,61.99 C175.572,62.854 176.07,63.535 176.778,64.033 C177.486,64.531 178.464,64.78 179.712,64.78 Z" id="Shape" fill="#1C82F4FF"></path>
                    <path d="M197.532,60.784 L196.128,57.166 L206.298,44.116 L212.49,44.116 L197.532,60.784 Z M192.888,68.128 L192.888,44.116 L197.802,44.116 L197.802,68.128 L192.888,68.128 Z M202.41,53.638 L213.246,68.128 L207,68.128 L198.63,56.806 L202.41,53.638 Z" id="Shape" fill="#1C82F4FF"></path>
                    <path d="M224.496,68.668 C222.696,68.668 221.118,68.299 219.762,67.561 C218.406,66.823 217.356,65.749 216.612,64.339 C215.868,62.929 215.496,61.228 215.496,59.236 C215.496,56.08 216.258,53.662 217.782,51.982 C219.306,50.302 221.46,49.462 224.244,49.462 C226.224,49.462 227.823,49.894 229.041,50.758 C230.259,51.622 231.147,52.855 231.705,54.457 C232.263,56.059 232.53,57.97 232.506,60.19 L218.466,60.19 L218.124,57.076 L228.852,57.076 L228.006,58.372 C227.958,56.476 227.628,55.117 227.016,54.295 C226.404,53.473 225.426,53.062 224.082,53.062 C223.266,53.062 222.555,53.245 221.949,53.611 C221.343,53.977 220.878,54.592 220.554,55.456 C220.23,56.32 220.068,57.508 220.068,59.02 C220.068,60.892 220.509,62.323 221.391,63.313 C222.273,64.303 223.626,64.798 225.45,64.798 C226.194,64.798 226.908,64.723 227.592,64.573 C228.276,64.423 228.912,64.237 229.5,64.015 C230.088,63.793 230.592,63.586 231.012,63.394 L231.012,67.444 C230.16,67.804 229.203,68.098 228.141,68.326 C227.079,68.554 225.864,68.668 224.496,68.668 Z" id="Path" fill="#1C82F4FF"></path>
                    <path d="M238.77,75.148 C238.242,75.148 237.732,75.097 237.24,74.995 C236.748,74.893 236.322,74.764 235.962,74.608 L235.962,70.81 C236.298,70.93 236.622,71.023 236.934,71.089 C237.246,71.155 237.576,71.188 237.924,71.188 C238.584,71.188 239.145,71.023 239.607,70.693 C240.069,70.363 240.456,69.853 240.768,69.163 C241.08,68.473 241.332,67.594 241.524,66.526 L241.614,68.992 L233.856,49.984 L239.076,49.984 L243.756,63.502 L243.216,63.502 L247.842,49.984 L252.684,49.984 L245.376,68.83 C244.752,70.438 244.077,71.701 243.351,72.619 C242.625,73.537 241.875,74.188 241.101,74.572 C240.327,74.956 239.55,75.148 238.77,75.148 Z" id="Path" fill="#1C82F4FF"></path>
                    <path d="M260.874,68.668 C259.578,68.668 258.474,68.53 257.562,68.254 C256.65,67.978 255.774,67.654 254.934,67.282 L254.934,63.142 C255.498,63.502 256.086,63.844 256.698,64.168 C257.31,64.492 257.97,64.75 258.678,64.942 C259.386,65.134 260.154,65.23 260.982,65.23 C261.93,65.23 262.638,65.047 263.106,64.681 C263.574,64.315 263.808,63.862 263.808,63.322 C263.808,62.842 263.625,62.461 263.259,62.179 C262.893,61.897 262.422,61.66 261.846,61.468 C261.27,61.276 260.664,61.09 260.028,60.91 C259.416,60.766 258.804,60.574 258.192,60.334 C257.58,60.094 257.025,59.767 256.527,59.353 C256.029,58.939 255.63,58.417 255.33,57.787 C255.03,57.157 254.88,56.386 254.88,55.474 C254.88,54.382 255.096,53.464 255.528,52.72 C255.96,51.976 256.527,51.373 257.229,50.911 C257.931,50.449 258.699,50.116 259.533,49.912 C260.367,49.708 261.18,49.612 261.972,49.624 C263.352,49.66 264.462,49.819 265.302,50.101 C266.142,50.383 266.934,50.734 267.678,51.154 L267.696,54.88 C266.856,54.424 266.043,54.013 265.257,53.647 C264.471,53.281 263.568,53.098 262.548,53.098 C261.612,53.098 260.886,53.257 260.37,53.575 C259.854,53.893 259.596,54.34 259.596,54.916 C259.596,55.432 259.752,55.84 260.064,56.14 C260.376,56.44 260.787,56.677 261.297,56.851 C261.807,57.025 262.362,57.196 262.962,57.364 C263.562,57.532 264.183,57.718 264.825,57.922 C265.467,58.126 266.067,58.417 266.625,58.795 C267.183,59.173 267.636,59.683 267.984,60.325 C268.332,60.967 268.506,61.81 268.506,62.854 C268.482,64.258 268.107,65.389 267.381,66.247 C266.655,67.105 265.713,67.723 264.555,68.101 C263.397,68.479 262.17,68.668 260.874,68.668 Z" id="Path" fill="#1C82F4FF"></path>
                    <path d="M278.82,51.028 L278.19,43.792 L281.916,43.792 L281.286,51.028 L278.82,51.028 Z M273.69,51.028 L273.042,43.792 L276.768,43.792 L276.156,51.028 L273.69,51.028 Z" id="Shape" fill="#FFFFFFff"></path>
                    <path d="M290.196,55.618 L290.196,51.694 L294.228,51.694 L294.228,55.618 L290.196,55.618 Z M290.196,66.634 L290.196,62.71 L294.228,62.71 L294.228,66.634 L290.196,66.634 Z" id="Shape" fill="#FFFFFFff"></path>
                    <polygon id="Path" fill="#1C82F4FF" points="312.948 72.304 312.948 43.072 321.642 43.072 321.642 47.176 317.844 47.176 317.844 68.182 321.642 68.182 321.642 72.304"></polygon>
                    <polygon id="Path" fill="#1C82F4FF" points="326.448 72.304 326.448 68.2 330.228 68.2 330.228 47.194 326.448 47.194 326.448 43.072 335.124 43.072 335.124 72.304"></polygon>
                    <path d="M0,115.07 L0,110.984 L0.504,110.984 C1.092,110.972 1.551,110.867 1.881,110.669 C2.211,110.471 2.442,110.183 2.574,109.805 C2.706,109.427 2.772,108.956 2.772,108.392 L2.772,104.216 C2.772,103.232 3.057,102.446 3.627,101.858 C4.197,101.27 4.836,100.832 5.544,100.544 C4.836,100.244 4.197,99.797 3.627,99.203 C3.057,98.609 2.772,97.832 2.772,96.872 L2.772,92.696 C2.772,92.132 2.706,91.661 2.574,91.283 C2.442,90.905 2.211,90.617 1.881,90.419 C1.551,90.221 1.092,90.116 0.504,90.104 L0,90.104 L0,86 L0.648,86 C2.376,86 3.75,86.231 4.77,86.693 C5.79,87.155 6.528,87.803 6.984,88.637 C7.44,89.471 7.668,90.452 7.668,91.58 L7.668,96.764 C7.668,97.316 7.803,97.751 8.073,98.069 C8.343,98.387 8.643,98.618 8.973,98.762 C9.303,98.906 9.546,99.002 9.702,99.05 L9.702,102.02 C9.546,102.068 9.303,102.167 8.973,102.317 C8.643,102.467 8.343,102.701 8.073,103.019 C7.803,103.337 7.668,103.772 7.668,104.324 L7.668,109.508 C7.668,110.624 7.44,111.599 6.984,112.433 C6.528,113.267 5.79,113.915 4.77,114.377 C3.75,114.839 2.376,115.07 0.648,115.07 L0,115.07 Z" id="Path" fill="#FFFFFFff"></path>
                </g>
                <rect id="Rectangle" stroke="#FFFFFFff" x="1143.5" y="0.5" width="825" height="1088" rx="8"></rect>
                <path id="Line-18" d="M1080.5,526.5 L1114.5,543.5 L1080.5,560.5 L1080.5,546.5 L1011.5,546.5 L1011.5,560.5 L977.5,543.5 L1011.5,526.5 L1011.5,540.5 L1080.5,540.5 L1080.5,526.5 Z" fill="#FFFFFFff" fill-rule="nonzero"></path>
            </g>
        </g>
    </g>
</svg>