<?xml version="1.0" encoding="UTF-8"?>
<svg width="768px" height="24px" viewBox="0 0 768 24" version="1.1" xmlns="http://www.w3.org/2000/svg" xmlns:xlink="http://www.w3.org/1999/xlink">
    <title>Key: $(LocalizedKeys</title>
    <g id="Page-1" stroke="none" stroke-width="1" fill="none" fill-rule="evenodd">
        <g id="Artboard" transform="translate(-74.000000, -270.000000)" fill-rule="nonzero">
            <g id="Key:-$(LocalizedKeys" transform="translate(74.168000, 270.000000)">
                <path d="M4.464,3.06 L4.464,0 L6.912,0 L6.912,3.06 L4.464,3.06 Z M4.464,20.412 L4.464,17.232 L6.912,17.232 L6.912,20.412 L4.464,20.412 Z M5.592,18.396 C4.784,18.396 4.064,18.354 3.432,18.27 C2.8,18.186 2.22,18.056 1.692,17.88 C1.164,17.704 0.636,17.484 0.108,17.22 L0.108,14.052 C0.788,14.596 1.582,15.024 2.49,15.336 C3.398,15.648 4.316,15.804 5.244,15.804 C6.108,15.804 6.76,15.632 7.2,15.288 C7.64,14.944 7.86,14.448 7.86,13.8 C7.86,13.304 7.68,12.904 7.32,12.6 C6.96,12.296 6.484,12.034 5.892,11.814 C5.3,11.594 4.652,11.36 3.948,11.112 C3.46,10.944 2.98,10.75 2.508,10.53 C2.036,10.31 1.612,10.032 1.236,9.696 C0.86,9.36 0.56,8.94 0.336,8.436 C0.112,7.932 0,7.312 0,6.576 C0,5.984 0.112,5.4 0.336,4.824 C0.56,4.248 0.904,3.73 1.368,3.27 C1.832,2.81 2.434,2.444 3.174,2.172 C3.914,1.9 4.792,1.764 5.808,1.764 C6.456,1.764 7.024,1.804 7.512,1.884 C8,1.964 8.466,2.084 8.91,2.244 C9.354,2.404 9.82,2.604 10.308,2.844 L10.308,6.012 C9.924,5.732 9.516,5.47 9.084,5.226 C8.652,4.982 8.192,4.78 7.704,4.62 C7.216,4.46 6.688,4.372 6.12,4.356 C5.544,4.34 5.048,4.404 4.632,4.548 C4.216,4.692 3.896,4.906 3.672,5.19 C3.448,5.474 3.336,5.816 3.336,6.216 C3.336,6.72 3.474,7.118 3.75,7.41 C4.026,7.702 4.412,7.944 4.908,8.136 C5.404,8.328 5.968,8.524 6.6,8.724 C7.224,8.916 7.814,9.13 8.37,9.366 C8.926,9.602 9.416,9.894 9.84,10.242 C10.264,10.59 10.598,11.02 10.842,11.532 C11.086,12.044 11.208,12.668 11.208,13.404 C11.208,14.3 11.002,15.128 10.59,15.888 C10.178,16.648 9.558,17.256 8.73,17.712 C7.902,18.168 6.856,18.396 5.592,18.396 Z" id="Shape" fill="#414141ff"></path>
                <path d="M17.172,20.808 C16.7,20.2 16.208,19.398 15.696,18.402 C15.184,17.406 14.754,16.26 14.406,14.964 C14.058,13.668 13.884,12.268 13.884,10.764 C13.884,9.252 14.058,7.848 14.406,6.552 C14.754,5.256 15.184,4.11 15.696,3.114 C16.208,2.118 16.7,1.32 17.172,0.72 L19.824,0.72 C19.632,1.08 19.39,1.584 19.098,2.232 C18.806,2.88 18.514,3.638 18.222,4.506 C17.93,5.374 17.688,6.336 17.496,7.392 C17.304,8.448 17.208,9.572 17.208,10.764 C17.208,11.948 17.304,13.068 17.496,14.124 C17.688,15.18 17.93,16.146 18.222,17.022 C18.514,17.898 18.806,18.656 19.098,19.296 C19.39,19.936 19.632,20.44 19.824,20.808 L17.172,20.808 Z" id="Path" fill="#414141ff"></path>
                <polygon id="Path" fill="#1C82F4FF" points="22.584 18.096 22.584 2.088 25.86 2.088 25.86 15.444 33.156 15.444 33.156 18.096"></polygon>
                <path d="M40.872,18.456 C38.872,18.456 37.376,17.906 36.384,16.806 C35.392,15.706 34.896,14.112 34.896,12.024 C34.896,9.792 35.404,8.172 36.42,7.164 C37.436,6.156 38.912,5.652 40.848,5.652 C42.192,5.652 43.31,5.888 44.202,6.36 C45.094,6.832 45.762,7.54 46.206,8.484 C46.65,9.428 46.872,10.608 46.872,12.024 C46.872,14.104 46.354,15.696 45.318,16.8 C44.282,17.904 42.8,18.456 40.872,18.456 Z M40.86,15.96 C41.564,15.96 42.134,15.8 42.57,15.48 C43.006,15.16 43.328,14.706 43.536,14.118 C43.744,13.53 43.848,12.832 43.848,12.024 C43.848,11.112 43.742,10.37 43.53,9.798 C43.318,9.226 42.992,8.804 42.552,8.532 C42.112,8.26 41.548,8.124 40.86,8.124 C40.156,8.124 39.588,8.268 39.156,8.556 C38.724,8.844 38.41,9.274 38.214,9.846 C38.018,10.418 37.92,11.144 37.92,12.024 C37.92,13.296 38.15,14.27 38.61,14.946 C39.07,15.622 39.82,15.96 40.86,15.96 Z" id="Shape" fill="#1C82F4FF"></path>
                <path d="M55.068,18.372 C54.268,18.372 53.5,18.256 52.764,18.024 C52.028,17.792 51.37,17.43 50.79,16.938 C50.21,16.446 49.752,15.806 49.416,15.018 C49.08,14.23 48.912,13.28 48.912,12.168 C48.912,11.008 49.072,10.018 49.392,9.198 C49.712,8.378 50.154,7.71 50.718,7.194 C51.282,6.678 51.934,6.3 52.674,6.06 C53.414,5.82 54.204,5.7 55.044,5.7 C55.692,5.7 56.35,5.764 57.018,5.892 C57.686,6.02 58.288,6.204 58.824,6.444 L58.824,9.108 C58.272,8.86 57.726,8.66 57.186,8.508 C56.646,8.356 56.088,8.28 55.512,8.28 C54.384,8.28 53.508,8.562 52.884,9.126 C52.26,9.69 51.948,10.604 51.948,11.868 C51.948,13.188 52.234,14.166 52.806,14.802 C53.378,15.438 54.32,15.756 55.632,15.756 C56.224,15.756 56.798,15.666 57.354,15.486 C57.91,15.306 58.408,15.104 58.848,14.88 L58.848,17.532 C58.288,17.804 57.704,18.012 57.096,18.156 C56.488,18.3 55.812,18.372 55.068,18.372 Z" id="Path" fill="#1C82F4FF"></path>
                <path d="M66.072,18.456 C65.392,18.456 64.746,18.392 64.134,18.264 C63.522,18.136 62.976,17.922 62.496,17.622 C62.016,17.322 61.638,16.912 61.362,16.392 C61.086,15.872 60.948,15.224 60.948,14.448 C60.948,13.624 61.114,12.928 61.446,12.36 C61.778,11.792 62.268,11.36 62.916,11.064 C63.564,10.768 64.36,10.62 65.304,10.62 C65.88,10.62 66.418,10.672 66.918,10.776 C67.418,10.88 67.868,11.022 68.268,11.202 C68.668,11.382 68.996,11.58 69.252,11.796 L69.456,13.488 C69.12,13.272 68.692,13.094 68.172,12.954 C67.652,12.814 67.092,12.744 66.492,12.744 C65.644,12.744 65.012,12.882 64.596,13.158 C64.18,13.434 63.972,13.856 63.972,14.424 C63.972,14.816 64.084,15.146 64.308,15.414 C64.532,15.682 64.82,15.882 65.172,16.014 C65.524,16.146 65.892,16.212 66.276,16.212 C67.156,16.212 67.79,16.152 68.178,16.032 C68.566,15.912 68.76,15.652 68.76,15.252 L68.76,10.5 C68.76,9.708 68.514,9.132 68.022,8.772 C67.53,8.412 66.832,8.232 65.928,8.232 C65.24,8.232 64.538,8.348 63.822,8.58 C63.106,8.812 62.52,9.112 62.064,9.48 L62.064,6.72 C62.496,6.44 63.144,6.198 64.008,5.994 C64.872,5.79 65.804,5.688 66.804,5.688 C67.22,5.688 67.658,5.726 68.118,5.802 C68.578,5.878 69.024,6.004 69.456,6.18 C69.888,6.356 70.28,6.602 70.632,6.918 C70.984,7.234 71.264,7.628 71.472,8.1 C71.68,8.572 71.784,9.144 71.784,9.816 L71.772,15.564 C71.772,16.3 71.534,16.88 71.058,17.304 C70.582,17.728 69.918,18.026 69.066,18.198 C68.214,18.37 67.216,18.456 66.072,18.456 Z" id="Path" fill="#1C82F4FF"></path>
                <polygon id="Path" fill="#1C82F4FF" points="78.168 18.096 75.144 18.096 75.144 1.428 78.168 1.428"></polygon>
                <path d="M81.6,18.096 L81.6,6.12 L84.648,6.12 L84.672,18.096 L81.6,18.096 Z M81.528,4.212 L81.528,1.692 L84.72,1.692 L84.72,4.212 L81.528,4.212 Z" id="Shape" fill="#1C82F4FF"></path>
                <polygon id="Path" fill="#1C82F4FF" points="87.48 18.096 87.48 15.624 94.164 7.656 94.512 8.34 87.624 8.34 87.624 6 96.876 6 96.876 8.424 90.528 16.404 90.444 15.612 96.876 15.612 96.876 18.096"></polygon>
                <path d="M104.976,18.456 C103.776,18.456 102.724,18.21 101.82,17.718 C100.916,17.226 100.216,16.51 99.72,15.57 C99.224,14.63 98.976,13.496 98.976,12.168 C98.976,10.064 99.484,8.452 100.5,7.332 C101.516,6.212 102.952,5.652 104.808,5.652 C106.128,5.652 107.194,5.94 108.006,6.516 C108.818,7.092 109.41,7.914 109.782,8.982 C110.154,10.05 110.332,11.324 110.316,12.804 L100.956,12.804 L100.728,10.728 L107.88,10.728 L107.316,11.592 C107.284,10.328 107.064,9.422 106.656,8.874 C106.248,8.326 105.596,8.052 104.7,8.052 C104.156,8.052 103.682,8.174 103.278,8.418 C102.874,8.662 102.564,9.072 102.348,9.648 C102.132,10.224 102.024,11.016 102.024,12.024 C102.024,13.272 102.318,14.226 102.906,14.886 C103.494,15.546 104.396,15.876 105.612,15.876 C106.108,15.876 106.584,15.826 107.04,15.726 C107.496,15.626 107.92,15.502 108.312,15.354 C108.704,15.206 109.04,15.068 109.32,14.94 L109.32,17.64 C108.752,17.88 108.114,18.076 107.406,18.228 C106.698,18.38 105.888,18.456 104.976,18.456 Z" id="Path" fill="#1C82F4FF"></path>
                <path d="M118.584,18.456 C117.744,18.456 116.95,18.358 116.202,18.162 C115.454,17.966 114.792,17.628 114.216,17.148 C113.64,16.668 113.186,16.004 112.854,15.156 C112.522,14.308 112.356,13.232 112.356,11.928 C112.356,9.992 112.83,8.464 113.778,7.344 C114.726,6.224 116.156,5.664 118.068,5.664 C118.348,5.664 118.704,5.694 119.136,5.754 C119.568,5.814 120.012,5.922 120.468,6.078 C120.924,6.234 121.32,6.468 121.656,6.78 L120.972,7.752 L120.972,0.984 L123.996,0.984 L123.996,15.252 C123.996,15.796 123.838,16.27 123.522,16.674 C123.206,17.078 122.786,17.41 122.262,17.67 C121.738,17.93 121.156,18.126 120.516,18.258 C119.876,18.39 119.232,18.456 118.584,18.456 Z M118.692,15.864 C119.34,15.864 119.882,15.782 120.318,15.618 C120.754,15.454 120.972,15.224 120.972,14.928 L120.972,8.784 C120.62,8.584 120.246,8.434 119.85,8.334 C119.454,8.234 119.072,8.184 118.704,8.184 C117.976,8.184 117.37,8.318 116.886,8.586 C116.402,8.854 116.042,9.27 115.806,9.834 C115.57,10.398 115.452,11.124 115.452,12.012 C115.452,12.764 115.548,13.428 115.74,14.004 C115.932,14.58 116.264,15.034 116.736,15.366 C117.208,15.698 117.86,15.864 118.692,15.864 Z" id="Shape" fill="#1C82F4FF"></path>
                <path d="M130.572,13.2 L129.636,10.788 L136.416,2.088 L140.544,2.088 L130.572,13.2 Z M127.476,18.096 L127.476,2.088 L130.752,2.088 L130.752,18.096 L127.476,18.096 Z M133.824,8.436 L141.048,18.096 L136.884,18.096 L131.304,10.548 L133.824,8.436 Z" id="Shape" fill="#1C82F4FF"></path>
                <path d="M148.548,18.456 C147.348,18.456 146.296,18.21 145.392,17.718 C144.488,17.226 143.788,16.51 143.292,15.57 C142.796,14.63 142.548,13.496 142.548,12.168 C142.548,10.064 143.056,8.452 144.072,7.332 C145.088,6.212 146.524,5.652 148.38,5.652 C149.7,5.652 150.766,5.94 151.578,6.516 C152.39,7.092 152.982,7.914 153.354,8.982 C153.726,10.05 153.904,11.324 153.888,12.804 L144.528,12.804 L144.3,10.728 L151.452,10.728 L150.888,11.592 C150.856,10.328 150.636,9.422 150.228,8.874 C149.82,8.326 149.168,8.052 148.272,8.052 C147.728,8.052 147.254,8.174 146.85,8.418 C146.446,8.662 146.136,9.072 145.92,9.648 C145.704,10.224 145.596,11.016 145.596,12.024 C145.596,13.272 145.89,14.226 146.478,14.886 C147.066,15.546 147.968,15.876 149.184,15.876 C149.68,15.876 150.156,15.826 150.612,15.726 C151.068,15.626 151.492,15.502 151.884,15.354 C152.276,15.206 152.612,15.068 152.892,14.94 L152.892,17.64 C152.324,17.88 151.686,18.076 150.978,18.228 C150.27,18.38 149.46,18.456 148.548,18.456 Z" id="Path" fill="#1C82F4FF"></path>
                <path d="M158.064,22.776 C157.712,22.776 157.372,22.742 157.044,22.674 C156.716,22.606 156.432,22.52 156.192,22.416 L156.192,19.884 C156.416,19.964 156.632,20.026 156.84,20.07 C157.048,20.114 157.268,20.136 157.5,20.136 C157.94,20.136 158.314,20.026 158.622,19.806 C158.93,19.586 159.188,19.246 159.396,18.786 C159.604,18.326 159.772,17.74 159.9,17.028 L159.96,18.672 L154.788,6 L158.268,6 L161.388,15.012 L161.028,15.012 L164.112,6 L167.34,6 L162.468,18.564 C162.052,19.636 161.602,20.478 161.118,21.09 C160.634,21.702 160.134,22.136 159.618,22.392 C159.102,22.648 158.584,22.776 158.064,22.776 Z" id="Path" fill="#1C82F4FF"></path>
                <path d="M172.8,18.456 C171.936,18.456 171.2,18.364 170.592,18.18 C169.984,17.996 169.4,17.78 168.84,17.532 L168.84,14.772 C169.216,15.012 169.608,15.24 170.016,15.456 C170.424,15.672 170.864,15.844 171.336,15.972 C171.808,16.1 172.32,16.164 172.872,16.164 C173.504,16.164 173.976,16.042 174.288,15.798 C174.6,15.554 174.756,15.252 174.756,14.892 C174.756,14.572 174.634,14.318 174.39,14.13 C174.146,13.942 173.832,13.784 173.448,13.656 C173.064,13.528 172.66,13.404 172.236,13.284 C171.828,13.188 171.42,13.06 171.012,12.9 C170.604,12.74 170.234,12.522 169.902,12.246 C169.57,11.97 169.304,11.622 169.104,11.202 C168.904,10.782 168.804,10.268 168.804,9.66 C168.804,8.932 168.948,8.32 169.236,7.824 C169.524,7.328 169.902,6.926 170.37,6.618 C170.838,6.31 171.35,6.088 171.906,5.952 C172.462,5.816 173.004,5.752 173.532,5.76 C174.452,5.784 175.192,5.89 175.752,6.078 C176.312,6.266 176.84,6.5 177.336,6.78 L177.348,9.264 C176.788,8.96 176.246,8.686 175.722,8.442 C175.198,8.198 174.596,8.076 173.916,8.076 C173.292,8.076 172.808,8.182 172.464,8.394 C172.12,8.606 171.948,8.904 171.948,9.288 C171.948,9.632 172.052,9.904 172.26,10.104 C172.468,10.304 172.742,10.462 173.082,10.578 C173.422,10.694 173.792,10.808 174.192,10.92 C174.592,11.032 175.006,11.156 175.434,11.292 C175.862,11.428 176.262,11.622 176.634,11.874 C177.006,12.126 177.308,12.466 177.54,12.894 C177.772,13.322 177.888,13.884 177.888,14.58 C177.872,15.516 177.622,16.27 177.138,16.842 C176.654,17.414 176.026,17.826 175.254,18.078 C174.482,18.33 173.664,18.456 172.8,18.456 Z" id="Path" fill="#1C82F4FF"></path>
                <path d="M179.928,20.808 C180.12,20.448 180.364,19.944 180.66,19.296 C180.956,18.648 181.248,17.89 181.536,17.022 C181.824,16.154 182.066,15.19 182.262,14.13 C182.458,13.07 182.556,11.948 182.556,10.764 C182.556,9.58 182.458,8.46 182.262,7.404 C182.066,6.348 181.824,5.382 181.536,4.506 C181.248,3.63 180.956,2.872 180.66,2.232 C180.364,1.592 180.12,1.088 179.928,0.72 L182.592,0.72 C183.08,1.328 183.576,2.13 184.08,3.126 C184.584,4.122 185.01,5.266 185.358,6.558 C185.706,7.85 185.88,9.252 185.88,10.764 C185.88,12.268 185.706,13.67 185.358,14.97 C185.01,16.27 184.584,17.416 184.08,18.408 C183.576,19.4 183.08,20.2 182.592,20.808 L179.928,20.808 Z" id="Path" fill="#414141ff"></path>
                <polygon id="Path" fill="#414141ff" points="188.964 18.096 188.964 15 192.132 15 192.132 18.096"></polygon>
                <path d="M199.908,13.416 L198.036,10.848 L203.82,2.088 L209.868,2.088 L199.908,13.416 Z M195.252,18.096 L195.252,2.088 L200.076,2.088 L200.076,18.096 L195.252,18.096 Z M203.724,7.8 L210.324,18.096 L204.396,18.096 L199.98,10.848 L203.724,7.8 Z" id="Shape" fill="#414141ff"></path>
                <path d="M217.86,18.456 C216.596,18.456 215.476,18.2 214.5,17.688 C213.524,17.176 212.764,16.452 212.22,15.516 C211.676,14.58 211.404,13.488 211.404,12.24 C211.404,10.096 211.952,8.42 213.048,7.212 C214.144,6.004 215.732,5.4 217.812,5.4 C219.172,5.4 220.276,5.688 221.124,6.264 C221.972,6.84 222.6,7.708 223.008,8.868 C223.416,10.028 223.612,11.472 223.596,13.2 L214.5,13.2 L213.924,10.632 L219.852,10.632 L219.396,12.12 C219.38,10.792 219.24,9.876 218.976,9.372 C218.712,8.868 218.252,8.616 217.596,8.616 C217.292,8.616 216.996,8.716 216.708,8.916 C216.42,9.116 216.188,9.436 216.012,9.876 C215.836,10.316 215.748,10.904 215.748,11.64 C215.748,12.68 215.996,13.48 216.492,14.04 C216.988,14.6 217.836,14.88 219.036,14.88 C219.436,14.88 219.844,14.824 220.26,14.712 C220.676,14.6 221.068,14.476 221.436,14.34 C221.804,14.204 222.108,14.104 222.348,14.04 L222.348,17.664 C221.788,17.872 221.148,18.056 220.428,18.216 C219.708,18.376 218.852,18.456 217.86,18.456 Z" id="Path" fill="#414141ff"></path>
                <path d="M228.252,22.824 C227.788,22.824 227.324,22.78 226.86,22.692 C226.396,22.604 225.988,22.48 225.636,22.32 L225.636,18.84 C225.972,18.952 226.26,19.028 226.5,19.068 C226.74,19.108 226.98,19.128 227.22,19.128 C227.556,19.128 227.864,19.06 228.144,18.924 C228.424,18.788 228.656,18.516 228.84,18.108 C229.024,17.7 229.148,17.096 229.212,16.296 L229.332,18.888 L224.076,5.88 L229.068,5.88 L231.324,13.68 L230.964,13.68 L233.172,5.88 L237.9,5.88 L233.292,17.856 C232.828,19.056 232.332,20.02 231.804,20.748 C231.276,21.476 230.716,22.004 230.124,22.332 C229.532,22.66 228.908,22.824 228.252,22.824 Z" id="Path" fill="#414141ff"></path>
                <polygon id="Path" fill="#414141ff" points="251.256 17.1 241.26 12.612 241.26 10.704 251.256 6.216 251.256 8.808 244.368 11.652 251.256 14.52"></polygon>
                <polygon id="Path" fill="#1C82F4FF" points="259.584 18.096 254.916 2.088 258.468 2.088 261.78 15.12 261.18 15.12 264.996 2.088 267.636 2.088 271.536 15.3 270.84 15.3 274.164 2.088 277.716 2.088 273.036 18.096 269.796 18.096 265.992 5.808 266.664 5.808 262.836 18.096"></polygon>
                <path d="M284.136,18.456 C282.936,18.456 281.884,18.21 280.98,17.718 C280.076,17.226 279.376,16.51 278.88,15.57 C278.384,14.63 278.136,13.496 278.136,12.168 C278.136,10.064 278.644,8.452 279.66,7.332 C280.676,6.212 282.112,5.652 283.968,5.652 C285.288,5.652 286.354,5.94 287.166,6.516 C287.978,7.092 288.57,7.914 288.942,8.982 C289.314,10.05 289.492,11.324 289.476,12.804 L280.116,12.804 L279.888,10.728 L287.04,10.728 L286.476,11.592 C286.444,10.328 286.224,9.422 285.816,8.874 C285.408,8.326 284.756,8.052 283.86,8.052 C283.316,8.052 282.842,8.174 282.438,8.418 C282.034,8.662 281.724,9.072 281.508,9.648 C281.292,10.224 281.184,11.016 281.184,12.024 C281.184,13.272 281.478,14.226 282.066,14.886 C282.654,15.546 283.556,15.876 284.772,15.876 C285.268,15.876 285.744,15.826 286.2,15.726 C286.656,15.626 287.08,15.502 287.472,15.354 C287.864,15.206 288.2,15.068 288.48,14.94 L288.48,17.64 C287.912,17.88 287.274,18.076 286.566,18.228 C285.858,18.38 285.048,18.456 284.136,18.456 Z" id="Path" fill="#1C82F4FF"></path>
                <polygon id="Path" fill="#1C82F4FF" points="295.2 18.096 292.176 18.096 292.176 1.428 295.2 1.428"></polygon>
                <path d="M304.056,18.372 C303.256,18.372 302.488,18.256 301.752,18.024 C301.016,17.792 300.358,17.43 299.778,16.938 C299.198,16.446 298.74,15.806 298.404,15.018 C298.068,14.23 297.9,13.28 297.9,12.168 C297.9,11.008 298.06,10.018 298.38,9.198 C298.7,8.378 299.142,7.71 299.706,7.194 C300.27,6.678 300.922,6.3 301.662,6.06 C302.402,5.82 303.192,5.7 304.032,5.7 C304.68,5.7 305.338,5.764 306.006,5.892 C306.674,6.02 307.276,6.204 307.812,6.444 L307.812,9.108 C307.26,8.86 306.714,8.66 306.174,8.508 C305.634,8.356 305.076,8.28 304.5,8.28 C303.372,8.28 302.496,8.562 301.872,9.126 C301.248,9.69 300.936,10.604 300.936,11.868 C300.936,13.188 301.222,14.166 301.794,14.802 C302.366,15.438 303.308,15.756 304.62,15.756 C305.212,15.756 305.786,15.666 306.342,15.486 C306.898,15.306 307.396,15.104 307.836,14.88 L307.836,17.532 C307.276,17.804 306.692,18.012 306.084,18.156 C305.476,18.3 304.8,18.372 304.056,18.372 Z" id="Path" fill="#1C82F4FF"></path>
                <path d="M315.852,18.456 C313.852,18.456 312.356,17.906 311.364,16.806 C310.372,15.706 309.876,14.112 309.876,12.024 C309.876,9.792 310.384,8.172 311.4,7.164 C312.416,6.156 313.892,5.652 315.828,5.652 C317.172,5.652 318.29,5.888 319.182,6.36 C320.074,6.832 320.742,7.54 321.186,8.484 C321.63,9.428 321.852,10.608 321.852,12.024 C321.852,14.104 321.334,15.696 320.298,16.8 C319.262,17.904 317.78,18.456 315.852,18.456 Z M315.84,15.96 C316.544,15.96 317.114,15.8 317.55,15.48 C317.986,15.16 318.308,14.706 318.516,14.118 C318.724,13.53 318.828,12.832 318.828,12.024 C318.828,11.112 318.722,10.37 318.51,9.798 C318.298,9.226 317.972,8.804 317.532,8.532 C317.092,8.26 316.528,8.124 315.84,8.124 C315.136,8.124 314.568,8.268 314.136,8.556 C313.704,8.844 313.39,9.274 313.194,9.846 C312.998,10.418 312.9,11.144 312.9,12.024 C312.9,13.296 313.13,14.27 313.59,14.946 C314.05,15.622 314.8,15.96 315.84,15.96 Z" id="Shape" fill="#1C82F4FF"></path>
                <path d="M335.412,10.032 L335.412,18.096 L332.364,18.096 L332.364,10.56 C332.364,10.256 332.324,9.966 332.244,9.69 C332.164,9.414 332.03,9.168 331.842,8.952 C331.654,8.736 331.39,8.566 331.05,8.442 C330.71,8.318 330.28,8.256 329.76,8.256 C329.36,8.256 328.974,8.298 328.602,8.382 C328.23,8.466 327.896,8.568 327.6,8.688 L327.6,18.096 L324.552,18.096 L324.552,7.008 C324.88,6.84 325.278,6.676 325.746,6.516 C326.214,6.356 326.72,6.216 327.264,6.096 C327.808,5.976 328.358,5.88 328.914,5.808 C329.47,5.736 329.996,5.7 330.492,5.7 C331.604,5.7 332.522,5.848 333.246,6.144 C333.97,6.44 334.512,6.906 334.872,7.542 C335.232,8.178 335.412,9.008 335.412,10.032 Z M332.136,7.728 C332.64,7.304 333.222,6.942 333.882,6.642 C334.542,6.342 335.234,6.11 335.958,5.946 C336.682,5.782 337.372,5.7 338.028,5.7 C339.14,5.7 340.058,5.848 340.782,6.144 C341.506,6.44 342.048,6.906 342.408,7.542 C342.768,8.178 342.948,9.008 342.948,10.032 L342.948,18.096 L339.9,18.096 L339.9,10.56 C339.9,10.256 339.86,9.966 339.78,9.69 C339.7,9.414 339.566,9.168 339.378,8.952 C339.19,8.736 338.926,8.566 338.586,8.442 C338.246,8.318 337.816,8.256 337.296,8.256 C336.896,8.256 336.51,8.314 336.138,8.43 C335.766,8.546 335.432,8.712 335.136,8.928 L332.136,7.728 Z" id="Shape" fill="#1C82F4FF"></path>
                <path d="M351.648,18.456 C350.448,18.456 349.396,18.21 348.492,17.718 C347.588,17.226 346.888,16.51 346.392,15.57 C345.896,14.63 345.648,13.496 345.648,12.168 C345.648,10.064 346.156,8.452 347.172,7.332 C348.188,6.212 349.624,5.652 351.48,5.652 C352.8,5.652 353.866,5.94 354.678,6.516 C355.49,7.092 356.082,7.914 356.454,8.982 C356.826,10.05 357.004,11.324 356.988,12.804 L347.628,12.804 L347.4,10.728 L354.552,10.728 L353.988,11.592 C353.956,10.328 353.736,9.422 353.328,8.874 C352.92,8.326 352.268,8.052 351.372,8.052 C350.828,8.052 350.354,8.174 349.95,8.418 C349.546,8.662 349.236,9.072 349.02,9.648 C348.804,10.224 348.696,11.016 348.696,12.024 C348.696,13.272 348.99,14.226 349.578,14.886 C350.166,15.546 351.068,15.876 352.284,15.876 C352.78,15.876 353.256,15.826 353.712,15.726 C354.168,15.626 354.592,15.502 354.984,15.354 C355.376,15.206 355.712,15.068 355.992,14.94 L355.992,17.64 C355.424,17.88 354.786,18.076 354.078,18.228 C353.37,18.38 352.56,18.456 351.648,18.456 Z" id="Path" fill="#1C82F4FF"></path>
                <polygon id="Path" fill="#1C82F4FF" points="366.528 18.096 366.528 2.088 369.792 2.088 369.792 8.772 376.428 8.772 376.428 2.088 379.692 2.088 379.692 18.096 376.428 18.096 376.428 11.508 369.792 11.508 369.792 18.096"></polygon>
                <path d="M388.512,18.456 C387.312,18.456 386.26,18.21 385.356,17.718 C384.452,17.226 383.752,16.51 383.256,15.57 C382.76,14.63 382.512,13.496 382.512,12.168 C382.512,10.064 383.02,8.452 384.036,7.332 C385.052,6.212 386.488,5.652 388.344,5.652 C389.664,5.652 390.73,5.94 391.542,6.516 C392.354,7.092 392.946,7.914 393.318,8.982 C393.69,10.05 393.868,11.324 393.852,12.804 L384.492,12.804 L384.264,10.728 L391.416,10.728 L390.852,11.592 C390.82,10.328 390.6,9.422 390.192,8.874 C389.784,8.326 389.132,8.052 388.236,8.052 C387.692,8.052 387.218,8.174 386.814,8.418 C386.41,8.662 386.1,9.072 385.884,9.648 C385.668,10.224 385.56,11.016 385.56,12.024 C385.56,13.272 385.854,14.226 386.442,14.886 C387.03,15.546 387.932,15.876 389.148,15.876 C389.644,15.876 390.12,15.826 390.576,15.726 C391.032,15.626 391.456,15.502 391.848,15.354 C392.24,15.206 392.576,15.068 392.856,14.94 L392.856,17.64 C392.288,17.88 391.65,18.076 390.942,18.228 C390.234,18.38 389.424,18.456 388.512,18.456 Z" id="Path" fill="#1C82F4FF"></path>
                <path d="M396.552,18.096 L396.552,7.188 C396.768,7.028 397.16,6.83 397.728,6.594 C398.296,6.358 398.958,6.148 399.714,5.964 C400.47,5.78 401.232,5.688 402,5.688 C402.576,5.688 403.036,5.732 403.38,5.82 C403.724,5.908 403.996,6.016 404.196,6.144 L404.196,8.46 C403.876,8.404 403.512,8.362 403.104,8.334 C402.696,8.306 402.28,8.296 401.856,8.304 C401.432,8.312 401.024,8.332 400.632,8.364 C400.24,8.396 399.896,8.436 399.6,8.484 L399.6,18.096 L396.552,18.096 Z" id="Path" fill="#1C82F4FF"></path>
                <path d="M411.252,18.456 C409.252,18.456 407.756,17.906 406.764,16.806 C405.772,15.706 405.276,14.112 405.276,12.024 C405.276,9.792 405.784,8.172 406.8,7.164 C407.816,6.156 409.292,5.652 411.228,5.652 C412.572,5.652 413.69,5.888 414.582,6.36 C415.474,6.832 416.142,7.54 416.586,8.484 C417.03,9.428 417.252,10.608 417.252,12.024 C417.252,14.104 416.734,15.696 415.698,16.8 C414.662,17.904 413.18,18.456 411.252,18.456 Z M411.24,15.96 C411.944,15.96 412.514,15.8 412.95,15.48 C413.386,15.16 413.708,14.706 413.916,14.118 C414.124,13.53 414.228,12.832 414.228,12.024 C414.228,11.112 414.122,10.37 413.91,9.798 C413.698,9.226 413.372,8.804 412.932,8.532 C412.492,8.26 411.928,8.124 411.24,8.124 C410.536,8.124 409.968,8.268 409.536,8.556 C409.104,8.844 408.79,9.274 408.594,9.846 C408.398,10.418 408.3,11.144 408.3,12.024 C408.3,13.296 408.53,14.27 408.99,14.946 C409.45,15.622 410.2,15.96 411.24,15.96 Z" id="Shape" fill="#1C82F4FF"></path>
                <polygon id="Path" fill="#414141ff" points="421.248 17.1 421.248 14.52 428.124 11.652 421.248 8.808 421.248 6.216 431.232 10.704 431.232 12.612"></polygon>
                <polygon id="Path" fill="#414141ff" points="435.54 18.096 435.54 15 438.708 15 438.708 18.096"></polygon>
                <polygon id="Path" fill="#23C2B8FF" points="443.484 18.096 443.484 4.704 438.648 4.704 438.648 2.088 451.62 2.088 451.62 4.704 446.748 4.704 446.748 18.096"></polygon>
                <path d="M452.4,18.096 L452.4,7.188 C452.616,7.028 453.008,6.83 453.576,6.594 C454.144,6.358 454.806,6.148 455.562,5.964 C456.318,5.78 457.08,5.688 457.848,5.688 C458.424,5.688 458.884,5.732 459.228,5.82 C459.572,5.908 459.844,6.016 460.044,6.144 L460.044,8.46 C459.724,8.404 459.36,8.362 458.952,8.334 C458.544,8.306 458.128,8.296 457.704,8.304 C457.28,8.312 456.872,8.332 456.48,8.364 C456.088,8.396 455.744,8.436 455.448,8.484 L455.448,18.096 L452.4,18.096 Z" id="Path" fill="#23C2B8FF"></path>
                <path d="M466.848,18.456 C466.168,18.456 465.522,18.392 464.91,18.264 C464.298,18.136 463.752,17.922 463.272,17.622 C462.792,17.322 462.414,16.912 462.138,16.392 C461.862,15.872 461.724,15.224 461.724,14.448 C461.724,13.624 461.89,12.928 462.222,12.36 C462.554,11.792 463.044,11.36 463.692,11.064 C464.34,10.768 465.136,10.62 466.08,10.62 C466.656,10.62 467.194,10.672 467.694,10.776 C468.194,10.88 468.644,11.022 469.044,11.202 C469.444,11.382 469.772,11.58 470.028,11.796 L470.232,13.488 C469.896,13.272 469.468,13.094 468.948,12.954 C468.428,12.814 467.868,12.744 467.268,12.744 C466.42,12.744 465.788,12.882 465.372,13.158 C464.956,13.434 464.748,13.856 464.748,14.424 C464.748,14.816 464.86,15.146 465.084,15.414 C465.308,15.682 465.596,15.882 465.948,16.014 C466.3,16.146 466.668,16.212 467.052,16.212 C467.932,16.212 468.566,16.152 468.954,16.032 C469.342,15.912 469.536,15.652 469.536,15.252 L469.536,10.5 C469.536,9.708 469.29,9.132 468.798,8.772 C468.306,8.412 467.608,8.232 466.704,8.232 C466.016,8.232 465.314,8.348 464.598,8.58 C463.882,8.812 463.296,9.112 462.84,9.48 L462.84,6.72 C463.272,6.44 463.92,6.198 464.784,5.994 C465.648,5.79 466.58,5.688 467.58,5.688 C467.996,5.688 468.434,5.726 468.894,5.802 C469.354,5.878 469.8,6.004 470.232,6.18 C470.664,6.356 471.056,6.602 471.408,6.918 C471.76,7.234 472.04,7.628 472.248,8.1 C472.456,8.572 472.56,9.144 472.56,9.816 L472.548,15.564 C472.548,16.3 472.31,16.88 471.834,17.304 C471.358,17.728 470.694,18.026 469.842,18.198 C468.99,18.37 467.992,18.456 466.848,18.456 Z" id="Path" fill="#23C2B8FF"></path>
                <path d="M475.92,7.008 C476.248,6.84 476.646,6.676 477.114,6.516 C477.582,6.356 478.088,6.216 478.632,6.096 C479.176,5.976 479.726,5.88 480.282,5.808 C480.838,5.736 481.364,5.7 481.86,5.7 C482.972,5.7 483.9,5.848 484.644,6.144 C485.388,6.44 485.95,6.906 486.33,7.542 C486.71,8.178 486.9,9.008 486.9,10.032 L486.9,18.096 L483.852,18.096 L483.852,10.56 C483.852,10.256 483.812,9.966 483.732,9.69 C483.652,9.414 483.518,9.168 483.33,8.952 C483.142,8.736 482.878,8.566 482.538,8.442 C482.198,8.318 481.768,8.256 481.248,8.256 C480.848,8.256 480.442,8.298 480.03,8.382 C479.618,8.466 479.264,8.568 478.968,8.688 L478.968,18.096 L475.92,18.096 L475.92,7.008 Z" id="Path" fill="#23C2B8FF"></path>
                <path d="M493.8,18.456 C492.936,18.456 492.2,18.364 491.592,18.18 C490.984,17.996 490.4,17.78 489.84,17.532 L489.84,14.772 C490.216,15.012 490.608,15.24 491.016,15.456 C491.424,15.672 491.864,15.844 492.336,15.972 C492.808,16.1 493.32,16.164 493.872,16.164 C494.504,16.164 494.976,16.042 495.288,15.798 C495.6,15.554 495.756,15.252 495.756,14.892 C495.756,14.572 495.634,14.318 495.39,14.13 C495.146,13.942 494.832,13.784 494.448,13.656 C494.064,13.528 493.66,13.404 493.236,13.284 C492.828,13.188 492.42,13.06 492.012,12.9 C491.604,12.74 491.234,12.522 490.902,12.246 C490.57,11.97 490.304,11.622 490.104,11.202 C489.904,10.782 489.804,10.268 489.804,9.66 C489.804,8.932 489.948,8.32 490.236,7.824 C490.524,7.328 490.902,6.926 491.37,6.618 C491.838,6.31 492.35,6.088 492.906,5.952 C493.462,5.816 494.004,5.752 494.532,5.76 C495.452,5.784 496.192,5.89 496.752,6.078 C497.312,6.266 497.84,6.5 498.336,6.78 L498.348,9.264 C497.788,8.96 497.246,8.686 496.722,8.442 C496.198,8.198 495.596,8.076 494.916,8.076 C494.292,8.076 493.808,8.182 493.464,8.394 C493.12,8.606 492.948,8.904 492.948,9.288 C492.948,9.632 493.052,9.904 493.26,10.104 C493.468,10.304 493.742,10.462 494.082,10.578 C494.422,10.694 494.792,10.808 495.192,10.92 C495.592,11.032 496.006,11.156 496.434,11.292 C496.862,11.428 497.262,11.622 497.634,11.874 C498.006,12.126 498.308,12.466 498.54,12.894 C498.772,13.322 498.888,13.884 498.888,14.58 C498.872,15.516 498.622,16.27 498.138,16.842 C497.654,17.414 497.026,17.826 496.254,18.078 C495.482,18.33 494.664,18.456 493.8,18.456 Z" id="Path" fill="#23C2B8FF"></path>
                <polygon id="Path" fill="#23C2B8FF" points="504.672 18.096 501.648 18.096 501.648 1.428 504.672 1.428"></polygon>
                <path d="M512.556,18.456 C511.876,18.456 511.23,18.392 510.618,18.264 C510.006,18.136 509.46,17.922 508.98,17.622 C508.5,17.322 508.122,16.912 507.846,16.392 C507.57,15.872 507.432,15.224 507.432,14.448 C507.432,13.624 507.598,12.928 507.93,12.36 C508.262,11.792 508.752,11.36 509.4,11.064 C510.048,10.768 510.844,10.62 511.788,10.62 C512.364,10.62 512.902,10.672 513.402,10.776 C513.902,10.88 514.352,11.022 514.752,11.202 C515.152,11.382 515.48,11.58 515.736,11.796 L515.94,13.488 C515.604,13.272 515.176,13.094 514.656,12.954 C514.136,12.814 513.576,12.744 512.976,12.744 C512.128,12.744 511.496,12.882 511.08,13.158 C510.664,13.434 510.456,13.856 510.456,14.424 C510.456,14.816 510.568,15.146 510.792,15.414 C511.016,15.682 511.304,15.882 511.656,16.014 C512.008,16.146 512.376,16.212 512.76,16.212 C513.64,16.212 514.274,16.152 514.662,16.032 C515.05,15.912 515.244,15.652 515.244,15.252 L515.244,10.5 C515.244,9.708 514.998,9.132 514.506,8.772 C514.014,8.412 513.316,8.232 512.412,8.232 C511.724,8.232 511.022,8.348 510.306,8.58 C509.59,8.812 509.004,9.112 508.548,9.48 L508.548,6.72 C508.98,6.44 509.628,6.198 510.492,5.994 C511.356,5.79 512.288,5.688 513.288,5.688 C513.704,5.688 514.142,5.726 514.602,5.802 C515.062,5.878 515.508,6.004 515.94,6.18 C516.372,6.356 516.764,6.602 517.116,6.918 C517.468,7.234 517.748,7.628 517.956,8.1 C518.164,8.572 518.268,9.144 518.268,9.816 L518.256,15.564 C518.256,16.3 518.018,16.88 517.542,17.304 C517.066,17.728 516.402,18.026 515.55,18.198 C514.698,18.37 513.7,18.456 512.556,18.456 Z" id="Path" fill="#23C2B8FF"></path>
                <path d="M526.26,18.492 C525.012,18.492 524.058,18.182 523.398,17.562 C522.738,16.942 522.408,16.048 522.408,14.88 L522.408,8.412 L520.548,8.412 L520.548,6 L522.408,6 L522.408,2.652 L525.576,2.652 L525.576,6 L528.372,6 L528.372,8.412 L525.576,8.412 L525.576,14.4 C525.576,14.888 525.67,15.252 525.858,15.492 C526.046,15.732 526.38,15.852 526.86,15.852 C527.116,15.852 527.384,15.81 527.664,15.726 C527.944,15.642 528.18,15.536 528.372,15.408 L528.372,18.06 C528.06,18.212 527.716,18.322 527.34,18.39 C526.964,18.458 526.604,18.492 526.26,18.492 Z" id="Path" fill="#23C2B8FF"></path>
                <path d="M531.264,18.096 L531.264,6.12 L534.312,6.12 L534.336,18.096 L531.264,18.096 Z M531.192,4.212 L531.192,1.692 L534.384,1.692 L534.384,4.212 L531.192,4.212 Z" id="Shape" fill="#23C2B8FF"></path>
                <path d="M543.06,18.456 C541.06,18.456 539.564,17.906 538.572,16.806 C537.58,15.706 537.084,14.112 537.084,12.024 C537.084,9.792 537.592,8.172 538.608,7.164 C539.624,6.156 541.1,5.652 543.036,5.652 C544.38,5.652 545.498,5.888 546.39,6.36 C547.282,6.832 547.95,7.54 548.394,8.484 C548.838,9.428 549.06,10.608 549.06,12.024 C549.06,14.104 548.542,15.696 547.506,16.8 C546.47,17.904 544.988,18.456 543.06,18.456 Z M543.048,15.96 C543.752,15.96 544.322,15.8 544.758,15.48 C545.194,15.16 545.516,14.706 545.724,14.118 C545.932,13.53 546.036,12.832 546.036,12.024 C546.036,11.112 545.93,10.37 545.718,9.798 C545.506,9.226 545.18,8.804 544.74,8.532 C544.3,8.26 543.736,8.124 543.048,8.124 C542.344,8.124 541.776,8.268 541.344,8.556 C540.912,8.844 540.598,9.274 540.402,9.846 C540.206,10.418 540.108,11.144 540.108,12.024 C540.108,13.296 540.338,14.27 540.798,14.946 C541.258,15.622 542.008,15.96 543.048,15.96 Z" id="Shape" fill="#23C2B8FF"></path>
                <path d="M551.76,7.008 C552.088,6.84 552.486,6.676 552.954,6.516 C553.422,6.356 553.928,6.216 554.472,6.096 C555.016,5.976 555.566,5.88 556.122,5.808 C556.678,5.736 557.204,5.7 557.7,5.7 C558.812,5.7 559.74,5.848 560.484,6.144 C561.228,6.44 561.79,6.906 562.17,7.542 C562.55,8.178 562.74,9.008 562.74,10.032 L562.74,18.096 L559.692,18.096 L559.692,10.56 C559.692,10.256 559.652,9.966 559.572,9.69 C559.492,9.414 559.358,9.168 559.17,8.952 C558.982,8.736 558.718,8.566 558.378,8.442 C558.038,8.318 557.608,8.256 557.088,8.256 C556.688,8.256 556.282,8.298 555.87,8.382 C555.458,8.466 555.104,8.568 554.808,8.688 L554.808,18.096 L551.76,18.096 L551.76,7.008 Z" id="Path" fill="#23C2B8FF"></path>
                <path d="M569.64,18.456 C568.776,18.456 568.04,18.364 567.432,18.18 C566.824,17.996 566.24,17.78 565.68,17.532 L565.68,14.772 C566.056,15.012 566.448,15.24 566.856,15.456 C567.264,15.672 567.704,15.844 568.176,15.972 C568.648,16.1 569.16,16.164 569.712,16.164 C570.344,16.164 570.816,16.042 571.128,15.798 C571.44,15.554 571.596,15.252 571.596,14.892 C571.596,14.572 571.474,14.318 571.23,14.13 C570.986,13.942 570.672,13.784 570.288,13.656 C569.904,13.528 569.5,13.404 569.076,13.284 C568.668,13.188 568.26,13.06 567.852,12.9 C567.444,12.74 567.074,12.522 566.742,12.246 C566.41,11.97 566.144,11.622 565.944,11.202 C565.744,10.782 565.644,10.268 565.644,9.66 C565.644,8.932 565.788,8.32 566.076,7.824 C566.364,7.328 566.742,6.926 567.21,6.618 C567.678,6.31 568.19,6.088 568.746,5.952 C569.302,5.816 569.844,5.752 570.372,5.76 C571.292,5.784 572.032,5.89 572.592,6.078 C573.152,6.266 573.68,6.5 574.176,6.78 L574.188,9.264 C573.628,8.96 573.086,8.686 572.562,8.442 C572.038,8.198 571.436,8.076 570.756,8.076 C570.132,8.076 569.648,8.182 569.304,8.394 C568.96,8.606 568.788,8.904 568.788,9.288 C568.788,9.632 568.892,9.904 569.1,10.104 C569.308,10.304 569.582,10.462 569.922,10.578 C570.262,10.694 570.632,10.808 571.032,10.92 C571.432,11.032 571.846,11.156 572.274,11.292 C572.702,11.428 573.102,11.622 573.474,11.874 C573.846,12.126 574.148,12.466 574.38,12.894 C574.612,13.322 574.728,13.884 574.728,14.58 C574.712,15.516 574.462,16.27 573.978,16.842 C573.494,17.414 572.866,17.826 572.094,18.078 C571.322,18.33 570.504,18.456 569.64,18.456 Z" id="Path" fill="#23C2B8FF"></path>
                <polygon id="Path" fill="#414141ff" points="577.368 18.096 577.368 15 580.536 15 580.536 18.096"></polygon>
                <polygon id="Path" fill="#414141ff" points="583.656 18.096 583.656 2.088 588.48 2.088 588.48 14.472 594.888 14.472 594.888 18.096"></polygon>
                <path d="M602.88,18.456 C600.752,18.456 599.148,17.912 598.068,16.824 C596.988,15.736 596.448,14.096 596.448,11.904 C596.448,9.52 596.988,7.84 598.068,6.864 C599.148,5.888 600.752,5.4 602.88,5.4 C604.272,5.4 605.452,5.612 606.42,6.036 C607.388,6.46 608.124,7.148 608.628,8.1 C609.132,9.052 609.384,10.32 609.384,11.904 C609.384,14.096 608.824,15.736 607.704,16.824 C606.584,17.912 604.976,18.456 602.88,18.456 Z M602.88,15.048 C603.312,15.048 603.692,14.94 604.02,14.724 C604.348,14.508 604.604,14.168 604.788,13.704 C604.972,13.24 605.064,12.64 605.064,11.904 C605.064,11.024 604.972,10.36 604.788,9.912 C604.604,9.464 604.348,9.16 604.02,9 C603.692,8.84 603.312,8.76 602.88,8.76 C602.432,8.76 602.048,8.84 601.728,9 C601.408,9.16 601.168,9.464 601.008,9.912 C600.848,10.36 600.768,11.024 600.768,11.904 C600.768,13.04 600.948,13.848 601.308,14.328 C601.668,14.808 602.192,15.048 602.88,15.048 Z" id="Shape" fill="#414141ff"></path>
                <path d="M617.52,18.456 C616.56,18.456 615.676,18.308 614.868,18.012 C614.06,17.716 613.352,17.296 612.744,16.752 C612.136,16.208 611.664,15.556 611.328,14.796 C610.992,14.036 610.824,13.184 610.824,12.24 C610.824,11.2 610.976,10.264 611.28,9.432 C611.584,8.6 612.024,7.892 612.6,7.308 C613.176,6.724 613.872,6.276 614.688,5.964 C615.504,5.652 616.432,5.496 617.472,5.496 C618.16,5.496 618.872,5.568 619.608,5.712 C620.344,5.856 620.968,6.056 621.48,6.312 L621.48,9.984 C620.904,9.712 620.356,9.48 619.836,9.288 C619.316,9.096 618.776,9 618.216,9 C617.384,9 616.668,9.204 616.068,9.612 C615.468,10.02 615.168,10.696 615.168,11.64 C615.168,12.68 615.416,13.48 615.912,14.04 C616.408,14.6 617.256,14.88 618.456,14.88 C619.048,14.88 619.62,14.756 620.172,14.508 C620.724,14.26 621.176,14.024 621.528,13.8 L621.528,17.424 C620.968,17.76 620.38,18.016 619.764,18.192 C619.148,18.368 618.4,18.456 617.52,18.456 Z" id="Path" fill="#414141ff"></path>
                <path d="M628.608,18.456 C627.776,18.456 627.016,18.384 626.328,18.24 C625.64,18.096 625.044,17.86 624.54,17.532 C624.036,17.204 623.648,16.756 623.376,16.188 C623.104,15.62 622.968,14.92 622.968,14.088 C622.968,13.432 623.112,12.836 623.4,12.3 C623.688,11.764 624.148,11.332 624.78,11.004 C625.412,10.676 626.24,10.512 627.264,10.512 C627.76,10.512 628.268,10.576 628.788,10.704 C629.308,10.832 629.78,11 630.204,11.208 C630.628,11.416 630.944,11.64 631.152,11.88 L631.224,13.68 C630.92,13.52 630.596,13.4 630.252,13.32 C629.908,13.24 629.552,13.2 629.184,13.2 C628.496,13.2 628.008,13.284 627.72,13.452 C627.432,13.62 627.288,13.904 627.288,14.304 C627.288,14.496 627.348,14.684 627.468,14.868 C627.588,15.052 627.748,15.204 627.948,15.324 C628.148,15.444 628.368,15.504 628.608,15.504 C629.328,15.504 629.808,15.46 630.048,15.372 C630.288,15.284 630.408,15.112 630.408,14.856 L630.408,10.848 C630.408,10.192 630.188,9.72 629.748,9.432 C629.308,9.144 628.688,9 627.888,9 C627.152,9 626.424,9.14 625.704,9.42 C624.984,9.7 624.424,10.008 624.024,10.344 L624.024,6.552 C624.392,6.312 625.024,6.072 625.92,5.832 C626.816,5.592 627.872,5.472 629.088,5.472 C629.392,5.472 629.78,5.496 630.252,5.544 C630.724,5.592 631.216,5.692 631.728,5.844 C632.24,5.996 632.724,6.232 633.18,6.552 C633.636,6.872 634.004,7.3 634.284,7.836 C634.564,8.372 634.704,9.056 634.704,9.888 L634.68,15.576 C634.68,16.2 634.456,16.728 634.008,17.16 C633.56,17.592 632.888,17.916 631.992,18.132 C631.096,18.348 629.968,18.456 628.608,18.456 Z" id="Path" fill="#414141ff"></path>
                <polygon id="Path" fill="#414141ff" points="641.904 18.096 637.584 18.096 637.584 1.296 641.904 1.296"></polygon>
                <path d="M650.52,18.456 C649.256,18.456 648.136,18.2 647.16,17.688 C646.184,17.176 645.424,16.452 644.88,15.516 C644.336,14.58 644.064,13.488 644.064,12.24 C644.064,10.096 644.612,8.42 645.708,7.212 C646.804,6.004 648.392,5.4 650.472,5.4 C651.832,5.4 652.936,5.688 653.784,6.264 C654.632,6.84 655.26,7.708 655.668,8.868 C656.076,10.028 656.272,11.472 656.256,13.2 L647.16,13.2 L646.584,10.632 L652.512,10.632 L652.056,12.12 C652.04,10.792 651.9,9.876 651.636,9.372 C651.372,8.868 650.912,8.616 650.256,8.616 C649.952,8.616 649.656,8.716 649.368,8.916 C649.08,9.116 648.848,9.436 648.672,9.876 C648.496,10.316 648.408,10.904 648.408,11.64 C648.408,12.68 648.656,13.48 649.152,14.04 C649.648,14.6 650.496,14.88 651.696,14.88 C652.096,14.88 652.504,14.824 652.92,14.712 C653.336,14.6 653.728,14.476 654.096,14.34 C654.464,14.204 654.768,14.104 655.008,14.04 L655.008,17.664 C654.448,17.872 653.808,18.056 653.088,18.216 C652.368,18.376 651.512,18.456 650.52,18.456 Z" id="Path" fill="#414141ff"></path>
                <polygon id="Path" fill="#414141ff" points="669.852 17.1 659.856 12.612 659.856 10.704 669.852 6.216 669.852 8.808 662.964 11.652 669.852 14.52"></polygon>
                <polygon id="Path" fill="#23C2B8FF" points="674.712 18.096 674.712 2.088 685.44 2.088 685.44 4.704 677.988 4.704 677.988 8.76 684.468 8.76 684.468 11.4 677.976 11.4 677.976 15.48 685.44 15.48 685.44 18.096"></polygon>
                <path d="M688.74,7.008 C689.068,6.84 689.466,6.676 689.934,6.516 C690.402,6.356 690.908,6.216 691.452,6.096 C691.996,5.976 692.546,5.88 693.102,5.808 C693.658,5.736 694.184,5.7 694.68,5.7 C695.792,5.7 696.72,5.848 697.464,6.144 C698.208,6.44 698.77,6.906 699.15,7.542 C699.53,8.178 699.72,9.008 699.72,10.032 L699.72,18.096 L696.672,18.096 L696.672,10.56 C696.672,10.256 696.632,9.966 696.552,9.69 C696.472,9.414 696.338,9.168 696.15,8.952 C695.962,8.736 695.698,8.566 695.358,8.442 C695.018,8.318 694.588,8.256 694.068,8.256 C693.668,8.256 693.262,8.298 692.85,8.382 C692.438,8.466 692.084,8.568 691.788,8.688 L691.788,18.096 L688.74,18.096 L688.74,7.008 Z" id="Path" fill="#23C2B8FF"></path>
                <path d="M707.796,18.456 C706.66,18.416 705.692,18.166 704.892,17.706 C704.092,17.246 703.48,16.574 703.056,15.69 C702.632,14.806 702.42,13.712 702.42,12.408 C702.42,11.056 702.59,9.942 702.93,9.066 C703.27,8.19 703.74,7.508 704.34,7.02 C704.94,6.532 705.642,6.19 706.446,5.994 C707.25,5.798 708.116,5.7 709.044,5.7 C709.98,5.7 710.812,5.82 711.54,6.06 C712.268,6.3 712.844,6.654 713.268,7.122 C713.692,7.59 713.904,8.18 713.904,8.892 L713.904,18.348 C713.904,19.092 713.786,19.764 713.55,20.364 C713.314,20.964 712.952,21.482 712.464,21.918 C711.976,22.354 711.362,22.688 710.622,22.92 C709.882,23.152 709.004,23.268 707.988,23.268 C707.036,23.268 706.206,23.196 705.498,23.052 C704.79,22.908 704.228,22.744 703.812,22.56 L703.812,19.836 C704.06,19.932 704.396,20.048 704.82,20.184 C705.244,20.32 705.718,20.436 706.242,20.532 C706.766,20.628 707.296,20.676 707.832,20.676 C708.68,20.676 709.324,20.564 709.764,20.34 C710.204,20.116 710.504,19.822 710.664,19.458 C710.824,19.094 710.904,18.692 710.904,18.252 L710.904,16.356 L711.588,16.884 C711.316,17.188 710.986,17.458 710.598,17.694 C710.21,17.93 709.78,18.116 709.308,18.252 C708.836,18.388 708.332,18.456 707.796,18.456 Z M708.456,16.092 C708.896,16.092 709.324,16.04 709.74,15.936 C710.156,15.832 710.544,15.676 710.904,15.468 L710.904,9.528 C710.904,9.152 710.802,8.87 710.598,8.682 C710.394,8.494 710.128,8.364 709.8,8.292 C709.472,8.22 709.124,8.184 708.756,8.184 C707.9,8.184 707.236,8.362 706.764,8.718 C706.292,9.074 705.962,9.562 705.774,10.182 C705.586,10.802 705.492,11.496 705.492,12.264 C705.492,13.424 705.748,14.352 706.26,15.048 C706.772,15.744 707.504,16.092 708.456,16.092 Z" id="Shape" fill="#23C2B8FF"></path>
                <polygon id="Path" fill="#23C2B8FF" points="720.168 18.096 717.144 18.096 717.144 1.428 720.168 1.428"></polygon>
                <path d="M723.6,18.096 L723.6,6.12 L726.648,6.12 L726.672,18.096 L723.6,18.096 Z M723.528,4.212 L723.528,1.692 L726.72,1.692 L726.72,4.212 L723.528,4.212 Z" id="Shape" fill="#23C2B8FF"></path>
                <path d="M733.62,18.456 C732.756,18.456 732.02,18.364 731.412,18.18 C730.804,17.996 730.22,17.78 729.66,17.532 L729.66,14.772 C730.036,15.012 730.428,15.24 730.836,15.456 C731.244,15.672 731.684,15.844 732.156,15.972 C732.628,16.1 733.14,16.164 733.692,16.164 C734.324,16.164 734.796,16.042 735.108,15.798 C735.42,15.554 735.576,15.252 735.576,14.892 C735.576,14.572 735.454,14.318 735.21,14.13 C734.966,13.942 734.652,13.784 734.268,13.656 C733.884,13.528 733.48,13.404 733.056,13.284 C732.648,13.188 732.24,13.06 731.832,12.9 C731.424,12.74 731.054,12.522 730.722,12.246 C730.39,11.97 730.124,11.622 729.924,11.202 C729.724,10.782 729.624,10.268 729.624,9.66 C729.624,8.932 729.768,8.32 730.056,7.824 C730.344,7.328 730.722,6.926 731.19,6.618 C731.658,6.31 732.17,6.088 732.726,5.952 C733.282,5.816 733.824,5.752 734.352,5.76 C735.272,5.784 736.012,5.89 736.572,6.078 C737.132,6.266 737.66,6.5 738.156,6.78 L738.168,9.264 C737.608,8.96 737.066,8.686 736.542,8.442 C736.018,8.198 735.416,8.076 734.736,8.076 C734.112,8.076 733.628,8.182 733.284,8.394 C732.94,8.606 732.768,8.904 732.768,9.288 C732.768,9.632 732.872,9.904 733.08,10.104 C733.288,10.304 733.562,10.462 733.902,10.578 C734.242,10.694 734.612,10.808 735.012,10.92 C735.412,11.032 735.826,11.156 736.254,11.292 C736.682,11.428 737.082,11.622 737.454,11.874 C737.826,12.126 738.128,12.466 738.36,12.894 C738.592,13.322 738.708,13.884 738.708,14.58 C738.692,15.516 738.442,16.27 737.958,16.842 C737.474,17.414 736.846,17.826 736.074,18.078 C735.302,18.33 734.484,18.456 733.62,18.456 Z" id="Path" fill="#23C2B8FF"></path>
                <path d="M741.468,18.096 L741.468,1.056 L744.528,1.056 L744.528,8.1 L743.4,7.38 C744.032,6.884 744.756,6.48 745.572,6.168 C746.388,5.856 747.204,5.7 748.02,5.7 C748.932,5.7 749.724,5.854 750.396,6.162 C751.068,6.47 751.592,6.964 751.968,7.644 C752.344,8.324 752.532,9.236 752.532,10.38 L752.532,18.096 L749.484,18.096 L749.484,10.908 C749.484,10.02 749.27,9.358 748.842,8.922 C748.414,8.486 747.784,8.268 746.952,8.268 C746.52,8.268 746.088,8.33 745.656,8.454 C745.224,8.578 744.848,8.74 744.528,8.94 L744.492,18.096 L741.468,18.096 Z" id="Path" fill="#23C2B8FF"></path>
                <polygon id="Path" fill="#414141ff" points="757.188 17.1 757.188 14.52 764.064 11.652 757.188 8.808 757.188 6.216 767.172 10.704 767.172 12.612"></polygon>
            </g>
        </g>
    </g>
</svg>