<?xml version="1.0" encoding="UTF-8"?>
<svg  viewBox="0 0 32 32" version="1.1" xmlns="http://www.w3.org/2000/svg" xmlns:xlink="http://www.w3.org/1999/xlink">
    <title>forward</title>
    <g id="Symbols" stroke="none" stroke-width="1" fill="none" fill-rule="evenodd">
        <g id="forward">
            <circle id="Oval" fill="#9B8EF6ff" cx="16" cy="16" r="16"></circle>
            <g id="Symbols" transform="translate(6, 9.75)" fill="#FFFFFFFF">
                <path d="M1.27559795,0 C1.52355458,0 1.76613596,0.073490622 1.97366812,0.211482069 L9.42232609,5.16421359 C10.0119656,5.55627428 10.1774262,6.36019215 9.79189265,6.9598144 C9.71159172,7.08470685 9.61082656,7.19438333 9.49418181,7.28418157 L9.42232609,7.33563782 L1.97366812,12.2883693 C1.38402864,12.68043 0.593494735,12.5121682 0.207961227,11.9125459 C0.0722671193,11.7015002 0,11.4548118 0,11.2026572 L0,1.29719419 C0,0.58077362 0.571104657,0 1.27559795,0 Z M11.275598,0 C11.5235546,0 11.766136,0.073490622 11.9736681,0.211482069 L19.4223261,5.16421359 C20.0119656,5.55627428 20.1774262,6.36019215 19.7918927,6.9598144 C19.7115917,7.08470685 19.6108266,7.19438333 19.4941818,7.28418157 L19.4223261,7.33563782 L11.9736681,12.2883693 C11.3840286,12.68043 10.5934947,12.5121682 10.2079612,11.9125459 C10.0722671,11.7015002 10,11.4548118 10,11.2026572 L10,1.29719419 C10,0.58077362 10.5711047,0 11.275598,0 Z" id="forward"></path>
            </g>
        </g>
    </g>
</svg>