<?xml version="1.0" encoding="UTF-8"?>
<svg width="40px" height="40px" viewBox="0 0 40 40" version="1.1" xmlns="http://www.w3.org/2000/svg" xmlns:xlink="http://www.w3.org/1999/xlink">
    <title>themeplugin.light</title>
    <defs>
        <linearGradient x1="94.2484407%" y1="48.4795376%" x2="11.8753421%" y2="51.4987473%" id="linearGradient-1">
            <stop stop-color="#9B8FF7FF" offset="0%"></stop>
            <stop stop-color="#9B8EF6ff" offset="55.1880072%"></stop>
            <stop stop-color="#251F51FF" offset="100%"></stop>
        </linearGradient>
        <linearGradient x1="100%" y1="50%" x2="10.6016872%" y2="50.0174101%" id="linearGradient-2">
            <stop stop-color="#91ECE7FF" offset="0%"></stop>
            <stop stop-color="#23C2B9FF" offset="54.5558867%"></stop>
            <stop stop-color="#235653FF" offset="100%"></stop>
        </linearGradient>
        <linearGradient x1="50%" y1="0%" x2="50%" y2="100%" id="linearGradient-3">
            <stop stop-color="#FEB76CFF" offset="0%"></stop>
            <stop stop-color="#FD8C16FF" offset="49.5219621%"></stop>
            <stop stop-color="#C97319FF" offset="100%"></stop>
        </linearGradient>
        <linearGradient x1="51.5368848%" y1="6.96600716%" x2="48.8455889%" y2="83.1257876%" id="linearGradient-4">
            <stop stop-color="#FF3D44FF" offset="0%"></stop>
            <stop stop-color="#CC2E34FF" offset="54.5564124%"></stop>
            <stop stop-color="#602A2CFF" offset="100%"></stop>
        </linearGradient>
    </defs>
    <g id="Symbols" stroke="none" stroke-width="1" fill="none" fill-rule="evenodd">
        <g id="themeplugin.light">
            <path d="M10.2555408,-4.14336123e-16 L29.7444592,4.14336123e-16 C33.3105342,-2.4074122e-16 34.6036791,0.371302445 35.9073828,1.06853082 C37.2110865,1.76575919 38.2342408,2.78891348 38.9314692,4.09261719 C39.6286976,5.39632089 40,6.68946584 40,10.2555408 L40,29.7444592 C40,33.3105342 39.6286976,34.6036791 38.9314692,35.9073828 C38.2342408,37.2110865 37.2110865,38.2342408 35.9073828,38.9314692 C34.6036791,39.6286976 33.3105342,40 29.7444592,40 L10.2555408,40 C6.68946584,40 5.39632089,39.6286976 4.09261719,38.9314692 C2.78891348,38.2342408 1.76575919,37.2110865 1.06853082,35.9073828 C0.371302445,34.6036791 1.60494146e-16,33.3105342 -2.76224082e-16,29.7444592 L2.76224082e-16,10.2555408 C-1.60494146e-16,6.68946584 0.371302445,5.39632089 1.06853082,4.09261719 C1.76575919,2.78891348 2.78891348,1.76575919 4.09261719,1.06853082 C5.39632089,0.371302445 6.68946584,2.4074122e-16 10.2555408,-4.14336123e-16 Z" id="Background" fill="#222222ff"></path>
            <path d="M10.2555408,0.5 L29.7444592,0.5 C33.1689355,0.5 34.4177606,0.838885677 35.6715834,1.50943741 C36.886864,2.15937661 37.8406234,3.11313597 38.4905626,4.32841662 C39.1611143,5.58223935 39.5,6.83106445 39.5,10.2555408 L39.5,29.7444592 C39.5,33.1689355 39.1611143,34.4177606 38.4905626,35.6715834 C37.8406234,36.886864 36.886864,37.8406234 35.6715834,38.4905626 C34.4177606,39.1611143 33.1689355,39.5 29.7444592,39.5 L10.2555408,39.5 C6.83106445,39.5 5.58223935,39.1611143 4.32841662,38.4905626 C3.11313597,37.8406234 2.15937661,36.886864 1.50943741,35.6715834 C0.838885677,34.4177606 0.5,33.1689355 0.5,29.7444592 L0.5,10.2555408 C0.5,6.83106445 0.838885677,5.58223935 1.50943741,4.32841662 C2.15937661,3.11313597 3.11313597,2.15937661 4.32841662,1.50943741 C5.58223935,0.838885677 6.83106445,0.5 10.2555408,0.5 Z" id="Border" stroke="#9B8EF6ff"></path>
            <g id="Color" transform="translate(4.000000, 4.000000)">
                <path d="M32,25.4117647 L32,32 L3.29411765,32 C1.47482671,32 0,30.5251733 0,28.7058824 C0,26.8865914 1.47482671,25.4117647 3.29411765,25.4117647 L32,25.4117647 Z" id="Blue" fill="url(#linearGradient-1)"></path>
                <path d="M26.7975829,11.2941176 L30.0917006,16.9996968 L5.23167722,31.352638 C3.65612505,32.2622834 1.6414743,31.7224594 0.731828834,30.1469072 C-0.177816637,28.571355 0.362007404,26.5567043 1.93755958,25.6470588 L26.7975829,11.2941176 Z" id="Purple" fill="url(#linearGradient-2)"></path>
                <path d="M15.0295634,1.88235294 L20.7351425,5.17647059 L6.38220133,30.0364939 C5.47255586,31.6120461 3.45790511,32.1518702 1.88235294,31.2422247 C0.30680077,30.3325792 -0.233023271,28.3179285 0.676622199,26.7423763 L15.0295634,1.88235294 Z" id="Red" fill="url(#linearGradient-3)"></path>
                <path d="M1.86073379e-13,0 L6.58823529,0 L6.58823529,28.7058824 C6.58823529,30.5251733 5.11340859,32 3.29411765,32 C1.47482671,32 1.86073379e-13,30.5251733 1.86073379e-13,28.7058824 L1.86073379e-13,0 Z" id="Yellow" fill="url(#linearGradient-4)"></path>
                <circle id="Oval" fill="#222222ff" cx="3.29411765" cy="28.7058824" r="1.41176471"></circle>
            </g>
        </g>
    </g>
</svg>