<?xml version="1.0" encoding="UTF-8"?>
<svg width="40px" height="40px" viewBox="0 0 40 40" version="1.1" xmlns="http://www.w3.org/2000/svg" xmlns:xlink="http://www.w3.org/1999/xlink">
    <title>icon.selected.light</title>
    <g id="Symbols" stroke="none" stroke-width="1" fill="none" fill-rule="evenodd">
        <g id="icon.selected.light">
            <path d="M9.89465082,0.00132264284 L29.7444592,0 C33.3105342,0 34.6036791,0.371302445 35.9073828,1.06853082 C37.2110865,1.76575919 38.2342408,2.78891348 38.9314692,4.09261719 L39.0710579,4.36294735 C39.6781457,5.58549632 40,6.93540204 40,10.2555408 L40,29.7444592 L39.9947169,30.450585 C39.9472357,33.4889492 39.5806128,34.6935897 38.9314692,35.9073828 C38.2342408,37.2110865 37.2110865,38.2342408 35.9073828,38.9314692 L35.6370527,39.0710579 C34.4145037,39.6781457 33.064598,40 29.7444592,40 L10.2555408,40 L9.54941498,39.9947169 C6.5110508,39.9472357 5.30641029,39.5806128 4.09261719,38.9314692 C2.78891348,38.2342408 1.76575919,37.2110865 1.06853082,35.9073828 L0.928942102,35.6370527 C0.344339052,34.4597833 0.0242323274,33.1644163 0.00132264284,30.1053492 L0,10.2555408 C0,6.68946584 0.371302445,5.39632089 1.06853082,4.09261719 C1.76575919,2.78891348 2.78891348,1.76575919 4.09261719,1.06853082 L4.36294735,0.928942102 C5.54021673,0.344339052 6.83558373,0.0242323274 9.89465082,0.00132264284 L9.89465082,0.00132264284 Z" id="Border" fill="#5445C4ff"></path>
            <path d="M30.0941882,1.00110395 L10.2555408,1 C7.15523901,1 5.88115612,1.24603676 4.56421604,1.95034401 C3.43478081,2.55437258 2.55437258,3.43478081 1.95034401,4.56421604 L1.79584995,4.86821525 C1.20964079,6.0879749 1,7.39372376 1,10.2555408 L1,29.7444592 C1,32.844761 1.24603676,34.1188439 1.95034401,35.435784 C2.55437258,36.5652192 3.43478081,37.4456274 4.56421604,38.049656 L4.86821525,38.2041501 C6.0879749,38.7903592 7.39372376,39 10.2555408,39 L29.7444592,39 L30.4283461,38.9955359 C33.0410273,38.9594365 34.220147,38.6997858 35.435784,38.049656 C36.5652192,37.4456274 37.4456274,36.5652192 38.049656,35.435784 L38.2041501,35.1317847 C38.7903592,33.9120251 39,32.6062762 39,29.7444592 L39,10.2555408 L38.9955359,9.57165389 C38.9594365,6.95897266 38.6997858,5.77985303 38.049656,4.56421604 C37.4456274,3.43478081 36.5652192,2.55437258 35.435784,1.95034401 L35.1317847,1.79584995 C33.9628484,1.23406617 32.7149394,1.01812383 30.0941882,1.00110395 Z" id="Barkground" fill="#FFFFFFff"></path>
            <g id="Ring" transform="translate(1.001624, 1.001608)">
                <path d="M18.7477883,29.9955944 L18.7473904,37.9967686 C13.6910302,37.9313077 9.11099062,35.8907105 5.74346801,32.6111735 L11.4010642,26.9533437 C13.3196439,28.7861924 15.9002197,29.9319438 18.7477883,29.9955944 Z" id="Path" fill="#CC2E34FF"></path>
                <path d="M26.5976866,26.951434 L32.255282,32.6092278 C28.9326345,35.8460065 24.4290925,37.8764434 19.4521134,37.9930809 L19.2473762,37.9963924 L19.247,29.995 L19.2867837,29.994685 C22.1203662,29.9217559 24.6873959,28.7772768 26.5976866,26.951434 Z" id="Path" fill="#9B8EF6ff"></path>
                <path d="M8.001,19.247 L7.99837618,18.9983924 C7.99837618,21.9469839 9.15852125,24.6246089 11.0472447,26.5997009 L5.38948679,32.2572955 C2.151595,28.9344753 0.12037252,24.4301592 0.00368978875,19.4522176 L0.001,19.247 L8.001,19.247 Z" id="Path" fill="#FF3D44FF"></path>
                <path d="M29.9955811,19.248849 L37.9967686,19.2481191 C37.9316173,24.305978 35.8901594,28.8873099 32.6092116,32.2552982 L26.9514178,26.5977029 C28.7854085,24.6788874 29.9319407,22.0974584 29.9955811,19.248849 Z" id="Path" fill="#5445C4ff"></path>
                <path d="M5.38754079,5.74148666 L11.0453346,11.399082 C9.21137206,13.317868 8.06484694,15.8992472 8.00117422,18.7478045 L0,18.7474066 C0.0634898483,13.8432999 1.98495896,9.38726042 5.09273206,6.0509635 L5.38754079,5.74148666 Z" id="Path" fill="#FD8C16FF"></path>
                <path d="M32.6111573,5.74348427 C35.846823,9.06595862 37.8764745,13.5687266 37.9930667,18.5447432 L37.9963762,18.7473924 L29.995,18.747 L29.9946688,18.709985 C29.9217651,15.8773904 28.7780585,13.3111628 26.9533274,11.4010804 L32.6111573,5.74348427 Z" id="Path" fill="#91ECE7FF"></path>
                <path d="M19.2481028,0 C24.3069616,0.065164229 28.889105,2.10741645 32.2572793,5.38950305 L26.5996846,11.047261 C24.6806633,9.21215623 22.0984309,8.06485004 19.2488327,8.00118755 L19.2481028,0 Z" id="Path" fill="#23C2B9FF"></path>
                <path d="M18.747,0.001 L18.747,8.001 L18.7099687,8.00209984 C15.8763862,8.07502898 13.3093564,9.21950805 11.3990657,11.0453509 L5.7414704,5.38755705 C9.06411783,2.15077835 13.5676599,0.120341468 18.544639,0.00370398622 L18.747,0.001 Z" id="Path" fill="#FEB76CFF"></path>
            </g>
            <path d="M26.6223947,13.3780457 C27.1855362,13.9416159 27.1140126,14.9419858 26.4398719,15.6160946 L15.9852498,26.0700877 C15.9350295,26.12028 15.8756086,26.1596688 15.8123895,26.1846524 L13.9031694,26.9391583 C13.4847102,27.1045295 13.0855906,26.9211949 13.0117107,26.529669 C12.9859053,26.3929135 13.0029675,26.2423691 13.0607229,26.0961856 L13.8156726,24.1866883 C13.8406709,24.12346 13.8800695,24.0640364 13.9302768,24.0138314 L24.3956383,13.549421 L24.4681401,13.4811696 C25.1430803,12.8781697 26.0844434,12.8398094 26.6223947,13.3780457 Z M14.8125355,24.0903238 L14.5881773,24.3145454 C14.5212026,24.3815169 14.4686487,24.4607878 14.4353163,24.5451353 L13.8795487,25.9515023 C13.846469,26.0352104 13.8831143,26.1150608 13.9613983,26.1298532 C13.9887409,26.1350197 14.0188416,26.1316169 14.0480721,26.1200636 L15.4539238,25.5642566 C15.5381827,25.5309447 15.6173783,25.4784408 15.6842988,25.4115262 L15.9086731,25.1871718 L14.8125355,24.0903238 Z M26.0206181,13.9797842 C25.7269966,13.6859724 25.235485,13.7060016 24.9151006,13.9919534 L24.8643783,14.0396169 L24.5223615,14.3816034 L25.6183456,15.4782211 L25.9604051,15.1363283 C26.2710068,14.8257412 26.3221765,14.3473691 26.0712228,14.036106 L26.0206181,13.9797842 Z" id="edit.light" fill="#414141ff"></path>
        </g>
    </g>
</svg>