<?xml version="1.0" encoding="UTF-8"?>
<svg width="64px" height="64px" viewBox="0 0 64 64" version="1.1" xmlns="http://www.w3.org/2000/svg" xmlns:xlink="http://www.w3.org/1999/xlink">
    <title>1 Logo/Duck/Icon/Round/White</title>
    <defs>
        <filter x="-3.9%" y="-2.6%" width="107.8%" height="105.3%" filterUnits="objectBoundingBox" id="filter-1">
            <feGaussianBlur stdDeviation="0.4" in="SourceGraphic"></feGaussianBlur>
        </filter>
    </defs>
    <g id="Logo" stroke="none" stroke-width="1" fill="none" fill-rule="evenodd">
        <g id="1-Logo/Duck/Icon/Round/White">
            <circle id="Background" fill="#5445C4FF" cx="32" cy="32" r="32"></circle>
            <g id="1-Logo/Duck/Symbol/White" transform="translate(17.000000, 10.000000)">
                <g id="Floro-Duck" transform="translate(0.000000, 0.000000)">
                    <path d="M15.7324574,1.40334414 L16.0291476,1.40520367 C20.7417814,1.48799828 24.7619886,4.33590256 26.5898571,8.38560482 L26.6142975,8.44305646 L26.6631285,8.56348356 L26.756138,8.79861294 L26.8382554,9.00779097 C27.0275038,9.06649483 27.214485,9.19963659 27.398043,9.35384301 L27.4526349,9.40036265 C27.4617163,9.40820239 27.4707889,9.41608101 27.4798527,9.42399197 L27.5881835,9.5200574 L27.7489646,9.66448561 L27.8285336,9.73455377 L27.8812598,9.779752 L27.9337221,9.82337308 C28.1081495,9.96579942 28.2780668,10.0767101 28.4423411,10.1038093 L28.5173637,10.1155766 C28.5547617,10.1211448 28.5919856,10.1262502 28.6290173,10.1309405 L28.7028187,10.1397817 L28.7760748,10.1476004 C28.7882369,10.148823 28.800375,10.1500066 28.8124882,10.1511528 L28.8848655,10.1575964 L28.9566164,10.163229 L29.0277083,10.1681352 L29.0981087,10.1723996 L29.2367057,10.179341 L29.3048371,10.1821872 L29.6640096,10.1946834 L29.787403,10.1996997 L29.8771673,10.2042932 L29.935625,10.20791 L29.9929369,10.212069 L30.0490703,10.2168549 L30.1039928,10.2223521 L30.1576721,10.2286453 C30.1665132,10.2297651 30.1753011,10.2309217 30.1840353,10.2321168 L30.2357886,10.2397625 C30.6190122,10.3007773 30.8904805,10.446792 30.988557,10.8383716 C31.3092826,12.1189037 30.0203713,13.5830152 27.8834378,14.1134008 C26.671161,14.4142837 25.4991547,14.3237436 24.6489286,13.9377542 L24.3043077,14.1671347 L23.8045394,14.500818 L23.2953302,14.8419442 L22.7766802,15.1905133 L22.2485893,15.5465251 L21.7110576,15.9099799 L21.4945466,16.0551794 L21.5393898,16.0992162 C32.3256064,26.8892269 34.8136062,35.7844787 28.8024383,42.4682881 C19.6866012,52.6041749 1.17995235,43.6955517 1.19255302,35.6313028 C1.19780083,32.4512621 3.50686098,28.7945405 8.16276637,24.7288625 L7.96950632,24.5147759 L7.84485524,24.3753048 L7.66167649,24.168927 L7.54208922,24.0332276 L7.36650618,23.8325073 L7.25198273,23.7005797 L7.1394848,23.5701607 L7.02901239,23.4412504 L6.86710164,23.2507138 L6.76169304,23.1255752 L7.0841603,22.9835292 L6.98381552,22.8621623 L6.8370962,22.6829408 L6.74181522,22.5653456 L6.64855977,22.4492591 L6.55732984,22.3346813 L6.46812544,22.2216122 L6.38094657,22.1100518 L6.29579321,22 L6.21266538,21.8914569 L6.13156308,21.7844225 L6.0524863,21.6788968 L5.97543504,21.5748798 L5.90040931,21.4723715 L5.79166857,21.3214378 L5.72170665,21.2227011 C5.71021512,21.2063708 5.69880799,21.1901032 5.68748526,21.1738986 L5.62056162,21.077425 L5.55566351,20.98246 C5.54501595,20.9667583 5.53445279,20.9511194 5.52397403,20.9355433 L5.4621142,20.8428414 L5.43194386,20.7970563 L5.37312232,20.7066174 L5.31632631,20.6176872 L5.26155582,20.5302657 C5.25259619,20.5158212 5.24372097,20.5014395 5.23493014,20.4871207 L5.18319794,20.4019622 C5.15783822,20.3597601 5.13323807,20.3181238 5.10939749,20.2770533 L5.0627291,20.1956665 C5.05511983,20.1822277 5.04759495,20.1688519 5.04015447,20.1555389 L4.99652437,20.0764151 L4.95491978,19.9988 L4.93487706,19.9605583 L4.89631077,19.8852062 L4.85976999,19.8113629 C4.85384866,19.7991814 4.84801172,19.7870627 4.84225918,19.7750069 L4.3319744,19.6605935 C3.17556781,17.1396842 2.75983237,14.9275023 2.7997007,12.6285841 C2.91017319,6.25843489 9.10902869,1.58121083 15.4358182,1.40814684 L15.7324574,1.40334414 Z" id="Dark-Shadow" fill="#251F51FF" filter="url(#filter-1)"></path>
                    <g id="Duck">
                        <path d="M19.3829683,14.5793432 C24.5921224,19.7912466 27.8259421,24.5419996 29.0358158,28.8059259 C30.2329184,33.0248436 29.4192861,36.7506037 26.5627998,39.9428051 C24.7583254,41.9593544 22.563597,43.1804488 20.2223074,43.7810253 C17.5359559,44.4701154 14.6580808,44.3446997 11.9506362,43.6708662 C8.77001261,42.8792672 5.82222148,41.3303566 3.692621,39.4377822 C1.68713152,37.6555051 0.396822189,35.5687178 0.399999461,33.5250134 C0.408459966,28.372213 6.76695372,21.9782534 19.3829683,14.5793432 Z" id="Body" stroke="#FFFFFFFF" stroke-width="0.8" fill="#C97319FF"></path>
                        <path d="M14.0976818,0.350904377 L14.4683843,0.351927498 C16.6650213,0.390579114 18.7029275,1.06412684 20.4128961,2.19612671 C22.1781373,3.3647171 23.5940352,5.0215962 24.4747683,6.97260497 L24.659498,10.6886416 L23.9315806,11.1667914 L23.4733381,11.4695005 L23.0058091,11.7795361 L22.3683024,12.2041064 L21.8793684,12.5310611 L21.3812245,12.865291 L20.8738695,13.2067967 L20.3573026,13.5555785 L19.8315228,13.9116371 L19.2965294,14.274973 L18.7523216,14.6455865 L18.1988424,15.0235166 L17.4466658,15.5386555 L16.8715835,15.9336375 L15.6942321,16.7451191 L15.091605,17.1618655 L14.2738267,17.7288074 L13.4397021,18.3086622 L12.8032766,18.7521003 L11.9404245,19.3546371 L11.0612193,19.9700912 L10.3910274,20.4401981 L9.71165122,20.9175608 L9.25351355,21.2399165 L8.32515866,21.894185 L7.85472924,22.2262476 L7.15497196,22.7209423 C2.61481266,15.8339431 1.93403054,13.5207136 1.89363771,11.4456109 L1.89161682,11.2199722 C1.8916868,11.1449352 1.8924488,11.0700046 1.89374802,10.994972 C1.94577164,7.99050826 3.43218243,5.38777214 5.64293572,3.50934981 C8.02748224,1.48325968 11.255811,0.295399655 14.4683843,0.351927498 Z" id="Head" stroke="#FFFFFFFF" stroke-width="0.7" fill="#23C2B9FF"></path>
                        <path d="M12.6917518,11.6083726 L13.7592519,11.5492387 C13.6056523,13.8367673 13.5335518,16.1713572 13.5429505,18.5530082 C13.5523492,20.9346593 13.6683438,23.2847287 13.8909342,25.6032164 L12.7818881,25.6343272 C12.6327799,23.4269183 12.5531448,21.0356882 12.5429829,18.460637 C12.532821,15.8855858 12.5824106,13.6014977 12.6917518,11.6083726 Z" id="Neck" fill="#FFFFFFFF" transform="translate(13.216310, 18.591783) rotate(56.000000) translate(-13.216310, -18.591783) "></path>
                        <path d="M25.9525551,12.4096347 C28.0285291,11.8856894 29.2806721,10.4393561 28.9690957,9.174373 C28.873817,8.78754824 28.6100928,8.64330649 28.2378013,8.58303254 L28.1875243,8.57547968 C28.1790393,8.57429916 28.1705021,8.57315662 28.1619132,8.57205032 L28.1097652,8.56583356 L28.1097652,8.56583356 L28.0564094,8.5604031 L28.0564094,8.5604031 L28.0018773,8.55567538 L28.0018773,8.55567538 L27.9462004,8.55156686 L27.9462004,8.55156686 L27.8894102,8.54799399 L27.8894102,8.54799399 L27.8022066,8.54345625 L27.8022066,8.54345625 L27.6823332,8.53850089 L27.6823332,8.53850089 L27.3334068,8.52615641 L27.3334068,8.52615641 L27.2672188,8.52334473 L27.2672188,8.52334473 L27.1325756,8.51648759 L27.1325756,8.51648759 L27.0641834,8.51227504 L27.0641834,8.51227504 L26.9951195,8.50742842 L26.9951195,8.50742842 L26.9254155,8.5018642 L26.9254155,8.5018642 L26.8551029,8.49549882 C26.8433352,8.49436651 26.8315434,8.49319735 26.8197282,8.49198958 L26.7485619,8.4842658 L26.7485619,8.4842658 L26.6768657,8.47553198 C26.6408905,8.47089864 26.6047284,8.4658552 26.5683973,8.46035467 L26.4955148,8.44873023 L26.4955148,8.44873023 C26.3359267,8.42196008 26.1708566,8.31239613 26.0014051,8.17169922 L25.9504393,8.12860782 L25.9504393,8.12860782 L25.8992172,8.08395841 L25.8992172,8.08395841 L25.821918,8.01474106 L25.821918,8.01474106 L25.6657235,7.87206659 L25.6657235,7.87206659 L25.6132099,7.82438874 L25.6132099,7.82438874 L25.560483,7.77716765 C25.5516778,7.76935275 25.5428639,7.7615698 25.5340416,7.75382525 L25.4810071,7.70787048 C25.1976252,7.46578733 24.9058447,7.27625559 24.6101736,7.35087809 C22.534199,7.87482084 21.2523326,9.5365426 21.5872486,10.8962842 C21.9221661,12.2560255 23.8765797,12.9335744 25.9525551,12.4096347 Z" id="Beak" stroke="#FFFFFFFF" stroke-width="0.7" fill="#FD8C16FF"></path>
                    </g>
                </g>
            </g>
        </g>
    </g>
</svg>