<?xml version="1.0" encoding="UTF-8"?>
<svg width="64px" height="64px" viewBox="0 0 64 64" version="1.1" xmlns="http://www.w3.org/2000/svg" xmlns:xlink="http://www.w3.org/1999/xlink">
    <title>Windows</title>
    <g id="Page-1" stroke="none" stroke-width="1" fill="none" fill-rule="evenodd">
        <g id="1-Light-Mode-2" transform="translate(-144.000000, -544.000000)">
            <g id="Group" transform="translate(144.000000, 512.000000)">
                <g id="Windows" transform="translate(0.000000, 32.000000)">
                    <path d="M10.2555408,-4.14336123e-16 L53.7444592,4.14336123e-16 C57.3105342,-2.4074122e-16 58.6036791,0.371302445 59.9073828,1.06853082 C61.2110865,1.76575919 62.2342408,2.78891348 62.9314692,4.09261719 C63.6286976,5.39632089 64,6.68946584 64,10.2555408 L64,53.7444592 C64,57.3105342 63.6286976,58.6036791 62.9314692,59.9073828 C62.2342408,61.2110865 61.2110865,62.2342408 59.9073828,62.9314692 C58.6036791,63.6286976 57.3105342,64 53.7444592,64 L10.2555408,64 C6.68946584,64 5.39632089,63.6286976 4.09261719,62.9314692 C2.78891348,62.2342408 1.76575919,61.2110865 1.06853082,59.9073828 C0.371302445,58.6036791 1.60494146e-16,57.3105342 -2.76224082e-16,53.7444592 L2.76224082e-16,10.2555408 C-1.60494146e-16,6.68946584 0.371302445,5.39632089 1.06853082,4.09261719 C1.76575919,2.78891348 2.78891348,1.76575919 4.09261719,1.06853082 C5.39632089,0.371302445 6.68946584,2.4074122e-16 10.2555408,-4.14336123e-16 Z" id="Background" fill="#414141ff"></path>
                    <g id="Windows-Icon" transform="translate(9.777778, 9.777778)" fill="#FFFFFFff" fill-rule="nonzero">
                        <polygon id="Path" points="20.3464369 3.34222222 20.3464369 21.2533333 44.4444444 21.2533333 44.4444444 0"></polygon>
                        <polygon id="Path" points="0 21.2533333 18.3450009 21.2533333 18.3450009 3.61777778 0 6.15111111"></polygon>
                        <polygon id="Path" points="20.3464369 40.96 44.4444444 44.4444444 44.4444444 23.2355556 20.3464369 23.2355556"></polygon>
                        <polygon id="Path" points="0 38.0177778 18.3450009 40.6666667 18.3450009 23.2355556 0 23.2355556"></polygon>
                    </g>
                </g>
            </g>
        </g>
    </g>
</svg>