<?xml version="1.0" encoding="UTF-8"?>
<svg width="64px" height="64px" viewBox="0 0 64 64" version="1.1" xmlns="http://www.w3.org/2000/svg" xmlns:xlink="http://www.w3.org/1999/xlink">
    <title>Linux</title>
    <g id="Page-1" stroke="none" stroke-width="1" fill="none" fill-rule="evenodd">
        <g id="1-Light-Mode-2" transform="translate(-384.000000, -544.000000)">
            <g id="Group" transform="translate(144.000000, 512.000000)">
                <g id="Desktop-Apps" transform="translate(0.000000, 32.000000)">
                    <g id="Linux" transform="translate(240.000000, 0.000000)">
                        <path d="M10.2555408,-4.14336123e-16 L53.7444592,4.14336123e-16 C57.3105342,-2.4074122e-16 58.6036791,0.371302445 59.9073828,1.06853082 C61.2110865,1.76575919 62.2342408,2.78891348 62.9314692,4.09261719 C63.6286976,5.39632089 64,6.68946584 64,10.2555408 L64,53.7444592 C64,57.3105342 63.6286976,58.6036791 62.9314692,59.9073828 C62.2342408,61.2110865 61.2110865,62.2342408 59.9073828,62.9314692 C58.6036791,63.6286976 57.3105342,64 53.7444592,64 L10.2555408,64 C6.68946584,64 5.39632089,63.6286976 4.09261719,62.9314692 C2.78891348,62.2342408 1.76575919,61.2110865 1.06853082,59.9073828 C0.371302445,58.6036791 1.60494146e-16,57.3105342 -2.76224082e-16,53.7444592 L2.76224082e-16,10.2555408 C-1.60494146e-16,6.68946584 0.371302445,5.39632089 1.06853082,4.09261719 C1.76575919,2.78891348 2.78891348,1.76575919 4.09261719,1.06853082 C5.39632089,0.371302445 6.68946584,2.4074122e-16 10.2555408,-4.14336123e-16 Z" id="Background" fill="#414141ff"></path>
                        <g id="Linux-Icon" transform="translate(11.555556, 8.000000)" fill="#FFFFFFff" fill-rule="nonzero">
                            <path d="M40.5403314,40.1812524 C40.34381,39.9559347 40.063767,39.7404133 39.7100284,39.524892 C39.655985,39.4906046 39.508594,39.407335 39.2678553,39.270185 C39.0271165,39.1379333 38.8355082,39.0203762 38.6881171,38.922412 C38.5456391,38.8244478 38.3589438,38.6530104 38.1231181,38.412998 C37.8922054,38.1729856 37.7055101,37.9182786 37.5728582,37.648877 C37.4402062,37.3794754 37.3075543,37.0219059 37.1847284,36.5663722 C37.0569895,36.1108386 36.988207,35.6063228 36.9685548,35.0528249 C36.7179901,35.2683462 36.5804251,35.6895924 36.5509469,36.3263599 C36.5263817,36.9582292 36.6590336,37.6047931 36.9538157,38.2660517 C37.2485978,38.9273102 37.690771,39.3534546 38.2852482,39.5542813 C38.8600734,39.7502098 39.3169856,39.9608329 39.6707241,40.1812524 C40.0195496,40.4065701 40.2455493,40.6563789 40.34381,40.9453734 C40.4420707,41.2294697 40.2750275,41.538057 39.8475934,41.8711354 C39.4152463,42.2042138 38.7274214,42.5274957 37.7792056,42.8507777 C36.4723383,43.2965149 35.5437747,43.6785754 34.9984278,43.9871628 C34.4530809,44.3006483 33.6522561,44.8933319 32.5959536,45.7701118 C31.8786505,46.3578972 31.11713,46.6762809 30.3113923,46.7203648 C29.5056545,46.7644487 28.8522209,46.470556 28.3510913,45.8386867 C27.8499617,45.2068175 27.6878315,44.3055465 27.8647008,43.1446704 C28.2037002,40.9110859 28.1987872,39.1722208 27.8401356,37.9231769 C27.5551796,36.9386363 27.4913101,36.0765511 27.6534403,35.3271247 C27.8155704,34.5776984 28.0661352,34.1417575 28.4051347,34.014404 C28.7441341,33.8870505 29.1126117,34.1564522 29.5056545,34.8177107 C29.5400458,34.9058785 29.6235674,35.0822141 29.7463932,35.3418194 C29.8692191,35.6014246 29.9723929,35.7826584 30.0559145,35.8904191 C30.134523,35.9981797 30.2573489,36.1353296 30.419479,36.306767 C30.5816092,36.4782044 30.7830436,36.5957615 31.0237824,36.6692347 C31.2645211,36.7427079 31.5494771,36.7867918 31.8688244,36.8014864 C32.4780408,36.8210792 33.0233877,36.6937257 33.5097781,36.4243241 C33.9912556,36.1549225 34.3548202,35.8561316 34.5955589,35.5279514 C34.8362976,35.194873 35.0770363,34.8813875 35.3226881,34.5776984 C35.5634268,34.2740092 35.7746873,34.1025718 35.9564696,34.0682843 C36.152991,34.0339969 36.3347733,33.8380684 36.4919904,33.480499 C36.6541206,33.1229295 36.7622074,32.6282101 36.8162508,31.9963409 C36.8702941,31.3644716 36.8260768,30.610147 36.6835988,29.7333671 C36.4133819,28.180634 35.8827741,26.4760564 35.0868624,24.614736 C34.2909507,22.7583138 33.3967783,21.303545 32.4141713,20.2504295 C30.6405656,18.3744145 29.4516111,16.4298245 28.8423948,14.4117613 C28.2135263,12.2859375 27.9482224,10.375635 28.036657,8.68085378 C28.1250917,7.46609731 27.8597878,6.1484784 27.2456584,4.72799704 C26.6266159,3.30751569 25.8061391,2.22501093 24.7891408,1.47558456 C24.1455332,0.995559827 23.3447085,0.623295748 22.3964927,0.363690534 C21.448277,0.104085321 20.4951481,-0.0134717564 19.5469324,0.00122287828 C18.382543,0.00122287828 17.4490664,0.187354918 16.7514154,0.564517209 C15.3168091,1.33353643 14.3685934,2.26419662 13.901855,3.36139602 C13.4351167,4.45859541 13.2189432,5.8105018 13.2582474,7.4171152 C13.331943,10.9536239 13.474421,13.7211135 13.6905945,15.7195838 C13.4400297,16.650244 12.3296838,18.3891091 10.3595567,20.9410773 C10.0009052,21.2986468 9.65207967,21.7786715 9.31308025,22.3860498 C8.97408082,22.993428 8.70386389,23.5371295 8.50734249,24.0220524 C8.31082108,24.5020772 8.04551719,25.2025214 7.71634384,26.1135888 C7.38717049,27.0246561 7.14643177,27.6663218 7.00395375,28.0434841 C6.87621483,28.3667661 6.67969343,28.7390302 6.41438953,29.1700728 C6.1441726,29.5962172 5.92799906,30.0174634 5.77078194,30.4289132 C5.60865178,30.8403629 5.52021715,31.305693 5.50056501,31.8200052 C5.48091287,32.2118622 5.50056501,32.554737 5.55460839,32.8388332 C5.62830392,33.2698759 5.76095587,33.4021276 5.95747727,33.2404866 C6.76321503,32.6331084 7.77530026,32.9906778 8.99373296,34.3131949 C9.85351411,35.2438551 11.3667289,37.4039664 13.5333774,40.7935288 C13.7102467,41.0972179 13.892029,41.4204999 14.0688982,41.7731711 C14.2506805,42.1209442 14.4177237,42.5862743 14.5798539,43.1642632 C14.741984,43.7471504 14.8107665,44.2663608 14.7812883,44.7316909 C14.7518101,45.197021 14.5503757,45.6231654 14.1622459,46.0150224 C13.7790292,46.4068793 13.199291,46.6566881 12.4279445,46.7644487 C12.0152496,46.8183291 11.519033,46.7840416 10.9343818,46.6566881 C10.3546437,46.5293346 9.61277539,46.3285079 8.718603,46.0395134 C7.82443061,45.7554172 7.16117087,45.5594887 6.72882378,45.451728 C6.09995529,45.3096799 5.21069593,45.1284461 4.05613269,44.9031283 C2.90156944,44.6778106 2.14496203,44.5161696 1.78631047,44.408409 C1.17709411,44.246768 0.847920763,44.016552 0.793877377,43.7128629 C0.739833991,43.4630541 0.867572903,43.0369097 1.17218108,42.4295315 C1.47678926,41.8221533 1.62909334,41.3862124 1.62909334,41.1168108 C1.64874548,40.9208823 1.63891941,40.7249539 1.59961513,40.5290254 C1.56522389,40.3330969 1.52591961,40.1812524 1.47678926,40.0734917 C1.43257194,39.9657311 1.35396338,39.8040901 1.25078964,39.593467 C1.14270287,39.3779457 1.07392038,39.2163047 1.0346161,39.1134423 C0.71035578,38.3640159 0.666138464,37.8546019 0.901964149,37.5852003 C1.06409431,37.3549843 1.44731105,37.2619183 2.0565274,37.3157986 C2.97035193,37.4039664 3.71222023,37.2717147 4.28704534,36.9141453 C5.23526111,36.3263599 5.52513018,35.381005 5.14682648,34.0731826 C5.14682648,34.6805608 5.03873971,35.1360945 4.82256616,35.4397836 C4.60639262,35.7434727 4.23300195,36.0569582 3.69256809,36.375342 C3.38795991,36.5516776 2.85243909,36.6594383 2.08109257,36.698624 C1.30974606,36.7329114 0.798790412,36.8602649 0.548225622,37.0757863 C0.371356358,37.2374272 0.273095656,37.4774396 0.268182621,37.8007216 C0.258356551,38.1240035 0.297660831,38.4472855 0.391008498,38.7803639 C0.47944313,39.1085441 0.567877762,39.4906046 0.661225429,39.916749 C0.749660061,40.3477916 0.784051307,40.705361 0.769312201,40.9894573 C0.749660061,41.1853858 0.587529903,41.6703087 0.287834761,42.4491243 C-0.0167734152,43.22794 -0.0806428715,43.8206236 0.101139427,44.2320734 C0.189574059,44.4280018 0.341878147,44.6043374 0.558051692,44.756182 C0.774225236,44.9080266 1.07392038,45.0353801 1.45713712,45.1431407 C1.84035385,45.2509014 2.19409238,45.334171 2.5183527,45.3978477 C2.84261301,45.4615245 3.28969921,45.5398958 3.85961128,45.6378601 C4.43443639,45.7358243 4.89134865,45.8190939 5.23034807,45.8925671 C6.37508525,46.122783 7.68195259,46.5097417 9.15095009,47.0436468 C10.6199476,47.5775519 11.6123807,47.8567499 12.1331624,47.8714446 C12.634292,47.8910374 13.1157694,47.788175 13.5726817,47.5628572 C14.0295939,47.3424377 14.4177237,47.0877307 14.741984,46.7987362 C15.0662444,46.5146399 15.5428088,46.2452383 16.1765903,45.9954295 C16.8103718,45.7456207 17.5227619,45.613369 18.3137606,45.5937762 C18.6724121,45.5741833 19.1931938,45.5545905 19.8711927,45.5252012 C20.5541046,45.4958119 21.0601472,45.4860155 21.4040596,45.4860155 C22.9418396,45.4860155 24.1062289,45.4958119 24.8972276,45.5105066 C25.4327484,45.5300994 25.8552694,45.613369 26.1598776,45.7652136 C26.4644858,45.9170581 26.6610072,46.0933938 26.7494418,46.2893222 C26.8378765,46.4852507 26.9852675,46.7154666 27.191615,46.9701736 C27.3979625,47.2297788 27.6632664,47.4404019 27.9826136,47.5971447 C28.6606125,47.9204267 29.4614372,48.0477802 30.3752617,47.9841034 C31.2890863,47.9204267 31.8983026,47.7489893 32.2029108,47.4599948 C32.7040404,46.97997 33.3820392,46.4068793 34.2319943,45.7456207 C35.0819494,45.0843622 35.8483828,44.5847446 36.5312947,44.246768 C36.6737727,44.1732948 36.9145115,44.0606359 37.2584239,43.898995 C37.5974233,43.737354 37.8823794,43.6002041 38.1182051,43.482647 C38.3491177,43.3650899 38.6340737,43.2181436 38.9632471,43.0418079 C39.2973335,42.8654723 39.5626374,42.6989331 39.7689849,42.5470886 C39.9753323,42.395244 40.1865928,42.2238066 40.3978533,42.0229799 C40.6140269,41.8270515 40.7515919,41.631123 40.8154613,41.4351945 C40.8793308,41.2392661 40.8989829,41.0384394 40.8842438,40.8327145 C40.8449395,40.6220914 40.7368528,40.4065701 40.5403314,40.1812524 Z M26.1402255,14.2942042 C26.1942689,14.2599168 26.2286601,14.2452221 26.2483122,14.2550185 C26.2679644,14.264815 26.3023556,14.2991025 26.356399,14.3627792 C26.4104424,14.426456 26.4595728,14.4852345 26.5037901,14.5391148 C26.5480074,14.5929951 26.6118768,14.6615701 26.6904854,14.7546361 C26.769094,14.8428039 26.8575286,14.9162771 26.9459632,14.9701574 C27.05405,15.0436306 27.1817889,15.0926127 27.334093,15.1171038 C27.4863971,15.1415948 27.6043099,15.190577 27.6829185,15.2493555 C27.7615271,15.3130322 27.8204835,15.4158947 27.8548747,15.5579428 C27.889266,15.7538713 27.8597878,15.9351051 27.7615271,16.0918479 C27.6632664,16.2534889 27.5306144,16.3220638 27.3733973,16.3073692 C27.049137,16.233896 26.7003115,15.954698 26.3269208,15.4648768 C25.9535301,14.9701574 25.8896607,14.5831987 26.1402255,14.2942042 Z M22.8091877,3.89040286 C22.8976223,3.77284579 22.9516657,3.67977977 22.9713178,3.61120481 C23.0057091,3.50344415 23.0106221,3.39078528 22.9860569,3.27812642 C22.9614918,3.16056934 22.9664048,3.04791047 23.0106221,2.9303534 C23.0548394,2.81279632 23.1580132,2.74911957 23.3201433,2.72952672 C23.4822735,2.72952672 23.698447,2.86177844 23.9637509,3.13118007 C24.0177943,3.16546755 24.1013159,3.21934788 24.2192287,3.29282105 C24.3371416,3.36629423 24.4157502,3.42507277 24.4599675,3.47895309 C24.5041848,3.53283342 24.52875,3.57691732 24.52875,3.61120481 C24.4943587,3.69937261 24.4108371,3.76304936 24.2880112,3.79733684 C24.1651854,3.83162433 24.0276204,3.85121717 23.8851424,3.85121717 C23.7426643,3.85121717 23.6591427,3.8610136 23.6444036,3.87570823 C23.5019256,3.92958856 23.3643606,4.00795994 23.2415348,4.1157206 C23.1187089,4.22348125 23.0155351,4.30185264 22.9467527,4.35573296 C22.8730571,4.40961329 22.8042746,4.40961329 22.7305791,4.35573296 C22.6568836,4.24797231 22.6323184,4.17449914 22.6519706,4.13041523 C22.6667097,4.08633133 22.720753,4.00795994 22.8091877,3.89040286 Z M9.80438376,23.9387828 C9.92720963,23.7967347 10.0205573,23.6791776 10.0746007,23.5910098 C10.1286441,23.502842 10.1777744,23.3803867 10.2219917,23.2285421 C10.2662091,23.0766976 10.3055133,22.9640387 10.3448176,22.8954638 C10.3792089,22.8219906 10.4332522,22.7974995 10.5069478,22.8170924 C10.541339,22.8072959 10.5708172,22.8268888 10.5855563,22.8709727 C10.6052085,22.9150566 10.6101215,22.9395477 10.6101215,22.9395477 L10.6101215,23.017919 C10.6101215,23.0473083 10.6052085,23.0815958 10.5953824,23.1256797 C10.5855563,23.1697636 10.5708172,23.2089493 10.5560781,23.248135 C10.536426,23.2824225 10.5216869,23.3363028 10.5020347,23.409776 C10.4823826,23.4832491 10.4676435,23.5420277 10.4479914,23.595908 C10.3742958,23.7771418 10.2662091,23.9338846 10.113905,24.0759327 C9.96160088,24.2179809 9.84860107,24.2816576 9.77981858,24.2620648 C9.67173181,24.2228791 9.68155788,24.1151184 9.80438376,23.9387828 Z M27.3783103,40.4653487 C27.3439191,41.0384394 27.2210932,41.8417461 27.0147457,42.8752687 C26.8083982,43.9087914 26.6806593,44.5994392 26.6266159,44.9374158 C26.2483122,44.917823 26.0370517,44.7806731 25.9830084,44.5210678 C25.928965,44.2614626 25.9830084,43.9283842 26.1451385,43.5169345 C26.5381813,42.3217708 26.7445288,41.4988713 26.7641809,41.053134 C26.7985722,40.2302345 26.7101375,39.7649044 26.493964,39.662042 C26.2974426,39.5199938 25.9928344,39.7893955 25.5801395,40.4653487 C24.7891408,41.7535783 23.2071435,42.5274957 20.8243215,42.7968974 C18.6773252,43.0809936 17.1886755,42.7626099 16.3632856,41.8319497 C16.1864164,41.7045962 16.0046341,41.6850033 15.8277648,41.7633747 C15.6508955,41.8417461 15.5329827,41.9299139 15.4789393,42.0180817 C15.4592872,42.0523692 15.4789393,42.1062495 15.5329827,42.1797227 C15.5870261,42.2531959 15.6705477,42.3560583 15.7884605,42.5030047 C15.9063734,42.6450528 15.999721,42.7871009 16.0685035,42.9340473 C16.7661545,44.1488038 16.7071981,44.9668051 15.8818082,45.3978477 C15.8818082,44.5749482 15.8179387,43.9479771 15.6951128,43.5120363 C15.5673739,43.0760954 15.3168091,42.5911725 14.9434185,42.0670638 C14.5651148,41.5429552 14.3096369,41.1413019 14.1622459,40.8767984 C14.6977667,40.8229181 15.1055486,40.6171932 15.3855916,40.2596238 C15.6656346,39.9020543 15.7884605,39.5199938 15.7638953,39.1085441 C15.7393302,38.6970943 15.582113,38.3591177 15.292244,38.089716 C15.1301138,37.9280751 14.2998109,37.2472237 12.7915091,36.0422636 C11.2881204,34.8373036 10.3546437,34.0290987 9.99599213,33.6176489 C9.9222966,33.5441757 9.71103609,33.3678401 9.35238453,33.0837438 C8.99373296,32.7996476 8.76773335,32.5498388 8.67929872,32.3343175 C7.85390882,30.5317756 7.76547419,29.0476175 8.40908179,27.8867413 L8.51716856,27.7544896 C8.60560319,27.7348968 8.61542926,27.8965378 8.54173373,28.2345144 C8.43364696,28.7341319 8.39925572,29.2337495 8.43364696,29.7333671 C8.50734249,30.8599558 8.82668977,31.6975499 9.40151488,32.2510479 C9.77981858,32.6282101 10.0352964,32.5988209 10.1826875,32.1726765 C10.2907742,32.0306283 10.3399046,31.5016215 10.3300785,30.5905541 C10.3202524,29.6794868 10.3349915,29.0623121 10.3693828,28.7439284 C10.5118608,27.7251004 10.9392949,26.46626 11.6467719,24.9674073 C12.354249,23.4685545 12.914335,22.6652478 13.3270299,22.5574872 C13.0027696,22.0382767 12.8995959,21.4749824 13.0175087,20.8676042 C13.1354216,20.2602259 13.3221169,19.7410155 13.5825078,19.3148711 C13.8428986,18.8887267 14.1082025,18.3891091 14.3735064,17.830713 C14.6437233,17.2674187 14.7763753,16.7629029 14.7763753,16.3171656 C14.7763753,16.1947103 14.7862014,16.1016443 14.8058535,16.047764 C14.8598969,15.886123 15.0858965,16.0820515 15.4789393,16.6355494 C16.2306337,17.7425452 16.7956327,18.3940073 17.1739364,18.5899358 C17.5669792,18.8054571 18.0042393,18.7956607 18.4906298,18.5605465 C18.9721073,18.3303306 19.5714975,17.9433719 20.2789746,17.4094668 C20.9864517,16.8755617 21.590755,16.4788066 22.0918845,16.2289978 C22.1459279,16.209405 22.2294495,16.1702193 22.3473624,16.1065425 C22.4652752,16.0428658 22.5537098,15.9987819 22.6175793,15.9742908 C22.6814488,15.9497997 22.7600573,15.9057158 22.858318,15.8518355 C22.9565787,15.7979552 23.0302743,15.7538713 23.0843176,15.7195838 C23.138361,15.6852963 23.1924044,15.6412124 23.2464478,15.5971285 C23.3004912,15.5530446 23.3348824,15.5089607 23.3545346,15.4648768 C23.3741867,15.4207929 23.3790997,15.3816072 23.3790997,15.3424215 C23.3447085,15.1807805 23.2660999,15.0828163 23.1481871,15.0485288 C23.0302743,15.0142413 22.8730571,15.0338342 22.6765357,15.1171038 C22.4800143,15.1954752 22.2589277,15.3032358 22.018189,15.4403857 C21.7774503,15.5726375 21.5072334,15.724482 21.2124513,15.8959194 C20.9176692,16.0673568 20.617974,16.2192014 20.3133658,16.3661477 C20.0087577,16.5081959 19.6844973,16.6355494 19.3454979,16.74331 C19.0064985,16.8510707 18.6822382,16.9147474 18.37763,16.9294421 C17.6259356,16.9490349 17.0265454,16.7531064 16.5794592,16.3416567 C16.2945031,16.072255 16.142199,15.9057158 16.1225469,15.8322427 C16.1028948,15.7587695 16.1864164,15.7440749 16.3632856,15.7783623 C17.3311535,15.9057158 18.0386306,15.9204105 18.4857168,15.8322427 C18.9524551,15.7587695 19.5764106,15.5530446 20.3674092,15.215068 C20.5295394,15.1415948 20.9373213,14.9701574 21.590755,14.6909594 C22.2441886,14.4166595 22.7502313,14.2207311 23.1088828,14.1129704 C23.3250564,14.0590901 23.4724474,13.9758205 23.551056,13.8582634 C23.6296645,13.7407063 23.6591427,13.6329457 23.6296645,13.5349814 C23.6050994,13.4370172 23.5461429,13.363544 23.4577083,13.3096637 C23.2611869,13.2019031 23.0794046,13.2753762 22.9221875,13.525185 C22.8337528,13.686826 22.6421445,13.8435688 22.3571884,13.9954133 C22.0722324,14.1472579 21.8069285,14.264815 21.5661898,14.3431864 C21.3254511,14.4215577 21.0159299,14.519522 20.6376262,14.6223844 C20.2593225,14.7301451 20.057888,14.7938218 20.0185837,14.8085165 C19.0359767,15.1122056 18.1221522,15.2444573 17.2771101,15.2101698 C16.8840673,15.190577 16.5647201,15.1366966 16.3239813,15.0338342 C16.0832426,14.93587 15.9161994,14.8183129 15.8277648,14.6860612 C15.7393302,14.5538095 15.5968521,14.382372 15.4003307,14.1766472 C15.2038093,13.9709223 14.9778097,13.7994849 14.7272449,13.6525385 C14.5503757,13.5643707 14.4815932,13.4027297 14.5258105,13.1725138 C14.5700278,12.9422978 14.7075928,12.6973873 14.9434185,12.4475785 C14.9630706,12.4279856 15.1448529,12.320225 15.4936784,12.1145001 C15.8425039,11.9087752 16.0881557,11.6981521 16.2306337,11.4826308 C16.3927638,11.232822 16.6678938,10.9732168 17.0609366,10.7038152 C17.0805887,10.630342 17.0904148,10.4344135 17.1002409,10.1160298 C17.110067,9.79274781 17.0265454,9.44497479 16.8447631,9.07271071 C16.6678938,8.69554841 16.422242,8.50941638 16.1176339,8.50941638 C15.6852868,8.48982353 15.3855916,8.61717703 15.2038093,8.88657867 C15.0269401,9.1559803 14.9434185,9.48416048 14.9630706,9.8760174 C14.9827228,10.213994 15.0662444,10.5127849 15.2185484,10.7723901 C15.3708525,11.0319953 15.5084175,11.1593488 15.6361564,11.1593488 C15.8326778,11.139756 15.8965473,11.2132292 15.8228518,11.3748701 C15.714765,11.5707986 15.572287,11.6981521 15.3954177,11.7520324 C15.2676788,11.7863199 15.1301138,11.6687628 14.9778097,11.3895648 C14.8255056,11.1152649 14.7075928,10.7772883 14.6289842,10.3854314 C14.5503757,9.99357448 14.5159844,9.66049609 14.5356366,9.39599267 C14.5700278,8.84249476 14.7174189,8.31348791 14.9778097,7.80407391 C15.2382006,7.29465991 15.6115912,7.04974933 16.0930687,7.06934217 C16.5941983,7.08893502 16.9970671,7.39262414 17.3016753,7.98040953 C17.6062835,8.56819491 17.7487615,9.37150161 17.7340224,10.3903296 C17.7880658,10.5176831 17.9256308,10.561767 18.1516304,10.5225813 C18.372717,10.4882938 18.6724121,10.4833956 19.0359767,10.5078867 C19.4044543,10.5323778 19.6648452,10.630342 19.8269754,10.7870848 C19.8466275,10.7870848 19.8564536,10.654833 19.8564536,10.3854314 C19.5321933,8.1371523 20.333018,6.93709046 22.2491017,6.79504233 C22.5340577,6.84892265 22.7747964,6.91749761 22.9713178,6.995869 C23.1678392,7.07424039 23.3790997,7.21139031 23.6050994,7.39752235 C23.831099,7.58365439 24.0177943,7.85795424 24.1700984,8.21552368 C24.3224025,8.57309313 24.4452284,9.01883038 24.533663,9.55273544 L24.533663,10.5421742 C24.533663,11.1152649 24.4157502,11.4336487 24.1848375,11.5071219 C23.8065338,11.6295771 23.5412299,11.6295771 23.3790997,11.4924272 C23.2169696,11.3601755 23.2366217,11.1201631 23.4331431,10.7821865 C23.6100124,10.3364493 23.5756212,9.81723886 23.3250564,9.22945348 C23.0744916,8.64166809 22.6175793,8.37226645 21.9543196,8.42614678 C21.5072334,8.44573962 21.1829731,8.68575199 20.9864517,9.15108209 C20.7899302,9.61641219 20.7162347,10.0719459 20.7702781,10.5176831 C20.8243215,10.9634204 20.9225822,11.1985345 21.0650602,11.2132292 C21.173147,11.232822 21.4924943,11.3748701 22.018189,11.6442718 C22.5487968,11.9136734 22.9467527,12.0704162 23.2120566,12.1242965 C23.9097075,12.2663446 24.3076634,12.4916624 24.4059241,12.7953515 C24.5041848,13.0990406 24.4648805,13.5398797 24.2830982,14.1227668 C24.1013159,14.705654 24.0521856,15.1807805 24.120968,15.5579428 C24.1946636,15.9497997 24.3273155,16.3073692 24.5238369,16.6306512 C24.7203583,16.9539331 24.9316188,17.2478258 25.1527054,17.5123292 C25.378705,17.7817309 25.6390959,18.2813485 25.9437041,19.011182 C26.2483122,19.7459137 26.5234422,20.6618793 26.774007,21.7688751 C26.7936591,21.7884679 26.8575286,21.8472465 26.9754414,21.9550071 C27.0933543,22.0627678 27.2063541,22.1950195 27.3242669,22.3566605 C27.4421798,22.5183015 27.5797448,22.7338228 27.7418749,23.0130208 C27.9040051,23.2922189 28.0759613,23.6938722 28.2675697,24.2326755 C28.454265,24.7665806 28.6311343,25.3837552 28.7932644,26.0793013 C28.9897858,26.9022008 29.0929596,27.8573521 29.1027856,28.944755 C29.1126117,30.032158 29.1813942,30.7815844 29.3189592,31.1832377 C29.4516111,31.5848911 29.8004366,31.7514303 30.3556096,31.6779571 C31.0532606,31.6436696 31.5003468,31.2665073 31.6968682,30.5513684 C32.2864324,28.4794249 31.8049549,25.9960317 30.2475228,23.1060869 C29.6579586,21.9794982 29.147003,21.2398682 28.7146559,20.8822988 C29.3435244,21.2398682 29.987132,21.9109232 30.6503917,22.8905655 C31.3136514,23.8751061 31.7312594,24.7910716 31.9130417,25.6482587 C31.9326939,25.7364265 31.9818242,25.9764388 32.0604328,26.3584993 C32.1390413,26.7405598 32.1881717,26.9658776 32.1930847,27.0295543 C32.2029108,27.0932311 32.237302,27.2744649 32.3011715,27.578154 C32.3650409,27.8818431 32.3945192,28.0777716 32.3945192,28.1659394 C32.3945192,28.2541072 32.4043452,28.4304428 32.4190843,28.690048 C32.4387365,28.9496533 32.4338234,29.1504799 32.4043452,29.2925281 C32.3797801,29.4345762 32.3503018,29.6256065 32.3257367,29.870517 C32.3011715,30.1105294 32.2520411,30.3456436 32.1930847,30.5660631 C32.1292153,30.7913808 32.0653458,31.0362914 31.9916503,31.3007948 C32.9742573,31.7318374 33.4704738,32.1041015 33.4704738,32.4273835 C33.1019962,32.1236944 32.5615624,31.9277659 31.8639114,31.8298017 C31.1662604,31.7318374 30.5177398,31.8249034 29.9183495,32.1089997 C29.3189592,32.393096 29.009438,32.8682225 28.9897858,33.5294811 C28.3461782,33.5294811 27.889266,33.6911221 27.619049,34.014404 C27.2260062,34.4797341 27.0196588,35.1067052 27.0000066,35.9002155 C26.9803545,36.6937257 27.049137,37.5607092 27.2014411,38.4962676 C27.3537451,39.431826 27.4127016,40.0881864 27.3783103,40.4653487 Z M16.1176339,9.42048373 C16.0635905,9.40089088 16.0193732,9.34701055 15.9849819,9.25884275 C15.9849819,9.09720176 16.0635905,9.03352501 16.2257206,9.07271071 C16.3338074,9.10699819 16.4369811,9.24414811 16.5352418,9.47436405 C16.6335025,9.70458 16.6580677,9.97398163 16.6040243,10.2776708 C16.6040243,10.3315511 16.5794592,10.3560421 16.5254158,10.3560421 C16.3288944,10.3560421 16.2551988,10.1797065 16.3092422,9.82213708 C16.3632856,9.55273544 16.2994162,9.42048373 16.1176339,9.42048373 Z M23.0794046,9.85152635 L23.0253612,9.92989773 C22.8828832,10.0180655 22.8091877,10.0376584 22.8091877,9.98377806 C22.7354921,9.50375332 22.578275,9.22455526 22.3277102,9.15108209 L22.2196235,9.09720176 C22.0918845,8.98944111 22.155754,8.92576436 22.4063188,8.91106972 C22.4603622,8.89147688 22.5389707,8.92086615 22.6470575,8.98944111 C22.7551443,9.06291428 22.853405,9.17067494 22.9418396,9.3225195 C23.0351873,9.47926227 23.0794046,9.65069967 23.0794046,9.85152635 Z" id="Shape"></path>
                            <path d="M16.8201979,11.4042594 C16.8201979,11.5120201 16.8644152,11.556104 16.9528498,11.5365111 C17.0265454,11.5365111 17.1002409,11.4532415 17.1788494,11.2818041 C17.257458,11.1103667 17.399936,11.0173007 17.5964574,11.0026061 L17.5964574,11.0026061 L17.3262405,11.0026061 C16.9872411,11.0564864 16.8201979,11.1887381 16.8201979,11.4042594 Z" id="Path"></path>
                            <path d="M19.1538896,11.0809774 C19.3307588,11.0270971 19.4879759,11.0662828 19.6255409,11.2034327 C19.7581929,11.3356845 19.8613666,11.394463 19.9350621,11.3748701 C20.0431489,11.3209898 20.0677141,11.2426184 20.0136707,11.1348578 C19.8711927,10.9046418 19.5862366,10.885049 19.1538896,11.0809774 Z" id="Path"></path>
                        </g>
                    </g>
                </g>
            </g>
        </g>
    </g>
</svg>