<?xml version="1.0" encoding="UTF-8"?>
<svg width="64px" height="64px" viewBox="0 0 64 64" version="1.1" xmlns="http://www.w3.org/2000/svg" xmlns:xlink="http://www.w3.org/1999/xlink">
    <title>Apple</title>
    <g id="Page-1" stroke="none" stroke-width="1" fill="none" fill-rule="evenodd">
        <g id="1-Light-Mode-2" transform="translate(-264.000000, -544.000000)">
            <g id="Group" transform="translate(144.000000, 512.000000)">
                <g id="Desktop-Apps" transform="translate(0.000000, 32.000000)">
                    <g id="Apple" transform="translate(120.000000, 0.000000)">
                        <path d="M10.2555408,-4.14336123e-16 L53.7444592,4.14336123e-16 C57.3105342,-2.4074122e-16 58.6036791,0.371302445 59.9073828,1.06853082 C61.2110865,1.76575919 62.2342408,2.78891348 62.9314692,4.09261719 C63.6286976,5.39632089 64,6.68946584 64,10.2555408 L64,53.7444592 C64,57.3105342 63.6286976,58.6036791 62.9314692,59.9073828 C62.2342408,61.2110865 61.2110865,62.2342408 59.9073828,62.9314692 C58.6036791,63.6286976 57.3105342,64 53.7444592,64 L10.2555408,64 C6.68946584,64 5.39632089,63.6286976 4.09261719,62.9314692 C2.78891348,62.2342408 1.76575919,61.2110865 1.06853082,59.9073828 C0.371302445,58.6036791 1.60494146e-16,57.3105342 -2.76224082e-16,53.7444592 L2.76224082e-16,10.2555408 C-1.60494146e-16,6.68946584 0.371302445,5.39632089 1.06853082,4.09261719 C1.76575919,2.78891348 2.78891348,1.76575919 4.09261719,1.06853082 C5.39632089,0.371302445 6.68946584,2.4074122e-16 10.2555408,-4.14336123e-16 Z" id="Background" fill="#E3E2E2ff"></path>
                        <g id="Apple-Icon" transform="translate(10.666667, 7.111111)" fill="#414141ff" fill-rule="nonzero">
                            <path d="M25.837566,10.3449255 C26.9854209,9.41989743 27.9735743,8.32577817 28.7621008,7.07251428 C29.660422,5.59048 30.2293589,3.92940802 30.4689112,2.21860335 C30.5387806,1.48255948 30.5886874,0.726622534 30.3790791,0.0104717413 C30.0496946,-0.0392609527 29.7502542,0.0999905903 29.4408324,0.179562901 C27.6841153,0.656996762 25.9872862,1.41293371 24.5599535,2.53689259 C23.5318748,3.35250877 22.7034229,4.41678842 22.0845794,5.58053346 C20.9866312,7.54994814 20.5374705,9.81775898 20.4975451,12.0656767 C21.4357918,11.9662114 22.3740385,11.8965856 23.2823411,11.6379756 C24.2205877,11.4290983 25.0789836,10.9417179 25.837566,10.3449255 Z" id="Path"></path>
                            <path d="M38.653616,34.3956563 C36.9468056,32.7047447 35.6592118,30.5562924 35.2200325,28.1989627 C34.7509092,25.8217399 35.0104242,23.2654794 36.1283352,21.1070805 C36.75716,19.8538166 37.6554813,18.7497508 38.653616,17.7650435 C39.2125715,17.2080373 39.8114523,16.7007638 40.3604264,16.1338111 C39.5818814,15.1689969 38.6935414,14.303648 37.7353321,13.5178714 C36.6773093,12.6923087 35.4595849,12.0756233 34.1719911,11.6976548 C32.674789,11.240114 31.0977361,11.2003279 29.5606086,11.3097398 C28.2630334,11.4887775 26.9854209,11.8170133 25.7377525,12.2347679 C24.2804758,12.6923087 22.8231991,13.2493149 21.2860716,13.289101 C19.19997,13.0901702 17.2336446,12.2944471 15.177487,11.8866391 C14.029632,11.6379756 12.8618144,11.498724 11.6939968,11.5086706 C9.56796976,11.5186171 7.44194277,12.1750887 5.74511371,13.4382991 C3.51927324,15.1292107 1.90229497,17.5263265 1.02393639,20.1621593 C0.335223425,22.1514671 0.0557456984,24.2501868 0.00583896147,26.3389599 C-0.0440677755,28.7559688 0.225428604,31.1530847 0.834290795,33.4905213 C1.80248149,37.250313 3.49931055,40.7912808 5.62533754,44.0338524 C6.85304327,45.854069 8.2504319,47.6146064 10.1468879,48.7982445 C11.0951159,49.3651972 12.1731014,49.822738 13.3009937,49.7730053 C14.9578973,49.8426311 16.5050062,49.1364268 18.0121896,48.5694741 C19.19997,48.1417729 20.4176944,47.8135371 21.6853255,47.7936441 C23.3422292,47.8334302 24.9392447,48.3108641 26.4863536,48.8579237 C28.0634065,49.3751437 29.7402728,49.9122568 31.4171392,49.6138607 C32.9143413,49.3154645 34.1919538,48.3904364 35.2799206,47.3659429 C36.7371973,45.9535344 37.905015,44.2825159 38.9530565,42.5518181 C39.9711539,40.8609065 40.8694752,39.1003692 41.5082814,37.250313 C41.6080949,36.9419703 41.7578151,36.6435741 41.7777778,36.3153383 C40.5999788,35.9373698 39.541956,35.2411121 38.653616,34.3956563 Z" id="Path"></path>
                        </g>
                    </g>
                </g>
            </g>
        </g>
    </g>
</svg>