<?xml version="1.0" encoding="UTF-8"?>
<svg width="304px" height="112px" viewBox="0 0 304 112" version="1.1" xmlns="http://www.w3.org/2000/svg" xmlns:xlink="http://www.w3.org/1999/xlink">
    <title>Logo/Name/Blink</title>
    <g id="Logo/Name/Blink" stroke="none" stroke-width="1" fill="none" fill-rule="evenodd">
        <g id="1-Logo/Name-Blink" transform="translate(13.000000, 8.000000)">
            <g id="1-Logo/Name" transform="translate(0.000000, 16.400000)" fill="#5445C4FF" fill-rule="nonzero">
                <g id="floro">
                    <path d="M6.9,72.6 L6.9,35.2 L0,35.2 L0,21.7 L7.1,21.7 L7.1,21.2 C7.1,18.0666667 7.4,15.3166667 8,12.95 C8.6,10.5833333 9.46666667,8.56666667 10.6,6.9 C11.7333333,5.23333333 13.1333333,3.9 14.8,2.9 C16.4666667,1.9 18.3833333,1.16666667 20.55,0.7 C22.7166667,0.233333333 25.1333333,0 27.8,0 C28.9333333,0 30.2333333,0.1 31.7,0.3 C33.1666667,0.5 34.3333333,0.766666667 35.2,1.1 L35.2,17.2 C34.4666667,16.2666667 33.7166667,15.5166667 32.95,14.95 C32.1833333,14.3833333 31.0333333,14.1 29.5,14.1 C28.7666667,14.1 28.1333333,14.2166667 27.6,14.45 C27.0666667,14.6833333 26.6333333,15 26.3,15.4 C25.9666667,15.8 25.7166667,16.2833333 25.55,16.85 C25.3833333,17.4166667 25.3,18 25.3,18.6 L25.3,21.7 L35.2,21.7 L35.2,35.2 L25.1,35.2 L25.1,72.6 L6.9,72.6 Z M61.7,72.6 L43.7,72.6 L43.7,2.6 L61.7,2.6 L61.7,72.6 Z" id="Shape"></path>
                    <path d="M97.5,74.1 C88.6333333,74.1 81.95,71.8333333 77.45,67.3 C72.95,62.7666667 70.7,55.9333333 70.7,46.8 C70.7,36.8666667 72.95,29.8666667 77.45,25.8 C81.95,21.7333333 88.6333333,19.7 97.5,19.7 C103.3,19.7 108.216667,20.5833333 112.25,22.35 C116.283333,24.1166667 119.35,26.9833333 121.45,30.95 C123.55,34.9166667 124.6,40.2 124.6,46.8 C124.6,55.9333333 122.266667,62.7666667 117.6,67.3 C112.933333,71.8333333 106.233333,74.1 97.5,74.1 Z M97.5,59.9 C99.3,59.9 100.883333,59.45 102.25,58.55 C103.616667,57.65 104.683333,56.2333333 105.45,54.3 C106.216667,52.3666667 106.6,49.8666667 106.6,46.8 C106.6,43.1333333 106.216667,40.3666667 105.45,38.5 C104.683333,36.6333333 103.616667,35.3666667 102.25,34.7 C100.883333,34.0333333 99.3,33.7 97.5,33.7 C95.6333333,33.7 94.0333333,34.0333333 92.7,34.7 C91.3666667,35.3666667 90.3666667,36.6333333 89.7,38.5 C89.0333333,40.3666667 88.7,43.1333333 88.7,46.8 C88.7,51.5333333 89.45,54.9 90.95,56.9 C92.45,58.9 94.6333333,59.9 97.5,59.9 Z" id="Shape"></path>
                    <path d="M133.6,72.6 L133.6,27.6 C134.6,26.6 136.316667,25.5166667 138.75,24.35 C141.183333,23.1833333 143.933333,22.1666667 147,21.3 C150.066667,20.4333333 153.066667,20 156,20 C160.266667,20 163.566667,20.3 165.9,20.9 C168.233333,21.5 169.966667,22.2666667 171.1,23.2 L171.1,36.1 C170.166667,35.8333333 168.816667,35.5833333 167.05,35.35 C165.283333,35.1166667 163.4,34.95 161.4,34.85 C159.4,34.75 157.533333,34.7 155.8,34.7 C154.066667,34.7 152.733333,34.7666667 151.8,34.9 L151.8,72.6 L133.6,72.6 Z" id="Path"></path>
                    <path d="M202.4,74.1 C193.533333,74.1 186.85,71.8333333 182.35,67.3 C177.85,62.7666667 175.6,55.9333333 175.6,46.8 C175.6,36.8666667 177.85,29.8666667 182.35,25.8 C186.85,21.7333333 193.533333,19.7 202.4,19.7 C208.2,19.7 213.116667,20.5833333 217.15,22.35 C221.183333,24.1166667 224.25,26.9833333 226.35,30.95 C228.45,34.9166667 229.5,40.2 229.5,46.8 C229.5,55.9333333 227.166667,62.7666667 222.5,67.3 C217.833333,71.8333333 211.133333,74.1 202.4,74.1 Z M202.4,59.9 C204.2,59.9 205.783333,59.45 207.15,58.55 C208.516667,57.65 209.583333,56.2333333 210.35,54.3 C211.116667,52.3666667 211.5,49.8666667 211.5,46.8 C211.5,43.1333333 211.116667,40.3666667 210.35,38.5 C209.583333,36.6333333 208.516667,35.3666667 207.15,34.7 C205.783333,34.0333333 204.2,33.7 202.4,33.7 C200.533333,33.7 198.933333,34.0333333 197.6,34.7 C196.266667,35.3666667 195.266667,36.6333333 194.6,38.5 C193.933333,40.3666667 193.6,43.1333333 193.6,46.8 C193.6,51.5333333 194.35,54.9 195.85,56.9 C197.35,58.9 199.533333,59.9 202.4,59.9 Z" id="Shape"></path>
                </g>
            </g>
            <g id="Blink" transform="translate(235.000000, 0.000000)" stroke="#FB8202FF" stroke-linecap="round" stroke-width="6">
                <path d="M0,28.7872971 L2.15959745,0 M14.1743783,45.8255491 L47.6196539,47.1449619 M9.27414216,35.9844967 L42.954051,11.2665228"></path>
            </g>
        </g>
    </g>
</svg>