<?xml version="1.0" encoding="UTF-8"?>
<svg width="455px" height="218px" viewBox="0 0 455 218" version="1.1" xmlns="http://www.w3.org/2000/svg" xmlns:xlink="http://www.w3.org/1999/xlink">
    <title>Group</title>
    <g id="Page-1" stroke="none" stroke-width="1" fill="none" fill-rule="evenodd">
        <g id="Artboard" transform="translate(-206.000000, -848.000000)">
            <g id="Group" transform="translate(209.500000, 848.728000)">
                <g id="B" transform="translate(162.435000, 43.582000)" fill="#5445C4ff" fill-rule="nonzero">
                    <path d="M0,46.69 L0,0 L21.63,0 C24.7566667,0 27.6266667,0.373333333 30.24,1.12 C32.8533333,1.86666667 34.965,3.185 36.575,5.075 C38.185,6.965 38.99,9.63666667 38.99,13.09 C38.99,15.2366667 38.3833333,17.045 37.17,18.515 C35.9566667,19.985 34.51,21.14 32.83,21.98 C31.15,22.82 29.5866667,23.4266667 28.14,23.8 L26.53,20.65 C29.6566667,20.65 32.305,21.1283333 34.475,22.085 C36.645,23.0416667 38.3133333,24.3833333 39.48,26.11 C40.6466667,27.8366667 41.23,29.8666667 41.23,32.2 C41.23,35.5133333 40.4016667,38.2433333 38.745,40.39 C37.0883333,42.5366667 34.93,44.1233333 32.27,45.15 C29.61,46.1766667 26.7633333,46.69 23.73,46.69 L0,46.69 Z M14.07,36.19 L22.4,36.19 C23.1933333,36.19 23.9166667,36.0266667 24.57,35.7 C25.2233333,35.3733333 25.7483333,34.8716667 26.145,34.195 C26.5416667,33.5183333 26.74,32.69 26.74,31.71 C26.74,30.9633333 26.6233333,30.3216667 26.39,29.785 C26.1566667,29.2483333 25.8416667,28.805 25.445,28.455 C25.0483333,28.105 24.57,27.8366667 24.01,27.65 C23.45,27.4633333 22.8433333,27.37 22.19,27.37 L14.07,27.37 L14.07,36.19 Z M14,17.57 L22.05,17.57 C22.5166667,17.57 22.9483333,17.4183333 23.345,17.115 C23.7416667,16.8116667 24.0683333,16.415 24.325,15.925 C24.5816667,15.435 24.71,14.8866667 24.71,14.28 C24.71,12.9266667 24.3483333,11.9583333 23.625,11.375 C22.9016667,10.7916667 22.1433333,10.5 21.35,10.5 L14,10.5 L14,17.57 Z" id="Shape"></path>
                </g>
                <g id="C" transform="translate(313.945000, 42.392000)" fill="#5445C4ff" fill-rule="nonzero">
                    <path d="M23.59,48.93 C15.9833333,48.93 10.15,46.9816667 6.09,43.085 C2.03,39.1883333 0,33.0166667 0,24.57 C0,16.4966667 1.925,10.3833333 5.775,6.23 C9.625,2.07666667 15.5633333,0 23.59,0 C26.0633333,0 28.595,0.303333333 31.185,0.91 C33.775,1.51666667 36.2833333,2.35666667 38.71,3.43 L38.71,15.4 C36.1433333,13.6266667 33.7516667,12.3666667 31.535,11.62 C29.3183333,10.8733333 27.3233333,10.5 25.55,10.5 C23.31,10.5 21.3616667,10.92 19.705,11.76 C18.0483333,12.6 16.765,14.035 15.855,16.065 C14.945,18.095 14.49,20.9533333 14.49,24.64 C14.49,28.2333333 14.9566667,31.0333333 15.89,33.04 C16.8233333,35.0466667 18.165,36.4466667 19.915,37.24 C21.665,38.0333333 23.7766667,38.43 26.25,38.43 C27.6966667,38.43 29.4933333,38.0683333 31.64,37.345 C33.7866667,36.6216667 36.1433333,35.3966667 38.71,33.67 L38.71,45.64 C37.4966667,46.2933333 36.0266667,46.865 34.3,47.355 C32.5733333,47.845 30.7766667,48.23 28.91,48.51 C27.0433333,48.79 25.27,48.93 23.59,48.93 Z" id="Path"></path>
                </g>
                <g id="[]" transform="translate(94.444000, 0.000000)" fill="#414141ff" fill-rule="nonzero">
                    <polygon id="Path" points="0 25.984 0 0 7.728 0 7.728 3.648 4.352 3.648 4.352 22.32 7.728 22.32 7.728 25.984"></polygon>
                    <polygon id="Path" points="12 25.984 12 22.336 15.36 22.336 15.36 3.664 12 3.664 12 0 19.712 0 19.712 25.984"></polygon>
                </g>
                <g id="[]" transform="translate(248.444000, 0.000000)" fill="#414141ff" fill-rule="nonzero">
                    <polygon id="Path" points="0 25.984 0 0 7.728 0 7.728 3.648 4.352 3.648 4.352 22.32 7.728 22.32 7.728 25.984"></polygon>
                    <polygon id="Path" points="12 25.984 12 22.336 15.36 22.336 15.36 3.664 12 3.664 12 0 19.712 0 19.712 25.984"></polygon>
                </g>
                <g id="[D]" transform="translate(390.444000, 0.000000)" fill-rule="nonzero">
                    <polygon id="Path" fill="#414141ff" points="0 25.984 0 0 7.728 0 7.728 3.648 4.352 3.648 4.352 22.32 7.728 22.32 7.728 25.984"></polygon>
                    <path d="M12.016,22.272 L12.016,0.928 L20.048,0.928 C23.5893333,0.928 26.208,1.82666667 27.904,3.624 C29.6,5.42133333 30.448,8.08 30.448,11.6 C30.448,15.1093333 29.6,17.7653333 27.904,19.568 C26.208,21.3706667 23.5893333,22.272 20.048,22.272 L12.016,22.272 Z M16.368,18.784 L19.568,18.784 C21.7226667,18.784 23.3306667,18.2106667 24.392,17.064 C25.4533333,15.9173333 25.984,14.096 25.984,11.6 C25.984,9.09333333 25.4533333,7.26666667 24.392,6.12 C23.3306667,4.97333333 21.7226667,4.4 19.568,4.4 L16.368,4.4 L16.368,18.784 Z" id="Shape" fill="#23C2B8FF"></path>
                    <polygon id="Path" fill="#414141ff" points="34.352 25.984 34.352 22.336 37.712 22.336 37.712 3.664 34.352 3.664 34.352 0 42.064 0 42.064 25.984"></polygon>
                </g>
                <g id="[A]" transform="translate(83.444000, 119.000000)" fill-rule="nonzero">
                    <polygon id="Path" fill="#414141ff" points="0 25.984 0 0 7.728 0 7.728 3.648 4.352 3.648 4.352 22.32 7.728 22.32 7.728 25.984"></polygon>
                    <path d="M10.096,22.272 L18.288,0.928 L22.992,0.928 L30.816,22.272 L26.304,22.272 L19.328,2.4 L21.264,2.224 L14.304,22.272 L10.096,22.272 Z M14.416,17.072 L15.456,13.728 L25.376,13.728 L25.76,17.072 L14.416,17.072 Z" id="Shape" fill="#23C2B8FF"></path>
                    <polygon id="Path" fill="#414141ff" points="33.68 25.984 33.68 22.336 37.04 22.336 37.04 3.664 33.68 3.664 33.68 0 41.392 0 41.392 25.984"></polygon>
                </g>
                <g id="+" transform="translate(20.580000, 120.616000)" fill="#5445C4ff" fill-rule="nonzero">
                    <polygon id="Path" points="8.768 22.976 8.768 14.272 0 14.272 0 8.768 8.768 8.768 8.768 0 14.272 0 14.272 8.768 22.976 8.768 22.976 14.272 14.272 14.272 14.272 22.976"></polygon>
                </g>
                <g id="[]" transform="translate(248.444000, 117.000000)" fill="#414141ff" fill-rule="nonzero">
                    <polygon id="Path" points="0 25.984 0 0 7.728 0 7.728 3.648 4.352 3.648 4.352 22.32 7.728 22.32 7.728 25.984"></polygon>
                    <polygon id="Path" points="12 25.984 12 22.336 15.36 22.336 15.36 3.664 12 3.664 12 0 19.712 0 19.712 25.984"></polygon>
                </g>
                <g id="[]" transform="translate(400.444000, 117.000000)" fill="#414141ff" fill-rule="nonzero">
                    <polygon id="Path" points="0 25.984 0 0 7.728 0 7.728 3.648 4.352 3.648 4.352 22.32 7.728 22.32 7.728 25.984"></polygon>
                    <polygon id="Path" points="12 25.984 12 22.336 15.36 22.336 15.36 3.664 12 3.664 12 0 19.712 0 19.712 25.984"></polygon>
                </g>
                <g id="[A]" transform="translate(83.444000, 191.000000)" fill-rule="nonzero">
                    <polygon id="Path" fill="#414141ff" points="0 25.984 0 0 7.728 0 7.728 3.648 4.352 3.648 4.352 22.32 7.728 22.32 7.728 25.984"></polygon>
                    <path d="M10.096,22.272 L18.288,0.928 L22.992,0.928 L30.816,22.272 L26.304,22.272 L19.328,2.4 L21.264,2.224 L14.304,22.272 L10.096,22.272 Z M14.416,17.072 L15.456,13.728 L25.376,13.728 L25.76,17.072 L14.416,17.072 Z" id="Shape" fill="#23C2B8FF"></path>
                    <polygon id="Path" fill="#414141ff" points="33.68 25.984 33.68 22.336 37.04 22.336 37.04 3.664 33.68 3.664 33.68 0 41.392 0 41.392 25.984"></polygon>
                </g>
                <g id="[]" transform="translate(248.444000, 191.000000)" fill="#414141ff" fill-rule="nonzero">
                    <polygon id="Path" points="0 25.984 0 0 7.728 0 7.728 3.648 4.352 3.648 4.352 22.32 7.728 22.32 7.728 25.984"></polygon>
                    <polygon id="Path" points="12 25.984 12 22.336 15.36 22.336 15.36 3.664 12 3.664 12 0 19.712 0 19.712 25.984"></polygon>
                </g>
                <g id="[D]" transform="translate(390.444000, 191.000000)" fill-rule="nonzero">
                    <polygon id="Path" fill="#414141ff" points="0 25.984 0 0 7.728 0 7.728 3.648 4.352 3.648 4.352 22.32 7.728 22.32 7.728 25.984"></polygon>
                    <path d="M12.016,22.272 L12.016,0.928 L20.048,0.928 C23.5893333,0.928 26.208,1.82666667 27.904,3.624 C29.6,5.42133333 30.448,8.08 30.448,11.6 C30.448,15.1093333 29.6,17.7653333 27.904,19.568 C26.208,21.3706667 23.5893333,22.272 20.048,22.272 L12.016,22.272 Z M16.368,18.784 L19.568,18.784 C21.7226667,18.784 23.3306667,18.2106667 24.392,17.064 C25.4533333,15.9173333 25.984,14.096 25.984,11.6 C25.984,9.09333333 25.4533333,7.26666667 24.392,6.12 C23.3306667,4.97333333 21.7226667,4.4 19.568,4.4 L16.368,4.4 L16.368,18.784 Z" id="Shape" fill="#23C2B8FF"></path>
                    <polygon id="Path" fill="#414141ff" points="34.352 25.984 34.352 22.336 37.712 22.336 37.712 3.664 34.352 3.664 34.352 0 42.064 0 42.064 25.984"></polygon>
                </g>
                <line x1="67" y1="63.772" x2="141" y2="63.772" id="Line" stroke="#7C7C7Cff" stroke-width="6" stroke-linecap="square"></line>
                <line x1="6.21031004e-15" y1="163.772" x2="447.5" y2="164.272" id="Line" stroke="#7C7C7Cff" stroke-width="6" stroke-linecap="square"></line>
                <line x1="221" y1="63.772" x2="295" y2="63.772" id="Line" stroke="#7C7C7Cff" stroke-width="6" stroke-linecap="square"></line>
                <line x1="373" y1="63.772" x2="447" y2="63.772" id="Line" stroke="#7C7C7Cff" stroke-width="6" stroke-linecap="square"></line>
            </g>
        </g>
    </g>
</svg>