<?xml version="1.0" encoding="UTF-8"?>
<svg width="335px" height="590px" viewBox="0 0 335 590" version="1.1" xmlns="http://www.w3.org/2000/svg" xmlns:xlink="http://www.w3.org/1999/xlink">
    <title>Diamond Color</title>
    <g id="Page-1" stroke="none" stroke-width="1" fill="none" fill-rule="evenodd">
        <g id="Artboard" transform="translate(-53.000000, -30.000000)">
            <g id="Diamond-Color" transform="translate(53.000000, 30.000000)">
                <circle id="Oval" stroke="#7C7C7Cff" stroke-width="4" fill="#FFFF00FF" cx="33.5" cy="283.5" r="31.5"></circle>
                <circle id="Oval" stroke="#7C7C7Cff" stroke-width="4" fill="#FF00FFFF" cx="301.5" cy="283.5" r="31.5"></circle>
                <circle id="Oval" stroke="#7C7C7Cff" stroke-width="4" fill="#FF3D43FF" cx="167.5" cy="33.5" r="31.5"></circle>
                <g id="FF0000" transform="translate(138.040000, 96.088000)" fill-rule="nonzero">
                    <polygon id="Path" fill="#FF3D43FF" points="0 10.912 0 0.24 7.568 0.24 7.568 2.64 3.2 2.64 3.2 4.688 6.944 4.688 6.944 7.104 3.2 7.104 3.2 10.912"></polygon>
                    <polygon id="Path" fill="#FF3D43FF" points="9.328 10.912 9.328 0.24 16.896 0.24 16.896 2.64 12.528 2.64 12.528 4.688 16.272 4.688 16.272 7.104 12.528 7.104 12.528 10.912"></polygon>
                    <path d="M23.008,11.136 C21.3226667,11.136 20.096,10.6746667 19.328,9.752 C18.56,8.82933333 18.176,7.43466667 18.176,5.568 C18.176,3.712 18.56,2.32 19.328,1.392 C20.096,0.464 21.3226667,-2.84217094e-14 23.008,-2.84217094e-14 C24.7146667,-2.84217094e-14 25.9493333,0.464 26.712,1.392 C27.4746667,2.32 27.856,3.712 27.856,5.568 C27.856,7.43466667 27.4746667,8.82933333 26.712,9.752 C25.9493333,10.6746667 24.7146667,11.136 23.008,11.136 Z M23.008,8.592 C23.2106667,8.592 23.4053333,8.55466667 23.592,8.48 C23.7786667,8.40533333 23.9466667,8.264 24.096,8.056 C24.2453333,7.848 24.3653333,7.544 24.456,7.144 C24.5466667,6.744 24.592,6.21866667 24.592,5.568 C24.592,4.928 24.5466667,4.41066667 24.456,4.016 C24.3653333,3.62133333 24.2453333,3.32 24.096,3.112 C23.9466667,2.904 23.7786667,2.76 23.592,2.68 C23.4053333,2.6 23.2106667,2.56 23.008,2.56 C22.816,2.56 22.6266667,2.6 22.44,2.68 C22.2533333,2.76 22.0853333,2.904 21.936,3.112 C21.7866667,3.32 21.6693333,3.62133333 21.584,4.016 C21.4986667,4.41066667 21.456,4.928 21.456,5.568 C21.456,6.21866667 21.4986667,6.744 21.584,7.144 C21.6693333,7.544 21.7866667,7.848 21.936,8.056 C22.0853333,8.264 22.2533333,8.40533333 22.44,8.48 C22.6266667,8.55466667 22.816,8.592 23.008,8.592 Z" id="Shape" fill="#23C2B8FF"></path>
                    <path d="M33.808,11.136 C32.1226667,11.136 30.896,10.6746667 30.128,9.752 C29.36,8.82933333 28.976,7.43466667 28.976,5.568 C28.976,3.712 29.36,2.32 30.128,1.392 C30.896,0.464 32.1226667,-2.84217094e-14 33.808,-2.84217094e-14 C35.5146667,-2.84217094e-14 36.7493333,0.464 37.512,1.392 C38.2746667,2.32 38.656,3.712 38.656,5.568 C38.656,7.43466667 38.2746667,8.82933333 37.512,9.752 C36.7493333,10.6746667 35.5146667,11.136 33.808,11.136 Z M33.808,8.592 C34.0106667,8.592 34.2053333,8.55466667 34.392,8.48 C34.5786667,8.40533333 34.7466667,8.264 34.896,8.056 C35.0453333,7.848 35.1653333,7.544 35.256,7.144 C35.3466667,6.744 35.392,6.21866667 35.392,5.568 C35.392,4.928 35.3466667,4.41066667 35.256,4.016 C35.1653333,3.62133333 35.0453333,3.32 34.896,3.112 C34.7466667,2.904 34.5786667,2.76 34.392,2.68 C34.2053333,2.6 34.0106667,2.56 33.808,2.56 C33.616,2.56 33.4266667,2.6 33.24,2.68 C33.0533333,2.76 32.8853333,2.904 32.736,3.112 C32.5866667,3.32 32.4693333,3.62133333 32.384,4.016 C32.2986667,4.41066667 32.256,4.928 32.256,5.568 C32.256,6.21866667 32.2986667,6.744 32.384,7.144 C32.4693333,7.544 32.5866667,7.848 32.736,8.056 C32.8853333,8.264 33.0533333,8.40533333 33.24,8.48 C33.4266667,8.55466667 33.616,8.592 33.808,8.592 Z" id="Shape" fill="#23C2B8FF"></path>
                    <path d="M44.608,11.136 C42.9226667,11.136 41.696,10.6746667 40.928,9.752 C40.16,8.82933333 39.776,7.43466667 39.776,5.568 C39.776,3.712 40.16,2.32 40.928,1.392 C41.696,0.464 42.9226667,-2.84217094e-14 44.608,-2.84217094e-14 C46.3146667,-2.84217094e-14 47.5493333,0.464 48.312,1.392 C49.0746667,2.32 49.456,3.712 49.456,5.568 C49.456,7.43466667 49.0746667,8.82933333 48.312,9.752 C47.5493333,10.6746667 46.3146667,11.136 44.608,11.136 Z M44.608,8.592 C44.8106667,8.592 45.0053333,8.55466667 45.192,8.48 C45.3786667,8.40533333 45.5466667,8.264 45.696,8.056 C45.8453333,7.848 45.9653333,7.544 46.056,7.144 C46.1466667,6.744 46.192,6.21866667 46.192,5.568 C46.192,4.928 46.1466667,4.41066667 46.056,4.016 C45.9653333,3.62133333 45.8453333,3.32 45.696,3.112 C45.5466667,2.904 45.3786667,2.76 45.192,2.68 C45.0053333,2.6 44.8106667,2.56 44.608,2.56 C44.416,2.56 44.2266667,2.6 44.04,2.68 C43.8533333,2.76 43.6853333,2.904 43.536,3.112 C43.3866667,3.32 43.2693333,3.62133333 43.184,4.016 C43.0986667,4.41066667 43.056,4.928 43.056,5.568 C43.056,6.21866667 43.0986667,6.744 43.184,7.144 C43.2693333,7.544 43.3866667,7.848 43.536,8.056 C43.6853333,8.264 43.8533333,8.40533333 44.04,8.48 C44.2266667,8.55466667 44.416,8.592 44.608,8.592 Z" id="Shape" fill="#1C82F4FF"></path>
                    <path d="M55.408,11.136 C53.7226667,11.136 52.496,10.6746667 51.728,9.752 C50.96,8.82933333 50.576,7.43466667 50.576,5.568 C50.576,3.712 50.96,2.32 51.728,1.392 C52.496,0.464 53.7226667,-2.84217094e-14 55.408,-2.84217094e-14 C57.1146667,-2.84217094e-14 58.3493333,0.464 59.112,1.392 C59.8746667,2.32 60.256,3.712 60.256,5.568 C60.256,7.43466667 59.8746667,8.82933333 59.112,9.752 C58.3493333,10.6746667 57.1146667,11.136 55.408,11.136 Z M55.408,8.592 C55.6106667,8.592 55.8053333,8.55466667 55.992,8.48 C56.1786667,8.40533333 56.3466667,8.264 56.496,8.056 C56.6453333,7.848 56.7653333,7.544 56.856,7.144 C56.9466667,6.744 56.992,6.21866667 56.992,5.568 C56.992,4.928 56.9466667,4.41066667 56.856,4.016 C56.7653333,3.62133333 56.6453333,3.32 56.496,3.112 C56.3466667,2.904 56.1786667,2.76 55.992,2.68 C55.8053333,2.6 55.6106667,2.56 55.408,2.56 C55.216,2.56 55.0266667,2.6 54.84,2.68 C54.6533333,2.76 54.4853333,2.904 54.336,3.112 C54.1866667,3.32 54.0693333,3.62133333 53.984,4.016 C53.8986667,4.41066667 53.856,4.928 53.856,5.568 C53.856,6.21866667 53.8986667,6.744 53.984,7.144 C54.0693333,7.544 54.1866667,7.848 54.336,8.056 C54.4853333,8.264 54.6533333,8.40533333 54.84,8.48 C55.0266667,8.55466667 55.216,8.592 55.408,8.592 Z" id="Shape" fill="#1C82F4FF"></path>
                </g>
                <circle id="Oval" stroke="#7C7C7Cff" stroke-width="4" fill="#FFFFFFFF" cx="167.5" cy="532.5" r="31.5"></circle>
                <g id="FFFFFF" transform="translate(140.040000, 579.328000)" fill-rule="nonzero">
                    <polygon id="Path" fill="#FF3D43FF" points="0 10.672 0 0 7.568 0 7.568 2.4 3.2 2.4 3.2 4.448 6.944 4.448 6.944 6.864 3.2 6.864 3.2 10.672"></polygon>
                    <polygon id="Path" fill="#FF3D43FF" points="9.328 10.672 9.328 0 16.896 0 16.896 2.4 12.528 2.4 12.528 4.448 16.272 4.448 16.272 6.864 12.528 6.864 12.528 10.672"></polygon>
                    <polygon id="Path" fill="#23C2B8FF" points="18.656 10.672 18.656 0 26.224 0 26.224 2.4 21.856 2.4 21.856 4.448 25.6 4.448 25.6 6.864 21.856 6.864 21.856 10.672"></polygon>
                    <polygon id="Path" fill="#23C2B8FF" points="27.984 10.672 27.984 0 35.552 0 35.552 2.4 31.184 2.4 31.184 4.448 34.928 4.448 34.928 6.864 31.184 6.864 31.184 10.672"></polygon>
                    <polygon id="Path" fill="#1C82F4FF" points="37.312 10.672 37.312 0 44.88 0 44.88 2.4 40.512 2.4 40.512 4.448 44.256 4.448 44.256 6.864 40.512 6.864 40.512 10.672"></polygon>
                    <polygon id="Path" fill="#1C82F4FF" points="46.64 10.672 46.64 0 54.208 0 54.208 2.4 49.84 2.4 49.84 4.448 53.584 4.448 53.584 6.864 49.84 6.864 49.84 10.672"></polygon>
                </g>
                <line x1="151.131777" y1="62" x2="50.5" y2="254.5" id="Line" stroke="#7C7C7Cff" stroke-width="3" stroke-linecap="square"></line>
                <line x1="182.131777" y1="62" x2="285.5" y2="254.5" id="Line" stroke="#7C7C7Cff" stroke-width="3" stroke-linecap="square"></line>
                <line x1="150.131777" y1="311" x2="49.5" y2="503.5" id="Line" stroke="#7C7C7Cff" stroke-width="3" stroke-linecap="square" transform="translate(100.000000, 407.500000) scale(1, -1) translate(-100.000000, -407.500000) "></line>
                <line x1="181.131777" y1="311" x2="284.5" y2="503.5" id="Line" stroke="#7C7C7Cff" stroke-width="3" stroke-linecap="square" transform="translate(232.500000, 407.500000) scale(1, -1) translate(-232.500000, -407.500000) "></line>
                <g id="FFFF00" transform="translate(3.040000, 334.088000)" fill-rule="nonzero">
                    <polygon id="Path" fill="#FF3D43FF" points="0 10.912 0 0.24 7.568 0.24 7.568 2.64 3.2 2.64 3.2 4.688 6.944 4.688 6.944 7.104 3.2 7.104 3.2 10.912"></polygon>
                    <polygon id="Path" fill="#FF3D43FF" points="9.328 10.912 9.328 0.24 16.896 0.24 16.896 2.64 12.528 2.64 12.528 4.688 16.272 4.688 16.272 7.104 12.528 7.104 12.528 10.912"></polygon>
                    <polygon id="Path" fill="#23C2B8FF" points="18.656 10.912 18.656 0.24 26.224 0.24 26.224 2.64 21.856 2.64 21.856 4.688 25.6 4.688 25.6 7.104 21.856 7.104 21.856 10.912"></polygon>
                    <polygon id="Path" fill="#23C2B8FF" points="27.984 10.912 27.984 0.24 35.552 0.24 35.552 2.64 31.184 2.64 31.184 4.688 34.928 4.688 34.928 7.104 31.184 7.104 31.184 10.912"></polygon>
                    <path d="M41.664,11.136 C39.9786667,11.136 38.752,10.6746667 37.984,9.752 C37.216,8.82933333 36.832,7.43466667 36.832,5.568 C36.832,3.712 37.216,2.32 37.984,1.392 C38.752,0.464 39.9786667,0 41.664,0 C43.3706667,0 44.6053333,0.464 45.368,1.392 C46.1306667,2.32 46.512,3.712 46.512,5.568 C46.512,7.43466667 46.1306667,8.82933333 45.368,9.752 C44.6053333,10.6746667 43.3706667,11.136 41.664,11.136 Z M41.664,8.592 C41.8666667,8.592 42.0613333,8.55466667 42.248,8.48 C42.4346667,8.40533333 42.6026667,8.264 42.752,8.056 C42.9013333,7.848 43.0213333,7.544 43.112,7.144 C43.2026667,6.744 43.248,6.21866667 43.248,5.568 C43.248,4.928 43.2026667,4.41066667 43.112,4.016 C43.0213333,3.62133333 42.9013333,3.32 42.752,3.112 C42.6026667,2.904 42.4346667,2.76 42.248,2.68 C42.0613333,2.6 41.8666667,2.56 41.664,2.56 C41.472,2.56 41.2826667,2.6 41.096,2.68 C40.9093333,2.76 40.7413333,2.904 40.592,3.112 C40.4426667,3.32 40.3253333,3.62133333 40.24,4.016 C40.1546667,4.41066667 40.112,4.928 40.112,5.568 C40.112,6.21866667 40.1546667,6.744 40.24,7.144 C40.3253333,7.544 40.4426667,7.848 40.592,8.056 C40.7413333,8.264 40.9093333,8.40533333 41.096,8.48 C41.2826667,8.55466667 41.472,8.592 41.664,8.592 Z" id="Shape" fill="#1C82F4FF"></path>
                    <path d="M52.464,11.136 C50.7786667,11.136 49.552,10.6746667 48.784,9.752 C48.016,8.82933333 47.632,7.43466667 47.632,5.568 C47.632,3.712 48.016,2.32 48.784,1.392 C49.552,0.464 50.7786667,0 52.464,0 C54.1706667,0 55.4053333,0.464 56.168,1.392 C56.9306667,2.32 57.312,3.712 57.312,5.568 C57.312,7.43466667 56.9306667,8.82933333 56.168,9.752 C55.4053333,10.6746667 54.1706667,11.136 52.464,11.136 Z M52.464,8.592 C52.6666667,8.592 52.8613333,8.55466667 53.048,8.48 C53.2346667,8.40533333 53.4026667,8.264 53.552,8.056 C53.7013333,7.848 53.8213333,7.544 53.912,7.144 C54.0026667,6.744 54.048,6.21866667 54.048,5.568 C54.048,4.928 54.0026667,4.41066667 53.912,4.016 C53.8213333,3.62133333 53.7013333,3.32 53.552,3.112 C53.4026667,2.904 53.2346667,2.76 53.048,2.68 C52.8613333,2.6 52.6666667,2.56 52.464,2.56 C52.272,2.56 52.0826667,2.6 51.896,2.68 C51.7093333,2.76 51.5413333,2.904 51.392,3.112 C51.2426667,3.32 51.1253333,3.62133333 51.04,4.016 C50.9546667,4.41066667 50.912,4.928 50.912,5.568 C50.912,6.21866667 50.9546667,6.744 51.04,7.144 C51.1253333,7.544 51.2426667,7.848 51.392,8.056 C51.5413333,8.264 51.7093333,8.40533333 51.896,8.48 C52.0826667,8.55466667 52.272,8.592 52.464,8.592 Z" id="Shape" fill="#1C82F4FF"></path>
                </g>
                <g id="FF00FF" transform="translate(277.040000, 334.088000)" fill-rule="nonzero">
                    <polygon id="Path" fill="#FF3D43FF" points="0 10.912 0 0.24 7.568 0.24 7.568 2.64 3.2 2.64 3.2 4.688 6.944 4.688 6.944 7.104 3.2 7.104 3.2 10.912"></polygon>
                    <polygon id="Path" fill="#FF3D43FF" points="9.328 10.912 9.328 0.24 16.896 0.24 16.896 2.64 12.528 2.64 12.528 4.688 16.272 4.688 16.272 7.104 12.528 7.104 12.528 10.912"></polygon>
                    <path d="M23.008,11.136 C21.3226667,11.136 20.096,10.6746667 19.328,9.752 C18.56,8.82933333 18.176,7.43466667 18.176,5.568 C18.176,3.712 18.56,2.32 19.328,1.392 C20.096,0.464 21.3226667,0 23.008,0 C24.7146667,0 25.9493333,0.464 26.712,1.392 C27.4746667,2.32 27.856,3.712 27.856,5.568 C27.856,7.43466667 27.4746667,8.82933333 26.712,9.752 C25.9493333,10.6746667 24.7146667,11.136 23.008,11.136 Z M23.008,8.592 C23.2106667,8.592 23.4053333,8.55466667 23.592,8.48 C23.7786667,8.40533333 23.9466667,8.264 24.096,8.056 C24.2453333,7.848 24.3653333,7.544 24.456,7.144 C24.5466667,6.744 24.592,6.21866667 24.592,5.568 C24.592,4.928 24.5466667,4.41066667 24.456,4.016 C24.3653333,3.62133333 24.2453333,3.32 24.096,3.112 C23.9466667,2.904 23.7786667,2.76 23.592,2.68 C23.4053333,2.6 23.2106667,2.56 23.008,2.56 C22.816,2.56 22.6266667,2.6 22.44,2.68 C22.2533333,2.76 22.0853333,2.904 21.936,3.112 C21.7866667,3.32 21.6693333,3.62133333 21.584,4.016 C21.4986667,4.41066667 21.456,4.928 21.456,5.568 C21.456,6.21866667 21.4986667,6.744 21.584,7.144 C21.6693333,7.544 21.7866667,7.848 21.936,8.056 C22.0853333,8.264 22.2533333,8.40533333 22.44,8.48 C22.6266667,8.55466667 22.816,8.592 23.008,8.592 Z" id="Shape" fill="#23C2B8FF"></path>
                    <path d="M33.808,11.136 C32.1226667,11.136 30.896,10.6746667 30.128,9.752 C29.36,8.82933333 28.976,7.43466667 28.976,5.568 C28.976,3.712 29.36,2.32 30.128,1.392 C30.896,0.464 32.1226667,0 33.808,0 C35.5146667,0 36.7493333,0.464 37.512,1.392 C38.2746667,2.32 38.656,3.712 38.656,5.568 C38.656,7.43466667 38.2746667,8.82933333 37.512,9.752 C36.7493333,10.6746667 35.5146667,11.136 33.808,11.136 Z M33.808,8.592 C34.0106667,8.592 34.2053333,8.55466667 34.392,8.48 C34.5786667,8.40533333 34.7466667,8.264 34.896,8.056 C35.0453333,7.848 35.1653333,7.544 35.256,7.144 C35.3466667,6.744 35.392,6.21866667 35.392,5.568 C35.392,4.928 35.3466667,4.41066667 35.256,4.016 C35.1653333,3.62133333 35.0453333,3.32 34.896,3.112 C34.7466667,2.904 34.5786667,2.76 34.392,2.68 C34.2053333,2.6 34.0106667,2.56 33.808,2.56 C33.616,2.56 33.4266667,2.6 33.24,2.68 C33.0533333,2.76 32.8853333,2.904 32.736,3.112 C32.5866667,3.32 32.4693333,3.62133333 32.384,4.016 C32.2986667,4.41066667 32.256,4.928 32.256,5.568 C32.256,6.21866667 32.2986667,6.744 32.384,7.144 C32.4693333,7.544 32.5866667,7.848 32.736,8.056 C32.8853333,8.264 33.0533333,8.40533333 33.24,8.48 C33.4266667,8.55466667 33.616,8.592 33.808,8.592 Z" id="Shape" fill="#23C2B8FF"></path>
                    <polygon id="Path" fill="#1C82F4FF" points="40.256 10.912 40.256 0.24 47.824 0.24 47.824 2.64 43.456 2.64 43.456 4.688 47.2 4.688 47.2 7.104 43.456 7.104 43.456 10.912"></polygon>
                    <polygon id="Path" fill="#1C82F4FF" points="49.584 10.912 49.584 0.24 57.152 0.24 57.152 2.64 52.784 2.64 52.784 4.688 56.528 4.688 56.528 7.104 52.784 7.104 52.784 10.912"></polygon>
                </g>
            </g>
        </g>
    </g>
</svg>