<?xml version="1.0" encoding="UTF-8"?>
<svg width="886px" height="427px" viewBox="0 0 886 427" version="1.1" xmlns="http://www.w3.org/2000/svg" xmlns:xlink="http://www.w3.org/1999/xlink">
    <title>Merge 2</title>
    <g id="Page-1" stroke="none" stroke-width="1" fill="none" fill-rule="evenodd">
        <g id="Export-Slide-2" transform="translate(-80, -200)">
            <g id="Merge-2" transform="translate(80, 200.4708)">
                <g id="XYB'C'M0" transform="translate(144, 256.3982)">
                    <path id="Line-3" d="M183.883499,99.9824844 C184.555565,100.85907 184.389769,102.114499 183.513184,102.786565 C181.415928,104.394502 179.327997,106.029912 177.24939,107.692798 C176.386866,108.382817 175.128281,108.242974 174.438262,107.38045 C173.748243,106.517926 173.888086,105.259341 174.75061,104.569322 C176.850674,102.889271 178.960277,101.236886 181.079419,99.6121693 C181.956004,98.9401036 183.211433,99.1058993 183.883499,99.9824844 Z M596.068167,82.0970974 L608,106.13106 L581.61373,101.256149 L596.068167,82.0970974 Z M198.482368,89.4517012 C199.111548,90.3595592 198.885635,91.6055748 197.977777,92.2347549 C195.803681,93.7414858 193.639217,95.2765722 191.484383,96.8400165 C190.590346,97.4886864 189.339736,97.2897776 188.691066,96.3957411 C188.042396,95.5017047 188.241305,94.2510941 189.135341,93.6024242 C191.313483,92.0220688 193.501475,90.4702966 195.699315,88.9471101 C196.607173,88.31793 197.853188,88.5438431 198.482368,89.4517012 Z M580.736325,83.8431247 C582.971202,85.3106106 585.196104,86.8070622 587.41103,88.3324771 C588.320733,88.9589873 588.550306,90.2043339 587.923795,91.1140364 C587.297285,92.0237389 586.051939,92.2533116 585.142236,91.6268014 C582.95152,90.1180595 580.751045,88.6380381 578.540813,87.1867346 C577.6175,86.5804607 577.36049,85.340486 577.966764,84.4171737 C578.573038,83.4938613 579.813012,83.2368508 580.736325,83.8431247 Z M213.587486,79.6505939 C214.170394,80.5888329 213.882341,81.8219659 212.944102,82.4048736 C210.698708,83.7998889 208.463191,85.2239596 206.237552,86.6770883 C205.312662,87.2809526 204.073362,87.0207098 203.469497,86.0958197 C202.865633,85.1709297 203.125876,83.9316293 204.050766,83.327765 C206.301486,81.8582611 208.5623,80.4180751 210.833207,79.0072097 C211.771446,78.424302 213.004579,78.7123549 213.587486,79.6505939 Z M565.348141,74.2888663 C567.656679,75.6413133 569.955001,77.0234592 572.243104,78.4353016 C573.183126,79.0153293 573.474959,80.2475732 572.894931,81.1875953 C572.314903,82.1276175 571.082659,82.4194506 570.142637,81.8394228 C567.880494,80.4435982 565.608346,79.0771922 563.326191,77.7402022 C562.373131,77.1818563 562.053152,75.9566195 562.611498,75.0035594 C563.169844,74.0504993 564.395081,73.7305203 565.348141,74.2888663 Z M229.170385,70.6383943 C229.703836,71.6056091 229.3522,72.8221386 228.384986,73.355589 C226.069179,74.6328315 223.763481,75.9397728 221.46789,77.2764154 C220.513343,77.832215 219.288965,77.5089661 218.733165,76.5544188 C218.177366,75.5998715 218.500615,74.3754934 219.455162,73.8196938 C221.777523,72.467464 224.1102,71.1452301 226.453191,69.8529944 C227.420406,69.319544 228.636935,69.6711795 229.170385,70.6383943 Z M549.489087,65.5481905 C551.867468,66.7781241 554.235437,68.0383619 556.592991,69.3289015 C557.561891,69.8592837 557.917381,71.0746926 557.386999,72.0435933 C556.856616,73.012494 555.641207,73.3679834 554.672307,72.8376012 C552.342319,71.5621515 550.002119,70.3166924 547.651706,69.1012218 C546.670563,68.593843 546.286502,67.3871581 546.793881,66.4060156 C547.301259,65.4248731 548.507944,65.0408117 549.489087,65.5481905 Z M245.21763,62.4566475 C245.6987,63.4509541 245.28264,64.646983 244.288333,65.1280528 C241.906634,66.280377 239.535227,67.4628976 237.17411,68.675617 C236.191565,69.1802731 234.985949,68.7928671 234.481293,67.8103214 C233.976637,66.8277757 234.364043,65.6221605 235.346589,65.1175044 C237.735984,63.8902607 240.135864,62.6935419 242.546225,61.5273501 C243.540532,61.0462803 244.73656,61.4623409 245.21763,62.4566475 Z M533.232183,57.6862523 C535.675265,58.7874229 538.107795,59.9193512 540.529768,61.0820348 C541.525541,61.560062 541.945257,62.754813 541.46723,63.750586 C540.989203,64.746359 539.794452,65.166075 538.798679,64.6880479 C536.405661,63.5392647 534.002273,62.4208966 531.58851,61.3329414 C530.581505,60.8790539 530.133114,59.6947661 530.587002,58.6877607 C531.04089,57.6807554 532.225177,57.2323648 533.232183,57.6862523 Z M261.664277,55.1622244 C262.090581,56.1812134 261.610115,57.3528549 260.591126,57.779159 C258.147173,58.8016111 255.713658,59.8546438 253.290579,60.938259 C252.282247,61.3891912 251.09928,60.9373292 250.648347,59.928997 C250.197415,58.9206647 250.649277,57.7376972 251.657609,57.2867649 C254.110245,56.1899315 256.573491,55.1240337 259.047342,54.0890734 C260.066331,53.6627693 261.237973,54.1432354 261.664277,55.1622244 Z M516.501745,50.6898293 C519.002655,51.6558387 521.49294,52.6528641 523.972597,53.680904 C524.992951,54.103932 525.477179,55.2740237 525.054151,56.2943772 C524.631123,57.3147306 523.461031,57.7989587 522.440678,57.3759308 C519.991079,56.3603526 517.531012,55.3754255 515.060474,54.4211479 C514.030099,54.0231519 513.517455,52.8652283 513.91545,51.8348532 C514.313446,50.804478 515.47137,50.2918333 516.501745,50.6898293 Z M278.497655,48.7753593 C278.867271,49.8162523 278.323092,50.9596953 277.282199,51.3293106 C274.785599,52.2158394 272.299499,53.1330782 269.823897,54.0810284 C268.792366,54.4760191 267.635941,53.9600012 267.240951,52.9284702 C266.84596,51.8969392 267.361978,50.7405149 268.393509,50.3455243 C270.899598,49.3859002 273.416331,48.4573594 275.943704,47.5599035 C276.984597,47.1902882 278.12804,47.7344663 278.497655,48.7753593 Z M499.423542,44.628759 C501.97606,45.4561008 504.517938,46.3145557 507.049171,47.2041223 C508.091261,47.5703502 508.639155,48.7120172 508.272927,49.7541069 C507.906699,50.7961965 506.765032,51.3440908 505.722943,50.9778629 C503.222543,50.0991323 500.71163,49.251135 498.1902,48.4338697 C497.139448,48.0932918 496.563737,46.9653958 496.904315,45.9146435 C497.244893,44.8638911 498.372789,44.288181 499.423542,44.628759 Z M295.666938,43.3230626 C295.978602,44.3827509 295.372208,45.4944516 294.31252,45.8061156 C291.769404,46.5540691 289.236798,47.3327075 286.714697,48.1420318 C285.662952,48.4795296 284.536747,47.9005172 284.199249,46.8487715 C283.861752,45.7970258 284.440764,44.6708214 285.49251,44.3333237 C288.045682,43.5140287 290.609475,42.7258021 293.183885,41.9686447 C294.243573,41.6569807 295.355274,42.2633742 295.666938,43.3230626 Z M482.034321,39.5172301 C484.630231,40.2033912 487.215552,40.9205631 489.790281,41.6687451 C490.850975,41.9769687 491.460973,43.0866958 491.152749,44.1473899 C490.844526,45.208084 489.734799,45.8180819 488.674105,45.5098583 C486.130608,44.7707521 483.576619,44.0622715 481.012131,43.3844161 C479.944237,43.1021461 479.307363,42.007622 479.589633,40.9397281 C479.871903,39.8718342 480.966427,39.2349601 482.034321,39.5172301 Z M313.115465,38.8208959 C313.368635,39.8960604 312.702277,40.9728883 311.627112,41.2260584 C309.045034,41.8340629 306.473414,42.4725519 303.912247,43.1415257 C302.843533,43.4206728 301.750875,42.7806019 301.471728,41.7118873 C301.192581,40.6431728 301.832652,39.5505152 302.901367,39.2713681 C305.493811,38.5942246 308.096791,37.9479495 310.710302,37.3325433 C311.785467,37.0793733 312.862295,37.7457314 313.115465,38.8208959 Z M464.424087,35.3717122 C467.055553,35.9164335 469.67654,36.4918902 472.287045,37.0980822 C473.362987,37.3479293 474.032669,38.4226933 473.782822,39.4986348 C473.532975,40.5745764 472.458211,41.2442583 471.382269,40.9944112 C468.803019,40.3954771 466.213352,39.8268971 463.613265,39.2886712 C462.531626,39.0647688 461.836294,38.0064189 462.060196,36.9247805 C462.284099,35.8431422 463.342449,35.1478098 464.424087,35.3717122 Z M330.720352,35.2829602 C330.915421,36.3701685 330.1922,37.4096596 329.104991,37.6047287 C326.490724,38.0737856 323.886813,38.5729878 321.293255,39.102335 C320.210997,39.3232246 319.154587,38.6249479 318.933698,37.5426902 C318.712808,36.4604326 319.411085,35.4040231 320.493343,35.1831335 C323.118023,34.6474342 325.753104,34.1422563 328.398584,33.6675992 C329.485792,33.4725301 330.525283,34.1957519 330.720352,35.2829602 Z M446.586369,32.1743568 C449.242857,32.578083 451.889052,33.0120448 454.52495,33.476243 C455.612779,33.6678166 456.339338,34.7049779 456.147765,35.7928076 C455.956191,36.8806372 454.91903,37.6071962 453.8312,37.4156226 C451.226186,36.9568633 448.610907,36.5279714 445.985361,36.1289477 C444.893331,35.9629838 444.142606,34.9431781 444.308569,33.851148 C444.474533,32.7591179 445.494339,32.0083929 446.586369,32.1743568 Z M348.53636,32.6762262 C348.674028,33.7721829 347.897182,34.7722339 346.801226,34.9099026 C344.164332,35.2411364 341.537623,35.6019805 338.921097,35.9924341 C337.828625,36.1554594 336.810842,35.4019934 336.647817,34.3095208 C336.484792,33.2170481 337.238258,32.1992659 338.330731,32.0362406 C340.977849,31.6412217 343.635168,31.2761726 346.302683,30.9410923 C347.39864,30.8034236 348.398691,31.5802695 348.53636,32.6762262 Z M428.482221,29.9122453 L428.631294,29.9215522 C431.306232,30.1874734 433.971098,30.4830168 436.625888,30.8081834 C437.722264,30.9424709 438.502191,31.9401208 438.367904,33.036497 C438.233616,34.1328731 437.235966,34.9128001 436.13959,34.7785127 C433.515,34.4570449 430.880336,34.164851 428.235596,33.901932 C427.136444,33.792663 426.333986,32.8130447 426.443255,31.7138932 C426.54259,30.7146645 427.361223,29.9606368 428.335053,29.9138943 L428.482221,29.9122453 Z M366.465896,30.991354 C366.547608,32.0928969 365.720873,33.0521153 364.61933,33.1338281 C361.9674,33.3305492 359.325437,33.5562132 356.693439,33.8108189 C355.594001,33.9171727 354.616514,33.1121194 354.51016,32.0126819 C354.403807,30.9132445 355.20886,29.9357576 356.308297,29.8294038 C358.970053,29.5719196 361.641762,29.3437149 364.323421,29.1447884 C365.424964,29.0630755 366.384183,29.8898111 366.465896,30.991354 Z M410.420248,28.5818121 L410.5696,28.583661 C413.25478,28.7156491 415.930153,28.8765061 418.595716,29.0662334 C419.697498,29.1446551 420.527095,30.1013994 420.448673,31.2031815 C420.370252,32.3049636 419.413507,33.1345611 418.311725,33.0561393 C415.67539,32.8684924 413.029222,32.7093913 410.37322,32.5788374 C409.269982,32.5246086 408.419593,31.5862967 408.473821,30.4830592 C408.52312,29.480116 409.303066,28.6861381 410.273346,28.5908102 L410.420248,28.5818121 Z M382.410407,28.2507941 C383.51463,28.2231022 384.432227,29.0958024 384.459919,30.2000248 C384.487611,31.3042471 383.614911,32.2218449 382.510689,32.2495369 C379.850366,32.3162532 377.199753,32.4111457 374.55885,32.5342129 C373.455478,32.5856306 372.519336,31.732853 372.467918,30.6294809 C372.4165,29.5261088 373.269278,28.5899667 374.37265,28.5385491 C377.042228,28.4141456 379.721481,28.3182277 382.410407,28.2507941 Z M392.479262,28.1313567 C395.170744,28.1346894 397.852693,28.1661027 400.525107,28.2255979 C401.629403,28.2501826 402.504682,29.1653211 402.480097,30.269617 C402.455513,31.3739128 401.540374,32.2491917 400.436078,32.2246071 C397.791734,32.1657367 395.137811,32.1346517 392.474309,32.1313536 C391.36974,32.1299859 390.475419,31.2334473 390.476787,30.1288786 C390.478154,29.02431 391.374693,28.1299889 392.479262,28.1313567 Z" fill="#23C2B8FF" fill-rule="nonzero"></path>
                    <g id="F1" transform="translate(378.4885, 0)" fill="#23C2B8FF" fill-rule="nonzero">
                        <polygon id="Path" points="0 22.13106 0 0 14.63238 0 14.63238 3.61662 4.51248 3.61662 4.51248 9.55584 13.30518 9.55584 13.30518 13.22223 4.51248 13.22223 4.51248 22.13106"></polygon>
                        <polygon id="Path" points="22.82784 22.13106 22.82784 4.41294 18.49785 6.9678 18.49785 2.75394 23.17623 0 27.34032 0 27.34032 22.13106"></polygon>
                    </g>
                    <g id="M0" transform="translate(576, 106.1311)">
                        <circle id="Oval" stroke="#FFFFFFff" stroke-width="2" cx="32" cy="32" r="31"></circle>
                        <g transform="translate(9, 20)" fill="#9B8EF6ff" fill-rule="nonzero">
                            <polygon id="Path" points="0 23.5652174 0 0.365217391 4.81522137 0.365217391 12.8635199 12.0521739 10.2323454 12.2434783 18.6245884 0.365217391 23.3366264 0.365217391 23.3366264 23.5652174 18.6589828 23.5652174 18.6589828 4.12173913 19.7424076 5.39130435 11.453348 16.7652174 3.4050494 5.35652174 4.50567142 4.3826087 4.50567142 23.5652174"></polygon>
                            <path d="M37.2663739,24 C33.9645079,24 31.5196365,23 29.93176,21 C28.3438834,19 27.5499451,16 27.5499451,12 C27.5499451,8.0115942 28.3438834,5.01449275 29.93176,3.00869565 C31.5196365,1.00289855 33.9645079,0 37.2663739,0 C40.6026345,0 43.0589706,1.00289855 44.6353824,3.00869565 C46.2117941,5.01449275 47,8.0115942 47,12 C47,16 46.2117941,19 44.6353824,21 C43.0589706,23 40.6026345,24 37.2663739,24 Z M37.2663739,20.0869565 C37.8625442,20.0869565 38.4558483,19.9942029 39.0462861,19.8086957 C39.636724,19.6231884 40.172704,19.2550725 40.6542261,18.7043478 C41.1357483,18.1536232 41.5226857,17.342029 41.8150384,16.2695652 C42.1073911,15.1971014 42.2535675,13.773913 42.2535675,12 C42.2535675,10.2376812 42.1073911,8.82318841 41.8150384,7.75652174 C41.5226857,6.68985507 41.1357483,5.88405797 40.6542261,5.33913043 C40.172704,4.7942029 39.636724,4.42318841 39.0462861,4.22608696 C38.4558483,4.02898551 37.8625442,3.93043478 37.2663739,3.93043478 C36.6816685,3.93043478 36.0940968,4.02898551 35.503659,4.22608696 C34.9132211,4.42318841 34.3772411,4.7942029 33.895719,5.33913043 C33.4141969,5.88405797 33.0301256,6.68985507 32.7435053,7.75652174 C32.456885,8.82318841 32.3135748,10.2376812 32.3135748,12 C32.3135748,13.773913 32.456885,15.1971014 32.7435053,16.2695652 C33.0301256,17.342029 33.4141969,18.1536232 33.895719,18.7043478 C34.3772411,19.2550725 34.9132211,19.6231884 35.503659,19.8086957 C36.0940968,19.9942029 36.6816685,20.0869565 37.2663739,20.0869565 Z" id="Shape"></path>
                        </g>
                    </g>
                    <g id="C'" transform="translate(432, 106.1311)">
                        <line x1="64" y1="31" x2="144" y2="31" id="Line" stroke="#FFFFFFff" stroke-width="2"></line>
                        <circle id="Oval" stroke="#FFFFFFff" stroke-width="2" cx="32" cy="32" r="31"></circle>
                        <g id="C’" transform="translate(14, 15)" fill="#9B8EF6ff" fill-rule="nonzero">
                            <path d="M15.0324556,32 C10.1147173,32 6.37987344,30.692697 3.82792407,28.0780911 C1.27597469,25.4634852 0,21.4490239 0,16.0347072 C0,10.7437937 1.24106961,6.74861412 3.72320882,4.04916847 C6.20534803,1.34972282 9.97509696,0 15.0324556,0 C16.6768728,0 18.3251684,0.200530248 19.9773423,0.601590745 C21.6295162,1.00265124 23.2312717,1.55796577 24.7826087,2.26753435 L24.7826087,7.82067968 C23.2157583,6.84887925 21.683813,6.14316703 20.1867728,5.70354302 C18.6897326,5.26391902 17.2508675,5.04410701 15.8701776,5.04410701 C13.8224127,5.04410701 12.1081853,5.406604 10.7274954,6.13159798 C9.34680547,6.85659195 8.30740968,8.02120993 7.60930802,9.62545192 C6.91120637,11.2296939 6.56215554,13.373825 6.56215554,16.0578453 C6.56215554,18.7110147 6.91508471,20.8358641 7.62094305,22.4323933 C8.32680139,24.0289226 9.3855889,25.1819716 10.7973056,25.8915401 C12.2090222,26.6011087 13.9775464,26.955893 16.1028781,26.955893 C17.3749745,26.955893 18.7479077,26.7437937 20.2216779,26.3195951 C21.6954481,25.8953965 23.2157583,25.2051097 24.7826087,24.2487346 L24.7826087,29.80188 C23.8828332,30.2492167 22.8860992,30.6387081 21.7924066,30.9703543 C20.698714,31.3020005 19.5739947,31.5565196 18.4182486,31.7339118 C17.2625026,31.9113039 16.1339049,32 15.0324556,32 Z" id="Path"></path>
                            <polygon id="Path" points="29.4133497 9.25524223 32.8573178 0.185104845 38 0.185104845 33.8113901 9.25524223"></polygon>
                        </g>
                    </g>
                    <g id="B'" transform="translate(288, 106.1311)">
                        <line x1="64" y1="31" x2="144" y2="31" id="Line" stroke="#FFFFFFff" stroke-width="2"></line>
                        <circle id="Oval" stroke="#FFFFFFff" stroke-width="2" cx="32" cy="32" r="31"></circle>
                        <g transform="translate(16, 15)" fill="#9B8EF6ff" fill-rule="nonzero">
                            <path d="M0,32 L0,0 L12.3600746,0 C14.7543532,0 16.7599502,0.323838081 18.3768657,0.971514243 C19.9937811,1.6191904 21.2220149,2.59070465 22.0615672,3.88605697 C22.9011194,5.1814093 23.3208955,6.8125937 23.3208955,8.77961019 C23.3208955,10.2028986 23.0177239,11.3583208 22.4113806,12.2458771 C21.8050373,13.1334333 21.0782027,13.8450775 20.2308769,14.3808096 C19.383551,14.9165417 18.5867537,15.3763118 17.8404851,15.7601199 L17.1175373,14.3688156 C18.5634328,14.5127436 19.8810634,14.9125437 21.0704291,15.5682159 C22.2597948,16.2238881 23.2120647,17.1274363 23.9272388,18.2788606 C24.6424129,19.4302849 25,20.8375812 25,22.5007496 C25,24.7076462 24.4986007,26.5107446 23.4958022,27.910045 C22.4930037,29.3093453 21.1248445,30.3408296 19.3913246,31.0044978 C17.6578047,31.6681659 15.7027363,32 13.5261194,32 L0,32 Z M6.36660448,26.7946027 L13.2229478,26.7946027 C14.1557836,26.7946027 15.0225435,26.6666667 15.8232276,26.4107946 C16.6239117,26.1549225 17.2691231,25.6911544 17.7588619,25.0194903 C18.2486007,24.3478261 18.4934701,23.4202899 18.4934701,22.2368816 C18.4934701,21.3413293 18.3379975,20.6136932 18.0270522,20.053973 C17.716107,19.4942529 17.3041045,19.0624688 16.7910448,18.7586207 C16.2779851,18.4547726 15.6988495,18.2428786 15.0536381,18.1229385 C14.4084266,18.0029985 13.7515547,17.9430285 13.0830224,17.9430285 L6.36660448,17.9430285 L6.36660448,26.7946027 Z M6.34328358,12.9535232 L12.8731343,12.9535232 C13.5416667,12.9535232 14.1791045,12.8495752 14.7854478,12.6416792 C15.391791,12.4337831 15.8931903,12.065967 16.2896455,11.5382309 C16.6861007,11.0104948 16.8843284,10.2668666 16.8843284,9.30734633 C16.8843284,7.75612194 16.4684391,6.69265367 15.6366604,6.11694153 C14.8048818,5.54122939 13.7360075,5.25337331 12.4300373,5.25337331 L6.34328358,5.25337331 L6.34328358,12.9535232 Z" id="Shape"></path>
                            <polygon id="Path" points="27 9 30.6097561 0 36 0 31.6097561 9"></polygon>
                        </g>
                    </g>
                    <g id="Y" transform="translate(144, 106.1311)">
                        <line x1="64" y1="31" x2="144" y2="31" id="Line" stroke="#FFFFFFff" stroke-width="2"></line>
                        <circle id="Oval" stroke="#FFFFFFff" stroke-width="2" cx="32" cy="32" r="31"></circle>
                        <polygon id="Path" fill="#9B8EF6ff" fill-rule="nonzero" points="29.0863309 48 29.0863309 33.9190405 17 16 25.0095923 16 34.4100719 31.2083958 31.5323741 31.1124438 40.2853717 16 47 16 34.6498801 35.5262369 35.6091127 31.976012 35.6091127 48"></polygon>
                    </g>
                    <g id="X" transform="translate(0, 106.1311)">
                        <line x1="64" y1="32" x2="144" y2="32" id="Line" stroke="#FFFFFFff" stroke-width="2"></line>
                        <circle id="Oval" stroke="#FFFFFFff" stroke-width="2" cx="32" cy="32" r="31"></circle>
                        <path d="M47,48 L38.9553073,48 L17,16 L25.0446927,16 L47,48 Z M31.7486034,28.2818591 L39.4102155,16 L46.7126895,16 L35.2681564,33.2233883 L31.7486034,28.2818591 Z M33.0654429,34.2548726 L24.3743017,48 L17.1675978,48 L29.3543496,29.8650675 L33.0654429,34.2548726 Z" id="Shape" fill="#9B8EF6ff" fill-rule="nonzero"></path>
                    </g>
                </g>
                <g id="F1" transform="translate(784, 289.3982)" fill="#23C2B8FF" fill-rule="nonzero">
                    <path id="Line-2" d="M0,13.13106 L20.723791,30.1758388 L11.7647535,34.1648027 C18.1090439,45.400069 25.2184903,53.482506 33.067986,58.4400822 C45.4438392,66.2564105 55.7762378,70.13106 64,70.13106 L66,70.13106 L66,74.13106 L64,74.13106 C54.8904289,74.13106 43.8894941,70.0057095 30.932014,61.8220378 C22.3930546,56.4290108 14.7892394,47.7451101 8.09469415,35.7991591 L-1.20154846,39.9369601 L0,13.13106 Z" transform="translate(32, 42.6311) scale(1, -1) translate(-32, -42.6311)"></path>
                    <g transform="translate(74.4885, 0)" id="Path">
                        <polygon points="0 22.13106 0 0 14.63238 0 14.63238 3.61662 4.51248 3.61662 4.51248 9.55584 13.30518 9.55584 13.30518 13.22223 4.51248 13.22223 4.51248 22.13106"></polygon>
                        <polygon points="22.82784 22.13106 22.82784 4.41294 18.49785 6.9678 18.49785 2.75394 23.17623 0 27.34032 0 27.34032 22.13106"></polygon>
                    </g>
                </g>
                <g id="ABC" transform="translate(0, 217.5292)">
                    <path d="M64,177 C80,170.333333 90.6666667,160 96,146 C104,125 93,87 104,65 C111.333333,50.3333333 124.666667,39 144,31" id="Line-2" stroke="#FFFFFFff" stroke-width="2" transform="translate(104, 104) scale(1, -1) translate(-104, -104)"></path>
                    <g id="C" transform="translate(288, 0)">
                        <circle id="Oval" stroke="#FFFFFFff" stroke-width="2" cx="32" cy="32" r="31"></circle>
                        <g transform="translate(20, 16)" fill="#9B8EF6ff" fill-rule="nonzero" id="Path">
                            <path d="M15.1643192,32 C10.2034429,32 6.43583725,30.692697 3.86150235,28.0780911 C1.28716745,25.4634852 0,21.4490239 0,16.0347072 C0,10.7437937 1.25195618,6.74861412 3.75586854,4.04916847 C6.25978091,1.34972282 10.0625978,0 15.1643192,0 C16.8231612,0 18.4859155,0.200530248 20.1525822,0.601590745 C21.8192488,1.00265124 23.4350548,1.55796577 25,2.26753435 L25,7.82067968 C23.4194053,6.84887925 21.8740219,6.14316703 20.3638498,5.70354302 C18.8536776,5.26391902 17.4021909,5.04410701 16.0093897,5.04410701 C13.943662,5.04410701 12.2143975,5.406604 10.8215962,6.13159798 C9.42879499,6.85659195 8.38028169,8.02120993 7.67605634,9.62545192 C6.97183099,11.2296939 6.61971831,13.373825 6.61971831,16.0578453 C6.61971831,18.7110147 6.97574335,20.8358641 7.68779343,22.4323933 C8.39984351,24.0289226 9.46791862,25.1819716 10.8920188,25.8915401 C12.3161189,26.6011087 14.1001565,26.955893 16.2441315,26.955893 C17.5273865,26.955893 18.9123631,26.7437937 20.399061,26.3195951 C21.885759,25.8953965 23.4194053,25.2051097 25,24.2487346 L25,29.80188 C24.0923318,30.2492167 23.0868545,30.6387081 21.9835681,30.9703543 C20.8802817,31.3020005 19.7456964,31.5565196 18.5798122,31.7339118 C17.413928,31.9113039 16.2754304,32 15.1643192,32 Z"></path>
                        </g>
                    </g>
                    <g id="B" transform="translate(144, 0)">
                        <line x1="64" y1="31" x2="144" y2="31" id="Line" stroke="#FFFFFFff" stroke-width="2"></line>
                        <circle id="Oval" stroke="#FFFFFFff" stroke-width="2" cx="32" cy="32" r="31"></circle>
                        <path d="M19,48 L19,16 L31.8544776,16 C34.3445274,16 36.4303483,16.3238381 38.1119403,16.9715142 C39.7935323,17.6191904 41.0708955,18.5907046 41.9440299,19.886057 C42.8171642,21.1814093 43.2537313,22.8125937 43.2537313,24.7796102 C43.2537313,26.2028986 42.9384328,27.3583208 42.3078358,28.2458771 C41.6772388,29.1334333 40.9213308,29.8450775 40.0401119,30.3808096 C39.158893,30.9165417 38.3302239,31.3763118 37.5541045,31.7601199 L36.8022388,30.3688156 C38.3059701,30.5127436 39.676306,30.9125437 40.9132463,31.5682159 C42.1501866,32.2238881 43.1405473,33.1274363 43.8843284,34.2788606 C44.6281095,35.4302849 45,36.8375812 45,38.5007496 C45,40.7076462 44.4785448,42.5107446 43.4356343,43.910045 C42.3927239,45.3093453 40.9698383,46.3408296 39.1669776,47.0044978 C37.3641169,47.6681659 35.3308458,48 33.0671642,48 L19,48 Z M25.6212687,42.7946027 L32.7518657,42.7946027 C33.7220149,42.7946027 34.6234453,42.6666667 35.4561567,42.4107946 C36.2888682,42.1549225 36.9598881,41.6911544 37.4692164,41.0194903 C37.9785448,40.3478261 38.233209,39.4202899 38.233209,38.2368816 C38.233209,37.3413293 38.0715174,36.6136932 37.7481343,36.053973 C37.4247512,35.4942529 36.9962687,35.0624688 36.4626866,34.7586207 C35.9291045,34.4547726 35.3268035,34.2428786 34.6557836,34.1229385 C33.9847637,34.0029985 33.3016169,33.9430285 32.6063433,33.9430285 L25.6212687,33.9430285 L25.6212687,42.7946027 Z M25.5970149,28.9535232 L32.3880597,28.9535232 C33.0833333,28.9535232 33.7462687,28.8495752 34.3768657,28.6416792 C35.0074627,28.4337831 35.5289179,28.065967 35.9412313,27.5382309 C36.3535448,27.0104948 36.5597015,26.2668666 36.5597015,25.3073463 C36.5597015,23.7561219 36.1271766,22.6926537 35.2621269,22.1169415 C34.3970771,21.5412294 33.2854478,21.2533733 31.9272388,21.2533733 L25.5970149,21.2533733 L25.5970149,28.9535232 Z" id="Shape" fill="#9B8EF6ff" fill-rule="nonzero"></path>
                    </g>
                    <g id="A">
                        <line x1="64" y1="31" x2="144" y2="31" id="Line" stroke="#FFFFFFff" stroke-width="2"></line>
                        <circle id="Oval" stroke="#FFFFFFff" stroke-width="2" cx="32" cy="32" r="31"></circle>
                        <path d="M17,48 L29.2563707,16 L36.2942085,16 L48,48 L41.2494208,48 L30.8123552,18.2068966 L33.7088803,17.9430285 L23.2957529,48 L17,48 Z M23.4633205,40.2038981 L25.019305,35.1904048 L39.8610039,35.1904048 L40.4355212,40.2038981 L23.4633205,40.2038981 Z" id="Shape" fill="#9B8EF6ff" fill-rule="nonzero"></path>
                    </g>
                </g>
                <g id="Main" transform="translate(352, 144.8507)" fill="#23C2B8FF" fill-rule="nonzero">
                    <path id="Line-2" d="M0,13.67853 L20.723791,30.7233088 L11.764791,34.712339 C18.1090719,45.9475708 25.2185058,54.0299857 33.067986,58.9875522 C45.4438392,66.8038805 55.7762378,70.67853 64,70.67853 L66,70.67853 L66,74.67853 L64,74.67853 C54.8904289,74.67853 43.8894941,70.5531795 30.932014,62.3695078 C22.3930546,56.9764808 14.7892394,48.2925801 8.09469415,36.3466291 L-1.20154846,40.4844301 L0,13.67853 Z" transform="translate(32, 43.1785) scale(1, -1) translate(-32, -43.1785)"></path>
                    <g id="main" transform="translate(74.3226, 0)">
                        <path d="M15.01395,11.53005 L15.01395,22.67853 L10.80009,22.67853 L10.80009,12.26001 C10.80009,11.83973 10.74479,11.438805 10.63419,11.057235 C10.52359,10.675665 10.338335,10.33557 10.078425,10.03695 C9.818515,9.73833 9.453535,9.503305 8.983485,9.331875 C8.513435,9.160445 7.91896,9.07473 7.20006,9.07473 C6.64706,9.07473 6.113415,9.132795 5.599125,9.248925 C5.084835,9.365055 4.62308,9.50607 4.21386,9.67197 L4.21386,22.67853 L0,22.67853 L0,7.34937 C0.45346,7.11711 1.003695,6.89038 1.650705,6.66918 C2.297715,6.44798 2.99726,6.25443 3.74934,6.08853 C4.50142,5.92263 5.261795,5.78991 6.030465,5.69037 C6.799135,5.59083 7.52633,5.54106 8.21205,5.54106 C9.74939,5.54106 11.018525,5.74567 12.019455,6.15489 C13.020385,6.56411 13.7697,7.208355 14.2674,8.087625 C14.7651,8.966895 15.01395,10.11437 15.01395,11.53005 Z M10.48488,8.34477 C11.18166,7.75859 11.986275,7.258125 12.898725,6.843375 C13.811175,6.428625 14.767865,6.107885 15.768795,5.881155 C16.769725,5.654425 17.72365,5.54106 18.63057,5.54106 C20.16791,5.54106 21.437045,5.74567 22.437975,6.15489 C23.438905,6.56411 24.18822,7.208355 24.68592,8.087625 C25.18362,8.966895 25.43247,10.11437 25.43247,11.53005 L25.43247,22.67853 L21.21861,22.67853 L21.21861,12.26001 C21.21861,11.83973 21.16331,11.438805 21.05271,11.057235 C20.94211,10.675665 20.756855,10.33557 20.496945,10.03695 C20.237035,9.73833 19.872055,9.503305 19.402005,9.331875 C18.931955,9.160445 18.33748,9.07473 17.61858,9.07473 C17.06558,9.07473 16.531935,9.154915 16.017645,9.315285 C15.503355,9.475655 15.0416,9.70515 14.63238,10.00377 L10.48488,8.34477 Z" id="Shape"></path>
                        <path d="M36.3321,23.17623 C35.392,23.17623 34.498905,23.08775 33.652815,22.91079 C32.806725,22.73383 32.05188,22.437975 31.38828,22.023225 C30.72468,21.608475 30.202095,21.04165 29.820525,20.32275 C29.438955,19.60385 29.24817,18.70799 29.24817,17.63517 C29.24817,16.49599 29.477665,15.53377 29.936655,14.74851 C30.395645,13.96325 31.07307,13.36601 31.96893,12.95679 C32.86479,12.54757 33.96526,12.34296 35.27034,12.34296 C36.06666,12.34296 36.810445,12.41485 37.501695,12.55863 C38.192945,12.70241 38.81507,12.898725 39.36807,13.147575 C39.92107,13.396425 40.37453,13.67016 40.72845,13.96878 L41.01048,16.30797 C40.54596,16.00935 39.95425,15.763265 39.23535,15.569715 C38.51645,15.376165 37.74225,15.27939 36.91275,15.27939 C35.74039,15.27939 34.86665,15.470175 34.29153,15.851745 C33.71641,16.233315 33.42885,16.81673 33.42885,17.60199 C33.42885,18.14393 33.58369,18.600155 33.89337,18.970665 C34.20305,19.341175 34.60121,19.617675 35.08785,19.800165 C35.57449,19.982655 36.08325,20.0739 36.61413,20.0739 C37.83073,20.0739 38.707235,19.99095 39.243645,19.82505 C39.780055,19.65915 40.04826,19.2997 40.04826,18.7467 L40.04826,12.17706 C40.04826,11.08212 39.708165,10.2858 39.027975,9.7881 C38.347785,9.2904 37.3828,9.04155 36.13302,9.04155 C35.18186,9.04155 34.211345,9.20192 33.221475,9.52266 C32.231605,9.8434 31.42146,10.25815 30.79104,10.76691 L30.79104,6.95121 C31.38828,6.56411 32.28414,6.229545 33.47862,5.947515 C34.6731,5.665485 35.96159,5.52447 37.34409,5.52447 C37.91921,5.52447 38.524745,5.577005 39.160695,5.682075 C39.796645,5.787145 40.41324,5.96134 41.01048,6.20466 C41.60772,6.44798 42.14966,6.788075 42.6363,7.224945 C43.12294,7.661815 43.51004,8.20652 43.7976,8.85906 C44.08516,9.5116 44.22894,10.30239 44.22894,11.23143 L44.21235,19.17804 C44.21235,20.19556 43.883315,20.99741 43.225245,21.58359 C42.567175,22.16977 41.649195,22.581755 40.471305,22.819545 C39.293415,23.057335 37.91368,23.17623 36.3321,23.17623 Z" id="Path"></path>
                        <path d="M48.97368,22.67853 L48.97368,6.12171 L53.18754,6.12171 L53.22072,22.67853 L48.97368,22.67853 Z M48.87414,3.4839 L48.87414,0 L53.28708,0 L53.28708,3.4839 L48.87414,3.4839 Z" id="Shape"></path>
                        <path d="M57.93228,7.34937 C58.38574,7.11711 58.935975,6.89038 59.582985,6.66918 C60.229995,6.44798 60.92954,6.25443 61.68162,6.08853 C62.4337,5.92263 63.194075,5.78991 63.962745,5.69037 C64.731415,5.59083 65.45861,5.54106 66.14433,5.54106 C67.68167,5.54106 68.96463,5.74567 69.99321,6.15489 C71.02179,6.56411 71.798755,7.208355 72.324105,8.087625 C72.849455,8.966895 73.11213,10.11437 73.11213,11.53005 L73.11213,22.67853 L68.89827,22.67853 L68.89827,12.26001 C68.89827,11.83973 68.84297,11.438805 68.73237,11.057235 C68.62177,10.675665 68.436515,10.33557 68.176605,10.03695 C67.916695,9.73833 67.551715,9.503305 67.081665,9.331875 C66.611615,9.160445 66.01714,9.07473 65.29824,9.07473 C64.74524,9.07473 64.183945,9.132795 63.614355,9.248925 C63.044765,9.365055 62.55536,9.50607 62.14614,9.67197 L62.14614,22.67853 L57.93228,22.67853 L57.93228,7.34937 Z" id="Path"></path>
                    </g>
                </g>
                <g id="IJ" transform="translate(208, 72.5292)">
                    <path d="M0,176 C16,169.333333 26.6666667,159 32,145 C40,124 29,86 40,64 C47.3333333,49.3333333 61,38.6666667 81,32" id="Line-1" stroke="#FFFFFFff" stroke-width="2"></path>
                    <g id="J" transform="translate(224, 0)">
                        <circle id="Oval" stroke="#FFFFFFff" stroke-width="2" cx="32" cy="32" r="31"></circle>
                        <path d="M30.1129707,48 C28.7694096,48 27.5009298,47.8388602 26.3075314,47.5165807 C25.114133,47.1943012 24.0116225,46.7816261 23,46.2785556 L23,40.2888725 C23.9800093,40.9648735 24.9244537,41.534758 25.8333333,41.9985262 C26.7422129,42.4622943 27.6866574,42.6941783 28.6666667,42.6941783 C30.2473268,42.6941783 31.4525802,42.2972243 32.2824268,41.5033161 C33.1122734,40.709408 33.5271967,39.4163596 33.5271967,37.624171 L33.5271967,16 L40,16 L40,37.954311 C40,39.9351511 39.7075779,41.5740604 39.1227336,42.8710391 C38.5378894,44.1680177 37.7712692,45.1938099 36.8228731,45.9484156 C35.874477,46.7030214 34.8154347,47.2336035 33.6457462,47.5401621 C32.4760576,47.8467207 31.2984658,48 30.1129707,48 Z" id="Path" fill="#9B8EF6ff" fill-rule="nonzero"></path>
                    </g>
                    <g id="I" transform="translate(80, 0)">
                        <line x1="64" y1="32" x2="144" y2="32" id="Line" stroke="#FFFFFFff" stroke-width="2"></line>
                        <circle id="Oval" stroke="#FFFFFFff" stroke-width="2" cx="32" cy="32" r="31"></circle>
                        <polygon id="Path" fill="#9B8EF6ff" fill-rule="nonzero" points="29 48 29 16 36 16 36 48"></polygon>
                    </g>
                </g>
                <g id="F2" transform="translate(496, 0)" fill="#23C2B8FF" fill-rule="nonzero">
                    <path id="Line-2" d="M0,13.52922 L20.723791,30.5739988 L11.7647535,34.5629627 C18.1090439,45.798229 25.2184903,53.880666 33.067986,58.8382422 C45.4438392,66.6545705 55.7762378,70.52922 64,70.52922 L66,70.52922 L66,74.52922 L64,74.52922 C54.8904289,74.52922 43.8894941,70.4038695 30.932014,62.2201978 C22.3930546,56.8271708 14.7892394,48.1432701 8.09469415,36.1973191 L-1.20154846,40.3351201 L0,13.52922 Z" transform="translate(32, 43.0292) scale(1, -1) translate(-32, -43.0292)"></path>
                    <g transform="translate(74.4885, 0)" id="Path">
                        <polygon points="0 22.52922 0 0.39816 14.63238 0.39816 14.63238 4.01478 4.51248 4.01478 4.51248 9.954 13.30518 9.954 13.30518 13.62039 4.51248 13.62039 4.51248 22.52922"></polygon>
                        <path d="M18.51444,22.52922 L18.51444,19.22781 C19.26652,18.75223 20.098785,18.163285 21.011235,17.460975 C21.923685,16.758665 22.82784,15.9817 23.7237,15.13008 C24.61956,14.27846 25.438,13.396425 26.17902,12.483975 C26.92004,11.571525 27.51728,10.66184 27.97074,9.75492 C28.4242,8.848 28.65093,7.99085 28.65093,7.18347 C28.65093,6.45351 28.49609,5.825855 28.18641,5.300505 C27.87673,4.775155 27.409445,4.371465 26.784555,4.089435 C26.159665,3.807405 25.37717,3.66639 24.43707,3.66639 C23.29789,3.66639 22.26378,3.89865 21.33474,4.36317 C20.4057,4.82769 19.53196,5.36963 18.71352,5.98899 L18.71352,1.95762 C19.54302,1.44886 20.524595,0.9954 21.658245,0.59724 C22.791895,0.19908 24.12186,0 25.64814,0 C27.34032,0 28.74494,0.28203 29.862,0.84609 C30.97906,1.41015 31.811325,2.18988 32.358795,3.18528 C32.906265,4.18068 33.18,5.33645 33.18,6.65259 C33.18,7.68117 32.961565,8.684865 32.524695,9.663675 C32.087825,10.642485 31.507175,11.582585 30.782745,12.483975 C30.058315,13.385365 29.25923,14.23975 28.38549,15.04713 C27.51175,15.85451 26.63248,16.603825 25.74768,17.295075 C24.86288,17.986325 24.04444,18.61398 23.29236,19.17804 L22.34673,18.34854 L33.57816,18.34854 L33.57816,22.52922 L18.51444,22.52922 Z"></path>
                    </g>
                </g>
            </g>
        </g>
    </g>
</svg>