<?xml version="1.0" encoding="UTF-8"?>
<svg width="1567px" height="432px" viewBox="0 0 1567 432" version="1.1" xmlns="http://www.w3.org/2000/svg" xmlns:xlink="http://www.w3.org/1999/xlink">
    <title>Merge 6</title>
    <g id="Page-1" stroke="none" stroke-width="1" fill="none" fill-rule="evenodd">
        <g id="Export-Slide-5-v2" transform="translate(-80, -273)">
            <g id="Merge-6" transform="translate(80, 273)">
                <g id="XYB'C'M0I'J'M1'M2" transform="translate(144, 290)">
                    <path id="Line-3" d="M617.111586,135.893024 C617.563043,136.901121 617.111798,138.084324 616.1037,138.535781 C613.685964,139.618519 611.260872,140.713378 608.828427,141.820359 C607.82307,142.277887 606.637168,141.833784 606.179641,140.828427 C605.722113,139.82307 606.166216,138.637168 607.171573,138.179641 C609.61132,137.069337 612.043738,135.971169 614.468829,134.885138 C615.476926,134.433681 616.660129,134.884927 617.111586,135.893024 Z M1166.95326,119.27782 L1184,140 L1157.19421,141.204081 L1161.252,132.086 L1161.12575,132.025713 C1160.21077,131.542802 1159.80792,130.428859 1160.22577,129.463439 C1160.66453,128.449747 1161.84196,127.983665 1162.85566,128.422416 L1162.878,128.432 L1166.95326,119.27782 Z M633.611466,128.673523 C634.048576,129.687923 633.58059,130.864605 632.566189,131.301716 C630.129611,132.351649 627.68535,133.414244 625.233406,134.4895 C624.22183,134.933109 623.04217,134.47268 622.598562,133.461105 C622.154953,132.449529 622.615382,131.269869 623.626957,130.826261 C626.086717,129.747577 628.538822,128.681572 630.983273,127.628246 C631.997674,127.191136 633.174356,127.659122 633.611466,128.673523 Z M1146.24496,121.378668 C1148.70041,122.398039 1151.16378,123.430534 1153.63508,124.476153 C1154.65234,124.906562 1155.12808,126.080131 1154.69767,127.097393 C1154.26726,128.114655 1153.09369,128.590393 1152.07643,128.159984 C1149.61343,127.117875 1147.15838,126.088869 1144.71129,125.072968 C1143.69113,124.649456 1143.20746,123.479134 1143.63097,122.458982 C1144.05448,121.438829 1145.22481,120.955156 1146.24496,121.378668 Z M650.198873,121.704844 C650.620646,122.725717 650.134979,123.895212 649.114106,124.316985 C646.663436,125.329477 644.204762,126.355154 641.738087,127.394016 C640.720115,127.822744 639.547333,127.345068 639.118606,126.327096 C638.689878,125.309124 639.167554,124.136343 640.185526,123.707615 C642.660566,122.66523 645.127634,121.636051 647.586732,120.620077 C648.607605,120.198304 649.777101,120.683971 650.198873,121.704844 Z M1129.54217,114.598539 C1132.0133,115.578519 1134.49269,116.572191 1136.98034,117.579556 C1138.00415,117.994144 1138.49802,119.160198 1138.08344,120.18401 C1137.66885,121.207821 1136.50279,121.701694 1135.47898,121.287106 C1133.00023,120.283343 1130.52977,119.29325 1128.0676,118.316825 C1127.04083,117.909634 1126.53855,116.747174 1126.94574,115.720398 C1127.35294,114.693622 1128.5154,114.191348 1129.54217,114.598539 Z M666.894153,114.996581 C667.299478,116.024095 666.795095,117.185641 665.767581,117.590967 C663.305885,118.562038 660.835866,119.546819 658.357524,120.545309 C657.33298,120.958084 656.167803,120.462148 655.755028,119.437604 C655.342253,118.413059 655.83819,117.247882 656.862734,116.835107 C659.350033,115.833008 661.829044,114.844642 664.299767,113.87001 C665.327281,113.464684 666.488827,113.969067 666.894153,114.996581 Z M1112.70787,108.086149 C1115.19526,109.023849 1117.69128,109.975857 1120.19594,110.942173 C1121.22647,111.33976 1121.73958,112.497481 1121.34199,113.528014 C1120.9444,114.558546 1119.78668,115.07165 1118.75615,114.674062 C1116.26105,113.711436 1113.77463,112.763089 1111.29688,111.829022 C1110.26331,111.439387 1109.7413,110.285655 1110.13094,109.252089 C1110.52057,108.218523 1111.6743,107.696514 1112.70787,108.086149 Z M683.713228,108.563032 C684.100866,109.597348 683.576629,110.75007 682.542312,111.137708 C680.062222,112.067187 677.573415,113.011024 675.075891,113.969216 C674.044615,114.364872 672.887858,113.849601 672.492202,112.818325 C672.096546,111.787049 672.611817,110.630292 673.643093,110.234636 C676.150258,109.272744 678.648745,108.325238 681.138552,107.392116 C682.172868,107.004478 683.32559,107.528715 683.713228,108.563032 Z M1095.77727,101.877074 C1098.28121,102.769296 1100.79419,103.676489 1103.31619,104.598652 C1104.35359,104.977972 1104.88706,106.126447 1104.50774,107.163843 C1104.12842,108.201239 1102.97995,108.734714 1101.94255,108.355394 C1099.43085,107.436997 1096.92821,106.533537 1094.43465,105.645014 C1093.39416,105.274261 1092.85123,104.130223 1093.22199,103.089735 C1093.59274,102.049247 1094.73678,101.50632 1095.77727,101.877074 Z M700.651538,102.428779 C701.020119,103.470039 700.474805,104.61294 699.433545,104.981521 C696.936429,105.86544 694.430181,106.764393 691.914803,107.67838 C690.876644,108.055606 689.729248,107.519813 689.352022,106.481654 C688.974797,105.443494 689.51059,104.296098 690.548749,103.918873 C693.07452,103.001109 695.591202,102.098413 698.098796,101.210786 C699.140056,100.842205 700.282957,101.387519 700.651538,102.428779 Z M1078.73246,95.9881219 C1081.25347,96.8313692 1083.78394,97.6903051 1086.32387,98.5649291 C1087.36825,98.9245622 1087.92335,100.062743 1087.56372,101.107127 C1087.20409,102.151511 1086.06591,102.706611 1085.02152,102.346978 C1082.49271,101.476183 1079.9734,100.621037 1077.4636,99.7815393 C1076.41608,99.4311555 1075.85094,98.2979279 1076.20132,97.2504047 C1076.5517,96.2028814 1077.68493,95.6377382 1078.73246,95.9881219 Z M717.691637,96.6243342 C718.039665,97.6726425 717.471975,98.8045967 716.423667,99.1526248 C713.910634,99.986927 711.388033,100.836978 708.855865,101.702779 C707.810702,102.060141 706.67373,101.502569 706.316367,100.457406 C705.959004,99.4122431 706.516577,98.2752714 707.56174,97.9179087 C710.10513,97.0482713 712.638998,96.1944232 715.163346,95.3563646 C716.211654,95.0083366 717.343609,95.5760259 717.691637,96.6243342 Z M1061.55825,90.4406851 C1064.09661,91.2309545 1066.6449,92.0376904 1069.20311,92.8608924 C1070.25458,93.1992434 1070.83268,94.3259172 1070.49433,95.3773887 C1070.15598,96.4288602 1069.0293,97.0069586 1067.97783,96.6686076 C1065.43165,95.8492771 1062.89545,95.046366 1060.36922,94.259874 C1059.31458,93.931532 1058.7258,92.8104037 1059.05414,91.7557638 C1059.38249,90.7011239 1060.50361,90.1123431 1061.55825,90.4406851 Z M734.835315,91.1750145 C735.161128,92.2304383 734.569662,93.3501523 733.514239,93.6759657 C730.985699,94.4565356 728.447124,95.2536195 725.898513,96.0672178 C724.846261,96.4031307 723.72093,95.8224224 723.385017,94.7701694 C723.049104,93.7179164 723.629812,92.5925856 724.682065,92.2566727 C727.242816,91.439199 729.793582,90.6382873 732.334364,89.853938 C733.389787,89.5281246 734.509501,90.1195907 734.835315,91.1750145 Z M1044.29286,85.2754601 C1046.84818,86.0082753 1049.41393,86.7583916 1051.99011,87.5258086 C1053.04871,87.8411544 1053.65123,88.9549564 1053.33589,90.0135549 C1053.02054,91.0721534 1051.90674,91.6746787 1050.84814,91.3593328 C1048.28501,90.5958011 1045.73236,89.8495143 1043.19019,89.1204718 C1042.12842,88.8159773 1041.51453,87.7084007 1041.81902,86.64663 C1042.12351,85.5848594 1043.23109,84.9709657 1044.29286,85.2754601 Z M752.095768,86.1056039 C752.397501,87.1681626 751.78073,88.2741395 750.718171,88.5758724 C748.175441,89.2979271 745.622179,90.0373052 743.058386,90.7940072 C741.998996,91.1066855 740.886716,90.5013564 740.574038,89.4419669 C740.261359,88.3825774 740.866688,87.2702967 741.926078,86.9576185 C744.503026,86.1970336 747.0695,85.4538296 749.6255,84.7280069 C750.688058,84.426274 751.794035,85.0430452 752.095768,86.1056039 Z M1026.87455,80.5061075 C1029.44759,81.1766342 1032.0316,81.8653787 1034.62658,82.5723405 C1035.69231,82.862681 1036.32088,83.9619917 1036.03054,85.0277197 C1035.7402,86.0934477 1034.64089,86.7220235 1033.57517,86.4316831 C1030.99436,85.7285834 1028.42459,85.0436337 1025.86585,84.3768335 C1024.79698,84.0982882 1024.15629,83.005991 1024.43484,81.9371195 C1024.71338,80.868248 1025.80568,80.2275621 1026.87455,80.5061075 Z M769.499994,81.4416378 C769.775525,82.5112903 769.131762,83.6017771 768.06211,83.8773083 C765.501826,84.5368106 762.930442,85.2145634 760.347961,85.9105673 C759.281446,86.1980034 758.183851,85.5664352 757.896415,84.4999202 C757.608979,83.4334052 758.240547,82.3358109 759.307062,82.0483748 C761.903852,81.3485147 764.489606,80.6669743 767.064323,80.0037542 C768.133976,79.728223 769.224463,80.3719854 769.499994,81.4416378 Z M1009.34571,76.1804464 C1011.93462,76.782817 1014.53507,77.4043749 1017.14709,78.0451194 C1018.21985,78.3082757 1018.87617,79.391253 1018.61301,80.464017 C1018.34986,81.536781 1017.26688,82.1930977 1016.19412,81.9299415 C1013.59753,81.2929819 1011.01257,80.675128 1008.43923,80.076379 C1007.3634,79.8260609 1006.69419,78.7510038 1006.9445,77.6751717 C1007.19482,76.5993396 1008.26988,75.9301283 1009.34571,76.1804464 Z M787.009124,77.2300431 C787.256147,78.3066364 786.583648,79.3796399 785.507055,79.6266636 C782.930369,80.2178828 780.341976,80.828344 777.741877,81.4580482 C776.668343,81.7180419 775.587304,81.0585366 775.32731,79.9850017 C775.067317,78.9114669 775.726822,77.8304284 776.800357,77.5704347 C779.416043,76.9369554 782.020092,76.3228017 784.612503,75.7279745 C785.689096,75.4809508 786.7621,76.1534498 787.009124,77.2300431 Z M991.684583,72.3324437 C994.29092,72.8609444 996.909458,73.4097157 999.540198,73.9787565 C1000.6198,74.2122793 1001.30568,75.2767774 1001.07216,76.3563796 C1000.83864,77.4359818 999.77414,78.1218647 998.694538,77.8883419 C996.080636,77.3229433 993.47901,76.7777164 990.88966,76.2526602 C989.807122,76.0331482 989.107501,74.9776283 989.327013,73.8950904 C989.546525,72.8125525 990.602045,72.1129317 991.684583,72.3324437 Z M804.611007,73.5120819 C804.826974,74.5953326 804.123902,75.6485568 803.040651,75.864524 C800.449786,76.3810636 797.846572,76.9178931 795.23101,77.4750132 C794.150676,77.7051265 793.088348,77.0158865 792.858235,75.9355524 C792.628122,74.8552184 793.317362,73.7928909 794.397696,73.5627776 C797.03026,73.0020361 799.650549,72.4616854 802.258565,71.9417265 C803.341815,71.7257592 804.395039,72.4288313 804.611007,73.5120819 Z M973.93626,69.0146237 C976.558607,69.4623906 979.193848,69.9315904 981.841986,70.4222219 C982.928072,70.6234455 983.645395,71.6670162 983.444171,72.7531022 C983.242947,73.8391882 982.199377,74.5565109 981.11329,74.3552872 C978.483552,73.8680646 975.866789,73.402155 973.263003,72.9575571 C972.174192,72.7716421 971.44225,71.7382725 971.628165,70.6494615 C971.81408,69.5606505 972.847449,68.8287087 973.93626,69.0146237 Z M822.314482,70.3284808 C822.496536,71.417944 821.760936,72.4487125 820.671472,72.6307668 C818.067574,73.0658899 815.450634,73.5224322 812.820652,74.0003948 C811.733883,74.1978998 810.692774,73.4770094 810.495269,72.390241 C810.297764,71.3034726 811.018654,70.2623633 812.105423,70.0648583 C814.753975,69.5835208 817.389566,69.1237248 820.012196,68.6854715 C821.101659,68.5034173 822.132427,69.2390176 822.314482,70.3284808 Z M956.08449,66.2703328 C958.719447,66.6295002 961.368028,67.0113203 964.030232,67.4157919 C965.12227,67.5817063 965.873041,68.6014779 965.707127,69.6935155 C965.541212,70.7855531 964.521441,71.5363244 963.429403,71.3704099 C960.78731,70.968994 958.158925,70.5900853 955.544251,70.2336827 C954.449802,70.0844999 953.683512,69.0763372 953.832695,67.9818884 C953.981878,66.8874395 954.990041,66.12115 956.08449,66.2703328 Z M840.142402,67.7244585 C840.287313,68.8194812 839.517095,69.8246459 838.422072,69.9695566 C835.804712,70.3159273 833.17354,70.684969 830.528559,71.0766833 C829.435907,71.2385019 828.418957,70.4839124 828.257139,69.3912603 C828.09532,68.2986083 828.849909,67.2816588 829.942561,67.1198402 C832.607867,66.7251161 835.259447,66.3532118 837.897304,66.0041287 C838.992327,65.859218 839.997491,66.6294359 840.142402,67.7244585 Z M937.983818,64.1436567 L938.132893,64.1529242 C940.782072,64.4155783 943.445696,64.7022619 946.123765,65.0129732 C947.220974,65.1402721 948.007242,66.1329324 947.879943,67.2301419 C947.752644,68.3273515 946.759984,69.1136193 945.662775,68.9863204 C943.00673,68.6781644 940.365221,68.3938609 937.738246,68.1334083 C936.639066,68.0244295 935.836349,67.045023 935.945328,65.9458427 C936.044399,64.9465878 936.862833,64.192344 937.836651,64.1453445 L937.983818,64.1436567 Z M858.03133,65.7626008 C858.135651,66.862233 857.328792,67.8382296 856.229159,67.9425502 C853.602038,68.1917816 850.960298,68.4649986 848.30394,68.762203 C847.20622,68.8850205 846.216779,68.0947058 846.093961,66.9969856 C845.971143,65.8992654 846.761458,64.909824 847.859178,64.7870065 C850.537774,64.4873141 853.201841,64.2117879 855.851381,63.9604297 C856.951013,63.8561091 857.92701,64.6629686 858.03133,65.7626008 Z M919.954119,62.7198891 L920.103445,62.7231955 C922.758862,62.8797127 925.429543,63.0616333 928.115488,63.2689553 C929.216782,63.3539616 930.040645,64.3156478 929.955639,65.4169415 C929.870633,66.5182351 928.908947,67.3420987 927.807653,67.2570924 C925.145773,67.051628 922.49925,66.8713529 919.868083,66.7162651 C918.765428,66.6512717 917.924236,65.704705 917.98923,64.6020493 C918.048314,63.599635 918.835972,62.8133069 919.807136,62.727453 L919.954119,62.7198891 Z M875.993284,64.4990322 C876.053184,65.6019763 875.20763,66.544648 874.104686,66.6045483 C871.471308,66.7475657 868.822456,66.9159602 866.158132,67.1097341 C865.056472,67.1898568 864.098449,66.3617374 864.018326,65.2600777 C863.938203,64.158418 864.766322,63.200394 865.867982,63.1202713 C868.556625,62.9247288 871.229887,62.7547824 873.887768,62.6104343 C874.990712,62.550534 875.933384,63.3960881 875.993284,64.4990322 Z M902.03481,62.0465817 C904.697213,62.0874928 907.375801,62.1553514 910.070576,62.250155 C911.174463,62.2889903 912.037857,63.2153495 911.999022,64.3192361 C911.960187,65.4231227 911.033828,66.2865173 909.929941,66.247682 C907.261468,66.1538037 904.609272,66.0866137 901.973352,66.0461095 C900.868913,66.0291384 899.987346,65.1200559 900.004317,64.0156167 C900.021288,62.9111776 900.930371,62.0296106 902.03481,62.0465817 Z M891.968869,62.0208487 C893.07338,62.0094593 893.977996,62.8956092 893.989385,64.00012 C894.000774,65.1046308 893.114624,66.0092466 892.010114,66.0206361 C889.373716,66.0478219 886.720934,66.101869 884.051769,66.1827799 C882.947706,66.2162476 882.025556,65.3483591 881.992088,64.2442967 C881.958621,63.1402343 882.826509,62.2180841 883.930572,62.1846164 C886.626298,62.1029003 889.305731,62.0483103 891.968869,62.0208487 Z" transform="translate(896, 102) scale(1, -1) translate(-896, -102)" fill="#23C2B8FF" fill-rule="nonzero"></path>
                    <g id="Main" transform="translate(859.9203, 102.3215)" fill="#23C2B8FF" fill-rule="nonzero">
                        <path d="M15.01395,11.53005 L15.01395,22.67853 L10.80009,22.67853 L10.80009,12.26001 C10.80009,11.83973 10.74479,11.438805 10.63419,11.057235 C10.52359,10.675665 10.338335,10.33557 10.078425,10.03695 C9.818515,9.73833 9.453535,9.503305 8.983485,9.331875 C8.513435,9.160445 7.91896,9.07473 7.20006,9.07473 C6.64706,9.07473 6.113415,9.132795 5.599125,9.248925 C5.084835,9.365055 4.62308,9.50607 4.21386,9.67197 L4.21386,22.67853 L0,22.67853 L0,7.34937 C0.45346,7.11711 1.003695,6.89038 1.650705,6.66918 C2.297715,6.44798 2.99726,6.25443 3.74934,6.08853 C4.50142,5.92263 5.261795,5.78991 6.030465,5.69037 C6.799135,5.59083 7.52633,5.54106 8.21205,5.54106 C9.74939,5.54106 11.018525,5.74567 12.019455,6.15489 C13.020385,6.56411 13.7697,7.208355 14.2674,8.087625 C14.7651,8.966895 15.01395,10.11437 15.01395,11.53005 Z M10.48488,8.34477 C11.18166,7.75859 11.986275,7.258125 12.898725,6.843375 C13.811175,6.428625 14.767865,6.107885 15.768795,5.881155 C16.769725,5.654425 17.72365,5.54106 18.63057,5.54106 C20.16791,5.54106 21.437045,5.74567 22.437975,6.15489 C23.438905,6.56411 24.18822,7.208355 24.68592,8.087625 C25.18362,8.966895 25.43247,10.11437 25.43247,11.53005 L25.43247,22.67853 L21.21861,22.67853 L21.21861,12.26001 C21.21861,11.83973 21.16331,11.438805 21.05271,11.057235 C20.94211,10.675665 20.756855,10.33557 20.496945,10.03695 C20.237035,9.73833 19.872055,9.503305 19.402005,9.331875 C18.931955,9.160445 18.33748,9.07473 17.61858,9.07473 C17.06558,9.07473 16.531935,9.154915 16.017645,9.315285 C15.503355,9.475655 15.0416,9.70515 14.63238,10.00377 L10.48488,8.34477 Z" id="Shape"></path>
                        <path d="M36.3321,23.17623 C35.392,23.17623 34.498905,23.08775 33.652815,22.91079 C32.806725,22.73383 32.05188,22.437975 31.38828,22.023225 C30.72468,21.608475 30.202095,21.04165 29.820525,20.32275 C29.438955,19.60385 29.24817,18.70799 29.24817,17.63517 C29.24817,16.49599 29.477665,15.53377 29.936655,14.74851 C30.395645,13.96325 31.07307,13.36601 31.96893,12.95679 C32.86479,12.54757 33.96526,12.34296 35.27034,12.34296 C36.06666,12.34296 36.810445,12.41485 37.501695,12.55863 C38.192945,12.70241 38.81507,12.898725 39.36807,13.147575 C39.92107,13.396425 40.37453,13.67016 40.72845,13.96878 L41.01048,16.30797 C40.54596,16.00935 39.95425,15.763265 39.23535,15.569715 C38.51645,15.376165 37.74225,15.27939 36.91275,15.27939 C35.74039,15.27939 34.86665,15.470175 34.29153,15.851745 C33.71641,16.233315 33.42885,16.81673 33.42885,17.60199 C33.42885,18.14393 33.58369,18.600155 33.89337,18.970665 C34.20305,19.341175 34.60121,19.617675 35.08785,19.800165 C35.57449,19.982655 36.08325,20.0739 36.61413,20.0739 C37.83073,20.0739 38.707235,19.99095 39.243645,19.82505 C39.780055,19.65915 40.04826,19.2997 40.04826,18.7467 L40.04826,12.17706 C40.04826,11.08212 39.708165,10.2858 39.027975,9.7881 C38.347785,9.2904 37.3828,9.04155 36.13302,9.04155 C35.18186,9.04155 34.211345,9.20192 33.221475,9.52266 C32.231605,9.8434 31.42146,10.25815 30.79104,10.76691 L30.79104,6.95121 C31.38828,6.56411 32.28414,6.229545 33.47862,5.947515 C34.6731,5.665485 35.96159,5.52447 37.34409,5.52447 C37.91921,5.52447 38.524745,5.577005 39.160695,5.682075 C39.796645,5.787145 40.41324,5.96134 41.01048,6.20466 C41.60772,6.44798 42.14966,6.788075 42.6363,7.224945 C43.12294,7.661815 43.51004,8.20652 43.7976,8.85906 C44.08516,9.5116 44.22894,10.30239 44.22894,11.23143 L44.21235,19.17804 C44.21235,20.19556 43.883315,20.99741 43.225245,21.58359 C42.567175,22.16977 41.649195,22.581755 40.471305,22.819545 C39.293415,23.057335 37.91368,23.17623 36.3321,23.17623 Z" id="Path"></path>
                        <path d="M48.97368,22.67853 L48.97368,6.12171 L53.18754,6.12171 L53.22072,22.67853 L48.97368,22.67853 Z M48.87414,3.4839 L48.87414,0 L53.28708,0 L53.28708,3.4839 L48.87414,3.4839 Z" id="Shape"></path>
                        <path d="M57.93228,7.34937 C58.38574,7.11711 58.935975,6.89038 59.582985,6.66918 C60.229995,6.44798 60.92954,6.25443 61.68162,6.08853 C62.4337,5.92263 63.194075,5.78991 63.962745,5.69037 C64.731415,5.59083 65.45861,5.54106 66.14433,5.54106 C67.68167,5.54106 68.96463,5.74567 69.99321,6.15489 C71.02179,6.56411 71.798755,7.208355 72.324105,8.087625 C72.849455,8.966895 73.11213,10.11437 73.11213,11.53005 L73.11213,22.67853 L68.89827,22.67853 L68.89827,12.26001 C68.89827,11.83973 68.84297,11.438805 68.73237,11.057235 C68.62177,10.675665 68.436515,10.33557 68.176605,10.03695 C67.916695,9.73833 67.551715,9.503305 67.081665,9.331875 C66.611615,9.160445 66.01714,9.07473 65.29824,9.07473 C64.74524,9.07473 64.183945,9.132795 63.614355,9.248925 C63.044765,9.365055 62.55536,9.50607 62.14614,9.67197 L62.14614,22.67853 L57.93228,22.67853 L57.93228,7.34937 Z" id="Path"></path>
                    </g>
                    <g id="M2" transform="translate(1152, 0)">
                        <circle id="Oval" stroke="#7C7C7Cff" stroke-width="2" cx="32" cy="32" r="31"></circle>
                        <g transform="translate(9, 19)" fill="#5445C4ff" fill-rule="nonzero" id="Path">
                            <polygon points="0 24 0 0.424153166 4.92379836 0.424153166 13.1535756 12.3004418 10.4630715 12.4948454 19.0445487 0.424153166 23.862837 0.424153166 23.862837 24 19.0797186 24 19.0797186 4.24153166 20.1875733 5.53166421 11.7116061 17.089838 3.48182884 5.49631811 4.60726846 4.50662739 4.60726846 24"></polygon>
                            <path d="M29.0328253,24 L29.0328253,20.4830633 C29.8300117,19.9764359 30.7121923,19.3490427 31.6793669,18.6008837 C32.6465416,17.8527246 33.6049238,17.0250368 34.5545135,16.1178203 C35.5041032,15.2106038 36.3716295,14.2709867 37.1570926,13.2989691 C37.9425557,12.3269514 38.5756155,11.3578792 39.056272,10.3917526 C39.5369285,9.42562592 39.7772567,8.51251841 39.7772567,7.65243004 C39.7772567,6.87481591 39.6131301,6.20618557 39.2848769,5.64653903 C38.9566237,5.08689249 38.461313,4.65684831 37.7989449,4.35640648 C37.1365768,4.05596465 36.3071512,3.90574374 35.3106682,3.90574374 C34.1031653,3.90574374 33.007034,4.15316642 32.0222743,4.64801178 C31.0375147,5.14285714 30.1113716,5.72017673 29.2438453,6.37997054 L29.2438453,2.08541973 C30.123095,1.54344624 31.1635404,1.06038292 32.3651817,0.63622975 C33.566823,0.212076583 34.9765533,0 36.5943728,0 C38.3880422,0 39.876905,0.300441826 41.0609613,0.901325479 C42.2450176,1.50220913 43.1271981,2.33284242 43.7075029,3.39322533 C44.2878077,4.45360825 44.5779601,5.68483063 44.5779601,7.08689249 C44.5779601,8.1826215 44.3464244,9.25184094 43.8833529,10.2945508 C43.4202814,11.3372607 42.8048066,12.3387334 42.0369285,13.2989691 C41.2690504,14.2592047 40.4220399,15.1693667 39.4958968,16.0294551 C38.5697538,16.8895434 37.6377491,17.6877761 36.6998828,18.4241532 C35.7620164,19.1605302 34.89449,19.8291605 34.0973036,20.4300442 L33.094959,19.5463918 L45,19.5463918 L45,24 L29.0328253,24 Z"></path>
                        </g>
                    </g>
                    <g id="M1'" transform="translate(1008, 0)">
                        <line x1="64" y1="31" x2="144" y2="31" id="Line" stroke="#7C7C7Cff" stroke-width="2"></line>
                        <circle id="Oval" stroke="#7C7C7Cff" stroke-width="2" cx="32" cy="32" r="31"></circle>
                        <g id="M1’" transform="translate(6, 19)" fill="#5445C4ff" fill-rule="nonzero">
                            <polygon id="Path" points="0 24 0 0.319526627 5.02242152 0.319526627 13.4170404 12.2485207 10.6726457 12.443787 19.426009 0.319526627 24.3408072 0.319526627 24.3408072 24 19.4618834 24 19.4618834 4.15384615 20.5919283 5.44970414 11.9461883 17.0591716 3.55156951 5.41420118 4.69955157 4.42011834 4.69955157 24"></polygon>
                            <polygon id="Path" points="34.2780269 24 34.2780269 5.04142012 29.5964126 7.77514793 29.5964126 3.26627219 34.6547085 0.319526627 39.1569507 0.319526627 39.1569507 24"></polygon>
                            <polygon id="Path" points="45.3811659 6.95857988 48.0358744 0 52 0 48.7713004 6.95857988"></polygon>
                        </g>
                    </g>
                    <g id="J'" transform="translate(864, 0)">
                        <line x1="64" y1="31" x2="144" y2="31" id="Line" stroke="#7C7C7Cff" stroke-width="2"></line>
                        <circle id="Oval" stroke="#7C7C7Cff" stroke-width="2" cx="32" cy="32" r="31"></circle>
                        <g id="J’" transform="translate(19, 15)" fill="#5445C4ff" fill-rule="nonzero">
                            <path d="M6.9924812,32 C5.6716792,32 4.42468672,31.8409697 3.25150376,31.5229091 C2.0783208,31.2048485 0.994486216,30.7975758 0,30.3010909 L0,24.3898182 C0.963408521,25.0569697 1.89185464,25.6193939 2.78533835,26.0770909 C3.67882206,26.5347879 4.60726817,26.7636364 5.57067669,26.7636364 C7.1245614,26.7636364 8.3093985,26.3718788 9.12518797,25.5883636 C9.94097744,24.8048485 10.3488722,23.5287273 10.3488722,21.76 L10.3488722,0.418909091 L16.7120301,0.418909091 L16.7120301,22.0858182 C16.7120301,24.0407273 16.4245614,25.6581818 15.8496241,26.9381818 C15.2746867,28.2181818 14.5210526,29.2305455 13.5887218,29.9752727 C12.656391,30.72 11.6152882,31.2436364 10.4654135,31.5461818 C9.31553885,31.8487273 8.15789474,32 6.9924812,32 Z" id="Path"></path>
                            <polygon id="Path" points="22.3992481 9.12290909 25.8488722 0 31 0 26.8045113 9.12290909"></polygon>
                        </g>
                    </g>
                    <g id="I'" transform="translate(720, 0)">
                        <line x1="64" y1="31" x2="144" y2="31" id="Line" stroke="#7C7C7Cff" stroke-width="2"></line>
                        <circle id="Oval" stroke="#7C7C7Cff" stroke-width="2" cx="32" cy="32" r="31"></circle>
                        <g id="I’" transform="translate(27, 15)" fill="#5445C4ff" fill-rule="nonzero">
                            <polygon id="Path" points="0 32 0 0.426035503 6.47065463 0.426035503 6.47065463 32"></polygon>
                            <polygon id="Path" points="12.2539503 9.27810651 15.761851 0 21 0 16.7336343 9.27810651"></polygon>
                        </g>
                    </g>
                    <g id="M0" transform="translate(576, 0)">
                        <line x1="64" y1="31" x2="144" y2="31" id="Line" stroke="#7C7C7Cff" stroke-width="2"></line>
                        <circle id="Oval" stroke="#7C7C7Cff" stroke-width="2" cx="32" cy="32" r="31"></circle>
                        <g transform="translate(9, 20)" fill="#5445C4ff" fill-rule="nonzero">
                            <polygon id="Path" points="0 23.5652174 0 0.365217391 4.81522137 0.365217391 12.8635199 12.0521739 10.2323454 12.2434783 18.6245884 0.365217391 23.3366264 0.365217391 23.3366264 23.5652174 18.6589828 23.5652174 18.6589828 4.12173913 19.7424076 5.39130435 11.453348 16.7652174 3.4050494 5.35652174 4.50567142 4.3826087 4.50567142 23.5652174"></polygon>
                            <path d="M37.2663739,24 C33.9645079,24 31.5196365,23 29.93176,21 C28.3438834,19 27.5499451,16 27.5499451,12 C27.5499451,8.0115942 28.3438834,5.01449275 29.93176,3.00869565 C31.5196365,1.00289855 33.9645079,0 37.2663739,0 C40.6026345,0 43.0589706,1.00289855 44.6353824,3.00869565 C46.2117941,5.01449275 47,8.0115942 47,12 C47,16 46.2117941,19 44.6353824,21 C43.0589706,23 40.6026345,24 37.2663739,24 Z M37.2663739,20.0869565 C37.8625442,20.0869565 38.4558483,19.9942029 39.0462861,19.8086957 C39.636724,19.6231884 40.172704,19.2550725 40.6542261,18.7043478 C41.1357483,18.1536232 41.5226857,17.342029 41.8150384,16.2695652 C42.1073911,15.1971014 42.2535675,13.773913 42.2535675,12 C42.2535675,10.2376812 42.1073911,8.82318841 41.8150384,7.75652174 C41.5226857,6.68985507 41.1357483,5.88405797 40.6542261,5.33913043 C40.172704,4.7942029 39.636724,4.42318841 39.0462861,4.22608696 C38.4558483,4.02898551 37.8625442,3.93043478 37.2663739,3.93043478 C36.6816685,3.93043478 36.0940968,4.02898551 35.503659,4.22608696 C34.9132211,4.42318841 34.3772411,4.7942029 33.895719,5.33913043 C33.4141969,5.88405797 33.0301256,6.68985507 32.7435053,7.75652174 C32.456885,8.82318841 32.3135748,10.2376812 32.3135748,12 C32.3135748,13.773913 32.456885,15.1971014 32.7435053,16.2695652 C33.0301256,17.342029 33.4141969,18.1536232 33.895719,18.7043478 C34.3772411,19.2550725 34.9132211,19.6231884 35.503659,19.8086957 C36.0940968,19.9942029 36.6816685,20.0869565 37.2663739,20.0869565 Z" id="Shape"></path>
                        </g>
                    </g>
                    <g id="C'" transform="translate(432, 0)">
                        <line x1="64" y1="31" x2="144" y2="31" id="Line" stroke="#7C7C7Cff" stroke-width="2"></line>
                        <circle id="Oval" stroke="#7C7C7Cff" stroke-width="2" cx="32" cy="32" r="31"></circle>
                        <g id="C’" transform="translate(14, 15)" fill="#5445C4ff" fill-rule="nonzero">
                            <path d="M15.0324556,32 C10.1147173,32 6.37987344,30.692697 3.82792407,28.0780911 C1.27597469,25.4634852 0,21.4490239 0,16.0347072 C0,10.7437937 1.24106961,6.74861412 3.72320882,4.04916847 C6.20534803,1.34972282 9.97509696,0 15.0324556,0 C16.6768728,0 18.3251684,0.200530248 19.9773423,0.601590745 C21.6295162,1.00265124 23.2312717,1.55796577 24.7826087,2.26753435 L24.7826087,7.82067968 C23.2157583,6.84887925 21.683813,6.14316703 20.1867728,5.70354302 C18.6897326,5.26391902 17.2508675,5.04410701 15.8701776,5.04410701 C13.8224127,5.04410701 12.1081853,5.406604 10.7274954,6.13159798 C9.34680547,6.85659195 8.30740968,8.02120993 7.60930802,9.62545192 C6.91120637,11.2296939 6.56215554,13.373825 6.56215554,16.0578453 C6.56215554,18.7110147 6.91508471,20.8358641 7.62094305,22.4323933 C8.32680139,24.0289226 9.3855889,25.1819716 10.7973056,25.8915401 C12.2090222,26.6011087 13.9775464,26.955893 16.1028781,26.955893 C17.3749745,26.955893 18.7479077,26.7437937 20.2216779,26.3195951 C21.6954481,25.8953965 23.2157583,25.2051097 24.7826087,24.2487346 L24.7826087,29.80188 C23.8828332,30.2492167 22.8860992,30.6387081 21.7924066,30.9703543 C20.698714,31.3020005 19.5739947,31.5565196 18.4182486,31.7339118 C17.2625026,31.9113039 16.1339049,32 15.0324556,32 Z" id="Path"></path>
                            <polygon id="Path" points="29.4133497 9.25524223 32.8573178 0.185104845 38 0.185104845 33.8113901 9.25524223"></polygon>
                        </g>
                    </g>
                    <g id="B'" transform="translate(288, 0)">
                        <line x1="64" y1="31" x2="144" y2="31" id="Line" stroke="#7C7C7Cff" stroke-width="2"></line>
                        <circle id="Oval" stroke="#7C7C7Cff" stroke-width="2" cx="32" cy="32" r="31"></circle>
                        <g transform="translate(16, 15)" fill="#5445C4ff" fill-rule="nonzero">
                            <path d="M0,32 L0,0 L12.3600746,0 C14.7543532,0 16.7599502,0.323838081 18.3768657,0.971514243 C19.9937811,1.6191904 21.2220149,2.59070465 22.0615672,3.88605697 C22.9011194,5.1814093 23.3208955,6.8125937 23.3208955,8.77961019 C23.3208955,10.2028986 23.0177239,11.3583208 22.4113806,12.2458771 C21.8050373,13.1334333 21.0782027,13.8450775 20.2308769,14.3808096 C19.383551,14.9165417 18.5867537,15.3763118 17.8404851,15.7601199 L17.1175373,14.3688156 C18.5634328,14.5127436 19.8810634,14.9125437 21.0704291,15.5682159 C22.2597948,16.2238881 23.2120647,17.1274363 23.9272388,18.2788606 C24.6424129,19.4302849 25,20.8375812 25,22.5007496 C25,24.7076462 24.4986007,26.5107446 23.4958022,27.910045 C22.4930037,29.3093453 21.1248445,30.3408296 19.3913246,31.0044978 C17.6578047,31.6681659 15.7027363,32 13.5261194,32 L0,32 Z M6.36660448,26.7946027 L13.2229478,26.7946027 C14.1557836,26.7946027 15.0225435,26.6666667 15.8232276,26.4107946 C16.6239117,26.1549225 17.2691231,25.6911544 17.7588619,25.0194903 C18.2486007,24.3478261 18.4934701,23.4202899 18.4934701,22.2368816 C18.4934701,21.3413293 18.3379975,20.6136932 18.0270522,20.053973 C17.716107,19.4942529 17.3041045,19.0624688 16.7910448,18.7586207 C16.2779851,18.4547726 15.6988495,18.2428786 15.0536381,18.1229385 C14.4084266,18.0029985 13.7515547,17.9430285 13.0830224,17.9430285 L6.36660448,17.9430285 L6.36660448,26.7946027 Z M6.34328358,12.9535232 L12.8731343,12.9535232 C13.5416667,12.9535232 14.1791045,12.8495752 14.7854478,12.6416792 C15.391791,12.4337831 15.8931903,12.065967 16.2896455,11.5382309 C16.6861007,11.0104948 16.8843284,10.2668666 16.8843284,9.30734633 C16.8843284,7.75612194 16.4684391,6.69265367 15.6366604,6.11694153 C14.8048818,5.54122939 13.7360075,5.25337331 12.4300373,5.25337331 L6.34328358,5.25337331 L6.34328358,12.9535232 Z" id="Shape"></path>
                            <polygon id="Path" points="27 9 30.6097561 0 36 0 31.6097561 9"></polygon>
                        </g>
                    </g>
                    <g id="Y" transform="translate(144, 0)">
                        <line x1="64" y1="31" x2="144" y2="31" id="Line" stroke="#7C7C7Cff" stroke-width="2"></line>
                        <circle id="Oval" stroke="#7C7C7Cff" stroke-width="2" cx="32" cy="32" r="31"></circle>
                        <polygon id="Path" fill="#5445C4ff" fill-rule="nonzero" points="29.0863309 48 29.0863309 33.9190405 17 16 25.0095923 16 34.4100719 31.2083958 31.5323741 31.1124438 40.2853717 16 47 16 34.6498801 35.5262369 35.6091127 31.976012 35.6091127 48"></polygon>
                    </g>
                    <g id="X">
                        <line x1="64" y1="31" x2="144" y2="31" id="Line" stroke="#7C7C7Cff" stroke-width="2"></line>
                        <circle id="Oval" stroke="#7C7C7Cff" stroke-width="2" cx="32" cy="32" r="31"></circle>
                        <path d="M47,48 L38.9553073,48 L17,16 L25.0446927,16 L47,48 Z M31.7486034,28.2818591 L39.4102155,16 L46.7126895,16 L35.2681564,33.2233883 L31.7486034,28.2818591 Z M33.0654429,34.2548726 L24.3743017,48 L17.1675978,48 L29.3543496,29.8650675 L33.0654429,34.2548726 Z" id="Shape" fill="#5445C4ff" fill-rule="nonzero"></path>
                    </g>
                </g>
                <g id="F2,-Main" transform="translate(1360, 217.3215)" fill="#23C2B8FF" fill-rule="nonzero">
                    <path id="Line-2" d="M0,13.67853 L20.723791,30.7233088 L11.764791,34.712339 C18.1090719,45.9475708 25.2185058,54.0299857 33.067986,58.9875522 C45.4438392,66.8038805 55.7762378,70.67853 64,70.67853 L66,70.67853 L66,74.67853 L64,74.67853 C54.8904289,74.67853 43.8894941,70.5531795 30.932014,62.3695078 C22.3930546,56.9764808 14.7892394,48.2925801 8.09469415,36.3466291 L-1.20154846,40.4844301 L0,13.67853 Z" transform="translate(32, 43.1785) scale(1, -1) translate(-32, -43.1785)"></path>
                    <g id="F2,-main" transform="translate(74.4885, 0)">
                        <polygon id="Path" points="0 22.67853 0 0.54747 14.63238 0.54747 14.63238 4.16409 4.51248 4.16409 4.51248 10.10331 13.30518 10.10331 13.30518 13.7697 4.51248 13.7697 4.51248 22.67853"></polygon>
                        <path d="M18.51444,22.67853 L18.51444,19.37712 C19.26652,18.90154 20.098785,18.312595 21.011235,17.610285 C21.923685,16.907975 22.82784,16.13101 23.7237,15.27939 C24.61956,14.42777 25.438,13.545735 26.17902,12.633285 C26.92004,11.720835 27.51728,10.81115 27.97074,9.90423 C28.4242,8.99731 28.65093,8.14016 28.65093,7.33278 C28.65093,6.60282 28.49609,5.975165 28.18641,5.449815 C27.87673,4.924465 27.409445,4.520775 26.784555,4.238745 C26.159665,3.956715 25.37717,3.8157 24.43707,3.8157 C23.29789,3.8157 22.26378,4.04796 21.33474,4.51248 C20.4057,4.977 19.53196,5.51894 18.71352,6.1383 L18.71352,2.10693 C19.54302,1.59817 20.524595,1.14471 21.658245,0.74655 C22.791895,0.34839 24.12186,0.14931 25.64814,0.14931 C27.34032,0.14931 28.74494,0.43134 29.862,0.9954 C30.97906,1.55946 31.811325,2.33919 32.358795,3.33459 C32.906265,4.32999 33.18,5.48576 33.18,6.8019 C33.18,7.83048 32.961565,8.834175 32.524695,9.812985 C32.087825,10.791795 31.507175,11.731895 30.782745,12.633285 C30.058315,13.534675 29.25923,14.38906 28.38549,15.19644 C27.51175,16.00382 26.63248,16.753135 25.74768,17.444385 C24.86288,18.135635 24.04444,18.76329 23.29236,19.32735 L22.34673,18.49785 L33.57816,18.49785 L33.57816,22.67853 L18.51444,22.67853 Z" id="Path"></path>
                        <polygon id="Path" points="38.50539 26.39469 40.96071 19.89141 44.6271 19.89141 41.6409 26.39469"></polygon>
                        <path d="M73.95822,11.53005 L73.95822,22.67853 L69.74436,22.67853 L69.74436,12.26001 C69.74436,11.83973 69.68906,11.438805 69.57846,11.057235 C69.46786,10.675665 69.282605,10.33557 69.022695,10.03695 C68.762785,9.73833 68.397805,9.503305 67.927755,9.331875 C67.457705,9.160445 66.86323,9.07473 66.14433,9.07473 C65.59133,9.07473 65.057685,9.132795 64.543395,9.248925 C64.029105,9.365055 63.56735,9.50607 63.15813,9.67197 L63.15813,22.67853 L58.94427,22.67853 L58.94427,7.34937 C59.39773,7.11711 59.947965,6.89038 60.594975,6.66918 C61.241985,6.44798 61.94153,6.25443 62.69361,6.08853 C63.44569,5.92263 64.206065,5.78991 64.974735,5.69037 C65.743405,5.59083 66.4706,5.54106 67.15632,5.54106 C68.69366,5.54106 69.962795,5.74567 70.963725,6.15489 C71.964655,6.56411 72.71397,7.208355 73.21167,8.087625 C73.70937,8.966895 73.95822,10.11437 73.95822,11.53005 Z M69.42915,8.34477 C70.12593,7.75859 70.930545,7.258125 71.842995,6.843375 C72.755445,6.428625 73.712135,6.107885 74.713065,5.881155 C75.713995,5.654425 76.66792,5.54106 77.57484,5.54106 C79.11218,5.54106 80.381315,5.74567 81.382245,6.15489 C82.383175,6.56411 83.13249,7.208355 83.63019,8.087625 C84.12789,8.966895 84.37674,10.11437 84.37674,11.53005 L84.37674,22.67853 L80.16288,22.67853 L80.16288,12.26001 C80.16288,11.83973 80.10758,11.438805 79.99698,11.057235 C79.88638,10.675665 79.701125,10.33557 79.441215,10.03695 C79.181305,9.73833 78.816325,9.503305 78.346275,9.331875 C77.876225,9.160445 77.28175,9.07473 76.56285,9.07473 C76.00985,9.07473 75.476205,9.154915 74.961915,9.315285 C74.447625,9.475655 73.98587,9.70515 73.57665,10.00377 L69.42915,8.34477 Z" id="Shape"></path>
                        <path d="M95.27637,23.17623 C94.33627,23.17623 93.443175,23.08775 92.597085,22.91079 C91.750995,22.73383 90.99615,22.437975 90.33255,22.023225 C89.66895,21.608475 89.146365,21.04165 88.764795,20.32275 C88.383225,19.60385 88.19244,18.70799 88.19244,17.63517 C88.19244,16.49599 88.421935,15.53377 88.880925,14.74851 C89.339915,13.96325 90.01734,13.36601 90.9132,12.95679 C91.80906,12.54757 92.90953,12.34296 94.21461,12.34296 C95.01093,12.34296 95.754715,12.41485 96.445965,12.55863 C97.137215,12.70241 97.75934,12.898725 98.31234,13.147575 C98.86534,13.396425 99.3188,13.67016 99.67272,13.96878 L99.95475,16.30797 C99.49023,16.00935 98.89852,15.763265 98.17962,15.569715 C97.46072,15.376165 96.68652,15.27939 95.85702,15.27939 C94.68466,15.27939 93.81092,15.470175 93.2358,15.851745 C92.66068,16.233315 92.37312,16.81673 92.37312,17.60199 C92.37312,18.14393 92.52796,18.600155 92.83764,18.970665 C93.14732,19.341175 93.54548,19.617675 94.03212,19.800165 C94.51876,19.982655 95.02752,20.0739 95.5584,20.0739 C96.775,20.0739 97.651505,19.99095 98.187915,19.82505 C98.724325,19.65915 98.99253,19.2997 98.99253,18.7467 L98.99253,12.17706 C98.99253,11.08212 98.652435,10.2858 97.972245,9.7881 C97.292055,9.2904 96.32707,9.04155 95.07729,9.04155 C94.12613,9.04155 93.155615,9.20192 92.165745,9.52266 C91.175875,9.8434 90.36573,10.25815 89.73531,10.76691 L89.73531,6.95121 C90.33255,6.56411 91.22841,6.229545 92.42289,5.947515 C93.61737,5.665485 94.90586,5.52447 96.28836,5.52447 C96.86348,5.52447 97.469015,5.577005 98.104965,5.682075 C98.740915,5.787145 99.35751,5.96134 99.95475,6.20466 C100.55199,6.44798 101.09393,6.788075 101.58057,7.224945 C102.06721,7.661815 102.45431,8.20652 102.74187,8.85906 C103.02943,9.5116 103.17321,10.30239 103.17321,11.23143 L103.15662,19.17804 C103.15662,20.19556 102.827585,20.99741 102.169515,21.58359 C101.511445,22.16977 100.593465,22.581755 99.415575,22.819545 C98.237685,23.057335 96.85795,23.17623 95.27637,23.17623 Z" id="Path"></path>
                        <path d="M107.91795,22.67853 L107.91795,6.12171 L112.13181,6.12171 L112.16499,22.67853 L107.91795,22.67853 Z M107.81841,3.4839 L107.81841,0 L112.23135,0 L112.23135,3.4839 L107.81841,3.4839 Z" id="Shape"></path>
                        <path d="M116.87655,7.34937 C117.33001,7.11711 117.880245,6.89038 118.527255,6.66918 C119.174265,6.44798 119.87381,6.25443 120.62589,6.08853 C121.37797,5.92263 122.138345,5.78991 122.907015,5.69037 C123.675685,5.59083 124.40288,5.54106 125.0886,5.54106 C126.62594,5.54106 127.9089,5.74567 128.93748,6.15489 C129.96606,6.56411 130.743025,7.208355 131.268375,8.087625 C131.793725,8.966895 132.0564,10.11437 132.0564,11.53005 L132.0564,22.67853 L127.84254,22.67853 L127.84254,12.26001 C127.84254,11.83973 127.78724,11.438805 127.67664,11.057235 C127.56604,10.675665 127.380785,10.33557 127.120875,10.03695 C126.860965,9.73833 126.495985,9.503305 126.025935,9.331875 C125.555885,9.160445 124.96141,9.07473 124.24251,9.07473 C123.68951,9.07473 123.128215,9.132795 122.558625,9.248925 C121.989035,9.365055 121.49963,9.50607 121.09041,9.67197 L121.09041,22.67853 L116.87655,22.67853 L116.87655,7.34937 Z" id="Path"></path>
                    </g>
                </g>
                <g id="F1" transform="translate(784, 217.8689)" fill="#23C2B8FF" fill-rule="nonzero">
                    <path id="Line-2" d="M0,13.13106 L20.723791,30.1758388 L11.7647535,34.1648027 C18.1090439,45.400069 25.2184903,53.482506 33.067986,58.4400822 C45.4438392,66.2564105 55.7762378,70.13106 64,70.13106 L66,70.13106 L66,74.13106 L64,74.13106 C54.8904289,74.13106 43.8894941,70.0057095 30.932014,61.8220378 C22.3930546,56.4290108 14.7892394,47.7451101 8.09469415,35.7991591 L-1.20154846,39.9369601 L0,13.13106 Z" transform="translate(32, 42.6311) scale(1, -1) translate(-32, -42.6311)"></path>
                    <g transform="translate(74.4885, 0)" id="Path">
                        <polygon points="0 22.13106 0 0 14.63238 0 14.63238 3.61662 4.51248 3.61662 4.51248 9.55584 13.30518 9.55584 13.30518 13.22223 4.51248 13.22223 4.51248 22.13106"></polygon>
                        <polygon points="22.82784 22.13106 22.82784 4.41294 18.49785 6.9678 18.49785 2.75394 23.17623 0 27.34032 0 27.34032 22.13106"></polygon>
                    </g>
                </g>
                <g id="ABC" transform="translate(0, 145)">
                    <path d="M64,177 C80,170.333333 90.6666667,160 96,146 C104,125 93,87 104,65 C111.333333,50.3333333 124.666667,39 144,31" id="Line-2" stroke="#7C7C7Cff" stroke-width="2" transform="translate(104, 104) scale(1, -1) translate(-104, -104)"></path>
                    <g id="C" transform="translate(288, 0)">
                        <circle id="Oval" stroke="#7C7C7Cff" stroke-width="2" cx="32" cy="32" r="31"></circle>
                        <g transform="translate(20, 16)" fill="#5445C4ff" fill-rule="nonzero" id="Path">
                            <path d="M15.1643192,32 C10.2034429,32 6.43583725,30.692697 3.86150235,28.0780911 C1.28716745,25.4634852 0,21.4490239 0,16.0347072 C0,10.7437937 1.25195618,6.74861412 3.75586854,4.04916847 C6.25978091,1.34972282 10.0625978,0 15.1643192,0 C16.8231612,0 18.4859155,0.200530248 20.1525822,0.601590745 C21.8192488,1.00265124 23.4350548,1.55796577 25,2.26753435 L25,7.82067968 C23.4194053,6.84887925 21.8740219,6.14316703 20.3638498,5.70354302 C18.8536776,5.26391902 17.4021909,5.04410701 16.0093897,5.04410701 C13.943662,5.04410701 12.2143975,5.406604 10.8215962,6.13159798 C9.42879499,6.85659195 8.38028169,8.02120993 7.67605634,9.62545192 C6.97183099,11.2296939 6.61971831,13.373825 6.61971831,16.0578453 C6.61971831,18.7110147 6.97574335,20.8358641 7.68779343,22.4323933 C8.39984351,24.0289226 9.46791862,25.1819716 10.8920188,25.8915401 C12.3161189,26.6011087 14.1001565,26.955893 16.2441315,26.955893 C17.5273865,26.955893 18.9123631,26.7437937 20.399061,26.3195951 C21.885759,25.8953965 23.4194053,25.2051097 25,24.2487346 L25,29.80188 C24.0923318,30.2492167 23.0868545,30.6387081 21.9835681,30.9703543 C20.8802817,31.3020005 19.7456964,31.5565196 18.5798122,31.7339118 C17.413928,31.9113039 16.2754304,32 15.1643192,32 Z"></path>
                        </g>
                    </g>
                    <g id="B" transform="translate(144, 0)">
                        <line x1="64" y1="31" x2="144" y2="31" id="Line" stroke="#7C7C7Cff" stroke-width="2"></line>
                        <circle id="Oval" stroke="#7C7C7Cff" stroke-width="2" cx="32" cy="32" r="31"></circle>
                        <path d="M19,48 L19,16 L31.8544776,16 C34.3445274,16 36.4303483,16.3238381 38.1119403,16.9715142 C39.7935323,17.6191904 41.0708955,18.5907046 41.9440299,19.886057 C42.8171642,21.1814093 43.2537313,22.8125937 43.2537313,24.7796102 C43.2537313,26.2028986 42.9384328,27.3583208 42.3078358,28.2458771 C41.6772388,29.1334333 40.9213308,29.8450775 40.0401119,30.3808096 C39.158893,30.9165417 38.3302239,31.3763118 37.5541045,31.7601199 L36.8022388,30.3688156 C38.3059701,30.5127436 39.676306,30.9125437 40.9132463,31.5682159 C42.1501866,32.2238881 43.1405473,33.1274363 43.8843284,34.2788606 C44.6281095,35.4302849 45,36.8375812 45,38.5007496 C45,40.7076462 44.4785448,42.5107446 43.4356343,43.910045 C42.3927239,45.3093453 40.9698383,46.3408296 39.1669776,47.0044978 C37.3641169,47.6681659 35.3308458,48 33.0671642,48 L19,48 Z M25.6212687,42.7946027 L32.7518657,42.7946027 C33.7220149,42.7946027 34.6234453,42.6666667 35.4561567,42.4107946 C36.2888682,42.1549225 36.9598881,41.6911544 37.4692164,41.0194903 C37.9785448,40.3478261 38.233209,39.4202899 38.233209,38.2368816 C38.233209,37.3413293 38.0715174,36.6136932 37.7481343,36.053973 C37.4247512,35.4942529 36.9962687,35.0624688 36.4626866,34.7586207 C35.9291045,34.4547726 35.3268035,34.2428786 34.6557836,34.1229385 C33.9847637,34.0029985 33.3016169,33.9430285 32.6063433,33.9430285 L25.6212687,33.9430285 L25.6212687,42.7946027 Z M25.5970149,28.9535232 L32.3880597,28.9535232 C33.0833333,28.9535232 33.7462687,28.8495752 34.3768657,28.6416792 C35.0074627,28.4337831 35.5289179,28.065967 35.9412313,27.5382309 C36.3535448,27.0104948 36.5597015,26.2668666 36.5597015,25.3073463 C36.5597015,23.7561219 36.1271766,22.6926537 35.2621269,22.1169415 C34.3970771,21.5412294 33.2854478,21.2533733 31.9272388,21.2533733 L25.5970149,21.2533733 L25.5970149,28.9535232 Z" id="Shape" fill="#5445C4ff" fill-rule="nonzero"></path>
                    </g>
                    <g id="A">
                        <line x1="64" y1="31" x2="144" y2="31" id="Line" stroke="#7C7C7Cff" stroke-width="2"></line>
                        <circle id="Oval" stroke="#7C7C7Cff" stroke-width="2" cx="32" cy="32" r="31"></circle>
                        <path d="M17,48 L29.2563707,16 L36.2942085,16 L48,48 L41.2494208,48 L30.8123552,18.2068966 L33.7088803,17.9430285 L23.2957529,48 L17,48 Z M23.4633205,40.2038981 L25.019305,35.1904048 L39.8610039,35.1904048 L40.4355212,40.2038981 L23.4633205,40.2038981 Z" id="Shape" fill="#5445C4ff" fill-rule="nonzero"></path>
                    </g>
                </g>
                <g id="IJC&quot;M1" transform="translate(208, 0)">
                    <path d="M0,176 C16,169.333333 26.6666667,159 32,145 C40,124 29,86 40,64 C47.3333333,49.3333333 61,38.6666667 81,32" id="Line-1" stroke="#7C7C7Cff" stroke-width="2"></path>
                    <g id="M1" transform="translate(512, 0)">
                        <circle id="Oval" stroke="#7C7C7Cff" stroke-width="2" cx="32" cy="32" r="31"></circle>
                        <g transform="translate(12, 20)" fill="#5445C4ff" fill-rule="nonzero" id="Path">
                            <polygon points="0 24 0 0 5.00229043 0 13.3632616 12.089955 10.6298672 12.2878561 19.3481448 0 24.2432432 0 24.2432432 24 19.3838754 24 19.3838754 3.88605697 20.5093907 5.1994003 11.8983051 16.9655172 3.53733394 5.16341829 4.68071461 4.15592204 4.68071461 24"></polygon>
                            <polygon points="34.1406322 24 34.1406322 4.7856072 29.4777829 7.55622189 29.4777829 2.98650675 34.5158039 0 39 0 39 24"></polygon>
                        </g>
                    </g>
                    <g id="C&quot;" transform="translate(368, 0)">
                        <line x1="64" y1="32" x2="144" y2="32" id="Line" stroke="#7C7C7Cff" stroke-width="2"></line>
                        <circle id="Oval" stroke="#7C7C7Cff" stroke-width="2" cx="32" cy="32" r="31"></circle>
                        <g id="C”" transform="translate(10, 15)" fill="#5445C4ff" fill-rule="nonzero">
                            <path d="M14.9537037,32 C10.0617284,32 6.34645062,30.692697 3.80787037,28.0780911 C1.26929012,25.4634852 0,21.4490239 0,16.0347072 C0,10.7437937 1.2345679,6.74861412 3.7037037,4.04916847 C6.17283951,1.34972282 9.92283951,0 14.9537037,0 C16.5895062,0 18.2291667,0.200530248 19.8726852,0.601590745 C21.5162037,1.00265124 23.1095679,1.55796577 24.6527778,2.26753435 L24.6527778,7.82067968 C23.0941358,6.84887925 21.570216,6.14316703 20.0810185,5.70354302 C18.591821,5.26391902 17.1604938,5.04410701 15.787037,5.04410701 C13.75,5.04410701 12.0447531,5.406604 10.6712963,6.13159798 C9.29783951,6.85659195 8.26388889,8.02120993 7.56944444,9.62545192 C6.875,11.2296939 6.52777778,13.373825 6.52777778,16.0578453 C6.52777778,18.7110147 6.87885802,20.8358641 7.58101852,22.4323933 C8.28317901,24.0289226 9.33641975,25.1819716 10.7407407,25.8915401 C12.1450617,26.6011087 13.904321,26.955893 16.0185185,26.955893 C17.2839506,26.955893 18.6496914,26.7437937 20.1157407,26.3195951 C21.5817901,25.8953965 23.0941358,25.2051097 24.6527778,24.2487346 L24.6527778,29.80188 C23.757716,30.2492167 22.7662037,30.6387081 21.6782407,30.9703543 C20.5902778,31.3020005 19.4714506,31.5565196 18.3217593,31.7339118 C17.1720679,31.9113039 16.0493827,32 14.9537037,32 Z" id="Path"></path>
                            <path d="M36.4583333,9.25524223 L39.8842593,0.185104845 L45,0.185104845 L40.8333333,9.25524223 L36.4583333,9.25524223 Z M29.2824074,9.25524223 L32.7083333,0.185104845 L37.8240741,0.185104845 L33.6574074,9.25524223 L29.2824074,9.25524223 Z" id="Shape"></path>
                        </g>
                    </g>
                    <g id="J" transform="translate(224, 0)">
                        <line x1="64" y1="31.5" x2="144" y2="31.5" id="Line" stroke="#7C7C7Cff" stroke-width="2"></line>
                        <circle id="Oval" stroke="#7C7C7Cff" stroke-width="2" cx="32" cy="32" r="31"></circle>
                        <path d="M30.1129707,48 C28.7694096,48 27.5009298,47.8388602 26.3075314,47.5165807 C25.114133,47.1943012 24.0116225,46.7816261 23,46.2785556 L23,40.2888725 C23.9800093,40.9648735 24.9244537,41.534758 25.8333333,41.9985262 C26.7422129,42.4622943 27.6866574,42.6941783 28.6666667,42.6941783 C30.2473268,42.6941783 31.4525802,42.2972243 32.2824268,41.5033161 C33.1122734,40.709408 33.5271967,39.4163596 33.5271967,37.624171 L33.5271967,16 L40,16 L40,37.954311 C40,39.9351511 39.7075779,41.5740604 39.1227336,42.8710391 C38.5378894,44.1680177 37.7712692,45.1938099 36.8228731,45.9484156 C35.874477,46.7030214 34.8154347,47.2336035 33.6457462,47.5401621 C32.4760576,47.8467207 31.2984658,48 30.1129707,48 Z" id="Path" fill="#5445C4ff" fill-rule="nonzero"></path>
                    </g>
                    <g id="I" transform="translate(80, 0)">
                        <line x1="64" y1="32" x2="144" y2="32" id="Line" stroke="#7C7C7Cff" stroke-width="2"></line>
                        <circle id="Oval" stroke="#7C7C7Cff" stroke-width="2" cx="32" cy="32" r="31"></circle>
                        <polygon id="Path" fill="#5445C4ff" fill-rule="nonzero" points="29 48 29 16 36 16 36 48"></polygon>
                    </g>
                </g>
            </g>
        </g>
    </g>
</svg>