<?xml version="1.0" encoding="UTF-8"?>
<svg width="344px" height="345px" viewBox="0 0 344 345" version="1.1" xmlns="http://www.w3.org/2000/svg" xmlns:xlink="http://www.w3.org/1999/xlink">
    <title>Group</title>
    <g id="Page-1" stroke="none" stroke-width="1" fill="none" fill-rule="evenodd">
        <g id="Artboard" transform="translate(-50.000000, -30.000000)">
            <g id="Group" transform="translate(50.820000, 30.000000)">
                <circle id="Oval" stroke="#FFFFFFff" stroke-width="4" cx="35.68" cy="283.5" r="31.5"></circle>
                <circle id="Oval" stroke="#FFFFFFff" stroke-width="4" cx="303.68" cy="283.5" r="31.5"></circle>
                <circle id="Oval" stroke="#FFFFFFff" stroke-width="4" cx="169.68" cy="33.5" r="31.5"></circle>
                <line x1="153.311777" y1="62" x2="52.68" y2="254.5" id="Line" stroke="#FFFFFFff" stroke-width="3" stroke-linecap="square"></line>
                <line x1="184.311777" y1="62" x2="287.68" y2="254.5" id="Line" stroke="#FFFFFFff" stroke-width="3" stroke-linecap="square"></line>
                <g id="origin" transform="translate(148.860000, 28.064000)" fill="#FFFFFFff" fill-rule="nonzero">
                    <path d="M3.984,11.176 C2.65066667,11.176 1.65333333,10.8093333 0.992,10.076 C0.330666667,9.34266667 0,8.28 0,6.888 C0,5.4 0.338666667,4.32 1.016,3.648 C1.69333333,2.976 2.67733333,2.64 3.968,2.64 C4.864,2.64 5.60933333,2.79733333 6.204,3.112 C6.79866667,3.42666667 7.244,3.89866667 7.54,4.528 C7.836,5.15733333 7.984,5.944 7.984,6.888 C7.984,8.27466667 7.63866667,9.336 6.948,10.072 C6.25733333,10.808 5.26933333,11.176 3.984,11.176 Z M3.976,9.512 C4.44533333,9.512 4.82533333,9.40533333 5.116,9.192 C5.40666667,8.97866667 5.62133333,8.676 5.76,8.284 C5.89866667,7.892 5.968,7.42666667 5.968,6.888 C5.968,6.28 5.89733333,5.78533333 5.756,5.404 C5.61466667,5.02266667 5.39733333,4.74133333 5.104,4.56 C4.81066667,4.37866667 4.43466667,4.288 3.976,4.288 C3.50666667,4.288 3.128,4.384 2.84,4.576 C2.552,4.768 2.34266667,5.05466667 2.212,5.436 C2.08133333,5.81733333 2.016,6.30133333 2.016,6.888 C2.016,7.736 2.16933333,8.38533333 2.476,8.836 C2.78266667,9.28666667 3.28266667,9.512 3.976,9.512 Z" id="Shape"></path>
                    <path d="M9.784,10.936 L9.784,3.664 C9.928,3.55733333 10.1893333,3.42533333 10.568,3.268 C10.9466667,3.11066667 11.388,2.97066667 11.892,2.848 C12.396,2.72533333 12.904,2.664 13.416,2.664 C13.8,2.664 14.1066667,2.69333333 14.336,2.752 C14.5653333,2.81066667 14.7466667,2.88266667 14.88,2.968 L14.88,4.512 C14.6666667,4.47466667 14.424,4.44666667 14.152,4.428 C13.88,4.40933333 13.6026667,4.40266667 13.32,4.408 C13.0373333,4.41333333 12.7653333,4.42666667 12.504,4.448 C12.2426667,4.46933333 12.0133333,4.496 11.816,4.528 L11.816,10.936 L9.784,10.936 Z" id="Path"></path>
                    <path d="M16.448,10.936 L16.448,2.952 L18.48,2.952 L18.496,10.936 L16.448,10.936 Z M16.4,1.68 L16.4,0 L18.528,0 L18.528,1.68 L16.4,1.68 Z" id="Shape"></path>
                    <path d="M23.912,11.176 C23.1546667,11.1493333 22.5093333,10.9826667 21.976,10.676 C21.4426667,10.3693333 21.0346667,9.92133333 20.752,9.332 C20.4693333,8.74266667 20.328,8.01333333 20.328,7.144 C20.328,6.24266667 20.4413333,5.5 20.668,4.916 C20.8946667,4.332 21.208,3.87733333 21.608,3.552 C22.008,3.22666667 22.476,2.99866667 23.012,2.868 C23.548,2.73733333 24.1253333,2.672 24.744,2.672 C25.368,2.672 25.9226667,2.752 26.408,2.912 C26.8933333,3.072 27.2773333,3.308 27.56,3.62 C27.8426667,3.932 27.984,4.32533333 27.984,4.8 L27.984,11.104 C27.984,11.6 27.9053333,12.048 27.748,12.448 C27.5906667,12.848 27.3493333,13.1933333 27.024,13.484 C26.6986667,13.7746667 26.2893333,13.9973333 25.796,14.152 C25.3026667,14.3066667 24.7173333,14.384 24.04,14.384 C23.4053333,14.384 22.852,14.336 22.38,14.24 C21.908,14.144 21.5333333,14.0346667 21.256,13.912 L21.256,12.096 C21.4213333,12.16 21.6453333,12.2373333 21.928,12.328 C22.2106667,12.4186667 22.5266667,12.496 22.876,12.56 C23.2253333,12.624 23.5786667,12.656 23.936,12.656 C24.5013333,12.656 24.9306667,12.5813333 25.224,12.432 C25.5173333,12.2826667 25.7173333,12.0866667 25.824,11.844 C25.9306667,11.6013333 25.984,11.3333333 25.984,11.04 L25.984,9.776 L26.44,10.128 C26.2586667,10.3306667 26.0386667,10.5106667 25.78,10.668 C25.5213333,10.8253333 25.2346667,10.9493333 24.92,11.04 C24.6053333,11.1306667 24.2693333,11.176 23.912,11.176 Z M24.352,9.6 C24.6453333,9.6 24.9306667,9.56533333 25.208,9.496 C25.4853333,9.42666667 25.744,9.32266667 25.984,9.184 L25.984,5.224 C25.984,4.97333333 25.916,4.78533333 25.78,4.66 C25.644,4.53466667 25.4666667,4.448 25.248,4.4 C25.0293333,4.352 24.7973333,4.328 24.552,4.328 C23.9813333,4.328 23.5386667,4.44666667 23.224,4.684 C22.9093333,4.92133333 22.6893333,5.24666667 22.564,5.66 C22.4386667,6.07333333 22.376,6.536 22.376,7.048 C22.376,7.82133333 22.5466667,8.44 22.888,8.904 C23.2293333,9.368 23.7173333,9.6 24.352,9.6 Z" id="Shape"></path>
                    <path d="M30.192,10.936 L30.192,2.952 L32.224,2.952 L32.24,10.936 L30.192,10.936 Z M30.144,1.68 L30.144,0 L32.272,0 L32.272,1.68 L30.144,1.68 Z" id="Shape"></path>
                    <path d="M34.512,3.544 C34.7306667,3.432 34.996,3.32266667 35.308,3.216 C35.62,3.10933333 35.9573333,3.016 36.32,2.936 C36.6826667,2.856 37.0493333,2.792 37.42,2.744 C37.7906667,2.696 38.1413333,2.672 38.472,2.672 C39.2133333,2.672 39.832,2.77066667 40.328,2.968 C40.824,3.16533333 41.1986667,3.476 41.452,3.9 C41.7053333,4.324 41.832,4.87733333 41.832,5.56 L41.832,10.936 L39.8,10.936 L39.8,5.912 C39.8,5.70933333 39.7733333,5.516 39.72,5.332 C39.6666667,5.148 39.5773333,4.984 39.452,4.84 C39.3266667,4.696 39.1506667,4.58266667 38.924,4.5 C38.6973333,4.41733333 38.4106667,4.376 38.064,4.376 C37.7973333,4.376 37.5266667,4.404 37.252,4.46 C36.9773333,4.516 36.7413333,4.584 36.544,4.664 L36.544,10.936 L34.512,10.936 L34.512,3.544 Z" id="Path"></path>
                </g>
                <g id="right" transform="translate(286.300000, 277.640000)" fill="#FFFFFFff" fill-rule="nonzero">
                    <path d="M0,11.36 L0,4.088 C0.144,3.98133333 0.405333333,3.84933333 0.784,3.692 C1.16266667,3.53466667 1.604,3.39466667 2.108,3.272 C2.612,3.14933333 3.12,3.088 3.632,3.088 C4.016,3.088 4.32266667,3.11733333 4.552,3.176 C4.78133333,3.23466667 4.96266667,3.30666667 5.096,3.392 L5.096,4.936 C4.88266667,4.89866667 4.64,4.87066667 4.368,4.852 C4.096,4.83333333 3.81866667,4.82666667 3.536,4.832 C3.25333333,4.83733333 2.98133333,4.85066667 2.72,4.872 C2.45866667,4.89333333 2.22933333,4.92 2.032,4.952 L2.032,11.36 L0,11.36 Z" id="Path"></path>
                    <path d="M6.664,11.36 L6.664,3.376 L8.696,3.376 L8.712,11.36 L6.664,11.36 Z M6.616,2.104 L6.616,0.424 L8.744,0.424 L8.744,2.104 L6.616,2.104 Z" id="Shape"></path>
                    <path d="M14.128,11.6 C13.3706667,11.5733333 12.7253333,11.4066667 12.192,11.1 C11.6586667,10.7933333 11.2506667,10.3453333 10.968,9.756 C10.6853333,9.16666667 10.544,8.43733333 10.544,7.568 C10.544,6.66666667 10.6573333,5.924 10.884,5.34 C11.1106667,4.756 11.424,4.30133333 11.824,3.976 C12.224,3.65066667 12.692,3.42266667 13.228,3.292 C13.764,3.16133333 14.3413333,3.096 14.96,3.096 C15.584,3.096 16.1386667,3.176 16.624,3.336 C17.1093333,3.496 17.4933333,3.732 17.776,4.044 C18.0586667,4.356 18.2,4.74933333 18.2,5.224 L18.2,11.528 C18.2,12.024 18.1213333,12.472 17.964,12.872 C17.8066667,13.272 17.5653333,13.6173333 17.24,13.908 C16.9146667,14.1986667 16.5053333,14.4213333 16.012,14.576 C15.5186667,14.7306667 14.9333333,14.808 14.256,14.808 C13.6213333,14.808 13.068,14.76 12.596,14.664 C12.124,14.568 11.7493333,14.4586667 11.472,14.336 L11.472,12.52 C11.6373333,12.584 11.8613333,12.6613333 12.144,12.752 C12.4266667,12.8426667 12.7426667,12.92 13.092,12.984 C13.4413333,13.048 13.7946667,13.08 14.152,13.08 C14.7173333,13.08 15.1466667,13.0053333 15.44,12.856 C15.7333333,12.7066667 15.9333333,12.5106667 16.04,12.268 C16.1466667,12.0253333 16.2,11.7573333 16.2,11.464 L16.2,10.2 L16.656,10.552 C16.4746667,10.7546667 16.2546667,10.9346667 15.996,11.092 C15.7373333,11.2493333 15.4506667,11.3733333 15.136,11.464 C14.8213333,11.5546667 14.4853333,11.6 14.128,11.6 Z M14.568,10.024 C14.8613333,10.024 15.1466667,9.98933333 15.424,9.92 C15.7013333,9.85066667 15.96,9.74666667 16.2,9.608 L16.2,5.648 C16.2,5.39733333 16.132,5.20933333 15.996,5.084 C15.86,4.95866667 15.6826667,4.872 15.464,4.824 C15.2453333,4.776 15.0133333,4.752 14.768,4.752 C14.1973333,4.752 13.7546667,4.87066667 13.44,5.108 C13.1253333,5.34533333 12.9053333,5.67066667 12.78,6.084 C12.6546667,6.49733333 12.592,6.96 12.592,7.472 C12.592,8.24533333 12.7626667,8.864 13.104,9.328 C13.4453333,9.792 13.9333333,10.024 14.568,10.024 Z" id="Shape"></path>
                    <path d="M20.36,11.36 L20.36,0 L22.4,0 L22.4,4.696 L21.648,4.216 C22.0693333,3.88533333 22.552,3.616 23.096,3.408 C23.64,3.2 24.184,3.096 24.728,3.096 C25.336,3.096 25.864,3.19866667 26.312,3.404 C26.76,3.60933333 27.1093333,3.93866667 27.36,4.392 C27.6106667,4.84533333 27.736,5.45333333 27.736,6.216 L27.736,11.36 L25.704,11.36 L25.704,6.568 C25.704,5.976 25.5613333,5.53466667 25.276,5.244 C24.9906667,4.95333333 24.5706667,4.808 24.016,4.808 C23.728,4.808 23.44,4.84933333 23.152,4.932 C22.864,5.01466667 22.6133333,5.12266667 22.4,5.256 L22.376,11.36 L20.36,11.36 Z" id="Path"></path>
                    <path d="M33.064,11.624 C32.232,11.624 31.596,11.4173333 31.156,11.004 C30.716,10.5906667 30.496,9.99466667 30.496,9.216 L30.496,4.904 L29.256,4.904 L29.256,3.296 L30.496,3.296 L30.496,1.064 L32.608,1.064 L32.608,3.296 L34.472,3.296 L34.472,4.904 L32.608,4.904 L32.608,8.896 C32.608,9.22133333 32.6706667,9.464 32.796,9.624 C32.9213333,9.784 33.144,9.864 33.464,9.864 C33.6346667,9.864 33.8133333,9.836 34,9.78 C34.1866667,9.724 34.344,9.65333333 34.472,9.568 L34.472,11.336 C34.264,11.4373333 34.0346667,11.5106667 33.784,11.556 C33.5333333,11.6013333 33.2933333,11.624 33.064,11.624 Z" id="Path"></path>
                </g>
                <g id="left" transform="translate(24.300000, 278.520000)" fill="#FFFFFFff" fill-rule="nonzero">
                    <polygon id="Path" points="2.016 11.48 0 11.48 0 0.368 2.016 0.368"></polygon>
                    <path d="M7.816,11.72 C7.016,11.72 6.31466667,11.556 5.712,11.228 C5.10933333,10.9 4.64266667,10.4226667 4.312,9.796 C3.98133333,9.16933333 3.816,8.41333333 3.816,7.528 C3.816,6.12533333 4.15466667,5.05066667 4.832,4.304 C5.50933333,3.55733333 6.46666667,3.184 7.704,3.184 C8.584,3.184 9.29466667,3.376 9.836,3.76 C10.3773333,4.144 10.772,4.692 11.02,5.404 C11.268,6.116 11.3866667,6.96533333 11.376,7.952 L5.136,7.952 L4.984,6.568 L9.752,6.568 L9.376,7.144 C9.35466667,6.30133333 9.208,5.69733333 8.936,5.332 C8.664,4.96666667 8.22933333,4.784 7.632,4.784 C7.26933333,4.784 6.95333333,4.86533333 6.684,5.028 C6.41466667,5.19066667 6.208,5.464 6.064,5.848 C5.92,6.232 5.848,6.76 5.848,7.432 C5.848,8.264 6.044,8.9 6.436,9.34 C6.828,9.78 7.42933333,10 8.24,10 C8.57066667,10 8.888,9.96666667 9.192,9.9 C9.496,9.83333333 9.77866667,9.75066667 10.04,9.652 C10.3013333,9.55333333 10.5253333,9.46133333 10.712,9.376 L10.712,11.176 C10.3333333,11.336 9.908,11.4666667 9.436,11.568 C8.964,11.6693333 8.424,11.72 7.816,11.72 Z" id="Path"></path>
                    <path d="M13.816,11.48 L13.816,5.024 L12.576,5.024 L12.576,3.416 L13.832,3.416 L13.832,3.16 C13.832,2.616 13.8893333,2.15733333 14.004,1.784 C14.1186667,1.41066667 14.2746667,1.10533333 14.472,0.868 C14.6693333,0.630666667 14.8933333,0.449333333 15.144,0.324 C15.3946667,0.198666667 15.66,0.113333333 15.94,0.068 C16.22,0.0226666667 16.4986667,0 16.776,0 C16.9413333,0 17.1146667,0.012 17.296,0.036 C17.4773333,0.06 17.6293333,0.0933333333 17.752,0.136 L17.752,1.936 C17.656,1.85066667 17.5533333,1.78266667 17.444,1.732 C17.3346667,1.68133333 17.1893333,1.656 17.008,1.656 C16.8586667,1.656 16.7146667,1.67066667 16.576,1.7 C16.4373333,1.72933333 16.3146667,1.788 16.208,1.876 C16.1013333,1.964 16.0173333,2.09333333 15.956,2.264 C15.8946667,2.43466667 15.864,2.66133333 15.864,2.944 L15.864,3.416 L17.752,3.416 L17.752,5.024 L15.848,5.024 L15.848,11.48 L13.816,11.48 Z" id="Path"></path>
                    <path d="M22.48,11.744 C21.648,11.744 21.012,11.5373333 20.572,11.124 C20.132,10.7106667 19.912,10.1146667 19.912,9.336 L19.912,5.024 L18.672,5.024 L18.672,3.416 L19.912,3.416 L19.912,1.184 L22.024,1.184 L22.024,3.416 L23.888,3.416 L23.888,5.024 L22.024,5.024 L22.024,9.016 C22.024,9.34133333 22.0866667,9.584 22.212,9.744 C22.3373333,9.904 22.56,9.984 22.88,9.984 C23.0506667,9.984 23.2293333,9.956 23.416,9.9 C23.6026667,9.844 23.76,9.77333333 23.888,9.688 L23.888,11.456 C23.68,11.5573333 23.4506667,11.6306667 23.2,11.676 C22.9493333,11.7213333 22.7093333,11.744 22.48,11.744 Z" id="Path"></path>
                </g>
                <g id="LCS-=-BC" transform="translate(87.759214, 158.307973) rotate(298.000000) translate(-87.759214, -158.307973) translate(54.959214, 152.763973)" fill-rule="nonzero">
                    <polygon id="Path" fill="#FFFFFFff" points="0 10.888 0 0.216 2.184 0.216 2.184 9.12 7.048 9.12 7.048 10.888"></polygon>
                    <path d="M13.376,11.072 C11.6853333,11.072 10.4013333,10.62 9.524,9.716 C8.64666667,8.812 8.208,7.424 8.208,5.552 C8.208,3.72266667 8.63466667,2.34133333 9.488,1.408 C10.3413333,0.474666667 11.6373333,0.008 13.376,0.008 C13.9413333,0.008 14.508,0.0773333333 15.076,0.216 C15.644,0.354666667 16.1946667,0.546666667 16.728,0.792 L16.728,2.712 C16.1893333,2.376 15.6626667,2.132 15.148,1.98 C14.6333333,1.828 14.1386667,1.752 13.664,1.752 C12.96,1.752 12.3706667,1.87733333 11.896,2.128 C11.4213333,2.37866667 11.064,2.78133333 10.824,3.336 C10.584,3.89066667 10.464,4.632 10.464,5.56 C10.464,6.47733333 10.5853333,7.212 10.828,7.764 C11.0706667,8.316 11.4346667,8.71466667 11.92,8.96 C12.4053333,9.20533333 13.0133333,9.328 13.744,9.328 C14.1813333,9.328 14.6533333,9.25466667 15.16,9.108 C15.6666667,8.96133333 16.1893333,8.72266667 16.728,8.392 L16.728,10.312 C16.4186667,10.4666667 16.076,10.6013333 15.7,10.716 C15.324,10.8306667 14.9373333,10.9186667 14.54,10.98 C14.1426667,11.0413333 13.7546667,11.072 13.376,11.072 Z" id="Path" fill="#FFFFFFff"></path>
                    <path d="M22.192,11.088 C21.6533333,11.088 21.1733333,11.06 20.752,11.004 C20.3306667,10.948 19.944,10.8613333 19.592,10.744 C19.24,10.6266667 18.888,10.48 18.536,10.304 L18.536,8.192 C18.9893333,8.55466667 19.5186667,8.84 20.124,9.048 C20.7293333,9.256 21.3413333,9.36 21.96,9.36 C22.536,9.36 22.9706667,9.24533333 23.264,9.016 C23.5573333,8.78666667 23.704,8.456 23.704,8.024 C23.704,7.69333333 23.584,7.42666667 23.344,7.224 C23.104,7.02133333 22.7866667,6.84666667 22.392,6.7 C21.9973333,6.55333333 21.5653333,6.39733333 21.096,6.232 C20.7706667,6.12 20.4506667,5.99066667 20.136,5.844 C19.8213333,5.69733333 19.5386667,5.512 19.288,5.288 C19.0373333,5.064 18.8373333,4.784 18.688,4.448 C18.5386667,4.112 18.464,3.69866667 18.464,3.208 C18.464,2.81333333 18.5386667,2.424 18.688,2.04 C18.8373333,1.656 19.0666667,1.31066667 19.376,1.004 C19.6853333,0.697333333 20.0866667,0.453333333 20.58,0.272 C21.0733333,0.0906666667 21.6586667,-9.09494702e-13 22.336,-9.09494702e-13 C22.768,-9.09494702e-13 23.1466667,0.0266666667 23.472,0.08 C23.7973333,0.133333333 24.108,0.213333333 24.404,0.32 C24.7,0.426666667 25.0106667,0.56 25.336,0.72 L25.336,2.832 C25.08,2.64533333 24.808,2.47066667 24.52,2.308 C24.232,2.14533333 23.9253333,2.01066667 23.6,1.904 C23.2746667,1.79733333 22.9226667,1.73866667 22.544,1.728 C22.16,1.71733333 21.8293333,1.76 21.552,1.856 C21.2746667,1.952 21.0613333,2.09466667 20.912,2.284 C20.7626667,2.47333333 20.688,2.70133333 20.688,2.968 C20.688,3.304 20.78,3.56933333 20.964,3.764 C21.148,3.95866667 21.4053333,4.12 21.736,4.248 C22.0666667,4.376 22.4426667,4.50666667 22.864,4.64 C23.28,4.768 23.6733333,4.91066667 24.044,5.068 C24.4146667,5.22533333 24.7413333,5.42 25.024,5.652 C25.3066667,5.884 25.5293333,6.17066667 25.692,6.512 C25.8546667,6.85333333 25.936,7.26933333 25.936,7.76 C25.936,8.35733333 25.7986667,8.90933333 25.524,9.416 C25.2493333,9.92266667 24.836,10.328 24.284,10.632 C23.732,10.936 23.0346667,11.088 22.192,11.088 Z" id="Path" fill="#FFFFFFff"></path>
                    <path d="M33.168,5.432 L33.168,3.944 L39.392,3.944 L39.392,5.432 L33.168,5.432 Z M33.168,8.288 L33.168,6.792 L39.392,6.792 L39.392,8.288 L33.168,8.288 Z" id="Shape" fill="#FFFFFFff"></path>
                    <path d="M47.064,10.888 L47.064,0.216 L51.304,0.216 C52.1253333,0.216 52.8133333,0.324 53.368,0.54 C53.9226667,0.756 54.344,1.08 54.632,1.512 C54.92,1.944 55.064,2.488 55.064,3.144 C55.064,3.61866667 54.96,4.004 54.752,4.3 C54.544,4.596 54.2946667,4.83333333 54.004,5.012 C53.7133333,5.19066667 53.44,5.344 53.184,5.472 L52.936,5.008 C53.432,5.056 53.884,5.18933333 54.292,5.408 C54.7,5.62666667 55.0266667,5.928 55.272,6.312 C55.5173333,6.696 55.64,7.16533333 55.64,7.72 C55.64,8.456 55.468,9.05733333 55.124,9.524 C54.78,9.99066667 54.3106667,10.3346667 53.716,10.556 C53.1213333,10.7773333 52.4506667,10.888 51.704,10.888 L47.064,10.888 Z M49.248,9.152 L51.6,9.152 C51.92,9.152 52.2173333,9.10933333 52.492,9.024 C52.7666667,8.93866667 52.988,8.784 53.156,8.56 C53.324,8.336 53.408,8.02666667 53.408,7.632 C53.408,7.33333333 53.3546667,7.09066667 53.248,6.904 C53.1413333,6.71733333 53,6.57333333 52.824,6.472 C52.648,6.37066667 52.4493333,6.3 52.228,6.26 C52.0066667,6.22 51.7813333,6.2 51.552,6.2 L49.248,6.2 L49.248,9.152 Z M49.24,4.536 L51.48,4.536 C51.7093333,4.536 51.928,4.50133333 52.136,4.432 C52.344,4.36266667 52.516,4.24 52.652,4.064 C52.788,3.888 52.856,3.64 52.856,3.32 C52.856,2.80266667 52.7133333,2.448 52.428,2.256 C52.1426667,2.064 51.776,1.968 51.328,1.968 L49.24,1.968 L49.24,4.536 Z" id="Shape" fill="#9B8EF6ff"></path>
                    <path d="M62.248,11.072 C60.5573333,11.072 59.2733333,10.62 58.396,9.716 C57.5186667,8.812 57.08,7.424 57.08,5.552 C57.08,3.72266667 57.5066667,2.34133333 58.36,1.408 C59.2133333,0.474666667 60.5093333,0.008 62.248,0.008 C62.8133333,0.008 63.38,0.0773333333 63.948,0.216 C64.516,0.354666667 65.0666667,0.546666667 65.6,0.792 L65.6,2.712 C65.0613333,2.376 64.5346667,2.132 64.02,1.98 C63.5053333,1.828 63.0106667,1.752 62.536,1.752 C61.832,1.752 61.2426667,1.87733333 60.768,2.128 C60.2933333,2.37866667 59.936,2.78133333 59.696,3.336 C59.456,3.89066667 59.336,4.632 59.336,5.56 C59.336,6.47733333 59.4573333,7.212 59.7,7.764 C59.9426667,8.316 60.3066667,8.71466667 60.792,8.96 C61.2773333,9.20533333 61.8853333,9.328 62.616,9.328 C63.0533333,9.328 63.5253333,9.25466667 64.032,9.108 C64.5386667,8.96133333 65.0613333,8.72266667 65.6,8.392 L65.6,10.312 C65.2906667,10.4666667 64.948,10.6013333 64.572,10.716 C64.196,10.8306667 63.8093333,10.9186667 63.412,10.98 C63.0146667,11.0413333 62.6266667,11.072 62.248,11.072 Z" id="Path" fill="#9B8EF6ff"></path>
                </g>
                <g id="LCS-=-BC" transform="translate(250.600786, 158.307973) rotate(62.000000) translate(-250.600786, -158.307973) translate(217.800786, 152.763973)" fill-rule="nonzero">
                    <polygon id="Path" fill="#FFFFFFff" points="4.54747351e-13 10.888 4.54747351e-13 0.216 2.184 0.216 2.184 9.12 7.048 9.12 7.048 10.888"></polygon>
                    <path d="M13.376,11.072 C11.6853333,11.072 10.4013333,10.62 9.524,9.716 C8.64666667,8.812 8.208,7.424 8.208,5.552 C8.208,3.72266667 8.63466667,2.34133333 9.488,1.408 C10.3413333,0.474666667 11.6373333,0.008 13.376,0.008 C13.9413333,0.008 14.508,0.0773333333 15.076,0.216 C15.644,0.354666667 16.1946667,0.546666667 16.728,0.792 L16.728,2.712 C16.1893333,2.376 15.6626667,2.132 15.148,1.98 C14.6333333,1.828 14.1386667,1.752 13.664,1.752 C12.96,1.752 12.3706667,1.87733333 11.896,2.128 C11.4213333,2.37866667 11.064,2.78133333 10.824,3.336 C10.584,3.89066667 10.464,4.632 10.464,5.56 C10.464,6.47733333 10.5853333,7.212 10.828,7.764 C11.0706667,8.316 11.4346667,8.71466667 11.92,8.96 C12.4053333,9.20533333 13.0133333,9.328 13.744,9.328 C14.1813333,9.328 14.6533333,9.25466667 15.16,9.108 C15.6666667,8.96133333 16.1893333,8.72266667 16.728,8.392 L16.728,10.312 C16.4186667,10.4666667 16.076,10.6013333 15.7,10.716 C15.324,10.8306667 14.9373333,10.9186667 14.54,10.98 C14.1426667,11.0413333 13.7546667,11.072 13.376,11.072 Z" id="Path" fill="#FFFFFFff"></path>
                    <path d="M22.192,11.088 C21.6533333,11.088 21.1733333,11.06 20.752,11.004 C20.3306667,10.948 19.944,10.8613333 19.592,10.744 C19.24,10.6266667 18.888,10.48 18.536,10.304 L18.536,8.192 C18.9893333,8.55466667 19.5186667,8.84 20.124,9.048 C20.7293333,9.256 21.3413333,9.36 21.96,9.36 C22.536,9.36 22.9706667,9.24533333 23.264,9.016 C23.5573333,8.78666667 23.704,8.456 23.704,8.024 C23.704,7.69333333 23.584,7.42666667 23.344,7.224 C23.104,7.02133333 22.7866667,6.84666667 22.392,6.7 C21.9973333,6.55333333 21.5653333,6.39733333 21.096,6.232 C20.7706667,6.12 20.4506667,5.99066667 20.136,5.844 C19.8213333,5.69733333 19.5386667,5.512 19.288,5.288 C19.0373333,5.064 18.8373333,4.784 18.688,4.448 C18.5386667,4.112 18.464,3.69866667 18.464,3.208 C18.464,2.81333333 18.5386667,2.424 18.688,2.04 C18.8373333,1.656 19.0666667,1.31066667 19.376,1.004 C19.6853333,0.697333333 20.0866667,0.453333333 20.58,0.272 C21.0733333,0.0906666667 21.6586667,0 22.336,0 C22.768,0 23.1466667,0.0266666667 23.472,0.08 C23.7973333,0.133333333 24.108,0.213333333 24.404,0.32 C24.7,0.426666667 25.0106667,0.56 25.336,0.72 L25.336,2.832 C25.08,2.64533333 24.808,2.47066667 24.52,2.308 C24.232,2.14533333 23.9253333,2.01066667 23.6,1.904 C23.2746667,1.79733333 22.9226667,1.73866667 22.544,1.728 C22.16,1.71733333 21.8293333,1.76 21.552,1.856 C21.2746667,1.952 21.0613333,2.09466667 20.912,2.284 C20.7626667,2.47333333 20.688,2.70133333 20.688,2.968 C20.688,3.304 20.78,3.56933333 20.964,3.764 C21.148,3.95866667 21.4053333,4.12 21.736,4.248 C22.0666667,4.376 22.4426667,4.50666667 22.864,4.64 C23.28,4.768 23.6733333,4.91066667 24.044,5.068 C24.4146667,5.22533333 24.7413333,5.42 25.024,5.652 C25.3066667,5.884 25.5293333,6.17066667 25.692,6.512 C25.8546667,6.85333333 25.936,7.26933333 25.936,7.76 C25.936,8.35733333 25.7986667,8.90933333 25.524,9.416 C25.2493333,9.92266667 24.836,10.328 24.284,10.632 C23.732,10.936 23.0346667,11.088 22.192,11.088 Z" id="Path" fill="#FFFFFFff"></path>
                    <path d="M33.168,5.432 L33.168,3.944 L39.392,3.944 L39.392,5.432 L33.168,5.432 Z M33.168,8.288 L33.168,6.792 L39.392,6.792 L39.392,8.288 L33.168,8.288 Z" id="Shape" fill="#FFFFFFff"></path>
                    <path d="M47.064,10.888 L47.064,0.216 L51.304,0.216 C52.1253333,0.216 52.8133333,0.324 53.368,0.54 C53.9226667,0.756 54.344,1.08 54.632,1.512 C54.92,1.944 55.064,2.488 55.064,3.144 C55.064,3.61866667 54.96,4.004 54.752,4.3 C54.544,4.596 54.2946667,4.83333333 54.004,5.012 C53.7133333,5.19066667 53.44,5.344 53.184,5.472 L52.936,5.008 C53.432,5.056 53.884,5.18933333 54.292,5.408 C54.7,5.62666667 55.0266667,5.928 55.272,6.312 C55.5173333,6.696 55.64,7.16533333 55.64,7.72 C55.64,8.456 55.468,9.05733333 55.124,9.524 C54.78,9.99066667 54.3106667,10.3346667 53.716,10.556 C53.1213333,10.7773333 52.4506667,10.888 51.704,10.888 L47.064,10.888 Z M49.248,9.152 L51.6,9.152 C51.92,9.152 52.2173333,9.10933333 52.492,9.024 C52.7666667,8.93866667 52.988,8.784 53.156,8.56 C53.324,8.336 53.408,8.02666667 53.408,7.632 C53.408,7.33333333 53.3546667,7.09066667 53.248,6.904 C53.1413333,6.71733333 53,6.57333333 52.824,6.472 C52.648,6.37066667 52.4493333,6.3 52.228,6.26 C52.0066667,6.22 51.7813333,6.2 51.552,6.2 L49.248,6.2 L49.248,9.152 Z M49.24,4.536 L51.48,4.536 C51.7093333,4.536 51.928,4.50133333 52.136,4.432 C52.344,4.36266667 52.516,4.24 52.652,4.064 C52.788,3.888 52.856,3.64 52.856,3.32 C52.856,2.80266667 52.7133333,2.448 52.428,2.256 C52.1426667,2.064 51.776,1.968 51.328,1.968 L49.24,1.968 L49.24,4.536 Z" id="Shape" fill="#9B8EF6ff"></path>
                    <path d="M62.248,11.072 C60.5573333,11.072 59.2733333,10.62 58.396,9.716 C57.5186667,8.812 57.08,7.424 57.08,5.552 C57.08,3.72266667 57.5066667,2.34133333 58.36,1.408 C59.2133333,0.474666667 60.5093333,0.008 62.248,0.008 C62.8133333,0.008 63.38,0.0773333333 63.948,0.216 C64.516,0.354666667 65.0666667,0.546666667 65.6,0.792 L65.6,2.712 C65.0613333,2.376 64.5346667,2.132 64.02,1.98 C63.5053333,1.828 63.0106667,1.752 62.536,1.752 C61.832,1.752 61.2426667,1.87733333 60.768,2.128 C60.2933333,2.37866667 59.936,2.78133333 59.696,3.336 C59.456,3.89066667 59.336,4.632 59.336,5.56 C59.336,6.47733333 59.4573333,7.212 59.7,7.764 C59.9426667,8.316 60.3066667,8.71466667 60.792,8.96 C61.2773333,9.20533333 61.8853333,9.328 62.616,9.328 C63.0533333,9.328 63.5253333,9.25466667 64.032,9.108 C64.5386667,8.96133333 65.0613333,8.72266667 65.6,8.392 L65.6,10.312 C65.2906667,10.4666667 64.948,10.6013333 64.572,10.716 C64.196,10.8306667 63.8093333,10.9186667 63.412,10.98 C63.0146667,11.0413333 62.6266667,11.072 62.248,11.072 Z" id="Path" fill="#9B8EF6ff"></path>
                </g>
                <g id="BCE" transform="translate(145.000000, 90.848000)" fill="#FF3D43FF" fill-rule="nonzero">
                    <path d="M0,19.152 L0,0.476 L8.652,0.476 C9.90266667,0.476 11.0506667,0.625333333 12.096,0.924 C13.1413333,1.22266667 13.986,1.75 14.63,2.506 C15.274,3.262 15.596,4.33066667 15.596,5.712 C15.596,6.57066667 15.3533333,7.294 14.868,7.882 C14.3826667,8.47 13.804,8.932 13.132,9.268 C12.46,9.604 11.8346667,9.84666667 11.256,9.996 L10.612,8.736 C11.8626667,8.736 12.922,8.92733333 13.79,9.31 C14.658,9.69266667 15.3253333,10.2293333 15.792,10.92 C16.2586667,11.6106667 16.492,12.4226667 16.492,13.356 C16.492,14.6813333 16.1606667,15.7733333 15.498,16.632 C14.8353333,17.4906667 13.972,18.1253333 12.908,18.536 C11.844,18.9466667 10.7053333,19.152 9.492,19.152 L0,19.152 Z M5.628,14.952 L8.96,14.952 C9.27733333,14.952 9.56666667,14.8866667 9.828,14.756 C10.0893333,14.6253333 10.2993333,14.4246667 10.458,14.154 C10.6166667,13.8833333 10.696,13.552 10.696,13.16 C10.696,12.8613333 10.6493333,12.6046667 10.556,12.39 C10.4626667,12.1753333 10.3366667,11.998 10.178,11.858 C10.0193333,11.718 9.828,11.6106667 9.604,11.536 C9.38,11.4613333 9.13733333,11.424 8.876,11.424 L5.628,11.424 L5.628,14.952 Z M5.6,7.504 L8.82,7.504 C9.00666667,7.504 9.17933333,7.44333333 9.338,7.322 C9.49666667,7.20066667 9.62733333,7.042 9.73,6.846 C9.83266667,6.65 9.884,6.43066667 9.884,6.188 C9.884,5.64666667 9.73933333,5.25933333 9.45,5.026 C9.16066667,4.79266667 8.85733333,4.676 8.54,4.676 L5.6,4.676 L5.6,7.504 Z" id="Shape"></path>
                    <path d="M27.748,19.572 C24.7053333,19.572 22.372,18.7926667 20.748,17.234 C19.124,15.6753333 18.312,13.2066667 18.312,9.828 C18.312,6.59866667 19.082,4.15333333 20.622,2.492 C22.162,0.830666667 24.5373333,0 27.748,0 C28.7373333,0 29.75,0.121333333 30.786,0.364 C31.822,0.606666667 32.8253333,0.942666667 33.796,1.372 L33.796,6.16 C32.7693333,5.45066667 31.8126667,4.94666667 30.926,4.648 C30.0393333,4.34933333 29.2413333,4.2 28.532,4.2 C27.636,4.2 26.8566667,4.368 26.194,4.704 C25.5313333,5.04 25.018,5.614 24.654,6.426 C24.29,7.238 24.108,8.38133333 24.108,9.856 C24.108,11.2933333 24.2946667,12.4133333 24.668,13.216 C25.0413333,14.0186667 25.578,14.5786667 26.278,14.896 C26.978,15.2133333 27.8226667,15.372 28.812,15.372 C29.3906667,15.372 30.1093333,15.2273333 30.968,14.938 C31.8266667,14.6486667 32.7693333,14.1586667 33.796,13.468 L33.796,18.256 C33.3106667,18.5173333 32.7226667,18.746 32.032,18.942 C31.3413333,19.138 30.6226667,19.292 29.876,19.404 C29.1293333,19.516 28.42,19.572 27.748,19.572 Z" id="Path"></path>
                    <polygon id="Path" points="37.016 19.152 37.016 0.476 50.26 0.476 50.26 4.676 42.644 4.676 42.644 7.7 49.168 7.7 49.168 11.9 42.616 11.9 42.616 14.952 50.26 14.952 50.26 19.152"></polygon>
                </g>
                <g id="ABCF" transform="translate(270.460000, 324.848000)" fill="#1C82F4FF" fill-rule="nonzero">
                    <path d="M0,19.152 L6.888,0.476 L13.104,0.476 L19.376,19.152 L13.636,19.152 L7.896,1.176 L10.864,0.924 L5.18,19.152 L0,19.152 Z M4.284,15.876 L5.236,11.956 L13.44,11.956 L13.972,15.876 L4.284,15.876 Z" id="Shape"></path>
                    <path d="M21.476,19.152 L21.476,0.476 L30.128,0.476 C31.3786667,0.476 32.5266667,0.625333333 33.572,0.924 C34.6173333,1.22266667 35.462,1.75 36.106,2.506 C36.75,3.262 37.072,4.33066667 37.072,5.712 C37.072,6.57066667 36.8293333,7.294 36.344,7.882 C35.8586667,8.47 35.28,8.932 34.608,9.268 C33.936,9.604 33.3106667,9.84666667 32.732,9.996 L32.088,8.736 C33.3386667,8.736 34.398,8.92733333 35.266,9.31 C36.134,9.69266667 36.8013333,10.2293333 37.268,10.92 C37.7346667,11.6106667 37.968,12.4226667 37.968,13.356 C37.968,14.6813333 37.6366667,15.7733333 36.974,16.632 C36.3113333,17.4906667 35.448,18.1253333 34.384,18.536 C33.32,18.9466667 32.1813333,19.152 30.968,19.152 L21.476,19.152 Z M27.104,14.952 L30.436,14.952 C30.7533333,14.952 31.0426667,14.8866667 31.304,14.756 C31.5653333,14.6253333 31.7753333,14.4246667 31.934,14.154 C32.0926667,13.8833333 32.172,13.552 32.172,13.16 C32.172,12.8613333 32.1253333,12.6046667 32.032,12.39 C31.9386667,12.1753333 31.8126667,11.998 31.654,11.858 C31.4953333,11.718 31.304,11.6106667 31.08,11.536 C30.856,11.4613333 30.6133333,11.424 30.352,11.424 L27.104,11.424 L27.104,14.952 Z M27.076,7.504 L30.296,7.504 C30.4826667,7.504 30.6553333,7.44333333 30.814,7.322 C30.9726667,7.20066667 31.1033333,7.042 31.206,6.846 C31.3086667,6.65 31.36,6.43066667 31.36,6.188 C31.36,5.64666667 31.2153333,5.25933333 30.926,5.026 C30.6366667,4.79266667 30.3333333,4.676 30.016,4.676 L27.076,4.676 L27.076,7.504 Z" id="Shape"></path>
                    <path d="M49.224,19.572 C46.1813333,19.572 43.848,18.7926667 42.224,17.234 C40.6,15.6753333 39.788,13.2066667 39.788,9.828 C39.788,6.59866667 40.558,4.15333333 42.098,2.492 C43.638,0.830666667 46.0133333,0 49.224,0 C50.2133333,0 51.226,0.121333333 52.262,0.364 C53.298,0.606666667 54.3013333,0.942666667 55.272,1.372 L55.272,6.16 C54.2453333,5.45066667 53.2886667,4.94666667 52.402,4.648 C51.5153333,4.34933333 50.7173333,4.2 50.008,4.2 C49.112,4.2 48.3326667,4.368 47.67,4.704 C47.0073333,5.04 46.494,5.614 46.13,6.426 C45.766,7.238 45.584,8.38133333 45.584,9.856 C45.584,11.2933333 45.7706667,12.4133333 46.144,13.216 C46.5173333,14.0186667 47.054,14.5786667 47.754,14.896 C48.454,15.2133333 49.2986667,15.372 50.288,15.372 C50.8666667,15.372 51.5853333,15.2273333 52.444,14.938 C53.3026667,14.6486667 54.2453333,14.1586667 55.272,13.468 L55.272,18.256 C54.7866667,18.5173333 54.1986667,18.746 53.508,18.942 C52.8173333,19.138 52.0986667,19.292 51.352,19.404 C50.6053333,19.516 49.896,19.572 49.224,19.572 Z" id="Path"></path>
                    <polygon id="Path" points="58.492 19.152 58.492 0.476 71.736 0.476 71.736 4.676 64.092 4.676 64.092 8.26 70.644 8.26 70.644 12.488 64.092 12.488 64.092 19.152"></polygon>
                </g>
                <g id="BCDE" transform="translate(0.000000, 324.848000)" fill="#1C82F4FF" fill-rule="nonzero">
                    <path d="M0,19.152 L0,0.476 L8.652,0.476 C9.90266667,0.476 11.0506667,0.625333333 12.096,0.924 C13.1413333,1.22266667 13.986,1.75 14.63,2.506 C15.274,3.262 15.596,4.33066667 15.596,5.712 C15.596,6.57066667 15.3533333,7.294 14.868,7.882 C14.3826667,8.47 13.804,8.932 13.132,9.268 C12.46,9.604 11.8346667,9.84666667 11.256,9.996 L10.612,8.736 C11.8626667,8.736 12.922,8.92733333 13.79,9.31 C14.658,9.69266667 15.3253333,10.2293333 15.792,10.92 C16.2586667,11.6106667 16.492,12.4226667 16.492,13.356 C16.492,14.6813333 16.1606667,15.7733333 15.498,16.632 C14.8353333,17.4906667 13.972,18.1253333 12.908,18.536 C11.844,18.9466667 10.7053333,19.152 9.492,19.152 L0,19.152 Z M5.628,14.952 L8.96,14.952 C9.27733333,14.952 9.56666667,14.8866667 9.828,14.756 C10.0893333,14.6253333 10.2993333,14.4246667 10.458,14.154 C10.6166667,13.8833333 10.696,13.552 10.696,13.16 C10.696,12.8613333 10.6493333,12.6046667 10.556,12.39 C10.4626667,12.1753333 10.3366667,11.998 10.178,11.858 C10.0193333,11.718 9.828,11.6106667 9.604,11.536 C9.38,11.4613333 9.13733333,11.424 8.876,11.424 L5.628,11.424 L5.628,14.952 Z M5.6,7.504 L8.82,7.504 C9.00666667,7.504 9.17933333,7.44333333 9.338,7.322 C9.49666667,7.20066667 9.62733333,7.042 9.73,6.846 C9.83266667,6.65 9.884,6.43066667 9.884,6.188 C9.884,5.64666667 9.73933333,5.25933333 9.45,5.026 C9.16066667,4.79266667 8.85733333,4.676 8.54,4.676 L5.6,4.676 L5.6,7.504 Z" id="Shape"></path>
                    <path d="M27.748,19.572 C24.7053333,19.572 22.372,18.7926667 20.748,17.234 C19.124,15.6753333 18.312,13.2066667 18.312,9.828 C18.312,6.59866667 19.082,4.15333333 20.622,2.492 C22.162,0.830666667 24.5373333,0 27.748,0 C28.7373333,0 29.75,0.121333333 30.786,0.364 C31.822,0.606666667 32.8253333,0.942666667 33.796,1.372 L33.796,6.16 C32.7693333,5.45066667 31.8126667,4.94666667 30.926,4.648 C30.0393333,4.34933333 29.2413333,4.2 28.532,4.2 C27.636,4.2 26.8566667,4.368 26.194,4.704 C25.5313333,5.04 25.018,5.614 24.654,6.426 C24.29,7.238 24.108,8.38133333 24.108,9.856 C24.108,11.2933333 24.2946667,12.4133333 24.668,13.216 C25.0413333,14.0186667 25.578,14.5786667 26.278,14.896 C26.978,15.2133333 27.8226667,15.372 28.812,15.372 C29.3906667,15.372 30.1093333,15.2273333 30.968,14.938 C31.8266667,14.6486667 32.7693333,14.1586667 33.796,13.468 L33.796,18.256 C33.3106667,18.5173333 32.7226667,18.746 32.032,18.942 C31.3413333,19.138 30.6226667,19.292 29.876,19.404 C29.1293333,19.516 28.42,19.572 27.748,19.572 Z" id="Path"></path>
                    <path d="M37.016,19.152 L37.016,0.476 L45.22,0.476 C48.5053333,0.476 50.8993333,1.26933333 52.402,2.856 C53.9046667,4.44266667 54.656,6.76666667 54.656,9.828 C54.656,12.8706667 53.9046667,15.1853333 52.402,16.772 C50.8993333,18.3586667 48.5053333,19.152 45.22,19.152 L37.016,19.152 Z M42.616,14.952 L44.52,14.952 C45.9013333,14.952 46.9793333,14.546 47.754,13.734 C48.5286667,12.922 48.916,11.62 48.916,9.828 C48.916,8.01733333 48.5286667,6.706 47.754,5.894 C46.9793333,5.082 45.9013333,4.676 44.52,4.676 L42.616,4.676 L42.616,14.952 Z" id="Shape"></path>
                    <polygon id="Path" points="57.456 19.152 57.456 0.476 70.7 0.476 70.7 4.676 63.084 4.676 63.084 7.7 69.608 7.7 69.608 11.9 63.056 11.9 63.056 14.952 70.7 14.952 70.7 19.152"></polygon>
                </g>
                <g id="GC-LCS-=-BC" transform="translate(81.160000, 234.848000)" fill-rule="nonzero">
                    <path d="M9.324,19.572 C7.51333333,19.572 5.908,19.2593333 4.508,18.634 C3.108,18.0086667 2.00666667,16.982 1.204,15.554 C0.401333333,14.126 0,12.2173333 0,9.828 C0,7.49466667 0.401333333,5.60466667 1.204,4.158 C2.00666667,2.71133333 3.108,1.65666667 4.508,0.994 C5.908,0.331333333 7.504,0 9.296,0 C10.5466667,0 11.76,0.126 12.936,0.378 C14.112,0.63 15.2413333,0.970666667 16.324,1.4 L16.324,6.384 C15.092,5.712 13.9953333,5.18466667 13.034,4.802 C12.0726667,4.41933333 11.0693333,4.228 10.024,4.228 C9.16533333,4.228 8.414,4.382 7.77,4.69 C7.126,4.998 6.62666667,5.55333333 6.272,6.356 C5.91733333,7.15866667 5.74,8.30666667 5.74,9.8 C5.74,11.256 5.92666667,12.39 6.3,13.202 C6.67333333,14.014 7.16333333,14.5833333 7.77,14.91 C8.37666667,15.2366667 9.02533333,15.4 9.716,15.4 C10.1266667,15.4 10.4953333,15.372 10.822,15.316 C11.1486667,15.26 11.4053333,15.1666667 11.592,15.036 L11.592,12.6 L9.1,12.6 L9.1,8.4 L17.192,8.4 L17.192,17.332 C15.9786667,18.0413333 14.7046667,18.592 13.37,18.984 C12.0353333,19.376 10.6866667,19.572 9.324,19.572 Z" id="Path" fill="#FFFFFFff"></path>
                    <path d="M29.288,19.572 C26.2453333,19.572 23.912,18.7926667 22.288,17.234 C20.664,15.6753333 19.852,13.2066667 19.852,9.828 C19.852,6.59866667 20.622,4.15333333 22.162,2.492 C23.702,0.830666667 26.0773333,0 29.288,0 C30.2773333,0 31.29,0.121333333 32.326,0.364 C33.362,0.606666667 34.3653333,0.942666667 35.336,1.372 L35.336,6.16 C34.3093333,5.45066667 33.3526667,4.94666667 32.466,4.648 C31.5793333,4.34933333 30.7813333,4.2 30.072,4.2 C29.176,4.2 28.3966667,4.368 27.734,4.704 C27.0713333,5.04 26.558,5.614 26.194,6.426 C25.83,7.238 25.648,8.38133333 25.648,9.856 C25.648,11.2933333 25.8346667,12.4133333 26.208,13.216 C26.5813333,14.0186667 27.118,14.5786667 27.818,14.896 C28.518,15.2133333 29.3626667,15.372 30.352,15.372 C30.9306667,15.372 31.6493333,15.2273333 32.508,14.938 C33.3666667,14.6486667 34.3093333,14.1586667 35.336,13.468 L35.336,18.256 C34.8506667,18.5173333 34.2626667,18.746 33.572,18.942 C32.8813333,19.138 32.1626667,19.292 31.416,19.404 C30.6693333,19.516 29.96,19.572 29.288,19.572 Z" id="Path" fill="#FFFFFFff"></path>
                    <polygon id="Path" fill="#FFFFFFff" points="38.948 12.124 38.948 8.848 47.488 8.848 47.488 12.124"></polygon>
                    <polygon id="Path" fill="#FFFFFFff" points="51.548 19.152 51.548 0.476 57.176 0.476 57.176 14.924 64.652 14.924 64.652 19.152"></polygon>
                    <path d="M75.908,19.572 C72.8653333,19.572 70.532,18.7926667 68.908,17.234 C67.284,15.6753333 66.472,13.2066667 66.472,9.828 C66.472,6.59866667 67.242,4.15333333 68.782,2.492 C70.322,0.830666667 72.6973333,0 75.908,0 C76.8973333,0 77.91,0.121333333 78.946,0.364 C79.982,0.606666667 80.9853333,0.942666667 81.956,1.372 L81.956,6.16 C80.9293333,5.45066667 79.9726667,4.94666667 79.086,4.648 C78.1993333,4.34933333 77.4013333,4.2 76.692,4.2 C75.796,4.2 75.0166667,4.368 74.354,4.704 C73.6913333,5.04 73.178,5.614 72.814,6.426 C72.45,7.238 72.268,8.38133333 72.268,9.856 C72.268,11.2933333 72.4546667,12.4133333 72.828,13.216 C73.2013333,14.0186667 73.738,14.5786667 74.438,14.896 C75.138,15.2133333 75.9826667,15.372 76.972,15.372 C77.5506667,15.372 78.2693333,15.2273333 79.128,14.938 C79.9866667,14.6486667 80.9293333,14.1586667 81.956,13.468 L81.956,18.256 C81.4706667,18.5173333 80.8826667,18.746 80.192,18.942 C79.5013333,19.138 78.7826667,19.292 78.036,19.404 C77.2893333,19.516 76.58,19.572 75.908,19.572 Z" id="Path" fill="#FFFFFFff"></path>
                    <path d="M91.868,19.572 C90.916,19.572 90.0293333,19.5393333 89.208,19.474 C88.3866667,19.4086667 87.6213333,19.292 86.912,19.124 C86.2026667,18.956 85.54,18.7226667 84.924,18.424 L84.924,13.216 C85.9133333,13.9813333 86.9633333,14.532 88.074,14.868 C89.1846667,15.204 90.1506667,15.372 90.972,15.372 C91.5693333,15.372 92.0593333,15.274 92.442,15.078 C92.8246667,14.882 93.016,14.4946667 93.016,13.916 C93.016,13.5426667 92.8106667,13.2393333 92.4,13.006 C91.9893333,12.7726667 91.4293333,12.5533333 90.72,12.348 C90.0106667,12.1426667 89.208,11.8906667 88.312,11.592 C87.808,11.424 87.318,11.2093333 86.842,10.948 C86.366,10.6866667 85.9413333,10.3553333 85.568,9.954 C85.1946667,9.55266667 84.896,9.06733333 84.672,8.498 C84.448,7.92866667 84.336,7.24266667 84.336,6.44 C84.336,5.56266667 84.4993333,4.732 84.826,3.948 C85.1526667,3.164 85.638,2.478 86.282,1.89 C86.926,1.302 87.7426667,0.84 88.732,0.504 C89.7213333,0.168 90.8693333,0 92.176,0 C92.96,0 93.6646667,0.042 94.29,0.126 C94.9153333,0.21 95.5126667,0.340666667 96.082,0.518 C96.6513333,0.695333333 97.216,0.924 97.776,1.204 L97.776,6.524 C97.3653333,6.15066667 96.8753333,5.796 96.306,5.46 C95.7366667,5.124 95.1486667,4.83933333 94.542,4.606 C93.9353333,4.37266667 93.352,4.23733333 92.792,4.2 C92.3626667,4.16266667 91.938,4.18133333 91.518,4.256 C91.098,4.33066667 90.7526667,4.48466667 90.482,4.718 C90.2113333,4.95133333 90.076,5.292 90.076,5.74 C90.076,6.15066667 90.2253333,6.47266667 90.524,6.706 C90.8226667,6.93933333 91.238,7.13533333 91.77,7.294 C92.302,7.45266667 92.8946667,7.62533333 93.548,7.812 C94.3506667,8.036 95.074,8.288 95.718,8.568 C96.362,8.848 96.9126667,9.19333333 97.37,9.604 C97.8273333,10.0146667 98.1773333,10.514 98.42,11.102 C98.6626667,11.69 98.784,12.3946667 98.784,13.216 C98.784,14.4666667 98.49,15.5726667 97.902,16.534 C97.314,17.4953333 96.502,18.242 95.466,18.774 C94.43,19.306 93.2306667,19.572 91.868,19.572 Z" id="Path" fill="#FFFFFFff"></path>
                    <path d="M110.74,9.604 L110.74,6.328 L121.744,6.328 L121.744,9.604 L110.74,9.604 Z M110.74,15.26 L110.74,11.984 L121.744,11.984 L121.744,15.26 L110.74,15.26 Z" id="Shape" fill="#FFFFFFff"></path>
                    <path d="M134.568,19.152 L134.568,0.476 L143.22,0.476 C144.470667,0.476 145.618667,0.625333333 146.664,0.924 C147.709333,1.22266667 148.554,1.75 149.198,2.506 C149.842,3.262 150.164,4.33066667 150.164,5.712 C150.164,6.57066667 149.921333,7.294 149.436,7.882 C148.950667,8.47 148.372,8.932 147.7,9.268 C147.028,9.604 146.402667,9.84666667 145.824,9.996 L145.18,8.736 C146.430667,8.736 147.49,8.92733333 148.358,9.31 C149.226,9.69266667 149.893333,10.2293333 150.36,10.92 C150.826667,11.6106667 151.06,12.4226667 151.06,13.356 C151.06,14.6813333 150.728667,15.7733333 150.066,16.632 C149.403333,17.4906667 148.54,18.1253333 147.476,18.536 C146.412,18.9466667 145.273333,19.152 144.06,19.152 L134.568,19.152 Z M140.196,14.952 L143.528,14.952 C143.845333,14.952 144.134667,14.8866667 144.396,14.756 C144.657333,14.6253333 144.867333,14.4246667 145.026,14.154 C145.184667,13.8833333 145.264,13.552 145.264,13.16 C145.264,12.8613333 145.217333,12.6046667 145.124,12.39 C145.030667,12.1753333 144.904667,11.998 144.746,11.858 C144.587333,11.718 144.396,11.6106667 144.172,11.536 C143.948,11.4613333 143.705333,11.424 143.444,11.424 L140.196,11.424 L140.196,14.952 Z M140.168,7.504 L143.388,7.504 C143.574667,7.504 143.747333,7.44333333 143.906,7.322 C144.064667,7.20066667 144.195333,7.042 144.298,6.846 C144.400667,6.65 144.452,6.43066667 144.452,6.188 C144.452,5.64666667 144.307333,5.25933333 144.018,5.026 C143.728667,4.79266667 143.425333,4.676 143.108,4.676 L140.168,4.676 L140.168,7.504 Z" id="Shape" fill="#9B8EF6ff"></path>
                    <path d="M162.316,19.572 C159.273333,19.572 156.94,18.7926667 155.316,17.234 C153.692,15.6753333 152.88,13.2066667 152.88,9.828 C152.88,6.59866667 153.65,4.15333333 155.19,2.492 C156.73,0.830666667 159.105333,0 162.316,0 C163.305333,0 164.318,0.121333333 165.354,0.364 C166.39,0.606666667 167.393333,0.942666667 168.364,1.372 L168.364,6.16 C167.337333,5.45066667 166.380667,4.94666667 165.494,4.648 C164.607333,4.34933333 163.809333,4.2 163.1,4.2 C162.204,4.2 161.424667,4.368 160.762,4.704 C160.099333,5.04 159.586,5.614 159.222,6.426 C158.858,7.238 158.676,8.38133333 158.676,9.856 C158.676,11.2933333 158.862667,12.4133333 159.236,13.216 C159.609333,14.0186667 160.146,14.5786667 160.846,14.896 C161.546,15.2133333 162.390667,15.372 163.38,15.372 C163.958667,15.372 164.677333,15.2273333 165.536,14.938 C166.394667,14.6486667 167.337333,14.1586667 168.364,13.468 L168.364,18.256 C167.878667,18.5173333 167.290667,18.746 166.6,18.942 C165.909333,19.138 165.190667,19.292 164.444,19.404 C163.697333,19.516 162.988,19.572 162.316,19.572 Z" id="Path" fill="#9B8EF6ff"></path>
                </g>
            </g>
        </g>
    </g>
</svg>