<?xml version="1.0" encoding="UTF-8"?>
<svg width="605px" height="427px" viewBox="0 0 605 427" version="1.1" xmlns="http://www.w3.org/2000/svg" xmlns:xlink="http://www.w3.org/1999/xlink">
    <title>Slide 1</title>
    <g id="Page-1" stroke="none" stroke-width="1" fill="none" fill-rule="evenodd">
        <g id="Export-Slide-1" transform="translate(-80, -200)">
            <g id="Slide-1" transform="translate(80, 200.4708)">
                <g id="XY" transform="translate(144, 362.5292)">
                    <g id="Y" transform="translate(144, 0)">
                        <circle id="Oval" stroke="#7C7C7Cff" stroke-width="2" cx="32" cy="32" r="31"></circle>
                        <polygon id="Path" fill="#5445C4ff" fill-rule="nonzero" points="29.0863309 48 29.0863309 33.9190405 17 16 25.0095923 16 34.4100719 31.2083958 31.5323741 31.1124438 40.2853717 16 47 16 34.6498801 35.5262369 35.6091127 31.976012 35.6091127 48"></polygon>
                    </g>
                    <g id="X">
                        <line x1="64" y1="32" x2="144" y2="32" id="Line" stroke="#7C7C7Cff" stroke-width="2"></line>
                        <circle id="Oval" stroke="#7C7C7Cff" stroke-width="2" cx="32" cy="32" r="31"></circle>
                        <path d="M47,48 L38.9553073,48 L17,16 L25.0446927,16 L47,48 Z M31.7486034,28.2818591 L39.4102155,16 L46.7126895,16 L35.2681564,33.2233883 L31.7486034,28.2818591 Z M33.0654429,34.2548726 L24.3743017,48 L17.1675978,48 L29.3543496,29.8650675 L33.0654429,34.2548726 Z" id="Shape" fill="#5445C4ff" fill-rule="nonzero"></path>
                    </g>
                </g>
                <g id="F1" transform="translate(352, 290.3982)" fill="#23C2B8FF" fill-rule="nonzero">
                    <path id="Line-2" d="M0,13.13106 L20.723791,30.1758388 L11.7647535,34.1648027 C18.1090439,45.400069 25.2184903,53.482506 33.067986,58.4400822 C45.4438392,66.2564105 55.7762378,70.13106 64,70.13106 L66,70.13106 L66,74.13106 L64,74.13106 C54.8904289,74.13106 43.8894941,70.0057095 30.932014,61.8220378 C22.3930546,56.4290108 14.7892394,47.7451101 8.09469415,35.7991591 L-1.20154846,39.9369601 L0,13.13106 Z" transform="translate(32, 42.6311) scale(1, -1) translate(-32, -42.6311)"></path>
                    <g transform="translate(74.4885, 0)" id="Path">
                        <polygon points="0 22.13106 0 0 14.63238 0 14.63238 3.61662 4.51248 3.61662 4.51248 9.55584 13.30518 9.55584 13.30518 13.22223 4.51248 13.22223 4.51248 22.13106"></polygon>
                        <polygon points="22.82784 22.13106 22.82784 4.41294 18.49785 6.9678 18.49785 2.75394 23.17623 0 27.34032 0 27.34032 22.13106"></polygon>
                    </g>
                </g>
                <g id="ABC" transform="translate(0, 217.5292)">
                    <path d="M64,177 C80,170.333333 90.6666667,160 96,146 C104,125 93,87 104,65 C111.333333,50.3333333 124.666667,39 144,31" id="Line-2" stroke="#7C7C7Cff" stroke-width="2" transform="translate(104, 104) scale(1, -1) translate(-104, -104)"></path>
                    <g id="C" transform="translate(288, 0)">
                        <circle id="Oval" stroke="#7C7C7Cff" stroke-width="2" cx="32" cy="32" r="31"></circle>
                        <g transform="translate(20, 16)" fill="#5445C4ff" fill-rule="nonzero" id="Path">
                            <path d="M15.1643192,32 C10.2034429,32 6.43583725,30.692697 3.86150235,28.0780911 C1.28716745,25.4634852 0,21.4490239 0,16.0347072 C0,10.7437937 1.25195618,6.74861412 3.75586854,4.04916847 C6.25978091,1.34972282 10.0625978,0 15.1643192,0 C16.8231612,0 18.4859155,0.200530248 20.1525822,0.601590745 C21.8192488,1.00265124 23.4350548,1.55796577 25,2.26753435 L25,7.82067968 C23.4194053,6.84887925 21.8740219,6.14316703 20.3638498,5.70354302 C18.8536776,5.26391902 17.4021909,5.04410701 16.0093897,5.04410701 C13.943662,5.04410701 12.2143975,5.406604 10.8215962,6.13159798 C9.42879499,6.85659195 8.38028169,8.02120993 7.67605634,9.62545192 C6.97183099,11.2296939 6.61971831,13.373825 6.61971831,16.0578453 C6.61971831,18.7110147 6.97574335,20.8358641 7.68779343,22.4323933 C8.39984351,24.0289226 9.46791862,25.1819716 10.8920188,25.8915401 C12.3161189,26.6011087 14.1001565,26.955893 16.2441315,26.955893 C17.5273865,26.955893 18.9123631,26.7437937 20.399061,26.3195951 C21.885759,25.8953965 23.4194053,25.2051097 25,24.2487346 L25,29.80188 C24.0923318,30.2492167 23.0868545,30.6387081 21.9835681,30.9703543 C20.8802817,31.3020005 19.7456964,31.5565196 18.5798122,31.7339118 C17.413928,31.9113039 16.2754304,32 15.1643192,32 Z"></path>
                        </g>
                    </g>
                    <g id="B" transform="translate(144, 0)">
                        <line x1="64" y1="31" x2="144" y2="31" id="Line" stroke="#7C7C7Cff" stroke-width="2"></line>
                        <circle id="Oval" stroke="#7C7C7Cff" stroke-width="2" cx="32" cy="32" r="31"></circle>
                        <path d="M19,48 L19,16 L31.8544776,16 C34.3445274,16 36.4303483,16.3238381 38.1119403,16.9715142 C39.7935323,17.6191904 41.0708955,18.5907046 41.9440299,19.886057 C42.8171642,21.1814093 43.2537313,22.8125937 43.2537313,24.7796102 C43.2537313,26.2028986 42.9384328,27.3583208 42.3078358,28.2458771 C41.6772388,29.1334333 40.9213308,29.8450775 40.0401119,30.3808096 C39.158893,30.9165417 38.3302239,31.3763118 37.5541045,31.7601199 L36.8022388,30.3688156 C38.3059701,30.5127436 39.676306,30.9125437 40.9132463,31.5682159 C42.1501866,32.2238881 43.1405473,33.1274363 43.8843284,34.2788606 C44.6281095,35.4302849 45,36.8375812 45,38.5007496 C45,40.7076462 44.4785448,42.5107446 43.4356343,43.910045 C42.3927239,45.3093453 40.9698383,46.3408296 39.1669776,47.0044978 C37.3641169,47.6681659 35.3308458,48 33.0671642,48 L19,48 Z M25.6212687,42.7946027 L32.7518657,42.7946027 C33.7220149,42.7946027 34.6234453,42.6666667 35.4561567,42.4107946 C36.2888682,42.1549225 36.9598881,41.6911544 37.4692164,41.0194903 C37.9785448,40.3478261 38.233209,39.4202899 38.233209,38.2368816 C38.233209,37.3413293 38.0715174,36.6136932 37.7481343,36.053973 C37.4247512,35.4942529 36.9962687,35.0624688 36.4626866,34.7586207 C35.9291045,34.4547726 35.3268035,34.2428786 34.6557836,34.1229385 C33.9847637,34.0029985 33.3016169,33.9430285 32.6063433,33.9430285 L25.6212687,33.9430285 L25.6212687,42.7946027 Z M25.5970149,28.9535232 L32.3880597,28.9535232 C33.0833333,28.9535232 33.7462687,28.8495752 34.3768657,28.6416792 C35.0074627,28.4337831 35.5289179,28.065967 35.9412313,27.5382309 C36.3535448,27.0104948 36.5597015,26.2668666 36.5597015,25.3073463 C36.5597015,23.7561219 36.1271766,22.6926537 35.2621269,22.1169415 C34.3970771,21.5412294 33.2854478,21.2533733 31.9272388,21.2533733 L25.5970149,21.2533733 L25.5970149,28.9535232 Z" id="Shape" fill="#5445C4ff" fill-rule="nonzero"></path>
                    </g>
                    <g id="A">
                        <line x1="64" y1="31" x2="144" y2="31" id="Line" stroke="#7C7C7Cff" stroke-width="2"></line>
                        <circle id="Oval" stroke="#7C7C7Cff" stroke-width="2" cx="32" cy="32" r="31"></circle>
                        <path d="M17,48 L29.2563707,16 L36.2942085,16 L48,48 L41.2494208,48 L30.8123552,18.2068966 L33.7088803,17.9430285 L23.2957529,48 L17,48 Z M23.4633205,40.2038981 L25.019305,35.1904048 L39.8610039,35.1904048 L40.4355212,40.2038981 L23.4633205,40.2038981 Z" id="Shape" fill="#5445C4ff" fill-rule="nonzero"></path>
                    </g>
                </g>
                <g id="Main" transform="translate(352, 144.8507)" fill="#23C2B8FF" fill-rule="nonzero">
                    <path id="Line-2" d="M0,13.67853 L20.723791,30.7233088 L11.764791,34.712339 C18.1090719,45.9475708 25.2185058,54.0299857 33.067986,58.9875522 C45.4438392,66.8038805 55.7762378,70.67853 64,70.67853 L66,70.67853 L66,74.67853 L64,74.67853 C54.8904289,74.67853 43.8894941,70.5531795 30.932014,62.3695078 C22.3930546,56.9764808 14.7892394,48.2925801 8.09469415,36.3466291 L-1.20154846,40.4844301 L0,13.67853 Z" transform="translate(32, 43.1785) scale(1, -1) translate(-32, -43.1785)"></path>
                    <g id="main" transform="translate(74.3226, 0)">
                        <path d="M15.01395,11.53005 L15.01395,22.67853 L10.80009,22.67853 L10.80009,12.26001 C10.80009,11.83973 10.74479,11.438805 10.63419,11.057235 C10.52359,10.675665 10.338335,10.33557 10.078425,10.03695 C9.818515,9.73833 9.453535,9.503305 8.983485,9.331875 C8.513435,9.160445 7.91896,9.07473 7.20006,9.07473 C6.64706,9.07473 6.113415,9.132795 5.599125,9.248925 C5.084835,9.365055 4.62308,9.50607 4.21386,9.67197 L4.21386,22.67853 L0,22.67853 L0,7.34937 C0.45346,7.11711 1.003695,6.89038 1.650705,6.66918 C2.297715,6.44798 2.99726,6.25443 3.74934,6.08853 C4.50142,5.92263 5.261795,5.78991 6.030465,5.69037 C6.799135,5.59083 7.52633,5.54106 8.21205,5.54106 C9.74939,5.54106 11.018525,5.74567 12.019455,6.15489 C13.020385,6.56411 13.7697,7.208355 14.2674,8.087625 C14.7651,8.966895 15.01395,10.11437 15.01395,11.53005 Z M10.48488,8.34477 C11.18166,7.75859 11.986275,7.258125 12.898725,6.843375 C13.811175,6.428625 14.767865,6.107885 15.768795,5.881155 C16.769725,5.654425 17.72365,5.54106 18.63057,5.54106 C20.16791,5.54106 21.437045,5.74567 22.437975,6.15489 C23.438905,6.56411 24.18822,7.208355 24.68592,8.087625 C25.18362,8.966895 25.43247,10.11437 25.43247,11.53005 L25.43247,22.67853 L21.21861,22.67853 L21.21861,12.26001 C21.21861,11.83973 21.16331,11.438805 21.05271,11.057235 C20.94211,10.675665 20.756855,10.33557 20.496945,10.03695 C20.237035,9.73833 19.872055,9.503305 19.402005,9.331875 C18.931955,9.160445 18.33748,9.07473 17.61858,9.07473 C17.06558,9.07473 16.531935,9.154915 16.017645,9.315285 C15.503355,9.475655 15.0416,9.70515 14.63238,10.00377 L10.48488,8.34477 Z" id="Shape"></path>
                        <path d="M36.3321,23.17623 C35.392,23.17623 34.498905,23.08775 33.652815,22.91079 C32.806725,22.73383 32.05188,22.437975 31.38828,22.023225 C30.72468,21.608475 30.202095,21.04165 29.820525,20.32275 C29.438955,19.60385 29.24817,18.70799 29.24817,17.63517 C29.24817,16.49599 29.477665,15.53377 29.936655,14.74851 C30.395645,13.96325 31.07307,13.36601 31.96893,12.95679 C32.86479,12.54757 33.96526,12.34296 35.27034,12.34296 C36.06666,12.34296 36.810445,12.41485 37.501695,12.55863 C38.192945,12.70241 38.81507,12.898725 39.36807,13.147575 C39.92107,13.396425 40.37453,13.67016 40.72845,13.96878 L41.01048,16.30797 C40.54596,16.00935 39.95425,15.763265 39.23535,15.569715 C38.51645,15.376165 37.74225,15.27939 36.91275,15.27939 C35.74039,15.27939 34.86665,15.470175 34.29153,15.851745 C33.71641,16.233315 33.42885,16.81673 33.42885,17.60199 C33.42885,18.14393 33.58369,18.600155 33.89337,18.970665 C34.20305,19.341175 34.60121,19.617675 35.08785,19.800165 C35.57449,19.982655 36.08325,20.0739 36.61413,20.0739 C37.83073,20.0739 38.707235,19.99095 39.243645,19.82505 C39.780055,19.65915 40.04826,19.2997 40.04826,18.7467 L40.04826,12.17706 C40.04826,11.08212 39.708165,10.2858 39.027975,9.7881 C38.347785,9.2904 37.3828,9.04155 36.13302,9.04155 C35.18186,9.04155 34.211345,9.20192 33.221475,9.52266 C32.231605,9.8434 31.42146,10.25815 30.79104,10.76691 L30.79104,6.95121 C31.38828,6.56411 32.28414,6.229545 33.47862,5.947515 C34.6731,5.665485 35.96159,5.52447 37.34409,5.52447 C37.91921,5.52447 38.524745,5.577005 39.160695,5.682075 C39.796645,5.787145 40.41324,5.96134 41.01048,6.20466 C41.60772,6.44798 42.14966,6.788075 42.6363,7.224945 C43.12294,7.661815 43.51004,8.20652 43.7976,8.85906 C44.08516,9.5116 44.22894,10.30239 44.22894,11.23143 L44.21235,19.17804 C44.21235,20.19556 43.883315,20.99741 43.225245,21.58359 C42.567175,22.16977 41.649195,22.581755 40.471305,22.819545 C39.293415,23.057335 37.91368,23.17623 36.3321,23.17623 Z" id="Path"></path>
                        <path d="M48.97368,22.67853 L48.97368,6.12171 L53.18754,6.12171 L53.22072,22.67853 L48.97368,22.67853 Z M48.87414,3.4839 L48.87414,0 L53.28708,0 L53.28708,3.4839 L48.87414,3.4839 Z" id="Shape"></path>
                        <path d="M57.93228,7.34937 C58.38574,7.11711 58.935975,6.89038 59.582985,6.66918 C60.229995,6.44798 60.92954,6.25443 61.68162,6.08853 C62.4337,5.92263 63.194075,5.78991 63.962745,5.69037 C64.731415,5.59083 65.45861,5.54106 66.14433,5.54106 C67.68167,5.54106 68.96463,5.74567 69.99321,6.15489 C71.02179,6.56411 71.798755,7.208355 72.324105,8.087625 C72.849455,8.966895 73.11213,10.11437 73.11213,11.53005 L73.11213,22.67853 L68.89827,22.67853 L68.89827,12.26001 C68.89827,11.83973 68.84297,11.438805 68.73237,11.057235 C68.62177,10.675665 68.436515,10.33557 68.176605,10.03695 C67.916695,9.73833 67.551715,9.503305 67.081665,9.331875 C66.611615,9.160445 66.01714,9.07473 65.29824,9.07473 C64.74524,9.07473 64.183945,9.132795 63.614355,9.248925 C63.044765,9.365055 62.55536,9.50607 62.14614,9.67197 L62.14614,22.67853 L57.93228,22.67853 L57.93228,7.34937 Z" id="Path"></path>
                    </g>
                </g>
                <g id="IJ" transform="translate(208, 72.5292)">
                    <path d="M0,176 C16,169.333333 26.6666667,159 32,145 C40,124 29,86 40,64 C47.3333333,49.3333333 61,38.6666667 81,32" id="Line-1" stroke="#7C7C7Cff" stroke-width="2"></path>
                    <g id="J" transform="translate(224, 0)">
                        <circle id="Oval" stroke="#7C7C7Cff" stroke-width="2" cx="32" cy="32" r="31"></circle>
                        <path d="M30.1129707,48 C28.7694096,48 27.5009298,47.8388602 26.3075314,47.5165807 C25.114133,47.1943012 24.0116225,46.7816261 23,46.2785556 L23,40.2888725 C23.9800093,40.9648735 24.9244537,41.534758 25.8333333,41.9985262 C26.7422129,42.4622943 27.6866574,42.6941783 28.6666667,42.6941783 C30.2473268,42.6941783 31.4525802,42.2972243 32.2824268,41.5033161 C33.1122734,40.709408 33.5271967,39.4163596 33.5271967,37.624171 L33.5271967,16 L40,16 L40,37.954311 C40,39.9351511 39.7075779,41.5740604 39.1227336,42.8710391 C38.5378894,44.1680177 37.7712692,45.1938099 36.8228731,45.9484156 C35.874477,46.7030214 34.8154347,47.2336035 33.6457462,47.5401621 C32.4760576,47.8467207 31.2984658,48 30.1129707,48 Z" id="Path" fill="#5445C4ff" fill-rule="nonzero"></path>
                    </g>
                    <g id="I" transform="translate(80, 0)">
                        <line x1="64" y1="32" x2="144" y2="32" id="Line" stroke="#7C7C7Cff" stroke-width="2"></line>
                        <circle id="Oval" stroke="#7C7C7Cff" stroke-width="2" cx="32" cy="32" r="31"></circle>
                        <polygon id="Path" fill="#5445C4ff" fill-rule="nonzero" points="29 48 29 16 36 16 36 48"></polygon>
                    </g>
                </g>
                <g id="F2" transform="translate(496, 0)" fill="#23C2B8FF" fill-rule="nonzero">
                    <path id="Line-2" d="M0,13.52922 L20.723791,30.5739988 L11.7647535,34.5629627 C18.1090439,45.798229 25.2184903,53.880666 33.067986,58.8382422 C45.4438392,66.6545705 55.7762378,70.52922 64,70.52922 L66,70.52922 L66,74.52922 L64,74.52922 C54.8904289,74.52922 43.8894941,70.4038695 30.932014,62.2201978 C22.3930546,56.8271708 14.7892394,48.1432701 8.09469415,36.1973191 L-1.20154846,40.3351201 L0,13.52922 Z" transform="translate(32, 43.0292) scale(1, -1) translate(-32, -43.0292)"></path>
                    <g transform="translate(74.4885, 0)" id="Path">
                        <polygon points="0 22.52922 0 0.39816 14.63238 0.39816 14.63238 4.01478 4.51248 4.01478 4.51248 9.954 13.30518 9.954 13.30518 13.62039 4.51248 13.62039 4.51248 22.52922"></polygon>
                        <path d="M18.51444,22.52922 L18.51444,19.22781 C19.26652,18.75223 20.098785,18.163285 21.011235,17.460975 C21.923685,16.758665 22.82784,15.9817 23.7237,15.13008 C24.61956,14.27846 25.438,13.396425 26.17902,12.483975 C26.92004,11.571525 27.51728,10.66184 27.97074,9.75492 C28.4242,8.848 28.65093,7.99085 28.65093,7.18347 C28.65093,6.45351 28.49609,5.825855 28.18641,5.300505 C27.87673,4.775155 27.409445,4.371465 26.784555,4.089435 C26.159665,3.807405 25.37717,3.66639 24.43707,3.66639 C23.29789,3.66639 22.26378,3.89865 21.33474,4.36317 C20.4057,4.82769 19.53196,5.36963 18.71352,5.98899 L18.71352,1.95762 C19.54302,1.44886 20.524595,0.9954 21.658245,0.59724 C22.791895,0.19908 24.12186,0 25.64814,0 C27.34032,0 28.74494,0.28203 29.862,0.84609 C30.97906,1.41015 31.811325,2.18988 32.358795,3.18528 C32.906265,4.18068 33.18,5.33645 33.18,6.65259 C33.18,7.68117 32.961565,8.684865 32.524695,9.663675 C32.087825,10.642485 31.507175,11.582585 30.782745,12.483975 C30.058315,13.385365 29.25923,14.23975 28.38549,15.04713 C27.51175,15.85451 26.63248,16.603825 25.74768,17.295075 C24.86288,17.986325 24.04444,18.61398 23.29236,19.17804 L22.34673,18.34854 L33.57816,18.34854 L33.57816,22.52922 L18.51444,22.52922 Z"></path>
                    </g>
                </g>
            </g>
        </g>
    </g>
</svg>