<?xml version="1.0" encoding="UTF-8"?>
<svg width="1469px" height="354px" viewBox="0 0 1469 354" version="1.1" xmlns="http://www.w3.org/2000/svg" xmlns:xlink="http://www.w3.org/1999/xlink">
    <title>Slide 4 v2</title>
    <g id="Page-1" stroke="none" stroke-width="1" fill="none" fill-rule="evenodd">
        <g id="Export-Slide-4-v2" transform="translate(-80, -273)">
            <g id="Slide-4-v2" transform="translate(80, 273)">
                <g id="XYB'C'M0I'J'M1'M2" transform="translate(144, 290)">
                    <g id="M2" transform="translate(1152, 0)">
                        <circle id="Oval" stroke="#7C7C7Cff" stroke-width="2" cx="32" cy="32" r="31"></circle>
                        <g transform="translate(9, 19)" fill="#5445C4ff" fill-rule="nonzero" id="Path">
                            <polygon points="0 24 0 0.424153166 4.92379836 0.424153166 13.1535756 12.3004418 10.4630715 12.4948454 19.0445487 0.424153166 23.862837 0.424153166 23.862837 24 19.0797186 24 19.0797186 4.24153166 20.1875733 5.53166421 11.7116061 17.089838 3.48182884 5.49631811 4.60726846 4.50662739 4.60726846 24"></polygon>
                            <path d="M29.0328253,24 L29.0328253,20.4830633 C29.8300117,19.9764359 30.7121923,19.3490427 31.6793669,18.6008837 C32.6465416,17.8527246 33.6049238,17.0250368 34.5545135,16.1178203 C35.5041032,15.2106038 36.3716295,14.2709867 37.1570926,13.2989691 C37.9425557,12.3269514 38.5756155,11.3578792 39.056272,10.3917526 C39.5369285,9.42562592 39.7772567,8.51251841 39.7772567,7.65243004 C39.7772567,6.87481591 39.6131301,6.20618557 39.2848769,5.64653903 C38.9566237,5.08689249 38.461313,4.65684831 37.7989449,4.35640648 C37.1365768,4.05596465 36.3071512,3.90574374 35.3106682,3.90574374 C34.1031653,3.90574374 33.007034,4.15316642 32.0222743,4.64801178 C31.0375147,5.14285714 30.1113716,5.72017673 29.2438453,6.37997054 L29.2438453,2.08541973 C30.123095,1.54344624 31.1635404,1.06038292 32.3651817,0.63622975 C33.566823,0.212076583 34.9765533,0 36.5943728,0 C38.3880422,0 39.876905,0.300441826 41.0609613,0.901325479 C42.2450176,1.50220913 43.1271981,2.33284242 43.7075029,3.39322533 C44.2878077,4.45360825 44.5779601,5.68483063 44.5779601,7.08689249 C44.5779601,8.1826215 44.3464244,9.25184094 43.8833529,10.2945508 C43.4202814,11.3372607 42.8048066,12.3387334 42.0369285,13.2989691 C41.2690504,14.2592047 40.4220399,15.1693667 39.4958968,16.0294551 C38.5697538,16.8895434 37.6377491,17.6877761 36.6998828,18.4241532 C35.7620164,19.1605302 34.89449,19.8291605 34.0973036,20.4300442 L33.094959,19.5463918 L45,19.5463918 L45,24 L29.0328253,24 Z"></path>
                        </g>
                    </g>
                    <g id="M1'" transform="translate(1008, 0)">
                        <line x1="64" y1="31" x2="144" y2="31" id="Line" stroke="#7C7C7Cff" stroke-width="2"></line>
                        <circle id="Oval" stroke="#7C7C7Cff" stroke-width="2" cx="32" cy="32" r="31"></circle>
                        <g id="M1’" transform="translate(6, 19)" fill="#5445C4ff" fill-rule="nonzero">
                            <polygon id="Path" points="0 24 0 0.319526627 5.02242152 0.319526627 13.4170404 12.2485207 10.6726457 12.443787 19.426009 0.319526627 24.3408072 0.319526627 24.3408072 24 19.4618834 24 19.4618834 4.15384615 20.5919283 5.44970414 11.9461883 17.0591716 3.55156951 5.41420118 4.69955157 4.42011834 4.69955157 24"></polygon>
                            <polygon id="Path" points="34.2780269 24 34.2780269 5.04142012 29.5964126 7.77514793 29.5964126 3.26627219 34.6547085 0.319526627 39.1569507 0.319526627 39.1569507 24"></polygon>
                            <polygon id="Path" points="45.3811659 6.95857988 48.0358744 0 52 0 48.7713004 6.95857988"></polygon>
                        </g>
                    </g>
                    <g id="J'" transform="translate(864, 0)">
                        <line x1="64" y1="31" x2="144" y2="31" id="Line" stroke="#7C7C7Cff" stroke-width="2"></line>
                        <circle id="Oval" stroke="#7C7C7Cff" stroke-width="2" cx="32" cy="32" r="31"></circle>
                        <g id="J’" transform="translate(19, 15)" fill="#5445C4ff" fill-rule="nonzero">
                            <path d="M6.9924812,32 C5.6716792,32 4.42468672,31.8409697 3.25150376,31.5229091 C2.0783208,31.2048485 0.994486216,30.7975758 0,30.3010909 L0,24.3898182 C0.963408521,25.0569697 1.89185464,25.6193939 2.78533835,26.0770909 C3.67882206,26.5347879 4.60726817,26.7636364 5.57067669,26.7636364 C7.1245614,26.7636364 8.3093985,26.3718788 9.12518797,25.5883636 C9.94097744,24.8048485 10.3488722,23.5287273 10.3488722,21.76 L10.3488722,0.418909091 L16.7120301,0.418909091 L16.7120301,22.0858182 C16.7120301,24.0407273 16.4245614,25.6581818 15.8496241,26.9381818 C15.2746867,28.2181818 14.5210526,29.2305455 13.5887218,29.9752727 C12.656391,30.72 11.6152882,31.2436364 10.4654135,31.5461818 C9.31553885,31.8487273 8.15789474,32 6.9924812,32 Z" id="Path"></path>
                            <polygon id="Path" points="22.3992481 9.12290909 25.8488722 0 31 0 26.8045113 9.12290909"></polygon>
                        </g>
                    </g>
                    <g id="I'" transform="translate(720, 0)">
                        <line x1="64" y1="31" x2="144" y2="31" id="Line" stroke="#7C7C7Cff" stroke-width="2"></line>
                        <circle id="Oval" stroke="#7C7C7Cff" stroke-width="2" cx="32" cy="32" r="31"></circle>
                        <g id="I’" transform="translate(27, 15)" fill="#5445C4ff" fill-rule="nonzero">
                            <polygon id="Path" points="0 32 0 0.426035503 6.47065463 0.426035503 6.47065463 32"></polygon>
                            <polygon id="Path" points="12.2539503 9.27810651 15.761851 0 21 0 16.7336343 9.27810651"></polygon>
                        </g>
                    </g>
                    <g id="M0" transform="translate(576, 0)">
                        <line x1="64" y1="31" x2="144" y2="31" id="Line" stroke="#7C7C7Cff" stroke-width="2"></line>
                        <circle id="Oval" stroke="#7C7C7Cff" stroke-width="2" cx="32" cy="32" r="31"></circle>
                        <g transform="translate(9, 20)" fill="#5445C4ff" fill-rule="nonzero">
                            <polygon id="Path" points="0 23.5652174 0 0.365217391 4.81522137 0.365217391 12.8635199 12.0521739 10.2323454 12.2434783 18.6245884 0.365217391 23.3366264 0.365217391 23.3366264 23.5652174 18.6589828 23.5652174 18.6589828 4.12173913 19.7424076 5.39130435 11.453348 16.7652174 3.4050494 5.35652174 4.50567142 4.3826087 4.50567142 23.5652174"></polygon>
                            <path d="M37.2663739,24 C33.9645079,24 31.5196365,23 29.93176,21 C28.3438834,19 27.5499451,16 27.5499451,12 C27.5499451,8.0115942 28.3438834,5.01449275 29.93176,3.00869565 C31.5196365,1.00289855 33.9645079,0 37.2663739,0 C40.6026345,0 43.0589706,1.00289855 44.6353824,3.00869565 C46.2117941,5.01449275 47,8.0115942 47,12 C47,16 46.2117941,19 44.6353824,21 C43.0589706,23 40.6026345,24 37.2663739,24 Z M37.2663739,20.0869565 C37.8625442,20.0869565 38.4558483,19.9942029 39.0462861,19.8086957 C39.636724,19.6231884 40.172704,19.2550725 40.6542261,18.7043478 C41.1357483,18.1536232 41.5226857,17.342029 41.8150384,16.2695652 C42.1073911,15.1971014 42.2535675,13.773913 42.2535675,12 C42.2535675,10.2376812 42.1073911,8.82318841 41.8150384,7.75652174 C41.5226857,6.68985507 41.1357483,5.88405797 40.6542261,5.33913043 C40.172704,4.7942029 39.636724,4.42318841 39.0462861,4.22608696 C38.4558483,4.02898551 37.8625442,3.93043478 37.2663739,3.93043478 C36.6816685,3.93043478 36.0940968,4.02898551 35.503659,4.22608696 C34.9132211,4.42318841 34.3772411,4.7942029 33.895719,5.33913043 C33.4141969,5.88405797 33.0301256,6.68985507 32.7435053,7.75652174 C32.456885,8.82318841 32.3135748,10.2376812 32.3135748,12 C32.3135748,13.773913 32.456885,15.1971014 32.7435053,16.2695652 C33.0301256,17.342029 33.4141969,18.1536232 33.895719,18.7043478 C34.3772411,19.2550725 34.9132211,19.6231884 35.503659,19.8086957 C36.0940968,19.9942029 36.6816685,20.0869565 37.2663739,20.0869565 Z" id="Shape"></path>
                        </g>
                    </g>
                    <g id="C'" transform="translate(432, 0)">
                        <line x1="64" y1="31" x2="144" y2="31" id="Line" stroke="#7C7C7Cff" stroke-width="2"></line>
                        <circle id="Oval" stroke="#7C7C7Cff" stroke-width="2" cx="32" cy="32" r="31"></circle>
                        <g id="C’" transform="translate(14, 15)" fill="#5445C4ff" fill-rule="nonzero">
                            <path d="M15.0324556,32 C10.1147173,32 6.37987344,30.692697 3.82792407,28.0780911 C1.27597469,25.4634852 0,21.4490239 0,16.0347072 C0,10.7437937 1.24106961,6.74861412 3.72320882,4.04916847 C6.20534803,1.34972282 9.97509696,0 15.0324556,0 C16.6768728,0 18.3251684,0.200530248 19.9773423,0.601590745 C21.6295162,1.00265124 23.2312717,1.55796577 24.7826087,2.26753435 L24.7826087,7.82067968 C23.2157583,6.84887925 21.683813,6.14316703 20.1867728,5.70354302 C18.6897326,5.26391902 17.2508675,5.04410701 15.8701776,5.04410701 C13.8224127,5.04410701 12.1081853,5.406604 10.7274954,6.13159798 C9.34680547,6.85659195 8.30740968,8.02120993 7.60930802,9.62545192 C6.91120637,11.2296939 6.56215554,13.373825 6.56215554,16.0578453 C6.56215554,18.7110147 6.91508471,20.8358641 7.62094305,22.4323933 C8.32680139,24.0289226 9.3855889,25.1819716 10.7973056,25.8915401 C12.2090222,26.6011087 13.9775464,26.955893 16.1028781,26.955893 C17.3749745,26.955893 18.7479077,26.7437937 20.2216779,26.3195951 C21.6954481,25.8953965 23.2157583,25.2051097 24.7826087,24.2487346 L24.7826087,29.80188 C23.8828332,30.2492167 22.8860992,30.6387081 21.7924066,30.9703543 C20.698714,31.3020005 19.5739947,31.5565196 18.4182486,31.7339118 C17.2625026,31.9113039 16.1339049,32 15.0324556,32 Z" id="Path"></path>
                            <polygon id="Path" points="29.4133497 9.25524223 32.8573178 0.185104845 38 0.185104845 33.8113901 9.25524223"></polygon>
                        </g>
                    </g>
                    <g id="B'" transform="translate(288, 0)">
                        <line x1="64" y1="31" x2="144" y2="31" id="Line" stroke="#7C7C7Cff" stroke-width="2"></line>
                        <circle id="Oval" stroke="#7C7C7Cff" stroke-width="2" cx="32" cy="32" r="31"></circle>
                        <g transform="translate(16, 15)" fill="#5445C4ff" fill-rule="nonzero">
                            <path d="M0,32 L0,0 L12.3600746,0 C14.7543532,0 16.7599502,0.323838081 18.3768657,0.971514243 C19.9937811,1.6191904 21.2220149,2.59070465 22.0615672,3.88605697 C22.9011194,5.1814093 23.3208955,6.8125937 23.3208955,8.77961019 C23.3208955,10.2028986 23.0177239,11.3583208 22.4113806,12.2458771 C21.8050373,13.1334333 21.0782027,13.8450775 20.2308769,14.3808096 C19.383551,14.9165417 18.5867537,15.3763118 17.8404851,15.7601199 L17.1175373,14.3688156 C18.5634328,14.5127436 19.8810634,14.9125437 21.0704291,15.5682159 C22.2597948,16.2238881 23.2120647,17.1274363 23.9272388,18.2788606 C24.6424129,19.4302849 25,20.8375812 25,22.5007496 C25,24.7076462 24.4986007,26.5107446 23.4958022,27.910045 C22.4930037,29.3093453 21.1248445,30.3408296 19.3913246,31.0044978 C17.6578047,31.6681659 15.7027363,32 13.5261194,32 L0,32 Z M6.36660448,26.7946027 L13.2229478,26.7946027 C14.1557836,26.7946027 15.0225435,26.6666667 15.8232276,26.4107946 C16.6239117,26.1549225 17.2691231,25.6911544 17.7588619,25.0194903 C18.2486007,24.3478261 18.4934701,23.4202899 18.4934701,22.2368816 C18.4934701,21.3413293 18.3379975,20.6136932 18.0270522,20.053973 C17.716107,19.4942529 17.3041045,19.0624688 16.7910448,18.7586207 C16.2779851,18.4547726 15.6988495,18.2428786 15.0536381,18.1229385 C14.4084266,18.0029985 13.7515547,17.9430285 13.0830224,17.9430285 L6.36660448,17.9430285 L6.36660448,26.7946027 Z M6.34328358,12.9535232 L12.8731343,12.9535232 C13.5416667,12.9535232 14.1791045,12.8495752 14.7854478,12.6416792 C15.391791,12.4337831 15.8931903,12.065967 16.2896455,11.5382309 C16.6861007,11.0104948 16.8843284,10.2668666 16.8843284,9.30734633 C16.8843284,7.75612194 16.4684391,6.69265367 15.6366604,6.11694153 C14.8048818,5.54122939 13.7360075,5.25337331 12.4300373,5.25337331 L6.34328358,5.25337331 L6.34328358,12.9535232 Z" id="Shape"></path>
                            <polygon id="Path" points="27 9 30.6097561 0 36 0 31.6097561 9"></polygon>
                        </g>
                    </g>
                    <g id="Y" transform="translate(144, 0)">
                        <line x1="64" y1="31" x2="144" y2="31" id="Line" stroke="#7C7C7Cff" stroke-width="2"></line>
                        <circle id="Oval" stroke="#7C7C7Cff" stroke-width="2" cx="32" cy="32" r="31"></circle>
                        <polygon id="Path" fill="#5445C4ff" fill-rule="nonzero" points="29.0863309 48 29.0863309 33.9190405 17 16 25.0095923 16 34.4100719 31.2083958 31.5323741 31.1124438 40.2853717 16 47 16 34.6498801 35.5262369 35.6091127 31.976012 35.6091127 48"></polygon>
                    </g>
                    <g id="X">
                        <line x1="64" y1="31" x2="144" y2="31" id="Line" stroke="#7C7C7Cff" stroke-width="2"></line>
                        <circle id="Oval" stroke="#7C7C7Cff" stroke-width="2" cx="32" cy="32" r="31"></circle>
                        <path d="M47,48 L38.9553073,48 L17,16 L25.0446927,16 L47,48 Z M31.7486034,28.2818591 L39.4102155,16 L46.7126895,16 L35.2681564,33.2233883 L31.7486034,28.2818591 Z M33.0654429,34.2548726 L24.3743017,48 L17.1675978,48 L29.3543496,29.8650675 L33.0654429,34.2548726 Z" id="Shape" fill="#5445C4ff" fill-rule="nonzero"></path>
                    </g>
                </g>
                <g id="F2" transform="translate(1360, 217.4708)" fill="#23C2B8FF" fill-rule="nonzero">
                    <path id="Line-2" d="M0,13.52922 L20.723791,30.5739988 L11.7647535,34.5629627 C18.1090439,45.798229 25.2184903,53.880666 33.067986,58.8382422 C45.4438392,66.6545705 55.7762378,70.52922 64,70.52922 L66,70.52922 L66,74.52922 L64,74.52922 C54.8904289,74.52922 43.8894941,70.4038695 30.932014,62.2201978 C22.3930546,56.8271708 14.7892394,48.1432701 8.09469415,36.1973191 L-1.20154846,40.3351201 L0,13.52922 Z" transform="translate(32, 43.0292) scale(1, -1) translate(-32, -43.0292)"></path>
                    <g transform="translate(74.4885, 0)" id="Path">
                        <polygon points="0 22.52922 0 0.39816 14.63238 0.39816 14.63238 4.01478 4.51248 4.01478 4.51248 9.954 13.30518 9.954 13.30518 13.62039 4.51248 13.62039 4.51248 22.52922"></polygon>
                        <path d="M18.51444,22.52922 L18.51444,19.22781 C19.26652,18.75223 20.098785,18.163285 21.011235,17.460975 C21.923685,16.758665 22.82784,15.9817 23.7237,15.13008 C24.61956,14.27846 25.438,13.396425 26.17902,12.483975 C26.92004,11.571525 27.51728,10.66184 27.97074,9.75492 C28.4242,8.848 28.65093,7.99085 28.65093,7.18347 C28.65093,6.45351 28.49609,5.825855 28.18641,5.300505 C27.87673,4.775155 27.409445,4.371465 26.784555,4.089435 C26.159665,3.807405 25.37717,3.66639 24.43707,3.66639 C23.29789,3.66639 22.26378,3.89865 21.33474,4.36317 C20.4057,4.82769 19.53196,5.36963 18.71352,5.98899 L18.71352,1.95762 C19.54302,1.44886 20.524595,0.9954 21.658245,0.59724 C22.791895,0.19908 24.12186,0 25.64814,0 C27.34032,0 28.74494,0.28203 29.862,0.84609 C30.97906,1.41015 31.811325,2.18988 32.358795,3.18528 C32.906265,4.18068 33.18,5.33645 33.18,6.65259 C33.18,7.68117 32.961565,8.684865 32.524695,9.663675 C32.087825,10.642485 31.507175,11.582585 30.782745,12.483975 C30.058315,13.385365 29.25923,14.23975 28.38549,15.04713 C27.51175,15.85451 26.63248,16.603825 25.74768,17.295075 C24.86288,17.986325 24.04444,18.61398 23.29236,19.17804 L22.34673,18.34854 L33.57816,18.34854 L33.57816,22.52922 L18.51444,22.52922 Z"></path>
                    </g>
                </g>
                <g id="F1,-Main" transform="translate(784, 217.3215)" fill="#23C2B8FF" fill-rule="nonzero">
                    <path id="Line-2" d="M0,13.67853 L20.723791,30.7233088 L11.764791,34.712339 C18.1090719,45.9475708 25.2185058,54.0299857 33.067986,58.9875522 C45.4438392,66.8038805 55.7762378,70.67853 64,70.67853 L66,70.67853 L66,74.67853 L64,74.67853 C54.8904289,74.67853 43.8894941,70.5531795 30.932014,62.3695078 C22.3930546,56.9764808 14.7892394,48.2925801 8.09469415,36.3466291 L-1.20154846,40.4844301 L0,13.67853 Z" transform="translate(32, 43.1785) scale(1, -1) translate(-32, -43.1785)"></path>
                    <g id="F1,-main" transform="translate(74.4885, 0)">
                        <polygon id="Path" points="0 22.67853 0 0.54747 14.63238 0.54747 14.63238 4.16409 4.51248 4.16409 4.51248 10.10331 13.30518 10.10331 13.30518 13.7697 4.51248 13.7697 4.51248 22.67853"></polygon>
                        <polygon id="Path" points="22.82784 22.67853 22.82784 4.96041 18.49785 7.51527 18.49785 3.30141 23.17623 0.54747 27.34032 0.54747 27.34032 22.67853"></polygon>
                        <polygon id="Path" points="33.99291 26.39469 36.44823 19.89141 40.11462 19.89141 37.12842 26.39469"></polygon>
                        <path d="M69.44574,11.53005 L69.44574,22.67853 L65.23188,22.67853 L65.23188,12.26001 C65.23188,11.83973 65.17658,11.438805 65.06598,11.057235 C64.95538,10.675665 64.770125,10.33557 64.510215,10.03695 C64.250305,9.73833 63.885325,9.503305 63.415275,9.331875 C62.945225,9.160445 62.35075,9.07473 61.63185,9.07473 C61.07885,9.07473 60.545205,9.132795 60.030915,9.248925 C59.516625,9.365055 59.05487,9.50607 58.64565,9.67197 L58.64565,22.67853 L54.43179,22.67853 L54.43179,7.34937 C54.88525,7.11711 55.435485,6.89038 56.082495,6.66918 C56.729505,6.44798 57.42905,6.25443 58.18113,6.08853 C58.93321,5.92263 59.693585,5.78991 60.462255,5.69037 C61.230925,5.59083 61.95812,5.54106 62.64384,5.54106 C64.18118,5.54106 65.450315,5.74567 66.451245,6.15489 C67.452175,6.56411 68.20149,7.208355 68.69919,8.087625 C69.19689,8.966895 69.44574,10.11437 69.44574,11.53005 Z M64.91667,8.34477 C65.61345,7.75859 66.418065,7.258125 67.330515,6.843375 C68.242965,6.428625 69.199655,6.107885 70.200585,5.881155 C71.201515,5.654425 72.15544,5.54106 73.06236,5.54106 C74.5997,5.54106 75.868835,5.74567 76.869765,6.15489 C77.870695,6.56411 78.62001,7.208355 79.11771,8.087625 C79.61541,8.966895 79.86426,10.11437 79.86426,11.53005 L79.86426,22.67853 L75.6504,22.67853 L75.6504,12.26001 C75.6504,11.83973 75.5951,11.438805 75.4845,11.057235 C75.3739,10.675665 75.188645,10.33557 74.928735,10.03695 C74.668825,9.73833 74.303845,9.503305 73.833795,9.331875 C73.363745,9.160445 72.76927,9.07473 72.05037,9.07473 C71.49737,9.07473 70.963725,9.154915 70.449435,9.315285 C69.935145,9.475655 69.47339,9.70515 69.06417,10.00377 L64.91667,8.34477 Z" id="Shape"></path>
                        <path d="M90.76389,23.17623 C89.82379,23.17623 88.930695,23.08775 88.084605,22.91079 C87.238515,22.73383 86.48367,22.437975 85.82007,22.023225 C85.15647,21.608475 84.633885,21.04165 84.252315,20.32275 C83.870745,19.60385 83.67996,18.70799 83.67996,17.63517 C83.67996,16.49599 83.909455,15.53377 84.368445,14.74851 C84.827435,13.96325 85.50486,13.36601 86.40072,12.95679 C87.29658,12.54757 88.39705,12.34296 89.70213,12.34296 C90.49845,12.34296 91.242235,12.41485 91.933485,12.55863 C92.624735,12.70241 93.24686,12.898725 93.79986,13.147575 C94.35286,13.396425 94.80632,13.67016 95.16024,13.96878 L95.44227,16.30797 C94.97775,16.00935 94.38604,15.763265 93.66714,15.569715 C92.94824,15.376165 92.17404,15.27939 91.34454,15.27939 C90.17218,15.27939 89.29844,15.470175 88.72332,15.851745 C88.1482,16.233315 87.86064,16.81673 87.86064,17.60199 C87.86064,18.14393 88.01548,18.600155 88.32516,18.970665 C88.63484,19.341175 89.033,19.617675 89.51964,19.800165 C90.00628,19.982655 90.51504,20.0739 91.04592,20.0739 C92.26252,20.0739 93.139025,19.99095 93.675435,19.82505 C94.211845,19.65915 94.48005,19.2997 94.48005,18.7467 L94.48005,12.17706 C94.48005,11.08212 94.139955,10.2858 93.459765,9.7881 C92.779575,9.2904 91.81459,9.04155 90.56481,9.04155 C89.61365,9.04155 88.643135,9.20192 87.653265,9.52266 C86.663395,9.8434 85.85325,10.25815 85.22283,10.76691 L85.22283,6.95121 C85.82007,6.56411 86.71593,6.229545 87.91041,5.947515 C89.10489,5.665485 90.39338,5.52447 91.77588,5.52447 C92.351,5.52447 92.956535,5.577005 93.592485,5.682075 C94.228435,5.787145 94.84503,5.96134 95.44227,6.20466 C96.03951,6.44798 96.58145,6.788075 97.06809,7.224945 C97.55473,7.661815 97.94183,8.20652 98.22939,8.85906 C98.51695,9.5116 98.66073,10.30239 98.66073,11.23143 L98.64414,19.17804 C98.64414,20.19556 98.315105,20.99741 97.657035,21.58359 C96.998965,22.16977 96.080985,22.581755 94.903095,22.819545 C93.725205,23.057335 92.34547,23.17623 90.76389,23.17623 Z" id="Path"></path>
                        <path d="M103.40547,22.67853 L103.40547,6.12171 L107.61933,6.12171 L107.65251,22.67853 L103.40547,22.67853 Z M103.30593,3.4839 L103.30593,0 L107.71887,0 L107.71887,3.4839 L103.30593,3.4839 Z" id="Shape"></path>
                        <path d="M112.36407,7.34937 C112.81753,7.11711 113.367765,6.89038 114.014775,6.66918 C114.661785,6.44798 115.36133,6.25443 116.11341,6.08853 C116.86549,5.92263 117.625865,5.78991 118.394535,5.69037 C119.163205,5.59083 119.8904,5.54106 120.57612,5.54106 C122.11346,5.54106 123.39642,5.74567 124.425,6.15489 C125.45358,6.56411 126.230545,7.208355 126.755895,8.087625 C127.281245,8.966895 127.54392,10.11437 127.54392,11.53005 L127.54392,22.67853 L123.33006,22.67853 L123.33006,12.26001 C123.33006,11.83973 123.27476,11.438805 123.16416,11.057235 C123.05356,10.675665 122.868305,10.33557 122.608395,10.03695 C122.348485,9.73833 121.983505,9.503305 121.513455,9.331875 C121.043405,9.160445 120.44893,9.07473 119.73003,9.07473 C119.17703,9.07473 118.615735,9.132795 118.046145,9.248925 C117.476555,9.365055 116.98715,9.50607 116.57793,9.67197 L116.57793,22.67853 L112.36407,22.67853 L112.36407,7.34937 Z" id="Path"></path>
                    </g>
                </g>
                <g id="ABC" transform="translate(0, 145)">
                    <path d="M64,177 C80,170.333333 90.6666667,160 96,146 C104,125 93,87 104,65 C111.333333,50.3333333 124.666667,39 144,31" id="Line-2" stroke="#7C7C7Cff" stroke-width="2" transform="translate(104, 104) scale(1, -1) translate(-104, -104)"></path>
                    <g id="C" transform="translate(288, 0)">
                        <circle id="Oval" stroke="#7C7C7Cff" stroke-width="2" cx="32" cy="32" r="31"></circle>
                        <g transform="translate(20, 16)" fill="#5445C4ff" fill-rule="nonzero" id="Path">
                            <path d="M15.1643192,32 C10.2034429,32 6.43583725,30.692697 3.86150235,28.0780911 C1.28716745,25.4634852 0,21.4490239 0,16.0347072 C0,10.7437937 1.25195618,6.74861412 3.75586854,4.04916847 C6.25978091,1.34972282 10.0625978,0 15.1643192,0 C16.8231612,0 18.4859155,0.200530248 20.1525822,0.601590745 C21.8192488,1.00265124 23.4350548,1.55796577 25,2.26753435 L25,7.82067968 C23.4194053,6.84887925 21.8740219,6.14316703 20.3638498,5.70354302 C18.8536776,5.26391902 17.4021909,5.04410701 16.0093897,5.04410701 C13.943662,5.04410701 12.2143975,5.406604 10.8215962,6.13159798 C9.42879499,6.85659195 8.38028169,8.02120993 7.67605634,9.62545192 C6.97183099,11.2296939 6.61971831,13.373825 6.61971831,16.0578453 C6.61971831,18.7110147 6.97574335,20.8358641 7.68779343,22.4323933 C8.39984351,24.0289226 9.46791862,25.1819716 10.8920188,25.8915401 C12.3161189,26.6011087 14.1001565,26.955893 16.2441315,26.955893 C17.5273865,26.955893 18.9123631,26.7437937 20.399061,26.3195951 C21.885759,25.8953965 23.4194053,25.2051097 25,24.2487346 L25,29.80188 C24.0923318,30.2492167 23.0868545,30.6387081 21.9835681,30.9703543 C20.8802817,31.3020005 19.7456964,31.5565196 18.5798122,31.7339118 C17.413928,31.9113039 16.2754304,32 15.1643192,32 Z"></path>
                        </g>
                    </g>
                    <g id="B" transform="translate(144, 0)">
                        <line x1="64" y1="31" x2="144" y2="31" id="Line" stroke="#7C7C7Cff" stroke-width="2"></line>
                        <circle id="Oval" stroke="#7C7C7Cff" stroke-width="2" cx="32" cy="32" r="31"></circle>
                        <path d="M19,48 L19,16 L31.8544776,16 C34.3445274,16 36.4303483,16.3238381 38.1119403,16.9715142 C39.7935323,17.6191904 41.0708955,18.5907046 41.9440299,19.886057 C42.8171642,21.1814093 43.2537313,22.8125937 43.2537313,24.7796102 C43.2537313,26.2028986 42.9384328,27.3583208 42.3078358,28.2458771 C41.6772388,29.1334333 40.9213308,29.8450775 40.0401119,30.3808096 C39.158893,30.9165417 38.3302239,31.3763118 37.5541045,31.7601199 L36.8022388,30.3688156 C38.3059701,30.5127436 39.676306,30.9125437 40.9132463,31.5682159 C42.1501866,32.2238881 43.1405473,33.1274363 43.8843284,34.2788606 C44.6281095,35.4302849 45,36.8375812 45,38.5007496 C45,40.7076462 44.4785448,42.5107446 43.4356343,43.910045 C42.3927239,45.3093453 40.9698383,46.3408296 39.1669776,47.0044978 C37.3641169,47.6681659 35.3308458,48 33.0671642,48 L19,48 Z M25.6212687,42.7946027 L32.7518657,42.7946027 C33.7220149,42.7946027 34.6234453,42.6666667 35.4561567,42.4107946 C36.2888682,42.1549225 36.9598881,41.6911544 37.4692164,41.0194903 C37.9785448,40.3478261 38.233209,39.4202899 38.233209,38.2368816 C38.233209,37.3413293 38.0715174,36.6136932 37.7481343,36.053973 C37.4247512,35.4942529 36.9962687,35.0624688 36.4626866,34.7586207 C35.9291045,34.4547726 35.3268035,34.2428786 34.6557836,34.1229385 C33.9847637,34.0029985 33.3016169,33.9430285 32.6063433,33.9430285 L25.6212687,33.9430285 L25.6212687,42.7946027 Z M25.5970149,28.9535232 L32.3880597,28.9535232 C33.0833333,28.9535232 33.7462687,28.8495752 34.3768657,28.6416792 C35.0074627,28.4337831 35.5289179,28.065967 35.9412313,27.5382309 C36.3535448,27.0104948 36.5597015,26.2668666 36.5597015,25.3073463 C36.5597015,23.7561219 36.1271766,22.6926537 35.2621269,22.1169415 C34.3970771,21.5412294 33.2854478,21.2533733 31.9272388,21.2533733 L25.5970149,21.2533733 L25.5970149,28.9535232 Z" id="Shape" fill="#5445C4ff" fill-rule="nonzero"></path>
                    </g>
                    <g id="A">
                        <line x1="64" y1="31" x2="144" y2="31" id="Line" stroke="#7C7C7Cff" stroke-width="2"></line>
                        <circle id="Oval" stroke="#7C7C7Cff" stroke-width="2" cx="32" cy="32" r="31"></circle>
                        <path d="M17,48 L29.2563707,16 L36.2942085,16 L48,48 L41.2494208,48 L30.8123552,18.2068966 L33.7088803,17.9430285 L23.2957529,48 L17,48 Z M23.4633205,40.2038981 L25.019305,35.1904048 L39.8610039,35.1904048 L40.4355212,40.2038981 L23.4633205,40.2038981 Z" id="Shape" fill="#5445C4ff" fill-rule="nonzero"></path>
                    </g>
                </g>
                <g id="IJC&quot;M1" transform="translate(208, 0)">
                    <path d="M0,176 C16,169.333333 26.6666667,159 32,145 C40,124 29,86 40,64 C47.3333333,49.3333333 61,38.6666667 81,32" id="Line-1" stroke="#7C7C7Cff" stroke-width="2"></path>
                    <g id="M1" transform="translate(512, 0)">
                        <circle id="Oval" stroke="#7C7C7Cff" stroke-width="2" cx="32" cy="32" r="31"></circle>
                        <g transform="translate(12, 20)" fill="#5445C4ff" fill-rule="nonzero" id="Path">
                            <polygon points="0 24 0 0 5.00229043 0 13.3632616 12.089955 10.6298672 12.2878561 19.3481448 0 24.2432432 0 24.2432432 24 19.3838754 24 19.3838754 3.88605697 20.5093907 5.1994003 11.8983051 16.9655172 3.53733394 5.16341829 4.68071461 4.15592204 4.68071461 24"></polygon>
                            <polygon points="34.1406322 24 34.1406322 4.7856072 29.4777829 7.55622189 29.4777829 2.98650675 34.5158039 0 39 0 39 24"></polygon>
                        </g>
                    </g>
                    <g id="C&quot;" transform="translate(368, 0)">
                        <line x1="64" y1="32" x2="144" y2="32" id="Line" stroke="#7C7C7Cff" stroke-width="2"></line>
                        <circle id="Oval" stroke="#7C7C7Cff" stroke-width="2" cx="32" cy="32" r="31"></circle>
                        <g id="C”" transform="translate(10, 15)" fill="#5445C4ff" fill-rule="nonzero">
                            <path d="M14.9537037,32 C10.0617284,32 6.34645062,30.692697 3.80787037,28.0780911 C1.26929012,25.4634852 0,21.4490239 0,16.0347072 C0,10.7437937 1.2345679,6.74861412 3.7037037,4.04916847 C6.17283951,1.34972282 9.92283951,0 14.9537037,0 C16.5895062,0 18.2291667,0.200530248 19.8726852,0.601590745 C21.5162037,1.00265124 23.1095679,1.55796577 24.6527778,2.26753435 L24.6527778,7.82067968 C23.0941358,6.84887925 21.570216,6.14316703 20.0810185,5.70354302 C18.591821,5.26391902 17.1604938,5.04410701 15.787037,5.04410701 C13.75,5.04410701 12.0447531,5.406604 10.6712963,6.13159798 C9.29783951,6.85659195 8.26388889,8.02120993 7.56944444,9.62545192 C6.875,11.2296939 6.52777778,13.373825 6.52777778,16.0578453 C6.52777778,18.7110147 6.87885802,20.8358641 7.58101852,22.4323933 C8.28317901,24.0289226 9.33641975,25.1819716 10.7407407,25.8915401 C12.1450617,26.6011087 13.904321,26.955893 16.0185185,26.955893 C17.2839506,26.955893 18.6496914,26.7437937 20.1157407,26.3195951 C21.5817901,25.8953965 23.0941358,25.2051097 24.6527778,24.2487346 L24.6527778,29.80188 C23.757716,30.2492167 22.7662037,30.6387081 21.6782407,30.9703543 C20.5902778,31.3020005 19.4714506,31.5565196 18.3217593,31.7339118 C17.1720679,31.9113039 16.0493827,32 14.9537037,32 Z" id="Path"></path>
                            <path d="M36.4583333,9.25524223 L39.8842593,0.185104845 L45,0.185104845 L40.8333333,9.25524223 L36.4583333,9.25524223 Z M29.2824074,9.25524223 L32.7083333,0.185104845 L37.8240741,0.185104845 L33.6574074,9.25524223 L29.2824074,9.25524223 Z" id="Shape"></path>
                        </g>
                    </g>
                    <g id="J" transform="translate(224, 0)">
                        <line x1="64" y1="31.5" x2="144" y2="31.5" id="Line" stroke="#7C7C7Cff" stroke-width="2"></line>
                        <circle id="Oval" stroke="#7C7C7Cff" stroke-width="2" cx="32" cy="32" r="31"></circle>
                        <path d="M30.1129707,48 C28.7694096,48 27.5009298,47.8388602 26.3075314,47.5165807 C25.114133,47.1943012 24.0116225,46.7816261 23,46.2785556 L23,40.2888725 C23.9800093,40.9648735 24.9244537,41.534758 25.8333333,41.9985262 C26.7422129,42.4622943 27.6866574,42.6941783 28.6666667,42.6941783 C30.2473268,42.6941783 31.4525802,42.2972243 32.2824268,41.5033161 C33.1122734,40.709408 33.5271967,39.4163596 33.5271967,37.624171 L33.5271967,16 L40,16 L40,37.954311 C40,39.9351511 39.7075779,41.5740604 39.1227336,42.8710391 C38.5378894,44.1680177 37.7712692,45.1938099 36.8228731,45.9484156 C35.874477,46.7030214 34.8154347,47.2336035 33.6457462,47.5401621 C32.4760576,47.8467207 31.2984658,48 30.1129707,48 Z" id="Path" fill="#5445C4ff" fill-rule="nonzero"></path>
                    </g>
                    <g id="I" transform="translate(80, 0)">
                        <line x1="64" y1="32" x2="144" y2="32" id="Line" stroke="#7C7C7Cff" stroke-width="2"></line>
                        <circle id="Oval" stroke="#7C7C7Cff" stroke-width="2" cx="32" cy="32" r="31"></circle>
                        <polygon id="Path" fill="#5445C4ff" fill-rule="nonzero" points="29 48 29 16 36 16 36 48"></polygon>
                    </g>
                </g>
            </g>
        </g>
    </g>
</svg>