<?xml version="1.0" encoding="UTF-8"?>
<svg width="367px" height="367px" viewBox="0 0 367 367" version="1.1" xmlns="http://www.w3.org/2000/svg" xmlns:xlink="http://www.w3.org/1999/xlink">
    <title>Logo/Floro Logo (Duck)</title>
    <defs>
        <filter x="-3.9%" y="-2.6%" width="107.7%" height="105.2%" filterUnits="objectBoundingBox" id="filter-1">
            <feGaussianBlur stdDeviation="2" in="SourceGraphic"></feGaussianBlur>
        </filter>
    </defs>
    <g id="Logo/Floro-Logo-(Duck)" stroke="none" stroke-width="1" fill="none" fill-rule="evenodd">
        <circle id="Oval" fill="#5445C4" cx="183.50034" cy="183.50034" r="183.50034"></circle>
        <path d="M179.245139,43.0002874 L180.465506,43.0125641 C209.542158,43.5212962 234.389305,60.8503626 245.936744,85.5851382 L246.282586,86.336934 L246.305075,86.3873888 L246.434905,86.6935118 L246.739233,87.4409514 L247.318892,88.9002991 L247.825603,90.1970158 C249.006777,90.5605618 250.173792,91.3879115 251.31941,92.3463751 L251.31941,92.3463751 L251.659641,92.6351027 L251.659641,92.6351027 L251.82927,92.7817597 L252.167527,93.0784434 L252.504415,93.3779969 L253.506445,94.2744011 L254.002339,94.7092842 L254.330943,94.9898104 L254.657902,95.2605478 C255.744978,96.1445273 256.803947,96.8329026 257.827747,97.0010958 L257.827747,97.0010958 L258.295307,97.0741306 C258.528381,97.1086897 258.760371,97.1403769 258.991161,97.1694876 L258.991161,97.1694876 L259.451111,97.224361 L260.021245,97.2840903 L260.021245,97.2840903 L260.1346,97.2949365 L260.585674,97.3349293 L261.032844,97.3698886 L261.475907,97.4003392 L261.914661,97.4268061 L262.778433,97.4698886 L263.203046,97.487554 L265.441502,97.5651127 L266.210522,97.5962465 L266.769956,97.6247565 L267.13428,97.6472044 L267.491462,97.6730177 L267.8413,97.7027213 L268.183592,97.7368401 L268.518134,97.7758992 L268.518134,97.7758992 L268.682437,97.7974453 L269.004977,97.844899 C271.393326,98.223592 273.085186,99.1298432 273.696425,101.56021 C275.69527,109.507927 267.66244,118.595041 254.344516,121.886918 C246.78967,123.754277 239.485774,123.192482 234.187009,120.797113 L232.03845,122.220422 L228.923764,124.291452 L225.75024,126.408676 L222.517879,128.572096 L219.22668,130.781709 L215.876643,133.037518 L214.53496,133.942 L214.629354,134.035378 C282.00196,201.083935 297.568058,256.353578 260.071966,297.873599 C203.259705,360.782721 87.9214694,305.4907 88,255.43935 C88.0327045,235.702918 102.422312,213.00815 131.436985,187.775334 L131.424687,187.759826 L130.235731,186.443813 L129.458873,185.578176 L128.317255,184.297277 L127.571956,183.455049 L126.477677,182.209264 L125.763938,181.390445 L125.062821,180.58099 L124.374329,179.780899 L123.365259,178.598319 L122.708325,177.821638 L121.746594,176.674172 L121.121219,175.9209 L120.206826,174.808548 L119.61301,174.078685 L119.031818,173.358186 L118.46325,172.64705 L117.907305,171.945279 L117.363983,171.252871 L116.833286,170.569826 L116.315211,169.896146 L115.809761,169.231829 L115.316934,168.576876 L114.83673,167.931287 L114.369151,167.295061 L113.69145,166.35828 L113.255429,165.745464 L113.148396,165.593723 L113.148396,165.593723 L113.042153,165.442567 L112.625067,164.843797 L112.220605,164.25439 L112.121462,164.108502 L112.121462,164.108502 L112.023108,163.963198 L111.637582,163.387837 L111.449552,163.103668 L111.082961,162.542353 L110.728994,161.990401 L110.38765,161.447813 L110.304286,161.313629 L110.304286,161.313629 L110.221712,161.18003 L109.899303,160.651488 L109.665781,160.261226 L109.665781,160.261226 L109.43936,159.876231 L109.14851,159.371098 L109.07777,159.246278 L109.07777,159.246278 L109.007819,159.122043 L108.735905,158.630956 L108.476615,158.149232 L108.413764,158.030265 L108.413764,158.030265 L108.351703,157.911882 L108.111348,157.444204 L107.883616,156.98589 L107.828656,156.872774 L107.828656,156.872774 L107.774485,156.760244 L107.565688,156.315976 C100.358663,140.669768 97.7676914,126.939699 98.0161612,112.671295 C98.7119697,72.7144199 138.162762,43.489274 178.024786,43.0060817 L179.245139,43.0002874 Z" id="Combined-Shape" fill="#9B8FF7"></path>
        <path d="M188.141876,78.0002326 L189.13538,78.0101709 C212.806757,78.4220017 233.034883,92.4502935 242.435683,112.473683 L242.717234,113.08228 L242.735542,113.123124 L242.841237,113.370938 L243.088991,113.976008 L243.560893,115.157385 L244.305586,117.054785 C245.411385,117.260223 246.503165,118.019266 247.572021,118.919761 L247.572021,118.919761 L247.848459,119.155993 L247.848459,119.155993 L247.986282,119.275985 L248.261116,119.518726 L248.534838,119.763816 L249.348986,120.497237 L249.751901,120.853051 L250.018891,121.082572 L250.284545,121.304085 C251.167795,122.02734 252.028207,122.590557 252.860044,122.728169 L252.860044,122.728169 L253.239937,122.787925 C253.42931,122.816201 253.617801,122.842127 253.805318,122.865944 L253.805318,122.865944 L254.179028,122.910841 L254.549975,122.950545 L254.549975,122.950545 L254.734362,122.968584 L255.10086,123.001306 L255.464186,123.029909 L255.824174,123.054823 L256.180662,123.076478 L256.882477,123.111727 L257.227475,123.126181 L259.04622,123.189638 L259.671049,123.215111 L260.125589,123.238437 L260.421602,123.256804 L260.711813,123.277924 L260.996056,123.302226 L261.274168,123.330142 L261.545984,123.362099 C261.590753,123.367786 261.635253,123.373659 261.67948,123.379728 L261.67948,123.379728 L261.941544,123.418554 C263.882077,123.728393 265.256714,124.469872 265.753345,126.458354 C267.377407,132.961031 260.850733,140.395943 250.02992,143.089297 C243.158908,144.799506 236.543376,144.019436 232.182321,141.432532 L231.121045,142.130817 L228.585372,143.807366 L226.001798,145.521309 L223.370324,147.272649 L220.690951,149.061384 L217.963677,150.887514 L217.662968,151.089 L218.226822,151.647187 C272.616165,205.908133 285.182547,250.636658 254.912264,284.237912 C209.048199,335.148903 115.936603,290.402267 116,249.896793 C116.026003,234.165961 127.294471,216.112842 150.012219,196.062374 L149.211123,195.186526 L148.243191,194.121182 L147.610749,193.420428 L146.681355,192.38351 L146.074606,191.701706 L145.18375,190.693213 L144.602693,190.03036 L144.031912,189.375087 L143.471409,188.727394 L142.649922,187.770068 L142.115111,187.141326 L141.332163,186.212425 L140.823044,185.602633 L140.078634,184.702158 L139.595207,184.111316 L139.122057,183.528055 L138.659184,182.952374 L138.206588,182.384273 L137.764269,181.823752 L137.332226,181.270812 L136.910461,180.725451 L136.498972,180.187671 L136.09776,179.657471 L135.706825,179.134851 L135.326167,178.619812 L134.77445,177.861465 L134.419484,177.365376 L134.332348,177.242538 L134.332348,177.242538 L134.245855,177.120174 L133.906305,176.635455 L133.577031,176.158316 L133.496319,176.040216 L133.496319,176.040216 L133.416248,175.922589 L133.10239,175.456821 L133.025532,175.341563 L133.025532,175.341563 L132.949315,175.226779 L132.650872,174.772381 L132.362707,174.325563 L132.084818,173.886325 L132.016951,173.7777 L132.016951,173.7777 L131.949727,173.669548 L131.687253,173.241681 L131.497142,172.925755 L131.497142,172.925755 L131.312812,172.614092 L131.076031,172.205175 L131.018441,172.10413 L131.018441,172.10413 L130.961494,172.003559 L130.740128,171.606012 L130.529039,171.216045 L130.477872,171.119738 L130.477872,171.119738 L130.427348,171.023905 L130.231674,170.645308 L130.046278,170.274292 L130.001534,170.182722 L130.001534,170.182722 L129.957433,170.091626 L129.787451,169.73198 C123.920193,157.066003 121.810877,145.951185 122.013157,134.400572 C122.579616,102.05453 154.696607,78.3960789 187.148383,78.0049233 L188.141876,78.0002326 Z" id="Combined-Shape" fill-opacity="0.9" fill="#302679" filter="url(#filter-1)"></path>
        <g id="Duck" transform="translate(108.352582, 71.902174)">
            <path d="M97.5254469,72.7309014 C123.738526,98.7339566 140.011729,122.435418 146.099427,143.708565 C152.120841,164.750086 148.026522,183.331393 133.6588,199.251831 C124.577855,209.31415 113.53266,215.406557 101.75035,218.403321 C88.2301869,221.842098 73.7460624,221.216483 60.1196567,217.853821 C44.1142297,213.904074 29.2803699,206.17594 18.5638465,196.732772 C8.47683273,187.844314 1.98401481,177.43831 1.99999726,167.244985 C2.04256671,141.537828 34.0424598,109.642759 97.5254469,72.7309014 Z" id="Body" stroke="#602A2C" stroke-width="4" fill="#BA7C4D"></path>
            <path d="M71.4084708,1.75059942 L71.923,1.751 L72.767,1.759 L72.7943768,1.75961959 C83.8542649,1.95381573 94.1090967,5.31460549 102.713935,10.9628036 C111.597122,16.7937094 118.722494,25.0611539 123.153511,34.7968139 L123.153511,34.7968139 L123.497811,35.6268682 L123.948577,36.758515 L124.683935,38.6391101 L125.275506,40.1735245 L125.900988,41.8154251 L126.535952,43.5050197 L126.980824,44.7053851 L127.408708,45.8764993 L127.732505,46.7768436 L127.961026,47.4219008 L128.17522,48.036015 L128.374975,48.6198097 L128.554567,49.1572594 L128.327088,50.5686691 L127.055972,51.3876299 L124.88937,52.7889089 L122.676473,54.2264575 L120.417274,55.7002803 L118.111764,57.2103816 L115.759533,58.7570311 L112.552102,60.8750559 L110.092173,62.5061123 L107.585906,64.1734624 L105.033295,65.8771089 L102.434336,67.6170545 L99.7890247,69.3933018 L97.0973566,71.2058529 L94.3593281,73.0547102 L91.5746543,74.9400666 L87.7902855,77.5099118 L84.8979597,79.479625 L82.9432902,80.8134122 L78.9734005,83.5285295 L75.9414491,85.607529 L71.8270218,88.4358019 L67.6303499,91.3284945 L64.4283497,93.5406507 L60.0871441,96.5464954 L55.6636596,99.6167816 L52.2917705,101.96198 L48.8736712,104.343377 L46.5686772,105.951496 L41.897907,109.215416 L39.5310699,110.871959 L35.994,113.351 L35.4255243,112.727429 L34.4912595,111.696255 L33.8822818,111.019612 L32.9856072,110.016394 L32.4017791,109.358515 L31.542716,108.383289 L30.9831427,107.743157 L30.4336217,107.110526 L29.8951211,106.486527 L29.10382,105.561802 L28.5905383,104.956696 L27.836922,104.060103 L27.3488897,103.473952 L26.6329903,102.605557 L26.1690636,102.036974 L25.7152273,101.475969 L25.2714866,100.922555 L24.8378466,100.376743 L24.4143129,99.8385474 L24.0008912,99.3079812 L23.5975873,98.7850599 L23.2044077,98.2697999 L22.8213586,97.7622188 L22.4484467,97.2623355 L22.0833956,96.7670192 L21.5565572,96.0408275 L21.2207276,95.5701587 L20.7318742,94.8728766 L20.4216089,94.4220141 L19.9717816,93.7553172 L19.5447458,93.1061632 C18.6501872,91.6762214 18.4594674,91.3636931 18.3514951,91.1794282 L18.323633,91.131611 C11.3400765,76.3793809 9.32533024,65.8241357 9.51696499,54.8505224 C9.77866863,39.8645425 17.2576579,26.8836794 28.378289,17.51472 C40.0361893,7.69311981 55.7016112,1.81962583 71.4084708,1.75059942 Z" id="Head" stroke="#602A2C" stroke-width="3.5" fill="#23C2B9"></path>
            <ellipse id="Eye" fill="#602A2C" transform="translate(72.538425, 29.038634) rotate(14.000000) translate(-72.538425, -29.038634) " cx="72.5384249" cy="29.0386336" rx="6.0719391" ry="6.06943192"></ellipse>
            <path d="M130.573551,61.907469 C141.018276,59.293683 147.318109,52.0784156 145.750493,45.7678429 C145.271123,43.8381051 143.944263,43.1185318 142.071175,42.8178454 L141.818219,42.7801668 C141.775529,42.7742775 141.732576,42.7685778 141.689363,42.7630589 L141.426995,42.7320456 L141.426995,42.7320456 L141.158549,42.7049548 L141.158549,42.7049548 L140.884184,42.6813698 L140.884184,42.6813698 L140.604061,42.6608738 L140.604061,42.6608738 L140.318336,42.64305 L140.318336,42.64305 L139.879593,42.6204127 L139.879593,42.6204127 L139.276481,42.5956921 L139.276481,42.5956921 L137.520948,42.5341097 L137.520948,42.5341097 L137.187941,42.5200831 L137.187941,42.5200831 L136.510518,42.4858752 L136.510518,42.4858752 L136.166421,42.4648602 L136.166421,42.4648602 L135.818944,42.4406821 L135.818944,42.4406821 L135.468246,42.4129241 L135.468246,42.4129241 L135.114486,42.3811693 C135.05528,42.3755206 134.995953,42.3696881 134.936508,42.3636629 L134.578453,42.3251316 L134.578453,42.3251316 L134.217732,42.2815615 C134.036732,42.2584473 133.854792,42.2332873 133.672001,42.205847 L133.305312,42.1478566 L133.305312,42.1478566 C132.502386,42.0143094 131.671878,41.4677319 130.819327,40.7658427 L130.562906,40.5508742 L130.562906,40.5508742 L130.305195,40.3281334 L130.305195,40.3281334 L129.916285,39.9828315 L129.916285,39.9828315 L129.130432,39.2710769 L129.130432,39.2710769 L128.866224,39.0332282 L128.866224,39.0332282 L128.600942,38.7976581 C128.556641,38.7586722 128.512296,38.7198457 128.467909,38.6812108 L128.201079,38.451958 C126.775317,37.2442871 125.307299,36.2987774 123.819707,36.6710438 C113.374979,39.2848169 106.9256,47.5745845 108.610643,54.3578754 C110.295694,61.1411644 120.128819,64.5212266 130.573551,61.907469 Z" id="Beak" stroke="#602A2C" stroke-width="3.5" fill="#FB8202"></path>
            <path d="M38.8314389,112.121942 C48.7792565,104.605268 57.5613475,98.2193569 65.1777118,92.9642098 C72.7940761,87.7090627 82.5754872,81.3390228 94.521945,73.8540899" id="Neck" stroke="#FFFFFF" stroke-width="4.5" stroke-linecap="square"></path>
        </g>
    </g>
</svg>