<?xml version="1.0" encoding="UTF-8"?>
<svg width="37px" height="37px" viewBox="0 0 37 37" version="1.1" xmlns="http://www.w3.org/2000/svg" xmlns:xlink="http://www.w3.org/1999/xlink">
    <title>logo</title>
    <g id="Symbols" stroke="none" stroke-width="1" fill="none" fill-rule="evenodd">
        <g id="Buttons/Google-Buttons/Google-Sign-in-Button-(Big)" transform="translate(-14.000000, -17.000000)">
            <g id="logo" transform="translate(14.410000, 17.800000)">
                <path d="M34.3,17.8977273 C34.3,16.6568182 34.1886364,15.4636364 33.9818182,14.3181818 L17.5,14.3181818 L17.5,21.0875 L26.9181818,21.0875 C26.5125,23.275 25.2795455,25.1284091 23.4261364,26.3693182 L23.4261364,30.7602273 L29.0818182,30.7602273 C32.3909091,27.7136364 34.3,23.2272727 34.3,17.8977273 L34.3,17.8977273 Z" id="Shape" fill="#4285F4"></path>
                <path d="M17.5,35 C22.225,35 26.1863636,33.4329545 29.0818182,30.7602273 L23.4261364,26.3693182 C21.8590909,27.4193182 19.8545455,28.0397727 17.5,28.0397727 C12.9420455,28.0397727 9.08409091,24.9613636 7.70795455,20.825 L1.86136364,20.825 L1.86136364,25.3590909 C4.74090909,31.0784091 10.6590909,35 17.5,35 L17.5,35 Z" id="Shape" fill="#34A853"></path>
                <path d="M7.70795455,20.825 C7.35795455,19.775 7.15909091,18.6534091 7.15909091,17.5 C7.15909091,16.3465909 7.35795455,15.225 7.70795455,14.175 L7.70795455,9.64090909 L1.86136364,9.64090909 C0.676136364,12.0034091 0,14.6761364 0,17.5 C0,20.3238636 0.676136364,22.9965909 1.86136364,25.3590909 L7.70795455,20.825 L7.70795455,20.825 Z" id="Shape" fill="#FBBC05"></path>
                <path d="M17.5,6.96022727 C20.0693182,6.96022727 22.3761364,7.84318182 24.1897727,9.57727273 L29.2090909,4.55795455 C26.1784091,1.73409091 22.2170455,0 17.5,0 C10.6590909,0 4.74090909,3.92159091 1.86136364,9.64090909 L7.70795455,14.175 C9.08409091,10.0386364 12.9420455,6.96022727 17.5,6.96022727 L17.5,6.96022727 Z" id="Shape" fill="#EA4335"></path>
                <polygon id="Shape" points="0 0 36 0 36 36 0 36"></polygon>
            </g>
        </g>
    </g>
</svg>