<?xml version="1.0" encoding="UTF-8"?>
<svg width="40px" height="40px" viewBox="0 0 40 40" version="1.1" xmlns="http://www.w3.org/2000/svg" xmlns:xlink="http://www.w3.org/1999/xlink">
    <title>copy.unselected.light</title>
    <g id="Symbols" stroke="none" stroke-width="1" fill="none" fill-rule="evenodd">
        <g id="copy.unselected.light">
            <path d="M9.89465082,0.00132264284 L29.7444592,0 C33.3105342,0 34.6036791,0.371302445 35.9073828,1.06853082 C37.2110865,1.76575919 38.2342408,2.78891348 38.9314692,4.09261719 L39.0710579,4.36294735 C39.6781457,5.58549632 40,6.93540204 40,10.2555408 L40,29.7444592 L39.9947169,30.450585 C39.9472357,33.4889492 39.5806128,34.6935897 38.9314692,35.9073828 C38.2342408,37.2110865 37.2110865,38.2342408 35.9073828,38.9314692 L35.6370527,39.0710579 C34.4145037,39.6781457 33.064598,40 29.7444592,40 L10.2555408,40 L9.54941498,39.9947169 C6.5110508,39.9472357 5.30641029,39.5806128 4.09261719,38.9314692 C2.78891348,38.2342408 1.76575919,37.2110865 1.06853082,35.9073828 L0.928942102,35.6370527 C0.344339052,34.4597833 0.0242323274,33.1644163 0.00132264284,30.1053492 L0,10.2555408 C0,6.68946584 0.371302445,5.39632089 1.06853082,4.09261719 C1.76575919,2.78891348 2.78891348,1.76575919 4.09261719,1.06853082 L4.36294735,0.928942102 C5.54021673,0.344339052 6.83558373,0.0242323274 9.89465082,0.00132264284 L9.89465082,0.00132264284 Z" id="Border" fill="#9B8FF7"></path>
            <path d="M30.0941882,1.00110395 L10.2555408,1 C7.15523901,1 5.88115612,1.24603676 4.56421604,1.95034401 C3.43478081,2.55437258 2.55437258,3.43478081 1.95034401,4.56421604 L1.79584995,4.86821525 C1.20964079,6.0879749 1,7.39372376 1,10.2555408 L1,29.7444592 C1,32.844761 1.24603676,34.1188439 1.95034401,35.435784 C2.55437258,36.5652192 3.43478081,37.4456274 4.56421604,38.049656 L4.86821525,38.2041501 C6.0879749,38.7903592 7.39372376,39 10.2555408,39 L29.7444592,39 L30.4283461,38.9955359 C33.0410273,38.9594365 34.220147,38.6997858 35.435784,38.049656 C36.5652192,37.4456274 37.4456274,36.5652192 38.049656,35.435784 L38.2041501,35.1317847 C38.7903592,33.9120251 39,32.6062762 39,29.7444592 L39,10.2555408 L38.9955359,9.57165389 C38.9594365,6.95897266 38.6997858,5.77985303 38.049656,4.56421604 C37.4456274,3.43478081 36.5652192,2.55437258 35.435784,1.95034401 L35.1317847,1.79584995 C33.9628484,1.23406617 32.7149394,1.01812383 30.0941882,1.00110395 Z" id="Background" fill="#FFFFFF"></path>
            <g id="Text" transform="translate(4.000000, 6.000000)" fill-rule="nonzero">
                <path d="M16.2033898,26.3661049 L31.6,26.3661049 C31.8209139,26.3661049 32,26.545191 32,26.7661049 L32,28.6 C32,28.8209139 31.8209139,29 31.6,29 L16.6033898,29 C16.3824759,29 16.2033898,28.8209139 16.2033898,28.6 L16.2033898,26.3661049 L16.2033898,26.3661049 Z" id="Path" fill="#9B8FF7"></path>
                <path d="M16.2033898,21.75 L27.2067797,21.75 C27.4276936,21.75 27.6067797,21.9290861 27.6067797,22.15 L27.6067797,23.9838951 C27.6067797,24.204809 27.4276936,24.3838951 27.2067797,24.3838951 L16.6033898,24.3838951 C16.3824759,24.3838951 16.2033898,24.204809 16.2033898,23.9838951 L16.2033898,21.75 L16.2033898,21.75 Z" id="Path" fill="#23C2B9"></path>
                <path d="M16.2033898,17.1338951 L31.6,17.1338951 C31.8209139,17.1338951 32,17.3129812 32,17.5338951 L32,19.3677903 C32,19.5887042 31.8209139,19.7677903 31.6,19.7677903 L16.6033898,19.7677903 C16.3824759,19.7677903 16.2033898,19.5887042 16.2033898,19.3677903 L16.2033898,17.1338951 L16.2033898,17.1338951 Z" id="Path" fill="#FEB76C"></path>
                <path d="M16.2033898,12.5177903 L27.2067797,12.5177903 C27.4276936,12.5177903 27.6067797,12.6968764 27.6067797,12.9177903 L27.6067797,14.7516854 C27.6067797,14.9725993 27.4276936,15.1516854 27.2067797,15.1516854 L16.6033898,15.1516854 C16.3824759,15.1516854 16.2033898,14.9725993 16.2033898,14.7516854 L16.2033898,12.5177903 L16.2033898,12.5177903 Z" id="Path" fill="#FD8C16"></path>
                <path d="M32,8.31526218 L32,10.1491573 C32,10.3700712 31.8209139,10.5491573 31.6,10.5491573 L16.6033898,10.5491573 C16.3824759,10.5491573 16.2033898,10.3700712 16.2033898,10.1491573 L16.2033898,8.31526218 C16.2033898,8.09434828 16.3824759,7.91526217 16.6033898,7.91526217 L31.6,7.91526217 C31.8209139,7.91526217 32,8.09434828 32,8.31526218 Z" id="Path" fill="#CC2E34"></path>
                <path d="M22.1050847,0 C22.6573695,0 23.1050847,0.44771525 23.1050847,1 L23.1050847,4.39999365 C23.1050847,4.87926449 22.716559,5.26779026 22.2372881,5.26779026 L22.1186441,5.26779026 C21.6928483,5.26664149 21.3144765,4.99599702 21.1776537,4.59277669 C20.761928,3.39546988 20.0801112,2.79681648 19.1322034,2.79681648 L14.1661017,2.79681648 C13.6138169,2.79681648 13.1661017,3.24453173 13.1661017,3.79681648 L13.1661017,28 C13.1661017,28.5522847 12.7183864,29 12.1661017,29 L3.35932203,29 C2.80703728,29 2.35932203,28.5522847 2.35932203,28 L2.35932203,27.3661049 C2.35932203,26.8138201 2.80703728,26.3661049 3.35932203,26.3661049 L3.7559322,26.3661049 C6.06101695,26.3661049 6.86101695,25.5243446 6.86101695,23.6100187 L6.86101695,3.79681648 C6.86101695,3.24453173 6.4133017,2.79681648 5.86101695,2.79681648 L3.81016949,2.79681648 C2.9300053,2.79681648 2.30163471,3.38726925 1.92505773,4.56817479 C1.79471508,4.98503544 1.40823953,5.26816129 0.971477814,5.26779026 L0.872625686,5.26779026 C0.390687827,5.26779026 0,4.87710244 0,4.39516458 L0,1 C0,0.44771525 0.44771525,0 1,0 L22.1050847,0 Z" id="Path" fill="#9B8FF7"></path>
            </g>
        </g>
    </g>
</svg>