<?xml version="1.0" encoding="UTF-8"?>
<svg width="32px" height="32px" viewBox="0 0 32 32" version="1.1" xmlns="http://www.w3.org/2000/svg" xmlns:xlink="http://www.w3.org/1999/xlink">
    <title>bold.unselect.light</title>
    <g id="Symbols" stroke="none" stroke-width="1" fill="none" fill-rule="evenodd">
        <g id="bold.unselect.light" fill="#7C7C7C">
            <path d="M18.7682657,5 C21.0629766,5 22.8246002,5.52523874 24.0531365,6.57571623 C25.2816728,7.62619372 25.895941,8.9267849 25.895941,10.4774898 C25.895941,11.7780809 25.4575646,12.893588 24.5808118,13.8240109 C23.99631,14.4442929 23.1412054,14.9345157 22.0154982,15.2946794 C23.7257073,15.6748522 24.9840098,16.3276489 25.7904059,17.2530696 C26.596802,18.1784902 27,19.3415189 27,20.7421555 C27,21.8826739 26.7131611,22.9081401 26.1394834,23.8185539 C25.5658057,24.7289677 24.7810578,25.4492951 23.7852399,25.9795362 C23.2196802,26.2821737 22.3903581,26.5091519 21.2972735,26.6604707 L20.9926199,26.6998636 C19.3365314,26.8999545 18.2378844,27 17.696679,27 L5,27 L5,5 L18.7682657,5 Z M16.1542435,17.8158254 L12.4199262,17.8158254 L12.4199262,22.2728513 L16.1704797,22.2728513 C17.4369004,22.2728513 18.3298893,22.0652569 18.8494465,21.6500682 C19.3690037,21.2348795 19.6287823,20.677126 19.6287823,19.9768076 C19.6287823,19.3265121 19.3717097,18.8037744 18.8575646,18.4085948 C18.3434194,18.0134152 17.4423124,17.8158254 16.1542435,17.8158254 Z M15.6671587,9.45702592 L12.4199262,9.45702592 L12.4199262,13.6289222 L15.6184502,13.6289222 C16.7658057,13.6289222 17.5640836,13.4463392 18.0132841,13.0811733 C18.4624846,12.7160073 18.6870849,12.1882674 18.6870849,11.4979536 C18.6870849,10.8576626 18.4624846,10.3574352 18.0132841,9.99727149 C17.5640836,9.63710778 16.7820418,9.45702592 15.6671587,9.45702592 Z" id="B-Shape"></path>
        </g>
    </g>
</svg>