<?xml version="1.0" encoding="UTF-8"?>
<svg width="32px" height="32px" viewBox="0 0 32 32" version="1.1" xmlns="http://www.w3.org/2000/svg" xmlns:xlink="http://www.w3.org/1999/xlink">
    <title>bold.selected.dark</title>
    <g id="Symbols" stroke="none" stroke-width="1" fill="none" fill-rule="evenodd">
        <g id="bold.selected.dark">
            <path d="M5.1277704,-2.07168062e-16 L26.8722296,2.07168062e-16 C28.6552671,-1.2037061e-16 29.3018396,0.185651222 29.9536914,0.534265408 C30.6055433,0.882879593 31.1171204,1.39445674 31.4657346,2.04630859 C31.8143488,2.69816044 32,3.34473292 32,5.1277704 L32,26.8722296 C32,28.6552671 31.8143488,29.3018396 31.4657346,29.9536914 C31.1171204,30.6055433 30.6055433,31.1171204 29.9536914,31.4657346 C29.3018396,31.8143488 28.6552671,32 26.8722296,32 L5.1277704,32 C3.34473292,32 2.69816044,31.8143488 2.04630859,31.4657346 C1.39445674,31.1171204 0.882879593,30.6055433 0.534265408,29.9536914 C0.185651222,29.3018396 8.02470732e-17,28.6552671 -1.38112041e-16,26.8722296 L1.38112041e-16,5.1277704 C-8.02470732e-17,3.34473292 0.185651222,2.69816044 0.534265408,2.04630859 C0.882879593,1.39445674 1.39445674,0.882879593 2.04630859,0.534265408 C2.69816044,0.185651222 3.34473292,1.2037061e-16 5.1277704,-2.07168062e-16 Z" id="Border" fill="#5445C4"></path>
            <path d="M5,5 L18.7682657,5 C21.0629766,5 22.8246002,5.52523874 24.0531365,6.57571623 C25.2816728,7.62619372 25.895941,8.9267849 25.895941,10.4774898 C25.895941,11.7780809 25.4575646,12.893588 24.5808118,13.8240109 C23.99631,14.4442929 23.1412054,14.9345157 22.0154982,15.2946794 C23.7257073,15.6748522 24.9840098,16.3276489 25.7904059,17.2530696 C26.596802,18.1784902 27,19.3415189 27,20.7421555 C27,21.8826739 26.7131611,22.9081401 26.1394834,23.8185539 C25.5658057,24.7289677 24.7810578,25.4492951 23.7852399,25.9795362 C23.1682657,26.3096862 22.2373924,26.5497954 20.9926199,26.6998636 C19.3365314,26.8999545 18.2378844,27 17.696679,27 L5,27 L5,5 Z M12.4199262,13.6289222 L15.6184502,13.6289222 C16.7658057,13.6289222 17.5640836,13.4463392 18.0132841,13.0811733 C18.4624846,12.7160073 18.6870849,12.1882674 18.6870849,11.4979536 C18.6870849,10.8576626 18.4624846,10.3574352 18.0132841,9.99727149 C17.5640836,9.63710778 16.7820418,9.45702592 15.6671587,9.45702592 L12.4199262,9.45702592 L12.4199262,13.6289222 Z M12.4199262,22.2728513 L16.1704797,22.2728513 C17.4369004,22.2728513 18.3298893,22.0652569 18.8494465,21.6500682 C19.3690037,21.2348795 19.6287823,20.677126 19.6287823,19.9768076 C19.6287823,19.3265121 19.3717097,18.8037744 18.8575646,18.4085948 C18.3434194,18.0134152 17.4423124,17.8158254 16.1542435,17.8158254 L12.4199262,17.8158254 L12.4199262,22.2728513 Z" id="B-Shape" fill="#9B8FF7"></path>
        </g>
    </g>
</svg>