<?xml version="1.0" encoding="UTF-8"?>
<svg width="32px" height="32px" viewBox="0 0 32 32" version="1.1" xmlns="http://www.w3.org/2000/svg" xmlns:xlink="http://www.w3.org/1999/xlink">
    <title>bulletedlist.unselect.light</title>
    <g id="Symbols" stroke="none" stroke-width="1" fill="none" fill-rule="evenodd">
        <g id="bulletedlist.unselect.light" fill="#7C7C7C">
            <path d="M5,10 C6.65685425,10 8,8.65685425 8,7 C8,5.34314575 6.65685425,4 5,4 C3.34314575,4 2,5.34314575 2,7 C2,8.65685425 3.34314575,10 5,10 Z M28.5,5.5 C29.3284271,5.5 30,6.17157288 30,7 C30,7.82842712 29.3284271,8.5 28.5,8.5 L12.5,8.5 C11.6715729,8.5 11,7.82842712 11,7 C11,6.17157288 11.6715729,5.5 12.5,5.5 L28.5,5.5 Z M5,19 C6.65685425,19 8,17.6568542 8,16 C8,14.3431458 6.65685425,13 5,13 C3.34314575,13 2,14.3431458 2,16 C2,17.6568542 3.34314575,19 5,19 Z M28.5,14.5 C29.3284271,14.5 30,15.1715729 30,16 C30,16.8284271 29.3284271,17.5 28.5,17.5 L12.5,17.5 C11.6715729,17.5 11,16.8284271 11,16 C11,15.1715729 11.6715729,14.5 12.5,14.5 L28.5,14.5 Z M5,28 C6.65685425,28 8,26.6568542 8,25 C8,23.3431458 6.65685425,22 5,22 C3.34314575,22 2,23.3431458 2,25 C2,26.6568542 3.34314575,28 5,28 Z M28.5,23.5 C29.3284271,23.5 30,24.1715729 30,25 C30,25.8284271 29.3284271,26.5 28.5,26.5 L12.5,26.5 C11.6715729,26.5 11,25.8284271 11,25 C11,24.1715729 11.6715729,23.5 12.5,23.5 L28.5,23.5 Z" id="Shape"></path>
        </g>
    </g>
</svg>