<?xml version="1.0" encoding="UTF-8"?>
<svg width="32px" height="32px" viewBox="0 0 32 32" version="1.1" xmlns="http://www.w3.org/2000/svg" xmlns:xlink="http://www.w3.org/1999/xlink">
    <title>7 Text Icons/1 Scroll/2 Contract/1 Light</title>
    <g id="7-Text-Icons/1-Scroll/2-Contract/1-Light" stroke="none" stroke-width="1" fill="none" fill-rule="evenodd">
        <g id="scroll.contract.light" transform="translate(8.000000, 0.000000)">
            <path d="M5.1277704,0.75 L10.8722296,0.75 C12.4428692,0.75 13.0229619,0.88702607 13.5999923,1.19562531 C14.1192095,1.47330573 14.5266943,1.88079048 14.8043747,2.40000774 C15.1129739,2.97703814 15.25,3.55713084 15.25,5.1277704 L15.25,26.8722296 C15.25,28.4428692 15.1129739,29.0229619 14.8043747,29.5999923 C14.5266943,30.1192095 14.1192095,30.5266943 13.5999923,30.8043747 C13.0229619,31.1129739 12.4428692,31.25 10.8722296,31.25 L5.1277704,31.25 C3.55713084,31.25 2.97703814,31.1129739 2.40000774,30.8043747 C1.88079048,30.5266943 1.47330573,30.1192095 1.19562531,29.5999923 C0.88702607,29.0229619 0.75,28.4428692 0.75,26.8722296 L0.75,5.1277704 C0.75,3.55713084 0.88702607,2.97703814 1.19562531,2.40000774 C1.47330573,1.88079048 1.88079048,1.47330573 2.40000774,1.19562531 C2.97703814,0.88702607 3.55713084,0.75 5.1277704,0.75 Z" id="Rectangle" stroke="#7C7C7C" stroke-width="1.5" fill="#FFFFFF"></path>
            <path d="M8.85749293,13.5708451 L13.0913025,6.51449576 C13.3754507,6.04091549 13.2218856,5.42665523 12.7483054,5.14250707 C12.59289,5.04925783 12.4150536,5 12.2338096,5 L3.76619038,5 C3.21390563,5 2.76619038,5.44771525 2.76619038,6 C2.76619038,6.18124395 2.81544821,6.35908035 2.90869745,6.51449576 L7.14250707,13.5708451 C7.42665523,14.0444254 8.04091549,14.1979905 8.51449576,13.9138423 C8.65524536,13.8293925 8.77304316,13.7115947 8.85749293,13.5708451 Z M8.85749293,18.4291549 L13.0913025,25.4855042 C13.3754507,25.9590845 13.2218856,26.5733448 12.7483054,26.8574929 C12.59289,26.9507422 12.4150536,27 12.2338096,27 L3.76619038,27 C3.21390563,27 2.76619038,26.5522847 2.76619038,26 C2.76619038,25.8187561 2.81544821,25.6409196 2.90869745,25.4855042 L7.14250707,18.4291549 C7.42665523,17.9555746 8.04091549,17.8020095 8.51449576,18.0861577 C8.65524536,18.1706075 8.77304316,18.2884053 8.85749293,18.4291549 Z" id="Shape" fill="#7C7C7C"></path>
        </g>
    </g>
</svg>