<?xml version="1.0" encoding="UTF-8"?>
<svg width="32px" height="32px" viewBox="0 0 32 32" version="1.1" xmlns="http://www.w3.org/2000/svg" xmlns:xlink="http://www.w3.org/1999/xlink">
    <title>7 Text Icons/1 Scroll/1 Extend/2 Dark</title>
    <g id="7-Text-Icons/1-Scroll/1-Extend/2-Dark" stroke="none" stroke-width="1" fill="none" fill-rule="evenodd">
        <g id="scroll.extend.dark" transform="translate(8.000000, 0.000000)">
            <path d="M5.1277704,0.75 L10.8722296,0.75 C12.4428692,0.75 13.0229619,0.88702607 13.5999923,1.19562531 C14.1192095,1.47330573 14.5266943,1.88079048 14.8043747,2.40000774 C15.1129739,2.97703814 15.25,3.55713084 15.25,5.1277704 L15.25,26.8722296 C15.25,28.4428692 15.1129739,29.0229619 14.8043747,29.5999923 C14.5266943,30.1192095 14.1192095,30.5266943 13.5999923,30.8043747 C13.0229619,31.1129739 12.4428692,31.25 10.8722296,31.25 L5.1277704,31.25 C3.55713084,31.25 2.97703814,31.1129739 2.40000774,30.8043747 C1.88079048,30.5266943 1.47330573,30.1192095 1.19562531,29.5999923 C0.88702607,29.0229619 0.75,28.4428692 0.75,26.8722296 L0.75,5.1277704 C0.75,3.55713084 0.88702607,2.97703814 1.19562531,2.40000774 C1.47330573,1.88079048 1.88079048,1.47330573 2.40000774,1.19562531 C2.97703814,0.88702607 3.55713084,0.75 5.1277704,0.75 Z" id="Rectangle" stroke="#FFFFFF" stroke-width="1.5" fill="#222222"></path>
            <path d="M8.85749293,5.42915488 L13.0913025,12.4855042 C13.3754507,12.9590845 13.2218856,13.5733448 12.7483054,13.8574929 C12.59289,13.9507422 12.4150536,14 12.2338096,14 L3.76619038,14 C3.21390563,14 2.76619038,13.5522847 2.76619038,13 C2.76619038,12.8187561 2.81544821,12.6409196 2.90869745,12.4855042 L7.14250707,5.42915488 C7.42665523,4.95557461 8.04091549,4.80200955 8.51449576,5.08615771 C8.65524536,5.17060747 8.77304316,5.28840527 8.85749293,5.42915488 Z M8.85749293,26.5708451 L13.0913025,19.5144958 C13.3754507,19.0409155 13.2218856,18.4266552 12.7483054,18.1425071 C12.59289,18.0492578 12.4150536,18 12.2338096,18 L3.76619038,18 C3.21390563,18 2.76619038,18.4477153 2.76619038,19 C2.76619038,19.1812439 2.81544821,19.3590804 2.90869745,19.5144958 L7.14250707,26.5708451 C7.42665523,27.0444254 8.04091549,27.1979905 8.51449576,26.9138423 C8.65524536,26.8293925 8.77304316,26.7115947 8.85749293,26.5708451 Z" id="Shape" fill="#FFFFFF"></path>
        </g>
    </g>
</svg>