<?xml version="1.0" encoding="UTF-8"?>
<svg width="32px" height="32px" viewBox="0 0 32 32" version="1.1" xmlns="http://www.w3.org/2000/svg" xmlns:xlink="http://www.w3.org/1999/xlink">
    <title>italic.selected.light</title>
    <g id="Symbols" stroke="none" stroke-width="1" fill="none" fill-rule="evenodd">
        <g id="italic.selected.light">
            <path d="M5.1277704,-2.07168062e-16 L26.8722296,2.07168062e-16 C28.6552671,-1.2037061e-16 29.3018396,0.185651222 29.9536914,0.534265408 C30.6055433,0.882879593 31.1171204,1.39445674 31.4657346,2.04630859 C31.8143488,2.69816044 32,3.34473292 32,5.1277704 L32,26.8722296 C32,28.6552671 31.8143488,29.3018396 31.4657346,29.9536914 C31.1171204,30.6055433 30.6055433,31.1171204 29.9536914,31.4657346 C29.3018396,31.8143488 28.6552671,32 26.8722296,32 L5.1277704,32 C3.34473292,32 2.69816044,31.8143488 2.04630859,31.4657346 C1.39445674,31.1171204 0.882879593,30.6055433 0.534265408,29.9536914 C0.185651222,29.3018396 8.02470732e-17,28.6552671 -1.38112041e-16,26.8722296 L1.38112041e-16,5.1277704 C-8.02470732e-17,3.34473292 0.185651222,2.69816044 0.534265408,2.04630859 C0.882879593,1.39445674 1.39445674,0.882879593 2.04630859,0.534265408 C2.69816044,0.185651222 3.34473292,1.2037061e-16 5.1277704,-2.07168062e-16 Z" id="Rectangle" fill="#9B8FF7"></path>
            <path d="M24.4391149,5 C24.8254453,5 25.0959137,5.35910756 24.9678506,5.70201546 L24.7544087,6.27353765 C24.6755481,6.48469846 24.4635732,6.62600637 24.225673,6.62600637 C23.3623537,6.62600637 22.7362403,6.79736472 22.3291019,7.11991948 C21.9156077,7.44750963 21.5024447,8.22491291 21.1360193,9.44104376 L16.9345963,23.276564 C16.7398959,23.9416127 16.6424645,24.3941224 16.6424645,24.6037259 C16.6424645,24.8063992 16.7103172,24.9340701 16.8698854,25.0413082 C17.1471958,25.2297304 17.7964227,25.3554811 18.7859008,25.3740991 C19.1501882,25.3809534 19.4107702,25.7078827 19.3157054,26.0387979 L19.1515193,26.6103201 C19.0854573,26.840278 18.8637078,27 18.6105085,27 L7.56078431,27 C7.18595906,27 6.91678552,26.6605218 7.02359957,26.3225096 L7.20420427,25.7509874 C7.2748773,25.5273432 7.49338761,25.3739936 7.74138901,25.3739936 C8.72920366,25.3739936 9.41825631,25.2053591 9.81621182,24.8986742 C10.2206019,24.5870305 10.6422586,23.8006459 11.028395,22.5578773 L15.1329731,9.15051831 C15.3714636,8.3700988 15.4887836,7.78943538 15.4887836,7.4271672 C15.4887836,7.20947114 15.4162244,7.06806858 15.2532312,6.95306122 C15.0647601,6.8200767 14.4040637,6.69019434 13.3524621,6.62486047 C12.9937112,6.602572 12.7497499,6.27273721 12.8522059,5.94851596 L13.0328106,5.37699377 C13.1034837,5.15334953 13.321994,5 13.5699954,5 L24.4391149,5 Z" id="I-Shape" fill="#5445C4"></path>
        </g>
    </g>
</svg>