<?xml version="1.0" encoding="UTF-8"?>
<svg width="32px" height="32px" viewBox="0 0 32 32" version="1.1" xmlns="http://www.w3.org/2000/svg" xmlns:xlink="http://www.w3.org/1999/xlink">
    <title>numberedlist.selected.light</title>
    <g id="Symbols" stroke="none" stroke-width="1" fill="none" fill-rule="evenodd">
        <g id="numberedlist.selected.light">
            <path d="M5.1277704,-2.07168062e-16 L26.8722296,2.07168062e-16 C28.6552671,-1.2037061e-16 29.3018396,0.185651222 29.9536914,0.534265408 C30.6055433,0.882879593 31.1171204,1.39445674 31.4657346,2.04630859 C31.8143488,2.69816044 32,3.34473292 32,5.1277704 L32,26.8722296 C32,28.6552671 31.8143488,29.3018396 31.4657346,29.9536914 C31.1171204,30.6055433 30.6055433,31.1171204 29.9536914,31.4657346 C29.3018396,31.8143488 28.6552671,32 26.8722296,32 L5.1277704,32 C3.34473292,32 2.69816044,31.8143488 2.04630859,31.4657346 C1.39445674,31.1171204 0.882879593,30.6055433 0.534265408,29.9536914 C0.185651222,29.3018396 8.02470732e-17,28.6552671 -1.38112041e-16,26.8722296 L1.38112041e-16,5.1277704 C-8.02470732e-17,3.34473292 0.185651222,2.69816044 0.534265408,2.04630859 C0.882879593,1.39445674 1.39445674,0.882879593 2.04630859,0.534265408 C2.69816044,0.185651222 3.34473292,1.2037061e-16 5.1277704,-2.07168062e-16 Z" id="Backgound" fill="#9B8FF7"></path>
            <path d="M28.5,5.5 C29.3284271,5.5 30,6.17157288 30,7 C30,7.82842712 29.3284271,8.5 28.5,8.5 L12.5,8.5 C11.6715729,8.5 11,7.82842712 11,7 C11,6.17157288 11.6715729,5.5 12.5,5.5 L28.5,5.5 Z M28.5,14.5 C29.3284271,14.5 30,15.1715729 30,16 C30,16.8284271 29.3284271,17.5 28.5,17.5 L12.5,17.5 C11.6715729,17.5 11,16.8284271 11,16 C11,15.1715729 11.6715729,14.5 12.5,14.5 L28.5,14.5 Z M28.5,23.5 C29.3284271,23.5 30,24.1715729 30,25 C30,25.8284271 29.3284271,26.5 28.5,26.5 L12.5,26.5 C11.6715729,26.5 11,25.8284271 11,25 C11,24.1715729 11.6715729,23.5 12.5,23.5 L28.5,23.5 Z M4.727461,28 C4.4075199,28 4.10205256,27.9552723 3.81105895,27.8658169 C3.52006535,27.7763615 3.24971237,27.6696363 3,27.5456414 L3,26.3377193 C3.2609416,26.4903143 3.52586405,26.6265534 3.79476736,26.7464364 C4.06367067,26.8663194 4.3521561,26.926261 4.66022366,26.926261 C4.99894151,26.926261 5.26549772,26.8655885 5.45989231,26.7442434 C5.6542869,26.6228984 5.75148419,26.4464547 5.75148419,26.2149123 C5.75148419,25.979258 5.6688757,25.7905245 5.5036587,25.6487116 C5.33844171,25.5068988 5.04758618,25.4359923 4.63109209,25.4359923 L3.76335772,25.4359923 L3.76335772,24.3702029 L4.65138755,24.3702029 C4.93708868,24.3702029 5.14694648,24.3102613 5.28096093,24.1903783 C5.41497538,24.0704952 5.4819826,23.9239766 5.4819826,23.7508224 C5.4819826,23.5870797 5.43823922,23.4585846 5.35075245,23.3653372 C5.26326568,23.2720897 5.14588798,23.2042672 4.99861936,23.1618695 C4.85135073,23.1194719 4.68935524,23.098273 4.51263289,23.098273 C4.30940218,23.098273 4.10175342,23.1228299 3.88968659,23.1719435 C3.67761977,23.2210572 3.41989967,23.3172515 3.1165263,23.4605263 L3.1165263,22.3780154 C3.33448387,22.2675439 3.57499195,22.1769234 3.83805053,22.1061541 C4.10110912,22.0353847 4.37222146,22 4.65138755,22 C4.92180956,22 5.1821989,22.0309987 5.43255557,22.0929962 C5.68291224,22.1549936 5.90632335,22.2507538 6.1027889,22.3802769 C6.29925445,22.5097999 6.45506006,22.6753015 6.57020572,22.8767818 C6.68535137,23.0782621 6.7429242,23.3184393 6.7429242,23.5973136 C6.7429242,23.760508 6.7128722,23.9099507 6.65276819,24.0456414 C6.59266418,24.1813322 6.51668277,24.3000503 6.42482397,24.4017955 C6.33296516,24.5035408 6.23740163,24.5840872 6.13813337,24.6434348 C6.03886511,24.7027823 5.95006673,24.7406341 5.87173823,24.7569901 C5.99130195,24.7897935 6.11645727,24.8482959 6.2472042,24.9324973 C6.37795113,25.0166986 6.50062129,25.1228299 6.61521469,25.2508909 C6.72980809,25.3789519 6.82258733,25.5298337 6.8935524,25.7035362 C6.96451747,25.8772387 7,26.0699013 7,26.2815241 C7,26.5903692 6.93800911,26.8532529 6.81402734,27.0701754 C6.69004556,27.287098 6.52098578,27.4639985 6.30684799,27.6008772 C6.0927102,27.7377558 5.85031525,27.838496 5.57966312,27.9030976 C5.309011,27.9676992 5.02494362,28 4.727461,28 Z M3,19 L3,17.9935911 C3.19406263,17.875336 3.40511466,17.7290331 3.63315608,17.5546827 C3.86119751,17.3803322 4.08509191,17.1870076 4.3048393,16.9747088 C4.52458669,16.7624101 4.72435704,16.5434957 4.90415036,16.3179657 C5.08394368,16.0924356 5.22833127,15.867365 5.33731313,15.6427538 C5.446295,15.4181426 5.50078593,15.207337 5.50078593,15.010337 C5.50078593,14.8021271 5.45855768,14.631429 5.3741012,14.4982427 C5.28964472,14.3650564 5.17334983,14.2671537 5.02521655,14.2045345 C4.87708326,14.1419153 4.70741224,14.1106057 4.51620347,14.1106057 C4.2416976,14.1106057 3.98743632,14.1735235 3.75341962,14.2993591 C3.51940292,14.4251947 3.28422684,14.582202 3.04789137,14.7703811 L3.04789137,13.5486872 C3.27450587,13.4063584 3.54065081,13.2793283 3.84632621,13.167597 C4.15200161,13.0558657 4.51428603,13 4.93317949,13 C5.35724558,13 5.71511544,13.0720373 6.00678907,13.2161119 C6.2984627,13.3601865 6.51865601,13.5669033 6.66736898,13.8362621 C6.81608196,14.105621 6.89043845,14.4310982 6.89043845,14.8126938 C6.89043845,15.089725 6.83719608,15.3527439 6.73071135,15.6017504 C6.62422661,15.8507569 6.48180105,16.0853835 6.30343467,16.3056302 C6.12506828,16.5258769 5.92830786,16.7321572 5.71315341,16.9244711 C5.5697171,17.0526803 5.42538897,17.1746721 5.280169,17.2904463 L4.74563614,17.6980911 L7,17.6980911 L7,19 L3,19 Z M4.33462158,10 L4.33462158,5.40512556 L3,6.0581428 L3,4.76461769 L4.52721417,4 L6,4 L6,10 L4.33462158,10 Z" id="Shape" fill="#5445C4"></path>
        </g>
    </g>
</svg>