<?xml version="1.0" encoding="UTF-8"?>
<svg width="32px" height="32px" viewBox="0 0 32 32" version="1.1" xmlns="http://www.w3.org/2000/svg" xmlns:xlink="http://www.w3.org/1999/xlink">
    <title>strikethrough.selected.dark</title>
    <g id="Symbols" stroke="none" stroke-width="1" fill="none" fill-rule="evenodd">
        <g id="strikethrough.selected.dark">
            <path d="M5.1277704,-2.07168062e-16 L26.8722296,2.07168062e-16 C28.6552671,-1.2037061e-16 29.3018396,0.185651222 29.9536914,0.534265408 C30.6055433,0.882879593 31.1171204,1.39445674 31.4657346,2.04630859 C31.8143488,2.69816044 32,3.34473292 32,5.1277704 L32,26.8722296 C32,28.6552671 31.8143488,29.3018396 31.4657346,29.9536914 C31.1171204,30.6055433 30.6055433,31.1171204 29.9536914,31.4657346 C29.3018396,31.8143488 28.6552671,32 26.8722296,32 L5.1277704,32 C3.34473292,32 2.69816044,31.8143488 2.04630859,31.4657346 C1.39445674,31.1171204 0.882879593,30.6055433 0.534265408,29.9536914 C0.185651222,29.3018396 8.02470732e-17,28.6552671 -1.38112041e-16,26.8722296 L1.38112041e-16,5.1277704 C-8.02470732e-17,3.34473292 0.185651222,2.69816044 0.534265408,2.04630859 C0.882879593,1.39445674 1.39445674,0.882879593 2.04630859,0.534265408 C2.69816044,0.185651222 3.34473292,1.2037061e-16 5.1277704,-2.07168062e-16 Z" id="Background" fill="#5445C4"></path>
            <path d="M25.1068335,17.5004678 C25.7001544,18.4503115 26,19.5111394 26,20.6751566 C26,22.4699722 25.1403595,24.1463169 23.4575184,25.6889633 C21.7651403,27.2403522 19.1099687,28 15.5060054,28 C14.6799477,28 13.8444683,27.937476 12.9997369,27.8125366 C12.152569,27.6872369 11.3155305,27.4938679 10.4932787,27.2339013 L9.75208152,27.0056639 C9.58325706,26.9662704 9.42121889,26.934412 9.26602596,26.9100381 C9.12255186,26.8875047 9.00609354,26.8766967 8.91941108,26.8766967 C8.64792792,26.8766967 8.51035186,26.9239377 8.4706997,26.9738622 C8.35929391,27.114129 8.25026183,27.3367423 8.15184239,27.6403927 L8.03528619,28 L6,28 L6,18.9351871 L8.0564422,18.9351871 L8.15961012,19.3210801 C8.77750909,21.6322912 9.76118925,23.2887563 11.1005551,24.3090246 C12.450045,25.3370048 13.9903275,25.8490396 15.7384735,25.8490396 C17.4238434,25.8490396 18.5828487,25.5089487 19.2313134,24.8671527 C19.9002337,24.2051114 20.2192948,23.5404276 20.2192948,22.8584784 C20.2192948,22.0535841 19.8963834,21.4155562 19.2249991,20.9026125 C18.8071158,20.5863036 17.9745154,20.1634462 16.742896,19.647709 L13.5700923,18.3591087 C12.8616842,18.0727562 12.2090833,17.7866678 11.6121095,17.5004678 L25.1068335,17.5004678 Z M29,15 L29,17 L3,17 L3,15 L29,15 Z M24.8376598,4 L24.8376598,12.0997213 L22.8410347,12.0997213 L22.7245281,11.7400091 C22.2241867,10.1952137 21.3436054,8.8663834 20.0760354,7.74615572 C18.8356254,6.64993094 17.3331717,6.10349684 15.5447501,6.10349684 C14.3064429,6.10349684 13.35285,6.37098357 12.6699587,6.89181996 C12.0128238,7.39301217 11.7032158,7.96767896 11.7032158,8.65106523 C11.7032158,9.50785755 11.9925509,10.1089633 12.5892028,10.5194053 L12.8076502,10.6650695 L13.0924252,10.8347608 C13.8209192,11.2491465 14.9969903,11.7922079 16.6089737,12.4555557 L20.2897177,13.9415201 C20.7330976,14.1208141 21.1482596,14.3068484 21.5352223,14.499795 L7.39270238,14.500728 C6.64709815,13.5207948 6.27121271,12.3669467 6.27121271,11.0558835 C6.27121271,9.32423309 7.02664937,7.71727592 8.50911607,6.25315647 C10.0062168,4.7745841 12.2628545,4.04746352 15.2541651,4.04746352 C16.7572228,4.04746352 18.2120594,4.2323471 19.6176116,4.60228611 L20.6729563,4.87301651 L21.4078224,5.04764034 L21.6815451,5.10420792 L21.7900772,5.12116826 C21.803093,5.12258938 21.8135439,5.12330327 21.8213871,5.12330327 C22.1208011,5.12330327 22.2799412,5.06938038 22.3325878,5.00488662 C22.4542099,4.85589545 22.559839,4.644338 22.6444883,4.36780961 L22.75708,4 L24.8376598,4 Z" id="Shape" fill="#9B8FF7"></path>
        </g>
    </g>
</svg>