<?xml version="1.0" encoding="UTF-8"?>
<svg width="32px" height="32px" viewBox="0 0 32 32" version="1.1" xmlns="http://www.w3.org/2000/svg" xmlns:xlink="http://www.w3.org/1999/xlink">
    <title>subscipt.unselect.dark</title>
    <g id="Symbols" stroke="none" stroke-width="1" fill="none" fill-rule="evenodd">
        <g id="subscipt.unselect.dark" fill="#FFFFFF">
            <path d="M26.5821845,21 C27.0841287,21 27.5401202,21.1632339 27.9501591,21.4897017 C28.3601979,21.8161695 28.5652174,22.295928 28.5652174,22.9289773 C28.5652174,23.2604167 28.4688936,23.600142 28.276246,23.9481534 C28.0835984,24.2961648 27.7592789,24.6740057 27.3032874,25.0816761 L25.6489926,26.5632102 L25.6489926,26.6477273 L27.1919406,26.6477273 C27.7292329,26.6477273 28.0800636,26.6062973 28.2444327,26.5234375 C28.4088017,26.4405777 28.5740544,26.2185133 28.7401909,25.8572443 L29,25.8572443 L28.5121951,28 L24,28 L24,27.7663352 L24.645175,27.1051136 C25.4409332,26.2804924 25.9787911,25.6839015 26.2587487,25.3153409 C26.796041,24.6193182 27.0646872,24.0028409 27.0646872,23.4659091 C27.0646872,23.1477273 26.9612937,22.8502604 26.7545069,22.5735085 C26.54772,22.2967566 26.2269353,22.1583807 25.7921527,22.1583807 C25.4103924,22.1583807 25.0887239,22.2826705 24.8271474,22.53125 C24.6857547,22.6671402 24.5602686,22.8494318 24.4506893,23.078125 L24.1537646,23.078125 C24.3941322,22.3721591 24.7264051,21.8493134 25.1505832,21.5095881 C25.5747614,21.1698627 26.0519618,21 26.5821845,21 Z M14.1716738,6 L14.1716738,6.75144509 L13.6881022,6.78058568 C13.0099197,6.828596 12.5440239,6.89595376 12.2904149,6.98265896 C11.9804483,7.08863198 11.8254649,7.33911368 11.8254649,7.73410405 C11.8254649,7.90751445 11.8636147,8.0761079 11.9399142,8.23988439 C11.9971388,8.36271676 12.0731402,8.50180636 12.1679185,8.65715318 L15.1158798,13.2687861 L16.5051661,11.2954399 C17.2893552,10.1736245 17.7895406,9.43930636 18.0057225,9.09248555 C18.3299952,8.57225434 18.4921316,8.13872832 18.4921316,7.79190751 C18.4921316,7.36801541 18.2536958,7.07899807 17.776824,6.92485549 C17.5002384,6.83815029 17.0233667,6.78034682 16.3462089,6.75144509 L16.3462089,6 L23.6709585,6 L23.6709585,6.75144509 C22.3738674,6.87668593 21.3485932,7.31743738 20.5951359,8.07369942 L20.4333174,8.24283879 C19.6262385,9.11562835 18.0921952,11.1570328 15.8311874,14.367052 L21.1530758,22.7196532 C21.8493085,23.8082852 22.3619456,24.482659 22.6909871,24.7427746 C23.0200286,25.0028902 23.4563662,25.1714836 24,25.2485549 L24,26 L14.0286123,26 L14.0286123,25.2485549 L14.4679649,25.2256246 C15.0837205,25.1883629 15.504747,25.1382028 15.7310443,25.0751445 C16.1602289,24.9499037 16.3748212,24.699422 16.3748212,24.3236994 C16.3748212,24.1791908 16.3295184,23.9792871 16.2389127,23.7239884 C16.163408,23.5112396 16.039885,23.2600219 15.8683437,22.9703356 L12.8125894,17.9942197 L11.6967096,19.4971098 C10.7525036,20.77842 10.1134955,21.6743738 9.77968526,22.1849711 C9.22651407,23.0423892 8.94992847,23.6493256 8.94992847,24.0057803 C8.94992847,24.5260116 9.28850739,24.8824663 9.96566524,25.0751445 C10.3471626,25.1907514 10.8001907,25.2485549 11.3247496,25.2485549 L11.3247496,26 L4,26 L4,25.2485549 C4.74391989,25.1136802 5.27801621,24.9739884 5.60228898,24.8294798 C6.12684788,24.588632 6.60848832,24.1840077 7.0472103,23.6156069 L12.1688126,17.0693642 L6.37482117,8.47109827 C5.94563662,7.84489403 5.56890796,7.40895954 5.24463519,7.1632948 C4.92036242,6.91763006 4.51502146,6.78034682 4.0286123,6.75144509 L4.0286123,6 L14.1716738,6 Z" id="Shape"></path>
        </g>
    </g>
</svg>