<?xml version="1.0" encoding="UTF-8"?>
<svg width="32px" height="32px" viewBox="0 0 32 32" version="1.1" xmlns="http://www.w3.org/2000/svg" xmlns:xlink="http://www.w3.org/1999/xlink">
    <title>underline.selected.dark</title>
    <g id="Symbols" stroke="none" stroke-width="1" fill="none" fill-rule="evenodd">
        <g id="underline.selected.dark">
            <path d="M5.1277704,-2.07168062e-16 L26.8722296,2.07168062e-16 C28.6552671,-1.2037061e-16 29.3018396,0.185651222 29.9536914,0.534265408 C30.6055433,0.882879593 31.1171204,1.39445674 31.4657346,2.04630859 C31.8143488,2.69816044 32,3.34473292 32,5.1277704 L32,26.8722296 C32,28.6552671 31.8143488,29.3018396 31.4657346,29.9536914 C31.1171204,30.6055433 30.6055433,31.1171204 29.9536914,31.4657346 C29.3018396,31.8143488 28.6552671,32 26.8722296,32 L5.1277704,32 C3.34473292,32 2.69816044,31.8143488 2.04630859,31.4657346 C1.39445674,31.1171204 0.882879593,30.6055433 0.534265408,29.9536914 C0.185651222,29.3018396 8.02470732e-17,28.6552671 -1.38112041e-16,26.8722296 L1.38112041e-16,5.1277704 C-8.02470732e-17,3.34473292 0.185651222,2.69816044 0.534265408,2.04630859 C0.882879593,1.39445674 1.39445674,0.882879593 2.04630859,0.534265408 C2.69816044,0.185651222 3.34473292,1.2037061e-16 5.1277704,-2.07168062e-16 Z" id="Rectangle" fill="#5445C4"></path>
            <path d="M6.65625,4.4609375 L16.2265625,4.4609375 L16.2265625,4.96679688 L15.7480469,4.96679688 C15.0279948,4.96679688 14.5335286,5.04199219 14.2646484,5.19238281 C13.9957682,5.34277344 13.804362,5.55013021 13.6904297,5.81445312 C13.5852614,6.05844351 13.5286324,6.64026673 13.5205425,7.5599228 L13.5195312,16.875 C13.5195312,18.5338542 13.6448568,19.6321615 13.8955078,20.1699219 C14.1461589,20.7076823 14.5585938,21.1542969 15.1328125,21.5097656 C15.7070312,21.8652344 16.4316406,22.0429688 17.3066406,22.0429688 C18.3092448,22.0429688 19.163737,21.8173828 19.8701172,21.3662109 C20.5764974,20.9150391 21.1051432,20.2929688 21.4560547,19.5 C21.8069661,18.7070312 21.9824219,17.3261719 21.9824219,15.3574219 L21.9824219,7.796875 C21.9824219,6.96744792 21.8958333,6.375 21.7226562,6.01953125 C21.5494792,5.6640625 21.3307292,5.41796875 21.0664062,5.28125 C20.65625,5.07161458 20.077474,4.96679688 19.3300781,4.96679688 L19.3300781,4.4609375 L25.7421875,4.4609375 L25.7421875,4.96679688 L25.359375,4.96679688 C24.8398438,4.96679688 24.406901,5.07161458 24.0605469,5.28125 C23.7141927,5.49088542 23.4635417,5.80533854 23.3085938,6.22460938 C23.1901042,6.51627604 23.1308594,7.04036458 23.1308594,7.796875 L23.1308594,14.8378906 C23.1308594,17.016276 22.9873047,18.5885417 22.7001953,19.5546875 C22.4130859,20.5208333 21.7135417,21.4095052 20.6015625,22.2207031 C19.4895833,23.031901 17.9720052,23.4375 16.0488281,23.4375 C14.4446615,23.4375 13.2050781,23.2233073 12.3300781,22.7949219 C11.1360677,22.2115885 10.2929688,21.4641927 9.80078125,20.5527344 C9.30859375,19.641276 9.0625,18.4153646 9.0625,16.875 L9.0625,7.796875 C9.0625,6.73046875 9.00325521,6.06738281 8.88476562,5.80761719 C8.76627604,5.54785156 8.56119792,5.34049479 8.26953125,5.18554688 C7.97786458,5.03059896 7.44010417,4.95768229 6.65625,4.96679688 L6.65625,4.4609375 Z M6,25 L25.7421875,25 L25.7421875,28.5 L6,28.5 L6,25 Z" id="Shape" fill="#9B8FF7"></path>
        </g>
    </g>
</svg>