<?xml version="1.0" encoding="UTF-8"?>
<svg width="72px" height="72px" viewBox="0 0 72 72" version="1.1" xmlns="http://www.w3.org/2000/svg" xmlns:xlink="http://www.w3.org/1999/xlink">
    <title>Group 2</title>
    <g id="Page-1" stroke="none" stroke-width="1" fill="none" fill-rule="evenodd">
        <g id="Artboard" transform="translate(-14.000000, -14.000000)">
            <g id="Group-2" transform="translate(14.000000, 14.000000)">
                <rect id="Rectangle" stroke="#979797" fill="#FFFFFF" x="0.5" y="0.5" width="71" height="71" rx="8"></rect>
                <g id="Thalita-Torres-Office-Painting-palette" transform="translate(8.000000, 7.000000)" fill-rule="nonzero">
                    <path d="M4.5,53 C3.66990291,53 3,52.3300971 3,51.5 C3,50.6699029 3.66990291,50 4.5,50 C5.33009709,50 6,50.6699029 6,51.5 C6,52.3300971 5.33009709,53 4.5,53 Z M4.5,51.0194175 C4.23786408,51.0194175 4.01941748,51.2378641 4.01941748,51.5 C4.01941748,51.7621359 4.23786408,51.9805825 4.5,51.9805825 C4.76213592,51.9805825 4.98058252,51.7621359 4.98058252,51.5 C4.98058252,51.2378641 4.76213592,51.0194175 4.5,51.0194175 Z" id="Shape" fill="#F16723"></path>
                    <circle id="Oval" fill="#000000" cx="46.5" cy="28.5" r="1"></circle>
                    <circle id="Oval" fill="#000000" cx="47.5" cy="2.5" r="1"></circle>
                    <circle id="Oval" fill="#000000" cx="1.5" cy="14.5" r="1"></circle>
                    <circle id="Oval" fill="#000000" cx="44.5" cy="2.5" r="1"></circle>
                    <path d="M49.5,27 C48.6680672,27 48,26.3319328 48,25.5 C48,24.6680672 48.6680672,24 49.5,24 C50.3319328,24 51,24.6680672 51,25.5 C51,26.3319328 50.3319328,27 49.5,27 Z M49.5,24.8823529 C49.1596639,24.8823529 48.8823529,25.1596639 48.8823529,25.5 C48.8823529,25.8403361 49.1596639,26.1176471 49.5,26.1176471 C49.8403361,26.1176471 50.1176471,25.8403361 50.1176471,25.5 C50.1176471,25.1596639 49.8403361,24.8823529 49.5,24.8823529 Z" id="Shape" fill="#FBD20A"></path>
                    <path d="M55.5,49 L55,49 L55,48.5 C55,48.2285714 54.7714286,48 54.5,48 C54.2285714,48 54,48.2285714 54,48.5 L54,49 L53.5,49 C53.2285714,49 53,49.2285714 53,49.5 C53,49.7714286 53.2285714,50 53.5,50 L54,50 L54,50.5 C54,50.7714286 54.2285714,51 54.5,51 C54.7714286,51 55,50.7714286 55,50.5 L55,50 L55.5,50 C55.7714286,50 56,49.7714286 56,49.5 C56,49.2285714 55.7714286,49 55.5,49 Z" id="Path" fill="#F16723"></path>
                    <path d="M52.5626428,40.1020224 C52.5489765,40.1020224 52.5489765,40.1020224 52.5353103,40.1020224 C46.3991782,40.1020224 41.4110084,35.1376448 41.4110084,29.0003623 C41.4110084,22.8630848 46.385512,17.8987072 52.5353103,17.8987072 C52.5489765,17.8987072 52.5489765,17.8987072 52.5626428,17.8987072 C53.6286078,17.8987072 54.3392512,16.7803584 53.8336011,15.8393088 C49.0914232,6.97434879 39.7027311,0.946175983 28.9200846,1.00036234 C13.4362589,1.08255998 1,13.5480576 1,29.0003623 C1,44.4663104 13.5592549,57 29.0567468,57 C39.7847284,57 49.0914232,50.999104 53.8199349,42.1750592 C54.325585,41.2340096 53.642274,40.088384 52.5626428,40.1020224 Z M35.0835492,48.9669824 C32.8696218,48.9669824 31.0656809,47.1667136 31.0656809,44.9572928 C31.0656809,42.747872 32.8696218,40.9476032 35.0835492,40.9476032 C37.2974766,40.9476032 39.1014174,42.747872 39.1014174,44.9572928 C39.1014174,47.1667136 37.2974766,48.9669824 35.0835492,48.9669824 Z" id="Shape" fill="#FFE4B8"></path>
                    <path d="M52.5542282,40.0923923 C52.540482,40.0923923 52.540482,40.0923923 52.5267358,40.0923923 C46.3546817,40.0923923 41.3373104,35.1291914 41.3373104,28.993366 C41.3373104,22.8575406 46.3409355,17.8943397 52.5267358,17.8943397 C52.540482,17.8943397 52.540482,17.8943397 52.5542282,17.8943397 C53.6264336,17.8943397 54.3412372,16.7762559 53.832627,15.8354294 C49.0626876,6.97257051 39.6190326,0.945826489 28.7732627,1 C28.1821752,1 27.5910876,1.02763749 27,1.068543 C36.9660116,1.7366662 45.5161622,7.54524755 49.9836846,15.8354294 C50.4922948,16.7762559 49.7774912,17.9079748 48.7052858,17.8943397 C48.6915396,17.8943397 48.6915396,17.8943397 48.6777934,17.8943397 C42.5057394,17.8943397 38.4506036,22.8575406 38.4506036,28.993366 C38.4506036,35.1291914 42.4919931,40.0923923 48.6777934,40.0923923 C48.6915396,40.0923923 48.6915396,40.0923923 48.7052858,40.0923923 C49.7912375,40.0923923 50.4922948,41.2241112 49.9699383,42.1785729 C45.5024159,50.4687548 36.9660116,56.263701 27,56.9318242 C27.6323263,56.9727297 28.2646525,57 28.910725,57 C39.7015099,57 49.0626876,51.0005263 53.8188807,42.1785729 C54.327491,41.2241112 53.6401798,40.0787572 52.5542282,40.0923923 Z" id="Path" fill="#E7D0A9"></path>
                    <path d="M3.79357798,29.0136386 C3.79357798,14.0930346 16.1513761,1.94106186 31,1.05455431 C30.3807339,1.01363858 29.7477064,1 29.1146789,1 C13.5229358,1.08183147 1,13.5474915 1,29 C1,44.4661471 13.646789,57 29.2522936,57 C29.8440367,57 30.4220183,56.9863614 31,56.9454457 C16.206422,56.0725767 3.79357798,43.9069654 3.79357798,29.0136386 Z" id="Path" fill="#FFFFFF"></path>
                    <path d="M8.5,4 L8,4 L8,3.5 C8,3.22857143 7.77142857,3 7.5,3 C7.22857143,3 7,3.22857143 7,3.5 L7,4 L6.5,4 C6.22857143,4 6,4.22857143 6,4.5 C6,4.77142857 6.22857143,5 6.5,5 L7,5 L7,5.5 C7,5.77142857 7.22857143,6 7.5,6 C7.77142857,6 8,5.77142857 8,5.5 L8,5 L8.5,5 C8.77142857,5 9,4.77142857 9,4.5 C9,4.22857143 8.77142857,4 8.5,4 Z" id="Path" fill="#4E9BD4"></path>
                    <circle id="Oval" fill="#000000" cx="50.5" cy="53.5" r="1"></circle>
                    <path d="M29.0652589,58 C23.5905911,58 18.2397223,56.476934 13.6178922,53.5817365 C9.11986117,50.7688668 5.47466779,46.775964 3.09497551,42.0558316 C2.88864381,41.6441921 3.05370917,41.1502247 3.46637257,40.944405 C3.87903597,40.7385853 4.37423205,40.9032411 4.58056376,41.3148805 C6.83645702,45.7605867 10.2615632,49.5202271 14.5119963,52.1821623 C18.8724729,54.912704 23.9069664,56.3534422 29.0790144,56.3534422 C39.2167786,56.3534422 48.4879497,50.8100308 53.2748451,41.8774545 C53.426155,41.6030282 53.3161115,41.3697658 53.2610897,41.2737166 C53.2060679,41.1913887 53.054758,40.985569 52.7383827,40.985569 L52.7108718,40.985569 C46.0807465,40.985569 40.6886114,35.6068133 40.6886114,28.9931393 C40.6886114,28.5403359 41.0600084,28.1698604 41.5139382,28.1698604 C41.9678679,28.1698604 42.339265,28.5403359 42.339265,28.9931393 C42.339265,34.7012065 46.988606,39.3390111 52.7108718,39.3390111 L52.7383827,39.3390111 C53.5361986,39.3390111 54.2652373,39.7506506 54.6779007,40.422995 C55.0905641,41.1090608 55.1043195,41.9323397 54.7329225,42.6458481 C49.6434072,52.1135557 39.8082628,58 29.0652589,58 Z M35.1314109,50.082801 C32.3390552,50.082801 30.0694065,47.818784 30.0694065,45.033357 C30.0694065,42.24793 32.3390552,39.9839129 35.1314109,39.9839129 C37.9237666,39.9839129 40.1934153,42.24793 40.1934153,45.033357 C40.1934153,47.818784 37.9237666,50.082801 35.1314109,50.082801 Z M35.1314109,41.6304708 C33.2469147,41.6304708 31.7200601,43.1535368 31.7200601,45.033357 C31.7200601,46.9131772 33.2469147,48.4362432 35.1314109,48.4362432 C37.0159071,48.4362432 38.5427617,46.9131772 38.5427617,45.033357 C38.5427617,43.1535368 37.0159071,41.6304708 35.1314109,41.6304708 Z M2.99868738,40.7111427 C2.68231211,40.7111427 2.36593683,40.5190442 2.24213781,40.203454 C1.69191995,38.899929 1.25174565,37.5552401 0.894104036,36.1968299 C0.784060463,35.7577478 1.04541395,35.3049444 1.48558825,35.1951739 C1.92576254,35.0854034 2.37969228,35.3461084 2.48973586,35.7851904 C2.81986658,37.0749941 3.24628542,38.3373551 3.75523695,39.5722735 C3.93405776,39.9976343 3.72772606,40.4778803 3.31506266,40.6425361 C3.21877453,40.6974213 3.10873096,40.7111427 2.99868738,40.7111427 Z M1.29301199,34.9619115 C0.907859483,34.9619115 0.563973315,34.6874852 0.481440635,34.2895671 C0.137554467,32.5195174 0,30.9827301 0,28.9931393 C0,21.2543175 2.99868738,13.9820203 8.44584428,8.53465815 C13.8930012,3.07357464 21.1696325,0.0411639461 28.9277044,0 C28.9827262,0 29.0239926,0 29.0790144,0 C39.8357737,0 49.6571626,5.87272297 54.7329225,15.3678732 C55.1043195,16.053939 55.0905641,16.8772179 54.6779007,17.5495623 C54.2652373,18.2356281 53.5361986,18.6472676 52.7246273,18.6472676 L52.6971164,18.6472676 C48.0615308,18.6472676 43.9624077,21.7620062 42.710662,26.2077123 C42.586863,26.6467944 42.1329333,26.9074994 41.692759,26.7840076 C41.2525847,26.6605157 40.9912312,26.2077123 41.1150302,25.7686302 C42.5593521,20.6094157 47.3187367,17.0007097 52.6971164,17.0007097 L52.7246273,17.0007097 C52.9447144,17.0007097 53.1510461,16.8909392 53.2610897,16.6988408 C53.3161115,16.5890703 53.4123996,16.3832505 53.2748451,16.1362669 C48.4879497,7.18996925 39.2167786,1.64655784 29.0652589,1.64655784 C29.0239926,1.64655784 28.9689708,1.64655784 28.9277044,1.64655784 C21.6098068,1.68772179 14.7458389,4.54175538 9.61505725,9.68724864 C4.48427563,14.8327419 1.65065361,21.6933996 1.65065361,28.9931393 C1.65065361,30.8866809 1.78820807,32.327419 2.10458335,33.9876981 C2.18711603,34.4405015 1.89825165,34.8658623 1.45807735,34.9481902 C1.40305556,34.9619115 1.34803378,34.9619115 1.29301199,34.9619115 Z" id="Shape" fill="#000000"></path>
                    <ellipse id="Oval" fill="#EE3C7A" cx="21" cy="15" rx="4" ry="6"></ellipse>
                    <ellipse id="Oval" fill="#FFFFFF" cx="18" cy="15" rx="4" ry="6"></ellipse>
                    <ellipse id="Oval" fill="#F05F88" transform="translate(18.564984, 14.969995) rotate(-1.151235) translate(-18.564984, -14.969995) " cx="18.5649838" cy="14.9699948" rx="3.34800716" ry="5.77668448"></ellipse>
                    <g id="Group" transform="translate(30.000000, 6.000000)">
                        <ellipse id="Oval" fill="#3769A5" cx="6.99152542" cy="6" rx="4.00847458" ry="6"></ellipse>
                        <ellipse id="Oval" fill="#FFFFFF" cx="4.00847458" cy="6" rx="4.00847458" ry="6"></ellipse>
                        <ellipse id="Oval" fill="#4E9BD4" cx="5.0472155" cy="6" rx="3.24939467" ry="6"></ellipse>
                    </g>
                    <g id="Group" transform="translate(6.000000, 24.000000)">
                        <ellipse id="Oval" fill="#FAAF1A" cx="6.98666667" cy="6" rx="4.01333333" ry="6"></ellipse>
                        <ellipse id="Oval" fill="#FFFFFF" cx="4.01333333" cy="6" rx="4.01333333" ry="6"></ellipse>
                        <ellipse id="Oval" fill="#FBD20A" cx="5.04" cy="6" rx="3.25333333" ry="6"></ellipse>
                    </g>
                    <g id="Group" transform="translate(13.000000, 38.000000)">
                        <ellipse id="Oval" fill="#F05225" cx="6.98666667" cy="6" rx="4.01333333" ry="6"></ellipse>
                        <ellipse id="Oval" fill="#FFFFFF" cx="4.01333333" cy="6" rx="4.01333333" ry="6"></ellipse>
                        <ellipse id="Oval" fill="#F16723" cx="5.04" cy="6" rx="3.25333333" ry="6"></ellipse>
                    </g>
                    <path d="M18.5,21 C14.9189189,21 12,18.0810811 12,14.5 C12,10.9189189 14.9189189,8 18.5,8 C22.0810811,8 25,10.9189189 25,14.5 C25,18.0810811 22.0810811,21 18.5,21 Z M18.5,9.62162162 C15.8108108,9.62162162 13.6216216,11.8108108 13.6216216,14.5 C13.6216216,17.1891892 15.8108108,19.3783784 18.5,19.3783784 C21.1891892,19.3783784 23.3783784,17.1891892 23.3783784,14.5 C23.3783784,11.8108108 21.1891892,9.62162162 18.5,9.62162162 Z" id="Shape" fill="#000000"></path>
                    <path d="M35.5,18 C31.9189189,18 29,15.0810811 29,11.5 C29,7.91891892 31.9189189,5 35.5,5 C39.0810811,5 42,7.91891892 42,11.5 C42,15.0810811 39.0810811,18 35.5,18 Z M35.5,6.62162162 C32.8108108,6.62162162 30.6216216,8.81081081 30.6216216,11.5 C30.6216216,14.1891892 32.8108108,16.3783784 35.5,16.3783784 C38.1891892,16.3783784 40.3783784,14.1891892 40.3783784,11.5 C40.3783784,8.81081081 38.1891892,6.62162162 35.5,6.62162162 Z" id="Shape" fill="#000000"></path>
                    <path d="M11.5,37 C7.91891892,37 5,34.0810811 5,30.5 C5,26.9189189 7.91891892,24 11.5,24 C15.0810811,24 18,26.9189189 18,30.5 C18,34.0810811 15.0810811,37 11.5,37 Z M11.5,25.6216216 C8.81081081,25.6216216 6.62162162,27.8108108 6.62162162,30.5 C6.62162162,33.1891892 8.81081081,35.3783784 11.5,35.3783784 C14.1891892,35.3783784 16.3783784,33.1891892 16.3783784,30.5 C16.3783784,27.8108108 14.1891892,25.6216216 11.5,25.6216216 Z" id="Shape" fill="#000000"></path>
                    <path d="M18.5,51 C14.9189189,51 12,48.0810811 12,44.5 C12,40.9189189 14.9189189,38 18.5,38 C22.0810811,38 25,40.9189189 25,44.5 C25,48.0810811 22.0810811,51 18.5,51 Z M18.5,39.6216216 C15.8108108,39.6216216 13.6216216,41.8108108 13.6216216,44.5 C13.6216216,47.1891892 15.8108108,49.3783784 18.5,49.3783784 C21.1891892,49.3783784 23.3783784,47.1891892 23.3783784,44.5 C23.3783784,41.8108108 21.1891892,39.6216216 18.5,39.6216216 Z" id="Shape" fill="#000000"></path>
                </g>
            </g>
        </g>
    </g>
</svg>